<?xml version="1.0" encoding="UTF-8"?>
<svg id="_Layer_" data-name="&amp;lt;Layer&amp;gt;" xmlns="http://www.w3.org/2000/svg" viewBox="0 0 500 500">
  <defs>
    <style>
      .cls-1 {
        fill: #e93323;
      }

      .cls-2 {
        fill: #3a8223;
      }

      .cls-3 {
        fill: #fff;
      }
    </style>
  </defs>
  <polygon class="cls-3" points="250 0 625.01 0 625.01 500 250 500 250 0 250 0"/>
  <polygon class="cls-2" points="-125.01 0 250 0 250 500 -125.01 500 -125.01 0 -125.01 0"/>
  <path class="cls-1" d="M322.73,191.58l-1.03,45.5,43.02,14.88-43.6,13.08-.86,45.51-25.9-37.42-43.56,13.24,27.58-36.21-26.06-37.32,42.95,15.04,27.45-36.31h0ZM253.02,125.98c41.51,0,78.26,20.25,100.96,51.4-18.13-17.17-42.6-27.71-69.54-27.71-55.86,0-101.15,45.29-101.15,101.15s45.29,101.16,101.15,101.16c26.94,0,51.41-10.53,69.54-27.7-22.7,31.15-59.46,51.4-100.96,51.4-68.95,0-124.86-55.9-124.86-124.86s55.91-124.85,124.86-124.85h0Z"/>
</svg>