<?xml version="1.0" encoding="UTF-8"?>
<svg id="_Layer_" data-name="&amp;lt;Layer&amp;gt;" xmlns="http://www.w3.org/2000/svg" viewBox="0 0 500 500">
  <defs>
    <style>
      .cls-1 {
        fill: #4eacf8;
      }

      .cls-2 {
        fill: #902d14;
      }

      .cls-3 {
        fill: #f5c443;
      }

      .cls-4 {
        fill: #fff;
      }
    </style>
  </defs>
  <rect class="cls-1" x="-125" y="333.34" width="750" height="166.66"/>
  <rect class="cls-1" x="-125" width="750" height="166.66"/>
  <rect class="cls-4" x="-125" y="166.67" width="750" height="166.67"/>
  <g>
    <path class="cls-2" d="M313.87,249.4c-.12-.23-.44-.62-1.19-.64l-.51-.02c-19.16-.73-29.86-1.07-35.87-1.2,0-.1-.02-.21-.03-.31,1.27-.39,2.7-.9,4.19-1.42,3.21-1.14,6.85-2.44,9.3-2.61.53-.04,1.22,0,2.03.05,1.89.12,4.48.28,7.11-.54,2.33-.72,3.89-1.66,5.27-2.5,2.11-1.28,3.63-2.2,6.68-1.34.59.17,1.35.28,1.59-.15.24-.44-.27-.99-.68-1.36-1.3-1.19-4.79-1.8-7.17-.77-8.16,3.53-10.87,3.19-13.48,2.86-1.41-.18-2.87-.36-5.13.12-2.25.48-3.72.96-5.27,1.46-.75.24-1.52.49-2.42.76-1.56.46-2.37.61-2.98.61-.03-.09-.05-.18-.08-.26l33.21-15.11c.41-.15.69-.48.76-.9.07-.43-.09-.86-.41-1.12-.2-.17-.65-.4-1.35-.13-.21.08-22.7,8.5-34.09,12.77-.04-.08-.08-.16-.12-.24,1.02-.84,2.15-1.86,3.31-2.91,2.52-2.28,5.38-4.87,7.6-5.98.48-.24,1.13-.46,1.89-.73,1.79-.62,4.24-1.46,6.37-3.22,1.5-1.24,2.54-2.62,3.47-3.83,1.67-2.19,3-3.93,6.1-4.29.89-.11,1.37-.36,1.41-.75.06-.5-.63-.8-1.16-.99-1.65-.61-5.1.16-6.92,2.03-6.18,6.37-8.88,7.12-11.49,7.86-1.42.4-2.76.78-4.57,2.02-2.45,1.68-3.84,2.91-4.95,3.9-1.28,1.13-2.18,1.93-3.92,2.7-.03-.03-.06-.07-.09-.1,9.93-10.63,10.66-11.41,15.9-17.03l9.01-9.65c.32-.3.45-.71.35-1.13-.1-.42-.41-.75-.81-.87-.25-.07-.75-.12-1.28.38t-26.62,24.85c-.07-.06-.14-.11-.21-.17.63-1.17,1.28-2.55,1.96-3.98,1.46-3.07,3.11-6.56,4.73-8.43.35-.4.86-.85,1.46-1.38,1.42-1.26,3.37-2.98,4.67-5.43,1.14-2.16,1.57-3.92,1.95-5.48.59-2.4,1.01-4.13,3.78-5.68.78-.44,1.13-.85,1.02-1.23-.14-.48-.89-.5-1.45-.48-1.76.07-4.66,2.11-5.61,4.53-3.28,8.26-5.48,9.99-7.61,11.66-1.16.91-2.25,1.77-3.45,3.61-1.58,2.43-2.39,4.09-3.04,5.43-.77,1.57-1.31,2.68-2.62,4.06-.04-.02-.08-.04-.11-.06l12.8-34.18c.3-.68-.07-1.34-.6-1.58-.52-.23-1.25-.09-1.64.76l-.02.06c-.11.25-.63,1.38-2.59,5.68-3.31,7.28-9.03,19.85-12.46,27.38-.09-.03-.17-.05-.26-.07.13-1.32.21-2.84.29-4.41.17-3.4.36-7.26,1.14-9.6.17-.5.47-1.12.82-1.84.83-1.7,1.97-4.04,2.23-6.79.2-2.14-.04-3.91-.24-5.47-.35-2.59-.62-4.64,1.27-7.03.56-.71.71-1.22.47-1.53-.31-.39-1.02-.12-1.52.11-1.6.74-3.49,3.73-3.46,6.33.13,8.91-1.22,11.28-2.53,13.58-.73,1.29-1.43,2.5-1.84,4.76-.53,2.86-.64,4.71-.74,6.19-.11,1.74-.19,2.96-.87,4.73-.04,0-.09,0-.13,0l-.32-9.41c-.28-8.09-.3-8.75-.93-27.06.02-.73-.58-1.19-1.17-1.21-.57-.02-1.18.38-1.22,1.32v.28s0,0,0,0c-.09,2.74-.85,24.67-1.24,36.09-.09,0-.18.02-.27.02-.39-1.27-.9-2.7-1.43-4.19-1.14-3.21-2.44-6.84-2.61-9.3-.04-.53,0-1.22.05-2.02.12-1.89.28-4.48-.53-7.12-.72-2.33-1.66-3.89-2.5-5.26-1.28-2.11-2.2-3.63-1.35-6.69.24-.86.19-1.4-.15-1.59-.43-.24-.98.28-1.36.69-1.19,1.3-1.8,4.79-.77,7.17,3.52,8.15,3.19,10.94,2.86,13.63-.18,1.46-.34,2.84.11,4.99.6,2.84,1.2,4.59,1.69,6,.57,1.65.96,2.81,1.01,4.71-.04.01-.08.02-.13.04l-15.11-33.21c-.27-.69-.98-.9-1.52-.7-.55.2-.96.8-.64,1.7l.07.18h0c.81,2.17,8.65,23.1,12.7,33.91-.08.04-.16.08-.24.12-.85-1.03-1.87-2.16-2.93-3.33-2.4-2.65-4.87-5.39-5.97-7.58-.24-.47-.46-1.13-.72-1.89-.61-1.79-1.46-4.25-3.22-6.37-1.24-1.5-2.62-2.54-3.83-3.47-2.19-1.67-3.92-2.99-4.29-6.1-.11-.89-.36-1.37-.75-1.41-.49-.06-.81.63-1,1.16-1.21,3.34,1.21,5.93,4.01,8.94,1.26,1.35,2.56,2.74,3.64,4.32,1.01,1.47,1.6,3.23,2.16,4.93.55,1.66,1.12,3.37,2.09,4.78,1.66,2.41,2.88,3.8,3.87,4.92,1.15,1.3,1.96,2.21,2.73,3.96-.03.03-.06.06-.1.08l-3.77-3.52q-7.72-7.2-17.36-16.21l-5.55-5.18c-.54-.56-1.27-.44-1.69-.04-.41.39-.57,1.12.07,1.8l24.85,26.61c-.06.07-.11.14-.17.21-1.17-.62-2.54-1.28-3.97-1.95-3.08-1.46-6.57-3.12-8.44-4.74-.4-.35-.86-.87-1.39-1.47-1.25-1.42-2.97-3.36-5.41-4.65-2.16-1.14-3.92-1.57-5.48-1.95-2.4-.59-4.13-1.01-5.68-3.78-.44-.78-.85-1.12-1.23-1.01-.48.14-.5.89-.48,1.45.08,1.76,2.12,4.66,4.53,5.61,8.26,3.28,9.95,5.44,11.58,7.54.91,1.17,1.77,2.28,3.69,3.52,2.43,1.58,4.1,2.39,5.43,3.04,1.57.77,2.67,1.31,4.05,2.62-.02.04-.04.08-.06.12l-34.18-12.8c-.68-.3-1.33.07-1.57.6-.24.52-.1,1.26.75,1.65l.39.17h0c.63.29,2.21,1.01,5.94,2.7,7.13,3.24,19.39,8.83,26.8,12.2-.03.09-.05.17-.07.26-1.32-.13-2.85-.21-4.43-.29-3.4-.17-7.25-.36-9.58-1.14-.51-.17-1.13-.47-1.85-.83-1.7-.83-4.03-1.97-6.78-2.22-2.14-.2-3.92.03-5.48.24-2.59.34-4.63.62-7.03-1.27-.71-.55-1.22-.71-1.53-.47-.39.31-.12,1.02.11,1.52,1.47,3.16,5.26,3.31,9.27,3.48,1.82.07,3.7.15,5.53.49,1.76.32,3.42,1.15,5.02,1.96,1.56.78,3.17,1.59,4.85,1.9,2.88.54,4.73.65,6.22.74,1.72.1,2.94.18,4.71.86,0,.05,0,.09-.01.13-26.22.9-36.48,1.25-36.46,1.25-.78-.02-1.2.56-1.22,1.15-.02.59.37,1.2,1.14,1.22l36.55,1.25c0,.09.02.18.02.27-1.27.39-2.7.9-4.18,1.43-3.2,1.14-6.82,2.44-9.3,2.62-.53.04-1.22,0-2.01-.06-1.89-.12-4.48-.28-7.13.54-2.34.72-3.89,1.67-5.26,2.5-2.1,1.27-3.62,2.2-6.69,1.34-.86-.24-1.4-.19-1.59.15-.24.44.28.99.69,1.36,1.03.94,2.21,1.3,3.51,1.3,1.95,0,4.13-.8,6.4-1.63,1.71-.63,3.47-1.27,5.28-1.66,1.75-.38,3.6-.24,5.39-.11,1.74.13,3.54.26,5.21-.1,2.87-.61,4.62-1.21,6.03-1.7,1.63-.56,2.78-.95,4.68-1,.01.04.02.08.04.13l-33.21,15.12c-.69.27-.89.99-.69,1.54.15.41.53.74,1.09.74.18,0,.38-.03.6-.11l.18-.07h0c2.15-.81,23.09-8.65,33.92-12.7.04.08.08.16.12.24-1.02.84-2.15,1.86-3.32,2.92-2.52,2.28-5.38,4.87-7.6,5.98-.48.24-1.13.46-1.89.72-1.79.62-4.24,1.46-6.37,3.22-1.89,1.57-2.97,3.04-3.92,4.33-1.45,1.98-2.49,3.41-5.65,3.79-.89.11-1.37.36-1.41.75-.06.49.63.81,1.16,1,.61.22,1.19.32,1.75.32,2.54,0,4.72-2.03,7.18-4.33,1.35-1.26,2.75-2.56,4.33-3.65,1.47-1.01,3.23-1.6,4.93-2.16,1.66-.55,3.37-1.12,4.78-2.09,2.4-1.65,3.79-2.88,4.9-3.86,1.31-1.15,2.23-1.96,3.97-2.74.03.03.06.06.08.09l-24.91,26.68c-.54.51-.45,1.26-.05,1.68.2.22.5.36.83.36.31,0,.64-.12.97-.43l.7-.65c11.96-11.17,20.82-19.43,25.92-24.19.08.06.15.12.23.18-.79,1.41-1.69,3.14-2.12,4.25-2.39,6.19-4.73,8.32-6.79,10.21-1.4,1.28-2.73,2.48-3.92,4.73-1.15,2.17-1.58,3.94-1.96,5.5-.58,2.38-1,4.1-3.77,5.66-.78.44-1.13.85-1.02,1.23.12.4.67.48,1.18.48.09,0,.19,0,.28,0,1.76-.07,4.65-2.11,5.61-4.52,3.29-8.28,5.45-9.95,7.53-11.57,1.17-.91,2.28-1.77,3.53-3.69,1.68-2.58,2.48-4.26,3.13-5.61.74-1.53,1.23-2.55,2.52-3.89.04.02.08.04.13.07l-12.8,34.18c-.13.29-.14.6-.03.89.11.3.33.54.62.67.16.07.33.11.5.11.14,0,.28-.02.41-.07.3-.11.54-.33.66-.62l.07-.16c.05-.12,10.03-22.05,15.07-33.12.09.03.19.05.29.08-.19,1.6-.36,3.53-.33,4.73.16,6.64-1.18,9.5-2.37,12.02-.81,1.71-1.57,3.33-1.81,5.87-.2,2.14.04,3.91.24,5.47.35,2.59.62,4.63-1.27,7.04-.56.71-.71,1.22-.47,1.53.11.14.28.2.47.2.33,0,.73-.16,1.05-.31,1.59-.74,3.49-3.73,3.46-6.33-.13-8.9,1.22-11.27,2.53-13.57.73-1.29,1.43-2.51,1.85-4.77.53-2.85.64-4.7.74-6.19.11-1.74.19-2.97.87-4.74.04,0,.09,0,.13,0l1.26,36.47c-.02.74.58,1.21,1.16,1.23h.04c.57,0,1.15-.41,1.18-1.33v-.08c.01-.33.06-1.87.29-8.41.27-7.9.7-20.24.96-27.89.1,0,.2-.02.3-.03.44,1.55,1.03,3.4,1.51,4.49,2.68,6.06,2.54,9.24,2.41,12.05-.09,1.89-.17,3.68.58,6.09.72,2.33,1.66,3.89,2.49,5.26,1.28,2.11,2.21,3.64,1.34,6.69-.24.87-.19,1.4.15,1.59.08.04.16.06.24.06.39,0,.81-.41,1.12-.75,1.19-1.3,1.8-4.78.77-7.17-3.52-8.16-3.19-10.89-2.86-13.52.18-1.47.35-2.86-.12-5.09-.6-2.84-1.2-4.59-1.69-5.99-.57-1.65-.96-2.82-1.01-4.72.04-.01.08-.02.13-.04l4.36,9.58c2.86,6.29,3.58,7.88,10.75,23.62.2.52.66.77,1.11.77.14,0,.29-.02.42-.07.55-.2.96-.8.63-1.69l-.02-.05c-6.33-16.91-10.43-27.86-12.75-34.05.09-.05.18-.09.26-.14,1,1.27,2.26,2.76,3.11,3.58,4.8,4.56,5.88,7.55,6.83,10.18.64,1.79,1.25,3.47,2.88,5.44,1.56,1.89,3.03,2.96,4.33,3.91,1.98,1.45,3.41,2.5,3.79,5.66.11.89.36,1.37.75,1.41.02,0,.04,0,.06,0,.46,0,.76-.66.94-1.16.6-1.65-.17-5.11-2.03-6.92-6.4-6.22-7.11-8.84-7.8-11.37-.37-1.37-.76-2.78-2.07-4.69-1.75-2.54-2.99-3.93-3.99-5.05-1.13-1.26-1.88-2.12-2.62-3.81.04-.03.07-.06.11-.09l26.68,24.91c.25.26.56.37.85.37.31,0,.62-.12.83-.33.42-.39.56-1.1-.08-1.8-.01-.01-1.72-1.85-6.6-7.07-5.47-5.86-13.3-14.24-18.24-19.54.06-.07.11-.14.17-.21,1.18.63,2.56,1.28,3.99,1.96,3.07,1.45,6.55,3.1,8.42,4.72.4.35.86.86,1.39,1.46,1.25,1.42,2.97,3.37,5.42,4.66,2.16,1.14,3.93,1.58,5.48,1.96,2.39.58,4.11,1.01,5.68,3.78.39.69.75,1.03,1.09,1.03.05,0,.09,0,.14-.02.48-.14.5-.89.48-1.45-.16-3.55-3.39-5.03-7.14-6.74-1.67-.76-3.4-1.55-5.01-2.59-1.5-.97-2.71-2.37-3.89-3.73-1.14-1.32-2.33-2.69-3.76-3.62-2.44-1.58-4.11-2.4-5.45-3.05-1.56-.76-2.66-1.31-4.04-2.62.02-.04.04-.08.06-.11l7.55,2.83q8.57,3.21,25.08,9.39l1.54.58c.17.07.34.11.5.11.48,0,.9-.31,1.08-.71.23-.52.1-1.25-.76-1.64l-.05-.02c-13.69-6.23-26.01-11.84-33.07-15.05.03-.09.05-.17.07-.26,1.32.13,2.83.2,4.4.28,3.39.17,7.24.36,9.61,1.14.5.17,1.12.47,1.84.82,1.7.83,4.04,1.97,6.79,2.23,2.15.2,3.92-.04,5.48-.25,2.58-.35,4.62-.62,7.03,1.27.49.39.89.58,1.19.58.13,0,.24-.04.34-.11.39-.31.12-1.01-.11-1.52-1.5-3.22-5.05-3.34-9.16-3.49-1.84-.07-3.75-.13-5.64-.48-1.76-.32-3.42-1.16-5.02-1.96-1.56-.78-3.17-1.59-4.85-1.9-2.9-.54-4.76-.65-6.25-.74-1.71-.1-2.92-.18-4.68-.86,0-.05,0-.09.01-.14l36.47-1.25c.44,0,.82-.19,1.04-.55.23-.37.25-.83.05-1.2Z"/>
    <g>
      <path class="cls-3" d="M250,224.75c-13.92,0-25.25,11.33-25.25,25.25s11.33,25.25,25.25,25.25,25.25-11.33,25.25-25.25-11.33-25.25-25.25-25.25Z"/>
      <path class="cls-2" d="M236.81,246.78l-.13-.08-.05-.03.04-.04.1-.12h0c2.77-3.09,7.05-2.76,8.99-.2.04.05.07.09.1.13-.04.04-.07.06-.12.11h0s0,0,0,0c-2.81,2.09-6.43,1.8-8.92.23h0Z"/>
      <path class="cls-2" d="M263.63,246.7l-.13.08h0c-2.31,1.54-6.06,1.9-8.92-.23h0s-.09-.09-.09-.09l-.03-.03.02-.03.08-.1c1.98-2.61,6.62-2.78,8.99.2h0l.1.12.03.04-.04.03Z"/>
      <path class="cls-3" d="M249.95,207.21c0,.31.28,10.48.43,16.37.49,0,.98.03,1.46.06l-.32-9.35c-.28-8.09-.3-8.75-.93-27.07h0v-.02c.01-.39-.31-.64-.64-.66-.39-.01-.6.25-.64.71v.07s-1.25,36.32-1.25,36.32c.49-.04.97-.06,1.47-.07.22-8.43.14-5.4.43-16.38Z"/>
      <path class="cls-3" d="M257.98,208.65c-2.79,6.42-.96,5.43-2.25,15.55.42.09.83.19,1.24.31.12-1.28.2-2.76.27-4.29.18-3.61.37-7.34,1.17-9.75.18-.54.49-1.17.85-1.91.81-1.67,1.93-3.95,2.17-6.6.19-2.07-.04-3.81-.24-5.35-.35-2.61-.65-4.87,1.38-7.45.37-.47.46-.74.46-.84-.07,0-.3,0-.85.26-1.44.67-3.17,3.49-3.14,5.82.13,9.06-1.26,11.5-2.6,13.86-.71,1.25-1.38,2.42-1.78,4.59-.52,2.83-.64,4.66-.73,6.13-.1,1.7-.19,2.97-.86,4.76.53.06,1.05.14,1.57.23,1.91-8.23-.22-10.1,3.33-15.34Z"/>
      <path class="cls-3" d="M225.38,192.37c.12.33,8.49,22.67,12.74,34.03.44-.22.88-.43,1.33-.63-2.71-7.05-1.95-5.08-5.87-15.3,3.18,7.14,5.34,11.99,6.66,14.97.45-.18.91-.35,1.37-.5l-15.1-33.18c-.15-.39-.54-.49-.83-.39-.27.1-.49.39-.34.93l.03.07Z"/>
      <path class="cls-3" d="M239.99,209.1c-.17,1.42-.33,2.75.11,4.8.6,2.8,1.19,4.54,1.67,5.93.56,1.62.97,2.82,1.03,4.73.5-.14,1.02-.27,1.53-.39-1.38-8.33-4.06-9.25-2.79-15.44-.12,7.01,1.19,5.35,3.88,15.23.42-.07.84-.14,1.26-.19-.38-1.23-.88-2.63-1.39-4.07-1.21-3.4-2.47-6.91-2.65-9.44-.04-.56,0-1.27.05-2.09.12-1.85.27-4.38-.51-6.92-.7-2.27-1.62-3.79-2.44-5.13-1.3-2.14-2.33-3.83-1.41-7.13.16-.57.14-.86.11-.95-.07.02-.28.12-.68.56-1.07,1.17-1.6,4.44-.67,6.58,3.58,8.29,3.22,11.28,2.9,13.91Z"/>
      <path class="cls-3" d="M205.2,206.18c13.51,14.47,20.83,22.31,24.81,26.57.32-.37.65-.73.99-1.08-5.21-5.48-3.75-3.95-11.29-11.89,5.68,5.39,9.53,9.04,11.89,11.29.35-.34.71-.67,1.08-.99l-3.73-3.48q-7.72-7.21-17.36-16.21l-5.57-5.2c-.3-.31-.69-.25-.92-.03-.22.2-.31.57.05.98l.04.05Z"/>
      <path class="cls-3" d="M222.79,210.73c1.06,1.54,1.66,3.33,2.23,5.07.56,1.7,1.1,3.3,2.02,4.64,1.64,2.39,2.85,3.76,3.83,4.86,1.13,1.27,1.96,2.22,2.76,3.97.41-.33.84-.64,1.27-.94-4.47-7.18-7.3-7-8.5-13.21,2.57,6.53,3.15,4.5,9.41,12.59.36-.23.72-.45,1.09-.66-.83-1-1.82-2.1-2.85-3.24-2.42-2.68-4.92-5.44-6.05-7.71-.25-.51-.48-1.18-.75-1.96-.6-1.75-1.42-4.15-3.12-6.2-1.2-1.45-2.49-2.43-3.74-3.38-2.2-1.68-4.11-3.13-4.51-6.47-.07-.59-.2-.85-.26-.92-.06.05-.21.21-.42.78-1.1,3.02,1.22,5.5,3.9,8.38,1.27,1.36,2.58,2.77,3.69,4.39Z"/>
      <path class="cls-3" d="M191.75,226.63l.08.04s2.56,1.16,6.33,2.88c14.03,6.38,22.1,10.06,26.75,12.17.15-.46.32-.93.5-1.38-6.9-3.08-4.97-2.22-14.97-6.66,7.29,2.8,12.25,4.7,15.29,5.87.19-.45.4-.89.62-1.33l-34.15-12.79c-.38-.17-.72.04-.85.32-.12.27-.07.63.4.88Z"/>
      <path class="cls-3" d="M202.12,220.37c8.4,3.34,10.13,5.56,11.81,7.71.88,1.13,1.72,2.21,3.55,3.4,2.41,1.56,4.05,2.36,5.38,3.01,1.54.75,2.68,1.31,4.09,2.62.26-.46.53-.91.81-1.35-6.77-4.84-9.46-3.73-12.9-8.96,3.07,3.18,8.09,5.08,13.5,8.06.25-.36.51-.7.77-1.05-1.14-.6-2.47-1.24-3.86-1.89-3.26-1.55-6.64-3.15-8.56-4.82-.43-.37-.9-.9-1.45-1.52-1.23-1.39-2.9-3.29-5.26-4.53-2.1-1.11-3.83-1.53-5.36-1.91-2.44-.6-4.36-1.07-6.03-4.05-.29-.52-.51-.7-.6-.74-.03.06-.11.28-.09.89.07,1.59,2.01,4.27,4.18,5.13Z"/>
      <path class="cls-3" d="M223.58,250.48c-6.01-.16-16.46-.43-16.38-.43,0,0,10.39-.27,16.38-.43,0-.49.03-.98.06-1.46-26.17.9-36.42,1.25-36.42,1.25h-.03c-.49,0-.63.39-.64.62-.01.32.17.64.61.66l36.48,1.25c-.04-.48-.06-.97-.07-1.46Z"/>
      <path class="cls-3" d="M197.39,240.98c1.84.08,3.74.15,5.6.5,1.84.34,3.53,1.19,5.17,2.01,1.6.8,3.1,1.56,4.71,1.85,2.85.53,4.68.64,6.15.73,1.74.1,2.98.18,4.74.85.06-.52.14-1.04.23-1.55-8.11-1.88-10.16.17-15.34-3.33,6.22,2.7,5.93,1.03,15.55,2.25.09-.42.19-.83.31-1.24-1.29-.12-2.77-.2-4.3-.27-3.6-.18-7.33-.37-9.73-1.17-.54-.18-1.18-.49-1.92-.85-1.66-.81-3.94-1.92-6.59-2.17-2.08-.2-3.82.04-5.36.24-2.61.35-4.86.65-7.44-1.38-.47-.37-.74-.45-.84-.46,0,.07,0,.3.26.85,1.33,2.85,4.79,3,8.79,3.16Z"/>
      <path class="cls-3" d="M225.78,260.55c-7.05,2.71-5.08,1.95-15.29,5.87,7.13-3.18,11.99-5.34,14.96-6.66-.18-.45-.35-.91-.5-1.37l-33.18,15.1c-.39.15-.49.54-.38.84.1.27.4.49.93.32l.06-.02c.23-.09,22.65-8.48,34.03-12.74-.22-.44-.43-.88-.63-1.33Z"/>
      <path class="cls-3" d="M197.96,261.79c1.72-.63,3.51-1.29,5.35-1.68,1.82-.39,3.71-.25,5.54-.12,1.78.13,3.47.25,5.06-.09,2.84-.6,4.57-1.2,5.97-1.68,1.65-.57,2.82-.97,4.7-1.03-.14-.5-.27-1.01-.38-1.53-8.22,1.37-9.33,4.05-15.44,2.79,6.77.11,6.05-1.35,15.23-3.87-.07-.42-.14-.84-.19-1.27-1.23.38-2.63.87-4.07,1.39-3.39,1.21-6.89,2.46-9.45,2.65-.57.04-1.27,0-2.09-.05-1.85-.11-4.38-.27-6.93.51-2.27.7-3.8,1.63-5.14,2.44-2.13,1.3-3.82,2.32-7.12,1.4-.57-.16-.86-.14-.95-.11.02.07.12.28.56.69,2.33,2.13,5.58.93,9.35-.45Z"/>
      <path class="cls-3" d="M231.67,269.01c-6.78,6.43-4.63,4.4-11.89,11.29,5.4-5.69,9.05-9.53,11.29-11.89-.34-.35-.67-.71-.99-1.08l-24.89,26.66c-.31.29-.24.69-.03.91.2.22.56.31.98-.05l.05-.05.69-.65c9.32-8.7,19.82-18.5,25.88-24.16-.37-.32-.73-.65-1.08-.99Z"/>
      <path class="cls-3" d="M210.73,277.21c1.54-1.06,3.33-1.65,5.07-2.23,1.7-.56,3.3-1.1,4.64-2.02,2.37-1.63,3.75-2.84,4.85-3.82,1.28-1.13,2.24-1.97,3.98-2.77-.33-.41-.64-.83-.95-1.27-7.08,4.41-7.07,7.31-13.21,8.49,6.28-2.46,4.92-3.45,12.6-9.41-.23-.36-.45-.72-.66-1.1-.99.82-2.09,1.81-3.23,2.84-2.67,2.42-5.43,4.92-7.72,6.07-.51.25-1.18.49-1.96.75-1.75.6-4.15,1.42-6.19,3.12-1.84,1.52-2.9,2.96-3.82,4.23-1.47,2.01-2.63,3.6-6.03,4.01-.59.07-.84.2-.92.26.05.06.21.21.78.42,3.01,1.1,5.5-1.22,8.37-3.89,1.37-1.27,2.78-2.59,4.4-3.7Z"/>
      <path class="cls-3" d="M240.33,274.59c-3.07,6.9-2.21,4.97-6.66,14.97,2.82-7.34,4.71-12.27,5.87-15.29-.45-.19-.89-.4-1.33-.62l-12.79,34.14c-.07.15-.08.33-.02.48.06.16.18.29.33.36.16.07.33.08.49.02.16-.06.29-.18.36-.33l.07-.16s9.44-20.74,15.05-33.07c-.46-.15-.92-.32-1.38-.5Z"/>
      <path class="cls-3" d="M228.07,286.08c1.13-.88,2.2-1.71,3.4-3.56,1.66-2.55,2.46-4.21,3.1-5.55.72-1.5,1.24-2.56,2.52-3.92-.46-.26-.9-.53-1.34-.81-4.87,6.8-3.72,9.44-8.95,12.9,4.85-4.69,3.37-5.31,8.04-13.52-.34-.24-.68-.49-1.01-.75-.77,1.38-1.64,3.06-2.04,4.11-2.43,6.31-4.83,8.49-6.94,10.41-1.37,1.24-2.66,2.42-3.8,4.59-1.12,2.11-1.54,3.85-1.91,5.38-.59,2.42-1.05,4.33-4.04,6.01-.52.29-.7.51-.75.59.07.03.28.11.89.08,1.59-.07,4.26-2.01,5.13-4.18,3.35-8.42,5.56-10.14,7.7-11.8Z"/>
      <path class="cls-3" d="M250.05,292.8c-.2-7.81-.34-13.12-.43-16.38-.49,0-.98-.03-1.47-.06l1.25,36.44c-.01.42.32.66.63.67.29,0,.61-.18.65-.75v-.06s.12-3.52.29-8.48c.5-14.46.79-22.9.96-27.83-.48.03-.97.06-1.46.07-.2,7.55-.14,5.44-.43,16.38Z"/>
      <path class="cls-3" d="M242.02,291.35c1.32-3.04,1.74-3.46,1.82-11.36,0-.89.22-2.67.42-4.19-.41-.09-.81-.19-1.21-.3-.18,1.56-.34,3.43-.31,4.57.17,6.77-1.21,9.69-2.42,12.27-.79,1.67-1.53,3.25-1.76,5.69-.19,2.08.04,3.81.24,5.35.35,2.61.65,4.86-1.38,7.45-.37.47-.46.74-.46.84.07,0,.3,0,.85-.26,1.44-.67,3.17-3.49,3.14-5.82-.13-9.05,1.26-11.49,2.6-13.85.71-1.25,1.38-2.43,1.78-4.6.52-2.82.64-4.65.73-6.12.11-1.7.19-2.97.86-4.77-.53-.06-1.05-.14-1.56-.23-1.88,8.09.16,10.18-3.34,15.34Z"/>
      <path class="cls-3" d="M274.62,307.63c-6.32-16.87-10.42-27.82-12.75-34.03-.44.22-.88.43-1.33.63,2.7,7.04,1.95,5.09,5.87,15.29-3.18-7.15-5.34-11.99-6.66-14.97-.45.18-.91.35-1.37.5l4.34,9.53c2.86,6.29,3.58,7.88,10.76,23.63v.02c.15.39.55.49.84.38.28-.1.51-.41.32-.96v-.03Z"/>
      <path class="cls-3" d="M260.01,291c.18-1.43.34-2.77-.11-4.91-.59-2.8-1.19-4.54-1.67-5.93-.56-1.62-.97-2.82-1.03-4.74-.5.14-1.01.27-1.53.39,1.37,8.24,4.05,9.29,2.79,15.44.06-3.31.29-3.86-2.67-11.19-.33-.82-.82-2.55-1.21-4.03-.41.07-.82.13-1.24.19.43,1.51,1,3.31,1.46,4.34,2.74,6.18,2.59,9.43,2.46,12.29-.08,1.84-.16,3.58.55,5.9.7,2.27,1.62,3.79,2.44,5.14,1.3,2.15,2.33,3.84,1.4,7.12-.16.58-.14.86-.11.95.07-.02.28-.12.69-.56,1.07-1.17,1.59-4.44.67-6.58-3.58-8.29-3.24-11.1-2.9-13.81Z"/>
      <path class="cls-3" d="M291.54,290.33c-11.39-12.2-17.87-19.14-21.54-23.08-.32.37-.65.73-.99,1.08,3.82,4.02,7.16,7.55,11.29,11.89-.14-.13-7.59-7.2-11.89-11.28-.35.34-.71.67-1.08.99l26.66,24.89c.29.3.69.24.92.03.28-.26.24-.65-.11-1.03-.02-.02-1.27-1.36-3.26-3.49Z"/>
      <path class="cls-3" d="M274.95,284.08c-.38-1.38-.73-2.69-1.99-4.53-1.72-2.51-2.95-3.89-3.94-4.99-1.11-1.24-1.89-2.13-2.66-3.83-.41.32-.83.63-1.25.93,4.4,7.06,7.31,7.08,8.49,13.21-2.48-6.31-3.46-4.92-9.41-12.6-.35.23-.71.44-1.07.65.98,1.23,2.19,2.67,3.01,3.46,4.9,4.65,5.99,7.7,6.96,10.39.63,1.74,1.22,3.38,2.78,5.27,1.52,1.83,2.96,2.89,4.23,3.82,2.01,1.48,3.61,2.64,4.02,6.04.07.59.2.85.27.92.06-.05.21-.21.42-.78.54-1.49-.23-4.71-1.9-6.34-6.51-6.33-7.24-9.02-7.95-11.61Z"/>
      <path class="cls-3" d="M308.19,273.35h-.03c-13.68-6.24-25.99-11.84-33.07-15.06-.15.47-.32.92-.5,1.38,6.87,3.06,4.98,2.21,14.97,6.66-7.34-2.82-12.27-4.71-15.29-5.87-.19.45-.4.89-.62,1.33l7.51,2.81q8.56,3.21,25.14,9.42l1.49.56c.38.17.73-.04.86-.32.12-.27.07-.65-.45-.9Z"/>
      <path class="cls-3" d="M295.24,278.5c-1.69-.77-3.44-1.57-5.08-2.63-1.57-1.01-2.8-2.45-4-3.83-1.17-1.35-2.28-2.63-3.64-3.52-2.41-1.57-4.06-2.37-5.39-3.02-1.58-.77-2.7-1.32-4.07-2.61-.26.46-.53.91-.81,1.35,6.77,4.83,9.48,3.76,12.9,8.95-4.67-4.85-5.27-3.35-13.51-8.04-.25.35-.5.69-.76,1.03,1.15.61,2.49,1.24,3.88,1.9,3.25,1.54,6.62,3.14,8.54,4.8.43.37.9.9,1.44,1.52,1.23,1.39,2.91,3.29,5.26,4.53,2.1,1.11,3.83,1.54,5.36,1.91,2.43.59,4.34,1.06,6.03,4.04.29.52.51.7.6.74.03-.06.11-.28.09-.88-.14-3.21-3.24-4.63-6.82-6.26Z"/>
      <path class="cls-3" d="M313.39,249.66c-.11-.2-.32-.32-.62-.35l-.61-.02c-15.99-.61-28.43-1.03-35.8-1.2.03.47.06.95.06,1.43,11.61.31,16.38.43,16.38.43-.31,0-10.48.27-16.38.43,0,.49-.03.98-.06,1.46l36.43-1.25h0c.32.01.49-.17.56-.29.12-.2.13-.45.03-.65Z"/>
      <path class="cls-3" d="M302.72,259.02c-1.86-.07-3.79-.13-5.72-.49-1.84-.34-3.53-1.19-5.17-2.01-1.6-.8-3.1-1.56-4.7-1.86-2.87-.53-4.71-.64-6.18-.73-1.73-.1-2.96-.18-4.71-.84-.06.52-.14,1.04-.23,1.55,8.09,1.87,10.14-.17,15.34,3.33-6.22-2.7-5.94-1.04-15.55-2.25-.09.42-.19.83-.31,1.24,1.28.12,2.75.19,4.27.27,3.6.18,7.31.36,9.76,1.17.54.18,1.17.49,1.91.85,1.66.81,3.94,1.93,6.6,2.18,2.09.2,3.82-.04,5.36-.25.97-.13,1.88-.25,2.78-.25,1.53,0,3.03.36,4.66,1.64.47.37.74.46.84.46,0-.07,0-.3-.26-.85-1.36-2.92-4.75-3.03-8.68-3.17Z"/>
      <path class="cls-3" d="M274.22,239.45c7.05-2.71,5.08-1.95,15.29-5.87-7.19,3.2-12.01,5.35-14.96,6.66.18.45.35.91.5,1.37l33.19-15.1c.31-.11.39-.35.42-.48.04-.23-.05-.47-.22-.61-.19-.16-.48-.17-.81-.05-.21.08-22.64,8.48-34.03,12.74.22.44.43.88.63,1.33Z"/>
      <path class="cls-3" d="M304.81,237.09c-8.3,3.59-11.08,3.24-13.77,2.9-1.43-.18-2.78-.35-4.95.11-2.23.47-3.68.95-5.22,1.44-.75.24-1.53.5-2.44.76-1.49.44-2.34.6-2.98.63.14.5.27,1.01.38,1.53,5.51-.9,9.58-4.11,15.41-2.92-6.22-.11-5.74,1.3-15.23,3.88.07.42.14.84.19,1.26,1.23-.38,2.63-.87,4.07-1.39,3.4-1.21,6.92-2.47,9.44-2.64.57-.04,1.28,0,2.1.05,1.85.11,4.38.27,6.92-.52,2.27-.7,3.8-1.62,5.14-2.44,2.14-1.3,3.83-2.33,7.12-1.4.58.16.86.14.95.11-.02-.07-.11-.27-.56-.69-1.17-1.07-4.44-1.59-6.59-.67Z"/>
      <path class="cls-3" d="M268.33,230.99c5.49-5.21,3.95-3.75,11.89-11.29-.13.14-7.2,7.59-11.28,11.89.34.35.67.71.99,1.08,9.89-10.59,10.62-11.38,15.86-16.99l9.02-9.67c.24-.23.23-.48.2-.61-.05-.22-.22-.41-.43-.47-.05-.02-.11-.02-.16-.02-.19,0-.4.1-.6.29-.1.09-17.67,16.49-26.57,24.8.37.32.73.65,1.08.99Z"/>
      <path class="cls-3" d="M283.96,225.1c-1.37.39-2.67.75-4.4,1.94-2.42,1.66-3.79,2.88-4.9,3.86-1.29,1.15-2.21,1.96-3.93,2.73.32.41.64.83.94,1.26,7.2-4.47,6.99-7.29,13.21-8.49-6.46,2.54-4.68,3.29-12.59,9.41.23.36.45.72.66,1.09.99-.82,2.09-1.81,3.22-2.84,2.67-2.42,5.44-4.93,7.73-6.07.51-.25,1.18-.49,1.96-.75,1.75-.6,4.15-1.43,6.2-3.12,1.45-1.2,2.43-2.49,3.39-3.74,1.68-2.21,3.14-4.11,6.47-4.5.59-.07.84-.2.92-.27-.04-.06-.21-.21-.79-.42-1.49-.55-4.71.22-6.34,1.9-6.28,6.47-9.18,7.29-11.74,8Z"/>
      <path class="cls-3" d="M259.67,225.41c3.18-7.14,2.03-4.55,6.66-14.97-.05.13-3.74,9.74-5.87,15.29.45.19.89.4,1.33.62l12.79-34.14c.17-.39-.03-.73-.32-.86-.27-.12-.65-.07-.9.44l-.02.05s-1.05,2.31-2.61,5.74c-6.55,14.39-10.29,22.62-12.44,27.33.47.15.93.32,1.38.5Z"/>
      <path class="cls-3" d="M271.84,214.01c-1.12.88-2.18,1.71-3.33,3.47-1.56,2.4-2.36,4.05-3.01,5.37-.75,1.54-1.32,2.68-2.62,4.09.46.26.91.53,1.36.82,4.94-6.89,3.66-9.41,8.95-12.9-4.88,4.71-3.22,5.08-8.04,13.52.35.25.69.5,1.03.76.6-1.14,1.24-2.48,1.9-3.87,1.54-3.26,3.14-6.62,4.81-8.55.37-.42.9-.89,1.51-1.43,1.39-1.23,3.3-2.91,4.55-5.27,1.11-2.09,1.53-3.83,1.91-5.35.6-2.44,1.07-4.36,4.04-6.03.52-.29.7-.51.75-.6-.06-.03-.28-.11-.88-.09-1.59.07-4.27,2.01-5.13,4.18-3.33,8.4-5.7,10.25-7.78,11.89Z"/>
      <path class="cls-3" d="M257.29,244.92c-2.19.7-2.74,1.73-.28,2.5,1.98.6.29-.05.29-1.25,0-.36.11-.69.3-.96.28-.39,1.02-.72-.32-.29Z"/>
      <path class="cls-3" d="M260.94,245.09c-1.66-.71-.8-.17-.59.15.4.59.37,1.34-.01,1.88-.28.42-1.05.68.52.31,2.15-.52,2.77-1.22.09-2.33Z"/>
      <path class="cls-3" d="M242.1,247.64c3.52-.25,4.03-2.31.05-2.92,1.12.63,1.14,2.3-.05,2.92Z"/>
      <path class="cls-2" d="M245.22,244.97s.03.02.04.03c-.05-.04-.06-.05-.04-.03Z"/>
      <path class="cls-3" d="M239.37,245.09c-1.46.61-2.54,1.49-1.01,2.01,3.51,1.23.47-.18,1.59-1.87.22-.32,1.05-.85-.59-.15Z"/>
      <path class="cls-2" d="M252.54,254.81c.56,1.2,1.56,1.14,2.16.53.58-.58.59-1.32-.36-2.11,3.26,1.57-.43,5.17-1.9,2.47-1.03,1.22-3.57,1.21-4.59,0-1.4,2.61-4.99-.93-2.24-2.3l.34-.16c-2.11,1.79.71,3.75,1.81,1.57,1.47,1.84,3.41,1.69,4.78,0Z"/>
      <path class="cls-2" d="M240.92,240c2.46-.34,5.08.31,7.4,2.05h0s0,.02,0,.02c0,0,1.33,2.73,1.19,5.34-.08,1.35-1.34,6.69-2.25,5.67-.09-.1-.13-.25-.05-.42h0c3.12-4.16,1.89-9.02-.06-10.23-4.42-2.72-9.4-1.47-13.05,1.92,1.75-2.34,3.81-3.95,6.81-4.35Z"/>
      <path class="cls-2" d="M235.49,246.17s.02-.09.05-.13c2.08-2.11,4.74-3.6,7.56-2.72,1.47.46,2.94,1.8,2.48,1.46,1.28.96,1.7.93,1.7.93.05,0,.09.03.12.07.03.04.04.09.03.14,0,.05-.04.09-.07.12-.36.28-1.99-.95-2.15-1.07-3.14-2.35-6.6-1.51-9.42,1.33-.1.11-.31.05-.31-.12Z"/>
      <path class="cls-2" d="M237.14,248.15s-.08-.05-.1-.09c-.02-.04-.02-.09,0-.14.02-.05.06-.08.1-.1.04-.02.09-.02.14,0,3.33,1.35,6.37,1.64,9.1-.73.07-.06.19-.06.26.02.07.08.06.18-.02.26-2.86,2.69-5.89,2.46-9.48.78Z"/>
      <path class="cls-2" d="M253.57,268.91c-.37-5.04-6.46-5.05-6.83,0-.42-5.73,7.29-5.92,6.83,0Z"/>
      <path class="cls-2" d="M250.56,264.12c-1.9-.13-1.98.37-3.68-1.28-1.17-1.13-1.59-1.21-2.63-1.32,3.36-.46,3.06,2.4,5.9,2.02h.02c.37.07.73.03.73.03.95-.06,1.47-.56,1.99-1.06,1.12-1.07,1.66-1.21,3.16-1-2.39.25-3.24,2.81-5.49,2.6Z"/>
      <path class="cls-2" d="M245.46,261.02c4.74-.8,1.24.18,4.7.18,2.77,0,.3-.93,4.71-.18-.94,0-2.42-.09-3.24.32-1.88.96-2.36-.05-3.85-.26-.61-.08-1.99-.07-2.32-.06,0,0,0,0-.02,0-.08,0-.06,0,.02,0Z"/>
      <path class="cls-2" d="M250.84,259.53c-1.26.52-1.98-.96-4.19.11-.98.48-1.93,1.25-2.79,1.92l.53-.52c.87-.85,2.23-2.54,3.43-2.54,1.46,0,1.84.98,2.98.46,2.56-1.18,3.51.5,5.65,2.61-1.82-1.41-3.55-2.93-5.6-2.03Z"/>
      <path class="cls-2" d="M263.27,248.06s-.05.08-.1.09c-3.57,1.67-6.63,1.92-9.48-.78-.04-.04-.06-.08-.06-.12,0-.05.01-.09.04-.13.03-.04.08-.06.13-.07,0,0,.1.01.13.05,2.73,2.37,5.76,2.07,9.1.73.04-.02.1-.02.14,0,.04.02.08.05.1.1.02.05.02.1,0,.14Z"/>
      <path class="cls-2" d="M264.51,246.29c-2.81-2.83-6.29-3.69-9.46-1.3-.34.25-1.77,1.31-2.1,1.05-.04-.03-.07-.07-.08-.12,0-.05,0-.1.03-.14.06-.08.15-.07.15-.07.8-.15,2.22-1.34,1.78-1.01,3.19-2.82,6.89-1.75,9.94,1.34.17.16-.09.43-.26.25Z"/>
      <path class="cls-2" d="M251.18,247.38c.03,2.25,1.9,5.27,1.9,5.27h0c.23.48-.43,1.01-.86.02-.37-.83-1.32-3-1.44-5.26-.15-2.61,1.19-5.34,1.19-5.34,0-.02.02-.03.02-.03,4.37-3.26,10.24-3.01,14.2,2.31-5.68-5.31-15.14-4.52-15.01,3.03Z"/>
    </g>
  </g>
</svg>