<?xml version="1.0" encoding="UTF-8"?>
<svg id="_Layer_" data-name="&amp;lt;Layer&amp;gt;" xmlns="http://www.w3.org/2000/svg" viewBox="0 0 500 500">
  <defs>
    <style>
      .cls-1 {
        fill: #e93323;
      }

      .cls-2 {
        fill: #fff;
      }

      .cls-3 {
        fill: #102f99;
      }
    </style>
  </defs>
  <path class="cls-3" d="M750.05,0v500H0V0h750.05Z"/>
  <path class="cls-2" d="M218.5,0v73.42L328.65,0h46.38v30.92l-79.16,52.78h79.16v82.6h-79.16l79.16,52.76v30.93h-46.38l-110.15-73.43v73.43h-61.96v-73.43l-110.14,73.43H0v-30.93l79.17-52.76H0v-82.6h79.17L0,30.92V0h46.4l110.14,73.42V0h61.96Z"/>
  <path class="cls-1" d="M206.85,0v99.22h168.17v51.56h-168.17v99.22h-38.67v-99.22H0v-51.56h168.17V0h38.67ZM375.02,238.4l-108.16-72.09h-34.8l125.58,83.7h17.38v-11.6h0ZM266.87,83.7L375.02,11.6V0h-17.38l-125.58,83.7h34.8ZM142.95,83.7L17.4,0H0v11.6l108.17,72.1h34.79ZM108.17,166.3L0,238.4v11.6h17.4l125.55-83.7h-34.79Z"/>
  <polygon class="cls-2" points="468.79 178.28 473.96 194.34 489.74 188.36 480.4 202.42 494.91 211.02 478.1 212.49 480.41 229.19 468.79 216.97 457.17 229.19 459.49 212.49 442.68 211.02 457.18 202.42 447.86 188.36 463.63 194.34 468.79 178.28 468.79 178.28"/>
  <polygon class="cls-2" points="187.53 315.66 198.37 349.38 231.5 336.84 211.89 366.34 242.35 384.43 207.06 387.49 211.93 422.58 187.53 396.91 163.11 422.58 167.97 387.49 132.68 384.43 163.13 366.34 143.53 336.84 176.67 349.38 187.53 315.66 187.53 315.66"/>
</svg>