<?xml version="1.0" encoding="UTF-8"?>
<svg id="_Layer_" data-name="&amp;lt;Layer&amp;gt;" xmlns="http://www.w3.org/2000/svg" viewBox="0 0 500 500">
  <defs>
    <style>
      .cls-1 {
        fill: #16369a;
      }

      .cls-2 {
        fill: #e9c14f;
      }

      .cls-3 {
        fill: #fff;
      }
    </style>
  </defs>
  <rect class="cls-1" x="-125.03" width="750.05" height="500"/>
  <path class="cls-3" d="M-90.08,0h33.7l9.97,30.45-26.82-19.55-26.81,19.55L-90.08,0h0ZM441.48,500h-34.53l.77-2.34-26.89-19.46,33.21.06,10.19-31.59,10.19,31.59,33.2-.06-26.9,19.46.77,2.34h0ZM-11.04,11.44L-.86,43.02l33.21-.07L5.45,62.42l10.32,31.54-26.81-19.56-26.83,19.56,10.33-31.54-26.9-19.46,33.2.07L-11.04,11.44h0ZM51.14,73.61l10.19,31.58,33.2-.07-26.88,19.46,10.32,31.54-26.82-19.56-26.82,19.56,10.33-31.54-26.9-19.46,33.19.07,10.2-31.58h0ZM113.32,135.79l10.19,31.58,33.2-.05-26.9,19.45,10.33,31.54-26.81-19.56-26.81,19.56,10.32-31.54-26.9-19.45,33.19.05,10.2-31.58h0ZM175.5,197.97l10.2,31.58,33.19-.06-26.88,19.46,10.3,31.54-26.8-19.56-26.8,19.56,10.31-31.54-26.9-19.46,33.19.06,10.2-31.58h0ZM237.68,260.15l10.2,31.58,33.18-.07-26.88,19.46,10.32,31.55-26.82-19.56-26.82,19.56,10.32-31.55-26.89-19.46,33.19.07,10.2-31.58h0ZM299.86,322.32l10.2,31.59,33.18-.07-26.87,19.46,10.32,31.54-26.82-19.56-26.81,19.56,10.31-31.54-26.89-19.46,33.2.07,10.19-31.59h0ZM362.05,384.51l10.2,31.58,33.18-.06-26.9,19.46,10.33,31.53-26.81-19.56-26.82,19.56,10.33-31.53-26.89-19.46,33.19.06,10.2-31.58h0Z"/>
  <polygon class="cls-2" points="14.98 0 515.01 0 515.01 500 14.98 0 14.98 0"/>
</svg>