<?xml version="1.0" encoding="UTF-8"?>
<svg id="_Layer_" data-name="&amp;lt;Layer&amp;gt;" xmlns="http://www.w3.org/2000/svg" viewBox="0 0 500 500">
  <defs>
    <style>
      .cls-1 {
        fill: #f9df4b;
      }

      .cls-2 {
        fill: #fff;
      }

      .cls-3, .cls-4 {
        fill: #48a034;
      }

      .cls-5 {
        fill: #2458c5;
      }

      .cls-4 {
        fill-rule: evenodd;
      }
    </style>
  </defs>
  <rect class="cls-3" x="-125" width="750" height="500"/>
  <polygon class="cls-1" points="-21.56 249.99 249.93 423.38 521.56 249.99 249.93 76.62 -21.56 249.99"/>
  <g>
    <path class="cls-5" d="M364.43,250.02c0,63.21-51.22,114.48-114.45,114.48s-114.41-51.26-114.41-114.48,51.22-114.52,114.41-114.52,114.45,51.36,114.45,114.52h0Z"/>
    <path class="cls-2" d="M184.6,200.93c-13.43,0-26.55,1-39.39,2.79-2.47,5.62-4.48,11.47-6.08,17.5,14.76-2.54,29.93-3.91,45.46-3.91,67.07,0,128.39,25.31,174.67,66.91,1.87-5.87,3.24-11.95,4.07-18.12-48.34-40.66-110.66-65.18-178.74-65.18h0Z"/>
    <path class="cls-4" d="M152.34,216.53c2.65-.32,4.57-2.99,4.16-5.99-.32-2.97-2.79-5.14-5.48-4.8-2.74.28-4.61,3.02-4.16,5.99.32,2.99,2.79,5.14,5.48,4.8h0ZM152.11,214.54c1.51-.21,2.6-1.89,2.42-3.77-.23-1.9-1.65-3.24-3.29-3.04-1.6.18-2.7,1.85-2.47,3.75.28,1.9,1.74,3.24,3.34,3.06h0Z"/>
    <path class="cls-4" d="M161.25,215.59l1.96-.18-.27-4.02,4.43-.3c1.78-.14,3.2-1.78,3.15-3.68-.18-1.87-1.83-3.31-3.65-3.17l-6.31.43.69,10.92ZM162.8,209.38l4.2-.27c.78-.09,1.28-.75,1.28-1.53-.09-.8-.69-1.37-1.42-1.28l-4.25.23.18,2.86Z"/>
    <path class="cls-3" d="M170.43,214.93c-.09-1.55-.27-4.96-2.65-4.84l-2.97.21c3.38-.21,3.65,3.24,3.84,4.75l1.78-.11Z"/>
    <path class="cls-4" d="M175.09,214.73l5.07-.11c2.65-.02,4.66-2.15,4.66-4.77l-.09-1.55c-.04-2.54-2.19-4.64-4.75-4.59l-5.07.12.18,10.92ZM177.01,212.65l2.97-.07c1.64-.02,2.97-1.39,2.88-2.99v-.98c0-1.55-1.33-2.86-2.92-2.86l-3.01.07.09,6.83Z"/>
    <polygon class="cls-3" points="188.8 214.59 198.67 214.93 198.76 212.88 190.85 212.6 190.95 209.84 197.21 210 197.21 208.15 191.04 207.92 191.04 205.77 198.58 206.03 198.58 203.97 189.26 203.65 188.8 214.59"/>
    <polygon class="cls-3" points="202.73 215.16 204.61 215.32 205.25 207.87 206.71 215.5 208.49 215.67 211.28 208.4 210.64 215.85 212.47 216.03 213.43 205.13 210.77 204.9 207.9 212.17 206.39 204.52 203.65 204.29 202.73 215.16"/>
    <polygon class="cls-3" points="225.26 217.7 233.44 219.07 233.66 217.24 227.5 216.19 227.91 213.74 233.03 214.61 233.26 212.74 228.27 211.89 228.5 210.18 234.54 211.23 234.76 209.38 227 208.01 225.26 217.7"/>
    <path class="cls-4" d="M246,221.76l1.92.53,1.1-3.91,4.16,1.05c1.87.5,3.75-.62,4.25-2.44.41-1.83-.69-3.68-2.47-4.2l-6.03-1.55-2.92,10.53ZM249.56,216.37l4.02,1.07c.78.21,1.46-.25,1.64-1,.23-.76-.27-1.51-.96-1.71l-4.07-1.05-.64,2.7Z"/>
    <path class="cls-4" d="M259.39,225.33l1.96.59,1.24-3.84,4.07,1.3c1.87.57,3.75-.43,4.34-2.22.59-1.8-.41-3.72-2.19-4.29l-6.03-1.9-3.38,10.35ZM263.18,220.14l4.02,1.28c.64.2,1.51-.16,1.74-.94.27-.75-.14-1.49-.91-1.74l-3.98-1.28-.87,2.67Z"/>
    <path class="cls-3" d="M268.21,228.11c.5-1.48,1.51-4.73-.69-5.44l-2.79-.91c3.2,1.05,2.19,4.29,1.69,5.8l1.78.55Z"/>
    <path class="cls-4" d="M277.16,231.34c2.56.91,5.44-.57,6.49-3.38,1.09-2.83-.09-5.89-2.65-6.83-2.56-.98-5.53.55-6.53,3.33-1.1,2.86.18,5.9,2.69,6.88h0ZM277.85,229.42c1.55.61,3.24-.44,3.93-2.19.69-1.78,0-3.65-1.46-4.23-1.51-.52-3.29.44-3.98,2.22-.69,1.76.09,3.65,1.51,4.2h0Z"/>
    <path class="cls-4" d="M290,236.52c2.47,1.07,5.53-.32,6.72-3.04,1.14-2.79.14-5.87-2.38-6.97-2.47-1.07-5.44.25-6.62,3.04-1.19,2.76-.18,5.9,2.28,6.97h0ZM290.82,234.65c1.46.69,3.24-.25,3.97-1.99.78-1.74.18-3.68-1.23-4.32-1.46-.62-3.24.25-3.98,2.01-.78,1.74-.27,3.68,1.23,4.29h0Z"/>
    <polygon class="cls-3" points="292.88 231.82 296.72 233.48 295.99 234.9 292.29 233.21 292.88 231.82"/>
    <polygon class="cls-3" points="295.26 232.82 296.72 233.48 294.48 238.46 293.15 237.82 295.26 232.82"/>
    <path class="cls-4" d="M298.22,240.18l1.78.89,1.78-3.66,3.88,1.99c1.69.84,3.75.14,4.57-1.53.87-1.71.18-3.77-1.51-4.59l-5.53-2.79-4.98,9.69ZM302.7,235.65l3.75,1.85c.69.36,1.51.09,1.87-.62.32-.69.09-1.53-.59-1.87l-3.84-1.87-1.19,2.51Z"/>
    <path class="cls-3" d="M306.45,244.31c.69-1.39,2.19-4.46.14-5.51l-2.69-1.37c3.15,1.58,1.6,4.64.96,6.01l1.6.87Z"/>
    <polygon class="cls-3" points="310.52 246.46 319.11 251.28 320.02 249.52 313.17 245.61 314.49 243.17 319.93 246.25 320.84 244.56 315.45 241.55 316.55 239.61 322.99 243.31 324.09 241.55 315.86 236.93 310.52 246.46"/>
    <path class="cls-3" d="M326.46,251.78c-.59.89,0,1.94,1.28,2.79,1.33.82,2.19.78,2.61.23,1.19-1.92-5.67-4.64-3.56-7.88,1.78-2.81,4.93-.64,6.12.11,1.19.75,3.06,2.72,1.6,4.96l-2.01-1.3c.69-.94,0-1.92-1.14-2.51-1-.73-1.83-1.03-2.42,0-1.05,1.49,5.76,4.32,3.61,7.61-1.42,2.4-4.11,1.32-5.85.23-1.6-.98-3.79-3.27-2.38-5.53l2.15,1.3Z"/>
    <path class="cls-3" d="M338.16,259.5c-.69.87-.18,1.94,1.1,2.86,1.28.91,2.24.96,2.65.36,1.23-1.78-5.53-4.91-3.15-8.04,1.97-2.72,5.03-.37,6.12.41,1.19.84,2.88,2.9,1.28,5.05l-1.87-1.39c.59-.94,0-1.9-1.05-2.65-1-.71-1.69-1.03-2.37-.09-1.1,1.44,5.44,4.68,3.24,7.81-1.69,2.33-4.34,1.14-5.94-.09-1.51-1.05-3.65-3.42-2.05-5.64l2.05,1.42Z"/>
    <path class="cls-4" d="M349.17,272.07c2.15,1.69,5.35,1.14,7.22-1.21,1.87-2.37,1.69-5.64-.41-7.31-2.15-1.71-5.35-1.17-7.22,1.21-1.87,2.35-1.69,5.62.41,7.31h0ZM350.45,270.45c1.28,1.05,3.24.64,4.43-.87,1.19-1.48,1.01-3.47-.18-4.45-1.28-1.03-3.15-.64-4.34.87-1.28,1.49-1.19,3.5.09,4.46h0Z"/>
    <polygon class="cls-2" points="156.5 224.55 154.99 229.21 157.36 229.99 156.5 224.55"/>
    <polygon class="cls-2" points="156.5 224.55 158.05 229.21 155.72 229.99 156.5 224.55"/>
    <polygon class="cls-2" points="161.16 227.96 156.27 227.96 156.27 230.35 161.16 227.96"/>
    <polygon class="cls-2" points="161.16 227.96 157.27 230.81 155.72 228.84 161.16 227.96"/>
    <polygon class="cls-2" points="151.84 227.96 155.81 230.81 157.27 228.84 151.84 227.96"/>
    <polygon class="cls-2" points="151.84 227.96 156.77 227.96 156.77 230.35 151.84 227.96"/>
    <polygon class="cls-2" points="159.38 233.41 157.87 228.75 155.58 229.53 159.38 233.41"/>
    <polygon class="cls-2" points="159.38 233.41 155.4 230.51 156.86 228.53 159.38 233.41"/>
    <polygon class="cls-2" points="153.62 233.41 157.59 230.51 156.18 228.53 153.62 233.41"/>
    <polygon class="cls-2" points="153.62 233.41 155.17 228.75 157.55 229.53 153.62 233.41"/>
    <polygon class="cls-2" points="166.69 272.69 165.13 277.32 167.51 278.08 166.69 272.69"/>
    <polygon class="cls-2" points="166.69 272.69 168.15 277.32 165.86 278.08 166.69 272.69"/>
    <polygon class="cls-2" points="171.26 276.07 166.41 276.07 166.41 278.53 171.26 276.07"/>
    <polygon class="cls-2" points="171.26 276.07 167.37 278.97 165.91 276.93 171.26 276.07"/>
    <polygon class="cls-2" points="162.02 276.07 165.91 278.97 167.46 276.93 162.02 276.07"/>
    <polygon class="cls-2" points="162.02 276.07 166.96 276.07 166.96 278.53 162.02 276.07"/>
    <polygon class="cls-2" points="169.56 281.57 168.06 276.91 165.68 277.67 169.56 281.57"/>
    <polygon class="cls-2" points="169.56 281.57 165.59 278.65 167 276.7 169.56 281.57"/>
    <polygon class="cls-2" points="163.71 281.57 167.78 278.65 166.27 276.7 163.71 281.57"/>
    <polygon class="cls-2" points="163.71 281.57 165.22 276.91 167.6 277.67 163.71 281.57"/>
    <polygon class="cls-2" points="152.61 284.56 151.7 287.72 153.21 288.22 152.61 284.56"/>
    <polygon class="cls-2" points="152.61 284.56 153.62 287.72 152.11 288.22 152.61 284.56"/>
    <polygon class="cls-2" points="155.72 286.85 152.43 286.85 152.43 288.49 155.72 286.85"/>
    <polygon class="cls-2" points="155.72 286.85 153.12 288.79 152.16 287.46 155.72 286.85"/>
    <polygon class="cls-2" points="149.55 286.85 152.16 288.79 153.12 287.46 149.55 286.85"/>
    <polygon class="cls-2" points="149.55 286.85 152.79 286.85 152.79 288.49 149.55 286.85"/>
    <polygon class="cls-2" points="154.53 290.5 153.53 287.4 152.02 287.92 154.53 290.5"/>
    <polygon class="cls-2" points="154.53 290.5 151.93 288.58 152.89 287.24 154.53 290.5"/>
    <polygon class="cls-2" points="150.74 290.5 153.34 288.58 152.43 287.24 150.74 290.5"/>
    <polygon class="cls-2" points="150.74 290.5 151.7 287.4 153.21 287.92 150.74 290.5"/>
    <polygon class="cls-2" points="177.88 268.23 177.1 270.42 178.2 270.84 177.88 268.23"/>
    <polygon class="cls-2" points="177.88 268.23 178.56 270.42 177.47 270.84 177.88 268.23"/>
    <polygon class="cls-2" points="180.07 269.87 177.79 269.87 177.79 271.02 180.07 269.87"/>
    <polygon class="cls-2" points="180.07 269.87 178.2 271.25 177.56 270.29 180.07 269.87"/>
    <polygon class="cls-2" points="175.59 269.87 177.56 271.25 178.2 270.29 175.59 269.87"/>
    <polygon class="cls-2" points="175.59 269.87 177.97 269.87 177.97 271.02 175.59 269.87"/>
    <polygon class="cls-2" points="179.25 272.48 178.47 270.22 177.47 270.61 179.25 272.48"/>
    <polygon class="cls-2" points="179.25 272.48 177.38 271.09 178.06 270.13 179.25 272.48"/>
    <polygon class="cls-2" points="176.51 272.48 178.38 271.09 177.7 270.13 176.51 272.48"/>
    <polygon class="cls-2" points="176.51 272.48 177.19 270.22 178.29 270.61 176.51 272.48"/>
    <polygon class="cls-2" points="190.54 284.86 189.26 288.77 191.08 289.43 190.54 284.86"/>
    <polygon class="cls-2" points="190.54 284.86 191.72 288.77 189.85 289.43 190.54 284.86"/>
    <polygon class="cls-2" points="194.33 287.72 190.26 287.72 190.26 289.73 194.33 287.72"/>
    <polygon class="cls-2" points="194.33 287.72 191.04 290.12 189.85 288.42 194.33 287.72"/>
    <polygon class="cls-2" points="186.61 287.72 189.9 290.12 191.08 288.42 186.61 287.72"/>
    <polygon class="cls-2" points="186.61 287.72 190.67 287.72 190.67 289.73 186.61 287.72"/>
    <polygon class="cls-2" points="192.91 292.22 191.63 288.38 189.67 289.02 192.91 292.22"/>
    <polygon class="cls-2" points="192.91 292.22 189.58 289.84 190.76 288.22 192.91 292.22"/>
    <polygon class="cls-2" points="188.16 292.22 191.36 289.84 190.17 288.22 188.16 292.22"/>
    <polygon class="cls-2" points="188.16 292.22 189.35 288.38 191.27 289.02 188.16 292.22"/>
    <polygon class="cls-2" points="187.06 296.24 185.78 300.14 187.7 300.78 187.06 296.24"/>
    <polygon class="cls-2" points="187.06 296.24 188.3 300.14 186.38 300.78 187.06 296.24"/>
    <polygon class="cls-2" points="190.95 299.09 186.88 299.09 186.88 301.08 190.95 299.09"/>
    <polygon class="cls-2" points="190.95 299.09 187.61 301.49 186.42 299.82 190.95 299.09"/>
    <polygon class="cls-2" points="183.23 299.09 186.51 301.49 187.7 299.82 183.23 299.09"/>
    <polygon class="cls-2" points="183.23 299.09 187.29 299.09 187.29 301.08 183.23 299.09"/>
    <polygon class="cls-2" points="189.44 303.64 188.25 299.73 186.29 300.37 189.44 303.64"/>
    <polygon class="cls-2" points="189.44 303.64 186.1 301.19 187.38 299.6 189.44 303.64"/>
    <polygon class="cls-2" points="184.69 303.64 187.98 301.19 186.79 299.6 184.69 303.64"/>
    <polygon class="cls-2" points="184.69 303.64 185.92 299.73 187.89 300.37 184.69 303.64"/>
    <polygon class="cls-2" points="285.48 209.59 283.97 214.27 286.35 215 285.48 209.59"/>
    <polygon class="cls-2" points="285.48 209.59 287.03 214.27 284.65 215 285.48 209.59"/>
    <polygon class="cls-2" points="290.14 212.97 285.25 212.97 285.25 215.46 290.14 212.97"/>
    <polygon class="cls-2" points="290.14 212.97 286.16 215.87 284.75 213.86 290.14 212.97"/>
    <polygon class="cls-2" points="280.82 212.97 284.84 215.87 286.25 213.86 280.82 212.97"/>
    <polygon class="cls-2" points="280.82 212.97 285.75 212.97 285.75 215.46 280.82 212.97"/>
    <polygon class="cls-2" points="288.4 218.5 286.85 213.82 284.56 214.59 288.4 218.5"/>
    <polygon class="cls-2" points="288.4 218.5 284.38 215.59 285.84 213.59 288.4 218.5"/>
    <polygon class="cls-2" points="282.6 218.5 286.58 215.59 285.16 213.59 282.6 218.5"/>
    <polygon class="cls-2" points="282.6 218.5 284.15 213.82 286.53 214.59 282.6 218.5"/>
    <polygon class="cls-2" points="330.16 285.32 328.65 289.98 331.03 290.75 330.16 285.32"/>
    <polygon class="cls-2" points="330.16 285.32 331.72 289.98 329.43 290.75 330.16 285.32"/>
    <polygon class="cls-2" points="334.87 288.7 329.93 288.7 329.93 291.12 334.87 288.7"/>
    <polygon class="cls-2" points="334.87 288.7 330.94 291.58 329.43 289.57 334.87 288.7"/>
    <polygon class="cls-2" points="325.5 288.7 329.52 291.58 330.94 289.57 325.5 288.7"/>
    <polygon class="cls-2" points="325.5 288.7 330.44 288.7 330.44 291.12 325.5 288.7"/>
    <polygon class="cls-2" points="333.18 294.18 331.62 289.52 329.25 290.25 333.18 294.18"/>
    <polygon class="cls-2" points="333.18 294.18 329.16 291.3 330.62 289.29 333.18 294.18"/>
    <polygon class="cls-2" points="327.33 294.18 331.31 291.3 329.84 289.29 327.33 294.18"/>
    <polygon class="cls-2" points="327.33 294.18 328.84 289.52 331.21 290.25 327.33 294.18"/>
    <polygon class="cls-2" points="346.15 288.04 345.06 291.12 346.7 291.62 346.15 288.04"/>
    <polygon class="cls-2" points="346.15 288.04 347.16 291.12 345.51 291.62 346.15 288.04"/>
    <polygon class="cls-2" points="349.17 290.3 345.97 290.3 345.97 291.9 349.17 290.3"/>
    <polygon class="cls-2" points="349.17 290.3 346.56 292.22 345.6 290.87 349.17 290.3"/>
    <polygon class="cls-2" points="343 290.3 345.6 292.22 346.66 290.87 343 290.3"/>
    <polygon class="cls-2" points="343 290.3 346.29 290.3 346.29 291.9 343 290.3"/>
    <polygon class="cls-2" points="347.98 293.93 347.07 290.8 345.47 291.35 347.98 293.93"/>
    <polygon class="cls-2" points="347.98 293.93 345.38 292.01 346.38 290.66 347.98 293.93"/>
    <polygon class="cls-2" points="344.19 293.93 346.79 292.01 345.88 290.66 344.19 293.93"/>
    <polygon class="cls-2" points="344.19 293.93 345.19 290.8 346.7 291.35 344.19 293.93"/>
    <polygon class="cls-2" points="334.87 296.24 333.68 300.14 335.55 300.78 334.87 296.24"/>
    <polygon class="cls-2" points="334.87 296.24 336.1 300.14 334.27 300.78 334.87 296.24"/>
    <polygon class="cls-2" points="338.75 299.09 334.69 299.09 334.69 301.08 338.75 299.09"/>
    <polygon class="cls-2" points="338.75 299.09 335.55 301.49 334.27 299.82 338.75 299.09"/>
    <polygon class="cls-2" points="331.03 299.09 334.37 301.49 335.55 299.82 331.03 299.09"/>
    <polygon class="cls-2" points="331.03 299.09 335.1 299.09 335.1 301.08 331.03 299.09"/>
    <polygon class="cls-2" points="337.29 303.64 336.06 299.73 334.09 300.37 337.29 303.64"/>
    <polygon class="cls-2" points="337.29 303.64 334 301.19 335.19 299.6 337.29 303.64"/>
    <polygon class="cls-2" points="332.49 303.64 335.78 301.19 334.59 299.6 332.49 303.64"/>
    <polygon class="cls-2" points="332.49 303.64 333.73 299.73 335.69 300.37 332.49 303.64"/>
    <polygon class="cls-2" points="307.32 320.22 306.04 324.09 307.96 324.75 307.32 320.22"/>
    <polygon class="cls-2" points="307.32 320.22 308.55 324.09 306.59 324.75 307.32 320.22"/>
    <polygon class="cls-2" points="311.2 323.08 307.14 323.08 307.14 325.14 311.2 323.08"/>
    <polygon class="cls-2" points="311.2 323.08 307.86 325.46 306.68 323.79 311.2 323.08"/>
    <polygon class="cls-2" points="303.48 323.08 306.77 325.46 307.86 323.79 303.48 323.08"/>
    <polygon class="cls-2" points="303.48 323.08 307.54 323.08 307.54 325.14 303.48 323.08"/>
    <polygon class="cls-2" points="309.65 327.63 308.51 323.74 306.45 324.36 309.65 327.63"/>
    <polygon class="cls-2" points="309.65 327.63 306.36 325.21 307.54 323.58 309.65 327.63"/>
    <polygon class="cls-2" points="304.94 327.63 308.23 325.21 307.04 323.58 304.94 327.63"/>
    <polygon class="cls-2" points="304.94 327.63 306.18 323.74 308.14 324.36 304.94 327.63"/>
    <polygon class="cls-2" points="307.14 332.61 306.18 335.67 307.73 336.19 307.14 332.61"/>
    <polygon class="cls-2" points="307.14 332.61 308.14 335.67 306.59 336.19 307.14 332.61"/>
    <polygon class="cls-2" points="310.24 334.87 307.04 334.87 307.04 336.49 310.24 334.87"/>
    <polygon class="cls-2" points="310.24 334.87 307.54 336.74 306.59 335.44 310.24 334.87"/>
    <polygon class="cls-2" points="304.07 334.87 306.68 336.74 307.64 335.44 304.07 334.87"/>
    <polygon class="cls-2" points="304.07 334.87 307.32 334.87 307.32 336.49 304.07 334.87"/>
    <polygon class="cls-2" points="309.05 338.46 308.05 335.42 306.45 335.87 309.05 338.46"/>
    <polygon class="cls-2" points="309.05 338.46 306.36 336.58 307.36 335.26 309.05 338.46"/>
    <polygon class="cls-2" points="305.26 338.46 307.86 336.58 306.86 335.26 305.26 338.46"/>
    <polygon class="cls-2" points="305.26 338.46 306.27 335.42 307.77 335.87 305.26 338.46"/>
    <polygon class="cls-2" points="318.74 312 317.64 315.13 319.15 315.63 318.74 312"/>
    <polygon class="cls-2" points="318.74 312 319.65 315.13 318.15 315.63 318.74 312"/>
    <polygon class="cls-2" points="321.8 314.26 318.46 314.26 318.46 315.91 321.8 314.26"/>
    <polygon class="cls-2" points="321.8 314.26 319.15 316.23 318.15 314.92 321.8 314.26"/>
    <polygon class="cls-2" points="315.59 314.26 318.24 316.23 319.15 314.92 315.59 314.26"/>
    <polygon class="cls-2" points="315.59 314.26 318.92 314.26 318.92 315.91 315.59 314.26"/>
    <polygon class="cls-2" points="320.61 317.92 319.56 314.83 318.06 315.34 320.61 317.92"/>
    <polygon class="cls-2" points="320.61 317.92 317.96 316.02 319.01 314.7 320.61 317.92"/>
    <polygon class="cls-2" points="316.77 317.92 319.43 316.02 318.46 314.7 316.77 317.92"/>
    <polygon class="cls-2" points="316.77 317.92 317.83 314.83 319.34 315.34 316.77 317.92"/>
    <polygon class="cls-2" points="327.88 305.45 326.64 309.31 328.52 309.94 327.88 305.45"/>
    <polygon class="cls-2" points="327.88 305.45 329.16 309.31 327.15 309.94 327.88 305.45"/>
    <polygon class="cls-2" points="331.72 308.28 327.65 308.28 327.65 310.29 331.72 308.28"/>
    <polygon class="cls-2" points="331.72 308.28 328.52 310.68 327.33 308.98 331.72 308.28"/>
    <polygon class="cls-2" points="323.99 308.28 327.33 310.68 328.52 308.98 323.99 308.28"/>
    <polygon class="cls-2" points="323.99 308.28 328.06 308.28 328.06 310.29 323.99 308.28"/>
    <polygon class="cls-2" points="330.25 312.78 329.07 308.96 327.05 309.58 330.25 312.78"/>
    <polygon class="cls-2" points="330.25 312.78 326.96 310.4 328.15 308.76 330.25 312.78"/>
    <polygon class="cls-2" points="325.46 312.78 328.84 310.4 327.56 308.76 325.46 312.78"/>
    <polygon class="cls-2" points="325.46 312.78 326.78 308.96 328.65 309.58 325.46 312.78"/>
    <polygon class="cls-2" points="306.77 309.83 305.86 312.94 307.36 313.46 306.77 309.83"/>
    <polygon class="cls-2" points="306.77 309.83 307.86 312.94 306.27 313.46 306.77 309.83"/>
    <polygon class="cls-2" points="310.01 312.12 306.68 312.12 306.68 313.74 310.01 312.12"/>
    <polygon class="cls-2" points="310.01 312.12 307.32 314.01 306.36 312.66 310.01 312.12"/>
    <polygon class="cls-2" points="303.75 312.12 306.36 314.01 307.32 312.66 303.75 312.12"/>
    <polygon class="cls-2" points="303.75 312.12 307.04 312.12 307.04 313.74 303.75 312.12"/>
    <polygon class="cls-2" points="308.82 315.79 307.77 312.64 306.18 313.12 308.82 315.79"/>
    <polygon class="cls-2" points="308.82 315.79 306.13 313.81 307.04 312.55 308.82 315.79"/>
    <polygon class="cls-2" points="304.94 315.79 307.54 313.81 306.59 312.55 304.94 315.79"/>
    <polygon class="cls-2" points="304.94 315.79 305.95 312.64 307.54 313.12 304.94 315.79"/>
    <polygon class="cls-2" points="206.39 250.62 205.11 254.48 207.07 255.09 206.39 250.62"/>
    <polygon class="cls-2" points="206.39 250.62 207.62 254.48 205.7 255.09 206.39 250.62"/>
    <polygon class="cls-2" points="210.27 253.43 206.21 253.43 206.21 255.46 210.27 253.43"/>
    <polygon class="cls-2" points="210.27 253.43 206.98 255.87 205.79 254.18 210.27 253.43"/>
    <polygon class="cls-2" points="202.46 253.43 205.79 255.87 206.98 254.18 202.46 253.43"/>
    <polygon class="cls-2" points="202.46 253.43 206.53 253.43 206.53 255.46 202.46 253.43"/>
    <polygon class="cls-2" points="208.77 257.99 207.58 254.14 205.61 254.75 208.77 257.99"/>
    <polygon class="cls-2" points="208.77 257.99 205.43 255.6 206.62 253.93 208.77 257.99"/>
    <polygon class="cls-2" points="203.92 257.99 207.3 255.6 206.11 253.93 203.92 257.99"/>
    <polygon class="cls-2" points="203.92 257.99 205.25 254.14 207.12 254.75 203.92 257.99"/>
    <polygon class="cls-2" points="281.09 240.95 280.18 244.08 281.69 244.56 281.09 240.95"/>
    <polygon class="cls-2" points="281.09 240.95 282.19 244.08 280.59 244.56 281.09 240.95"/>
    <polygon class="cls-2" points="284.29 243.26 281 243.26 281 244.86 284.29 243.26"/>
    <polygon class="cls-2" points="284.29 243.26 281.59 245.18 280.68 243.85 284.29 243.26"/>
    <polygon class="cls-2" points="278.03 243.26 280.68 245.18 281.59 243.85 278.03 243.26"/>
    <polygon class="cls-2" points="278.03 243.26 281.37 243.26 281.37 244.86 278.03 243.26"/>
    <polygon class="cls-2" points="283.1 246.92 282.01 243.79 280.5 244.31 283.1 246.92"/>
    <polygon class="cls-2" points="283.1 246.92 280.41 244.95 281.37 243.63 283.1 246.92"/>
    <polygon class="cls-2" points="279.22 246.92 281.87 244.95 280.91 243.63 279.22 246.92"/>
    <polygon class="cls-2" points="279.22 246.92 280.22 243.79 281.78 244.31 279.22 246.92"/>
    <polygon class="cls-2" points="249.98 296.51 248.42 301.17 250.8 301.95 249.98 296.51"/>
    <polygon class="cls-2" points="249.98 296.51 251.49 301.17 249.2 301.95 249.98 296.51"/>
    <polygon class="cls-2" points="254.64 299.89 249.79 299.89 249.79 302.36 254.64 299.89"/>
    <polygon class="cls-2" points="254.64 299.89 250.71 302.82 249.29 300.78 254.64 299.89"/>
    <polygon class="cls-2" points="245.32 299.89 249.38 302.82 250.71 300.78 245.32 299.89"/>
    <polygon class="cls-2" points="245.32 299.89 250.21 299.89 250.21 302.36 245.32 299.89"/>
    <polygon class="cls-2" points="252.86 305.4 251.39 300.76 249.02 301.49 252.86 305.4"/>
    <polygon class="cls-2" points="252.86 305.4 248.93 302.5 250.3 300.53 252.86 305.4"/>
    <polygon class="cls-2" points="247.1 305.4 251.07 302.5 249.61 300.53 247.1 305.4"/>
    <polygon class="cls-2" points="247.1 305.4 248.61 300.76 250.98 301.49 247.1 305.4"/>
    <polygon class="cls-2" points="263.27 274.6 261.99 278.49 263.96 279.08 263.27 274.6"/>
    <polygon class="cls-2" points="263.27 274.6 264.55 278.49 262.59 279.08 263.27 274.6"/>
    <polygon class="cls-2" points="267.11 277.44 263 277.44 263 279.42 267.11 277.44"/>
    <polygon class="cls-2" points="267.11 277.44 263.78 279.81 262.59 278.17 267.11 277.44"/>
    <polygon class="cls-2" points="259.39 277.44 262.68 279.81 263.87 278.17 259.39 277.44"/>
    <polygon class="cls-2" points="259.39 277.44 263.46 277.44 263.46 279.42 259.39 277.44"/>
    <polygon class="cls-2" points="265.65 281.98 264.37 278.08 262.45 278.74 265.65 281.98"/>
    <polygon class="cls-2" points="265.65 281.98 262.36 279.56 263.55 277.89 265.65 281.98"/>
    <polygon class="cls-2" points="260.81 281.98 264.14 279.56 262.95 277.89 260.81 281.98"/>
    <polygon class="cls-2" points="260.81 281.98 262.08 278.08 264.05 278.74 260.81 281.98"/>
    <polygon class="cls-2" points="249.98 264.35 248.7 268.19 250.66 268.82 249.98 264.35"/>
    <polygon class="cls-2" points="249.98 264.35 251.21 268.19 249.38 268.82 249.98 264.35"/>
    <polygon class="cls-2" points="253.86 267.13 249.79 267.13 249.79 269.19 253.86 267.13"/>
    <polygon class="cls-2" points="253.86 267.13 250.57 269.51 249.38 267.89 253.86 267.13"/>
    <polygon class="cls-2" points="246.14 267.13 249.47 269.51 250.57 267.89 246.14 267.13"/>
    <polygon class="cls-2" points="246.14 267.13 250.21 267.13 250.21 269.19 246.14 267.13"/>
    <polygon class="cls-2" points="252.4 271.7 251.17 267.82 249.2 268.41 252.4 271.7"/>
    <polygon class="cls-2" points="252.4 271.7 249.11 269.3 250.3 267.64 252.4 271.7"/>
    <polygon class="cls-2" points="247.6 271.7 250.89 269.3 249.7 267.64 247.6 271.7"/>
    <polygon class="cls-2" points="247.6 271.7 248.83 267.82 250.8 268.41 247.6 271.7"/>
    <polygon class="cls-2" points="238.42 275.4 237.41 278.53 239.01 279.03 238.42 275.4"/>
    <polygon class="cls-2" points="238.42 275.4 239.51 278.53 237.92 279.03 238.42 275.4"/>
    <polygon class="cls-2" points="241.57 277.67 238.33 277.67 238.33 279.26 241.57 277.67"/>
    <polygon class="cls-2" points="241.57 277.67 238.92 279.58 237.92 278.24 241.57 277.67"/>
    <polygon class="cls-2" points="235.4 277.67 238.01 279.58 238.92 278.24 235.4 277.67"/>
    <polygon class="cls-2" points="235.4 277.67 238.6 277.67 238.6 279.26 235.4 277.67"/>
    <polygon class="cls-2" points="240.38 281.32 239.42 278.21 237.82 278.72 240.38 281.32"/>
    <polygon class="cls-2" points="240.38 281.32 237.78 279.4 238.78 278.08 240.38 281.32"/>
    <polygon class="cls-2" points="236.59 281.32 239.2 279.4 238.24 278.08 236.59 281.32"/>
    <polygon class="cls-2" points="236.59 281.32 237.59 278.21 239.1 278.72 236.59 281.32"/>
    <polygon class="cls-2" points="244.27 284.29 243.53 286.51 244.63 286.85 244.27 284.29"/>
    <polygon class="cls-2" points="244.27 284.29 244.95 286.51 243.85 286.85 244.27 284.29"/>
    <polygon class="cls-2" points="246.46 285.89 244.13 285.89 244.13 287.05 246.46 285.89"/>
    <polygon class="cls-2" points="246.46 285.89 244.63 287.28 243.95 286.32 246.46 285.89"/>
    <polygon class="cls-2" points="241.98 285.89 243.95 287.28 244.63 286.32 241.98 285.89"/>
    <polygon class="cls-2" points="241.98 285.89 244.36 285.89 244.36 287.05 241.98 285.89"/>
    <polygon class="cls-2" points="245.55 288.54 244.86 286.3 243.76 286.64 245.55 288.54"/>
    <polygon class="cls-2" points="245.55 288.54 243.67 287.14 244.45 286.19 245.55 288.54"/>
    <polygon class="cls-2" points="242.85 288.54 244.72 287.14 244.04 286.19 242.85 288.54"/>
    <polygon class="cls-2" points="242.85 288.54 243.63 286.3 244.72 286.64 242.85 288.54"/>
    <polygon class="cls-2" points="284.29 323.01 283.01 326.92 284.98 327.58 284.29 323.01"/>
    <polygon class="cls-2" points="284.29 323.01 285.57 326.92 283.56 327.58 284.29 323.01"/>
    <polygon class="cls-2" points="288.13 325.82 284.06 325.82 284.06 327.92 288.13 325.82"/>
    <polygon class="cls-2" points="288.13 325.82 284.84 328.26 283.65 326.58 288.13 325.82"/>
    <polygon class="cls-2" points="280.41 325.82 283.65 328.26 284.93 326.58 280.41 325.82"/>
    <polygon class="cls-2" points="280.41 325.82 284.47 325.82 284.47 327.92 280.41 325.82"/>
    <polygon class="cls-2" points="286.67 330.44 285.39 326.53 283.47 327.19 286.67 330.44"/>
    <polygon class="cls-2" points="286.67 330.44 283.38 328.04 284.56 326.39 286.67 330.44"/>
    <polygon class="cls-2" points="281.87 330.44 285.16 328.04 283.97 326.39 281.87 330.44"/>
    <polygon class="cls-2" points="281.87 330.44 283.1 326.53 285.07 327.19 281.87 330.44"/>
    <polygon class="cls-2" points="294.07 313.74 293.06 316.84 294.57 317.37 294.07 313.74"/>
    <polygon class="cls-2" points="294.07 313.74 295.07 316.84 293.47 317.37 294.07 313.74"/>
    <polygon class="cls-2" points="297.17 316.02 293.89 316.02 293.89 317.57 297.17 316.02"/>
    <polygon class="cls-2" points="297.17 316.02 294.57 317.89 293.57 316.61 297.17 316.02"/>
    <polygon class="cls-2" points="290.91 316.02 293.57 317.89 294.57 316.61 290.91 316.02"/>
    <polygon class="cls-2" points="290.91 316.02 294.25 316.02 294.25 317.57 290.91 316.02"/>
    <polygon class="cls-2" points="295.99 319.63 294.98 316.52 293.47 317.05 295.99 319.63"/>
    <polygon class="cls-2" points="295.99 319.63 293.38 317.71 294.34 316.39 295.99 319.63"/>
    <polygon class="cls-2" points="292.19 319.63 294.8 317.71 293.79 316.39 292.19 319.63"/>
    <polygon class="cls-2" points="292.19 319.63 293.2 316.52 294.75 317.05 292.19 319.63"/>
    <polygon class="cls-2" points="275.24 310.93 274.24 314.01 275.75 314.56 275.24 310.93"/>
    <polygon class="cls-2" points="275.24 310.93 276.25 314.01 274.74 314.56 275.24 310.93"/>
    <polygon class="cls-2" points="278.3 313.16 275.06 313.16 275.06 314.83 278.3 313.16"/>
    <polygon class="cls-2" points="278.3 313.16 275.66 315.13 274.74 313.76 278.3 313.16"/>
    <polygon class="cls-2" points="272.09 313.16 274.74 315.13 275.66 313.76 272.09 313.16"/>
    <polygon class="cls-2" points="272.09 313.16 275.43 313.16 275.43 314.83 272.09 313.16"/>
    <polygon class="cls-2" points="277.16 316.84 276.16 313.74 274.56 314.26 277.16 316.84"/>
    <polygon class="cls-2" points="277.16 316.84 274.47 314.92 275.47 313.62 277.16 316.84"/>
    <polygon class="cls-2" points="273.28 316.84 275.93 314.92 274.97 313.62 273.28 316.84"/>
    <polygon class="cls-2" points="273.28 316.84 274.28 313.74 275.93 314.26 273.28 316.84"/>
    <polygon class="cls-2" points="204.01 305.85 202.55 310.49 204.84 311.27 204.01 305.85"/>
    <polygon class="cls-2" points="204.01 305.85 205.52 310.49 203.24 311.27 204.01 305.85"/>
    <polygon class="cls-2" points="208.77 309.28 203.83 309.28 203.83 311.73 208.77 309.28"/>
    <polygon class="cls-2" points="208.77 309.28 204.7 312.14 203.33 310.15 208.77 309.28"/>
    <polygon class="cls-2" points="199.31 309.28 203.42 312.14 204.74 310.15 199.31 309.28"/>
    <polygon class="cls-2" points="199.31 309.28 204.24 309.28 204.24 311.73 199.31 309.28"/>
    <polygon class="cls-2" points="206.89 314.74 205.43 310.1 203.15 310.84 206.89 314.74"/>
    <polygon class="cls-2" points="206.89 314.74 202.96 311.86 204.33 309.88 206.89 314.74"/>
    <polygon class="cls-2" points="201.13 314.74 205.11 311.86 203.65 309.88 201.13 314.74"/>
    <polygon class="cls-2" points="201.13 314.74 202.73 310.1 205.02 310.84 201.13 314.74"/>
    <polygon class="cls-2" points="249.98 337.93 249.47 339.51 250.21 339.76 249.98 337.93"/>
    <polygon class="cls-2" points="249.98 337.93 250.48 339.51 249.79 339.76 249.98 337.93"/>
    <polygon class="cls-2" points="251.58 339.09 249.89 339.09 249.89 339.89 251.58 339.09"/>
    <polygon class="cls-2" points="251.58 339.09 250.21 340.05 249.79 339.37 251.58 339.09"/>
    <polygon class="cls-2" points="248.42 339.09 249.79 340.05 250.21 339.37 248.42 339.09"/>
    <polygon class="cls-2" points="248.42 339.09 250.02 339.09 250.02 339.89 248.42 339.09"/>
    <polygon class="cls-2" points="250.89 340.9 250.48 339.35 249.7 339.62 250.89 340.9"/>
    <polygon class="cls-2" points="250.89 340.9 249.61 339.96 250.02 339.32 250.89 340.9"/>
    <polygon class="cls-2" points="249.02 340.9 250.3 339.96 249.89 339.32 249.02 340.9"/>
    <polygon class="cls-2" points="249.02 340.9 249.56 339.35 250.3 339.62 249.02 340.9"/>
  </g>
</svg>