<?xml version="1.0" encoding="UTF-8"?>
<svg id="_Layer_" data-name="&amp;lt;Layer&amp;gt;" xmlns="http://www.w3.org/2000/svg" viewBox="0 0 500 500">
  <defs>
    <style>
      .cls-1 {
        fill: #e53223;
      }

      .cls-2 {
        fill: #fff;
      }
    </style>
  </defs>
  <rect class="cls-2" x="62.21" width="375.58" height="500"/>
  <rect class="cls-1" x="-125" width="187.21" height="500"/>
  <rect class="cls-1" x="437.79" width="187.21" height="500"/>
  <path class="cls-1" d="M328.13,307.57c5.44-4.08,69.06-56.52,69.06-56.52,0,0-7.76-3.51-14.04-6.61-6.26-3.08-5.09-5.09-4.01-10.19,1.09-5.1,11.99-43.83,11.99-43.83,0,0-30.96,6.81-38.49,8.23-7.51,1.42-9.68-1.34-10.68-5.43-1.01-4.09-4.69-17.05-4.69-17.05,0,0-25.31,28.25-32.18,36.09-6.83,7.87-13.78,4.25-11.85-6.18,1.93-10.45,14.32-75.25,14.32-75.25,0,0-11.1,6.11-18.79,9.7-7.69,3.59-10.86,2.85-14.04-2.51-3.18-5.35-25.32-47.08-25.32-47.08,0,0-22.15,41.74-25.32,47.08-3.17,5.35-6.34,6.1-14.04,2.51-7.69-3.59-18.8-9.7-18.8-9.7,0,0,12.42,64.8,14.35,75.25,1.92,10.43-5.01,14.05-11.87,6.18-6.86-7.84-32.18-36.09-32.18-36.09,0,0-3.68,12.95-4.68,17.05-.99,4.09-3.18,6.85-10.69,5.43-7.53-1.42-38.49-8.23-38.49-8.23,0,0,10.91,38.73,11.99,43.83,1.09,5.09,2.26,7.11-4.01,10.19-6.28,3.1-14.04,6.61-14.04,6.61,0,0,63.63,52.44,69.06,56.52,5.43,4.1,6.52,6.53,3.84,15.04-2.68,8.53-4.84,16.89-4.84,16.89,0,0,62.88-8.82,69.82-9.72,6.93-.93,6.26,6.43,6.1,10.26-.16,3.85-1.85,70.18-1.85,70.18h11.31s-1.69-66.34-1.85-70.18c-.16-3.83-.85-11.2,6.1-10.26,6.93.91,69.81,9.72,69.81,9.72,0,0-2.18-8.36-4.85-16.89-2.66-8.51-1.59-10.95,3.85-15.04Z"/>
</svg>