<?xml version="1.0" encoding="UTF-8"?>
<svg id="_Layer_" data-name="&amp;lt;Layer&amp;gt;" xmlns="http://www.w3.org/2000/svg" viewBox="0 0 500 500">
  <defs>
    <style>
      .cls-1 {
        fill: #16369a;
      }

      .cls-2 {
        fill: #f8dd5a;
      }

      .cls-3 {
        fill: #e43424;
      }

      .cls-4 {
        fill: #f1f1f2;
      }
    </style>
  </defs>
  <path class="cls-1" d="M-125,500h750v-139.71H-125v139.71h0ZM625,250V0H-125v250h750Z"/>
  <path class="cls-4" d="M-125,360.29h750v-36.76H-125v36.76h0ZM625,286.76v-36.76H-125v36.76h750Z"/>
  <polygon class="cls-3" points="-125 323.53 625 323.53 625 286.76 -125 286.76 -125 323.53 -125 323.53"/>
  <path class="cls-2" d="M156.25,171.96l5.14,15.91,16.73-.03-13.55,9.8,5.2,15.9-13.5-9.86-13.51,9.86,5.2-15.9-13.55-9.8,16.72.03,5.14-15.91h0ZM91.43,193.02l5.14,15.91,16.72-.03-13.54,9.79,5.19,15.89-13.51-9.86-13.5,9.86,5.2-15.89-13.54-9.79,16.72.03,5.13-15.91h0ZM51.36,248.16l5.13,15.92,16.72-.04-13.54,9.8,5.2,15.89-13.51-9.85-13.51,9.85,5.2-15.89-13.55-9.8,16.72.04,5.14-15.92h0ZM51.36,316.34l5.13,15.91,16.72-.03-13.54,9.8,5.2,15.89-13.51-9.85-13.51,9.85,5.2-15.89-13.55-9.8,16.72.03,5.14-15.91h0ZM91.43,371.49l5.14,15.91,16.72-.04-13.54,9.8,5.19,15.89-13.51-9.86-13.5,9.86,5.2-15.89-13.54-9.8,16.72.04,5.13-15.91h0ZM156.25,392.54l5.14,15.92,16.73-.04-13.55,9.8,5.2,15.9-13.5-9.86-13.51,9.86,5.2-15.9-13.55-9.8,16.72.04,5.14-15.92h0ZM221.07,371.49l5.14,15.91,16.73-.04-13.55,9.8,5.2,15.89-13.51-9.86-13.5,9.86,5.2-15.89-13.55-9.8,16.72.04,5.13-15.91h0ZM261.15,316.34l5.14,15.91,16.72-.03-13.54,9.8,5.19,15.89-13.5-9.85-13.51,9.85,5.2-15.89-13.54-9.8,16.72.03,5.14-15.91h0ZM261.15,248.16l5.14,15.92,16.72-.04-13.54,9.8,5.19,15.89-13.5-9.85-13.51,9.85,5.2-15.89-13.54-9.8,16.72.04,5.14-15.92h0ZM221.07,193.02l5.14,15.91,16.73-.03-13.55,9.79,5.2,15.89-13.51-9.86-13.5,9.86,5.2-15.89-13.55-9.79,16.72.03,5.13-15.91h0Z"/>
</svg>