<?xml version="1.0" encoding="UTF-8"?>
<svg xmlns="http://www.w3.org/2000/svg" viewBox="0 0 500 500">
  <defs>
    <style>
      .cls-1 {
        fill: #e93323;
      }

      .cls-2 {
        mix-blend-mode: multiply;
        opacity: .3;
      }

      .cls-3 {
        fill: #f3b740;
      }

      .cls-4 {
        fill: #190183;
      }

      .cls-5 {
        isolation: isolate;
      }

      .cls-6 {
        fill: #fff;
      }

      .cls-7 {
        fill: #102f99;
      }

      .cls-8 {
        fill: #57bee2;
      }

      .cls-9 {
        fill: #3f74d9;
      }

      .cls-10 {
        fill: #e83;
      }
    </style>
  </defs>
  <g class="cls-5">
    <g id="_Layer_" data-name="&amp;lt;Layer&amp;gt;">
      <g>
        <rect class="cls-6" x="-125" y="166" width="750" height="168"/>
        <rect class="cls-1" x="-125" width="750" height="168"/>
        <rect class="cls-7" x="-125" y="332" width="750" height="168"/>
        <g>
          <path class="cls-6" d="M348.64,127.18c-3.99-8.21-8.53-16.34-13.48-24.14l-.76-1.2-1.36.41c-7.93,2.39-15.74,5.29-23.26,8.59-4.97-6.87-10.39-13.58-16.14-19.94l-.97-1.07-1.28.67c-7.39,3.86-14.58,8.18-21.42,12.83-5.98-5.84-12.37-11.42-19.03-16.61l-1.15-.89-1.15.89c-6.66,5.18-13.04,10.77-19.03,16.61-6.83-4.64-14.02-8.97-21.42-12.83l-1.28-.67-.97,1.07c-5.75,6.36-11.17,13.06-16.14,19.94-7.52-3.3-15.33-6.19-23.26-8.59l-1.36-.41-.76,1.2c-4.95,7.8-9.49,15.92-13.48,24.14l-.37.77,19.7,45.52,1.77-.9c4.85-2.46,9.87-4.71,14.91-6.68,5.01-1.97,10.17-3.72,15.34-5.2,5.13-1.48,10.4-2.72,15.66-3.71,5.23-.99,10.57-1.73,15.87-2.23,5.29-.49,10.66-.74,15.98-.74s10.69.25,15.98.74c5.3.49,10.64,1.24,15.87,2.23,5.25.99,10.52,2.24,15.66,3.71,5.17,1.49,10.33,3.23,15.34,5.2,5.04,1.98,10.06,4.23,14.91,6.68l1.77.9,19.7-45.52-.38-.77Z"/>
          <path class="cls-8" d="M333.58,104.05c-8.48,2.56-16.64,5.61-24.43,9.1-3.78,15.25-7.56,30.5-11.34,45.75,5.23,1.5,10.4,3.25,15.5,5.26,5.1,2,10.13,4.25,15.07,6.76,6.19-14.3,12.38-28.61,18.57-42.91-3.94-8.11-8.4-16.11-13.38-23.95Z"/>
          <path class="cls-7" d="M207.33,92.16c-6.13,6.77-11.76,13.78-16.9,20.98,3.78,15.25,7.56,30.5,11.34,45.75,5.23-1.5,10.51-2.75,15.83-3.75,5.32-1,10.67-1.75,16.04-2.25-1.27-15.72-2.54-31.44-3.82-47.16-7.09-4.89-14.59-9.43-22.5-13.56Z"/>
          <path class="cls-4" d="M232.58,139.76c-5.46.54-11.38,1.2-16.92,2.11-5.83,1.02-11.57,2.24-17.16,3.79-1-4.03-2-8.05-3-12.08,5.85-2.05,11.59-3.52,17.45-4.53,6.02-.9,12.68-1.14,18.67-1.05.32,3.92.64,7.84.95,11.76Z"/>
          <path class="cls-1" d="M168.19,175.8l-.42,104.61c3.12,41.49,45.97,73.22,84.71,71.48,35.91.25,75.2-30.29,79.35-71.14v-104.95h-163.63ZM329.88,280.65c-1.91,18.58-11.46,36.14-26.9,49.45-14.63,12.62-32.87,19.85-50.05,19.85h-.54c-.97.05-1.97.07-2.96.07-18.19,0-37.38-7.35-52.65-20.17-16.04-13.46-25.65-31.04-27.06-49.51l.41-102.6h159.75v102.91Z"/>
          <path class="cls-6" d="M329.88,177.74v102.91c-1.91,18.58-11.46,36.14-26.9,49.45-14.63,12.62-32.87,19.85-50.05,19.85h-.54c-.97.05-1.97.07-2.96.07-18.19,0-37.38-7.35-52.65-20.17-16.04-13.46-25.65-31.04-27.06-49.51l.41-102.6h159.75Z"/>
          <g>
            <rect class="cls-1" x="233.78" y="247.08" width="32.03" height="34.67"/>
            <rect class="cls-1" x="201.74" y="212.41" width="32.03" height="34.67"/>
            <rect class="cls-1" x="233.78" y="179.69" width="32.03" height="32.72"/>
            <path class="cls-1" d="M233.78,346.26c5.22,1.18,10.48,1.81,15.65,1.81.96,0,1.93-.02,2.96-.07h.54c4.25,0,8.57-.46,12.89-1.35v-30.25h-32.03v29.86Z"/>
            <path class="cls-1" d="M301.7,328.63c4.35-3.75,8.21-7.86,11.56-12.22h-15.42v15.34c1.31-1,2.61-2.03,3.86-3.12Z"/>
            <polygon class="cls-1" points="172.06 179.69 171.93 212.41 201.74 212.41 201.74 179.69 172.06 179.69"/>
            <path class="cls-1" d="M327.77,281.74c.05-.4.11-.8.16-1.2v-33.47h-30.09v34.67h29.93Z"/>
            <path class="cls-1" d="M198.02,328.35c1.21,1.02,2.46,1.99,3.72,2.93v-14.88h-15.36c3.37,4.25,7.25,8.26,11.64,11.95Z"/>
            <path class="cls-1" d="M171.79,247.08l-.13,33.19c.04.49.11.98.15,1.48h29.93v-34.67h-29.95Z"/>
            <rect class="cls-1" x="201.74" y="281.74" width="32.03" height="34.67"/>
            <rect class="cls-1" x="297.84" y="179.69" width="30.09" height="32.72"/>
            <rect class="cls-1" x="265.81" y="281.74" width="32.03" height="34.67"/>
            <rect class="cls-1" x="265.81" y="212.41" width="32.03" height="34.67"/>
          </g>
          <path class="cls-8" d="M249.79,88.2c-7.11,5.53-13.77,11.39-19.97,17.52,1.27,15.72,2.54,31.44,3.82,47.16,5.37-.5,10.76-.75,16.15-.75s10.78.25,16.15.75c1.27-15.72,2.54-31.44,3.82-47.16-6.19-6.13-12.86-11.99-19.96-17.52Z"/>
          <path class="cls-7" d="M292.25,92.16c-7.9,4.13-15.41,8.67-22.5,13.56-1.27,15.72-2.54,31.44-3.82,47.16,5.37.5,10.73,1.25,16.04,2.25,5.32,1,10.6,2.25,15.83,3.75,3.78-15.25,7.56-30.5,11.34-45.75-5.14-7.2-10.77-14.22-16.9-20.98Z"/>
          <path class="cls-8" d="M166.01,104.05c-4.98,7.84-9.44,15.84-13.38,23.95,6.19,14.3,12.38,28.61,18.57,42.91,4.94-2.5,9.97-4.76,15.07-6.76,5.1-2,10.28-3.75,15.5-5.26-3.78-15.25-7.56-30.5-11.34-45.75-7.79-3.49-15.94-6.54-24.42-9.1Z"/>
          <path class="cls-9" d="M340.87,142.08c-.67,1.54-1.33,3.07-1.99,4.6-1.73,4-3.46,7.99-5.19,11.99-.62,1.45-1.25,2.89-1.88,4.34-5.64-2.14-11.04-3.78-16.62-5.56-5.27-1.67-10.46-3.23-15.81-4.86.38-1.54.77-3.08,1.15-4.63,1.04-4.17,2.07-8.36,3.1-12.54.41-1.61.81-3.22,1.21-4.83,6.78,1.41,12.93,3.03,19.08,5.06,5.83,1.83,11.34,4.04,16.96,6.44Z"/>
          <polygon class="cls-3" points="170.46 117.63 174.2 120.26 178.34 118.33 177.93 122.88 181.67 125.51 177.53 127.43 177.12 131.98 173.38 129.35 169.24 131.27 169.65 126.73 165.91 124.1 170.05 122.18 170.46 117.63"/>
          <polygon class="cls-3" points="330.86 113.37 327.13 116 322.98 114.07 323.39 118.62 319.65 121.25 323.79 123.17 324.2 127.72 327.94 125.09 332.08 127.01 331.67 122.47 335.41 119.84 331.27 117.92 330.86 113.37"/>
          <path class="cls-6" d="M189.78,134.7c.13.7.2,1.41.2,2.14,0,6.65-5.39,12.04-12.03,12.04-4.58,0-8.56-2.56-10.6-6.32,1.01,5.62,5.92,9.89,11.83,9.89,6.65,0,12.04-5.39,12.04-12.04,0-2.07-.52-4.01-1.44-5.71Z"/>
          <g>
            <path class="cls-3" d="M246.91,111.52v-1.23h1.34v-1.39h-3v1.02h-1.82v-1.55h-1.34v-.85h-1.93v.85h-1.34v1.55h-1.82v-1.02h-3v1.39h1.34v1.23h1.34l.27,1.66h-2.94v1.66h1.47v1.23h-1.47v1.98h1.18v2.5s2.94,3.98,5.94,3.98,5.94-3.98,5.94-3.98v-2.5h1.18v-1.98h-1.47v-1.23h1.47v-1.66h-2.94l.27-1.66h1.34Z"/>
            <g class="cls-2">
              <rect class="cls-10" x="238.45" y="114.78" width="1.71" height="1.71"/>
              <rect class="cls-10" x="242.09" y="114.78" width="1.71" height="1.71"/>
            </g>
            <g class="cls-2">
              <rect class="cls-10" x="238.56" y="119.39" width="1.71" height=".86"/>
              <rect class="cls-10" x="241.98" y="119.39" width="1.71" height=".86"/>
              <rect class="cls-10" x="240.27" y="120.24" width="1.71" height=".86"/>
            </g>
          </g>
          <g>
            <path class="cls-3" d="M264.24,111.52v-1.23h1.34v-1.39h-3v1.02h-1.82v-1.55h-1.34v-.85h-1.93v.85h-1.34v1.55h-1.82v-1.02h-3v1.39h1.34v1.23h1.34l.27,1.66h-2.94v1.66h1.47v1.23h-1.47v1.98h1.18v2.5s2.94,3.98,5.94,3.98,5.94-3.98,5.94-3.98v-2.5h1.18v-1.98h-1.47v-1.23h1.47v-1.66h-2.94l.27-1.66h1.34Z"/>
            <g class="cls-2">
              <rect class="cls-10" x="255.78" y="114.78" width="1.71" height="1.71"/>
              <rect class="cls-10" x="259.42" y="114.78" width="1.71" height="1.71"/>
            </g>
            <g class="cls-2">
              <rect class="cls-10" x="255.89" y="119.39" width="1.71" height=".86"/>
              <rect class="cls-10" x="259.32" y="119.39" width="1.71" height=".86"/>
              <rect class="cls-10" x="257.6" y="120.24" width="1.71" height=".86"/>
            </g>
          </g>
          <g>
            <path class="cls-3" d="M255.57,132.22v-1.23h1.34v-1.39h-2.99v1.02h-1.82v-1.55h-1.34v-.86h-1.93v.86h-1.34v1.55h-1.82v-1.02h-3v1.39h1.34v1.23h1.34l.27,1.66h-2.94v1.66h1.47v1.23h-1.47v1.98h1.18v2.5s2.94,3.98,5.94,3.98,5.94-3.98,5.94-3.98v-2.5h1.18v-1.98h-1.47v-1.23h1.47v-1.66h-2.94l.27-1.66h1.34Z"/>
            <g class="cls-2">
              <rect class="cls-10" x="247.12" y="135.49" width="1.71" height="1.71"/>
              <rect class="cls-10" x="250.76" y="135.49" width="1.71" height="1.71"/>
            </g>
            <g class="cls-2">
              <rect class="cls-10" x="247.22" y="140.09" width="1.71" height=".86"/>
              <rect class="cls-10" x="250.65" y="140.09" width="1.71" height=".86"/>
              <rect class="cls-10" x="248.94" y="140.94" width="1.71" height=".86"/>
            </g>
          </g>
          <path class="cls-1" d="M230.74,117.05c-5.4.22-9.75.31-19.51,1.8-8.94,1.53-13.17,2.7-18.21,4.73-.87-3.46-1.72-6.94-2.58-10.4,5.57-2.61,11.7-4.67,18.12-5.75,7-1.19,14.02-1.44,21.27-1.64.3,3.76.6,7.51.91,11.27Z"/>
          <path class="cls-1" d="M232.58,139.76c-5.46.54-11.38,1.2-16.92,2.11-5.83,1.02-11.57,2.24-17.16,3.79-1-4.03-2-8.05-3-12.08,5.85-2.05,11.59-3.52,17.45-4.53,6.02-.9,12.68-1.14,18.67-1.05.32,3.92.64,7.84.95,11.76Z"/>
          <g>
            <path class="cls-1" d="M288.1,122.3c1.65.4,3.26.62,4.57.62.33,0,.66-.04.99-.07.85-.07,1.65-.36,2.42-.72.42-.2.87-.37,1.26-.64.17-.12.36-.25.41-.46.04-.16-.1-.27.01-.45-.23,0-.63-.09-.84,0-1.54.62-3.18.48-4.39.37-.69-.11-1.1-.37-1.65-.62-.23-.11-1.61-.5-1.26-.83.27-.24,1.23-.05,1.59-.08.52-.05.99-.19,1.46-.41.5-.13,1-.38,1.4-.7.2-.17.41-.37.52-.61.02-.04.16-.59.09-.59,0,0-.81-.11-.81-.07-2.48,1.5-5.24-.32-7.78-.73-1.66-.27-3.35-.06-4.99.32-.55.13-1.13.38-1.59.71-.55.4-.96.7-.29,1.23.93.71,1.81,1.59,2.95,1.94,1.09.33,2.27.23,3.35.62.91.33,1.61.95,2.57,1.18Z"/>
            <path class="cls-3" d="M299.8,129.28c.1-.31.36-.62.52-.91l-.04-2.31c0-.18-.29-.73-.62-.81-.29,0-.69.37-.77.48l-1.14.84c-.55.11-.95.22-1.9,0h-1.57c-.66.22-1.02.25-1.83,0l-1.03.07c-.25.11-.58.29-.8.33l-.95-.03c-1.65.15-1.83.22-2.64.36-.29-.15-.62-.29-2.05-.29l-.81-.18c-.73-.48-1.38-1.27-2.12-2.26-.09-.15-.18-.31-.26-.47.12.23,2.14-.91,2.35-1.08.34-.28,1.62-1.55.83-1.75-.44-.11-1.18.08-1.64.09-.39,0-.88.08-1.27-.02-1.2-.32-2.11-1.66-3.16-2.28-.72-.42-.61-.61-1.37-.22-.36.19-.43.75-.83.9-.31.12-.68-.05-.96-.18-.49-.22-1.58-1.27-2.1-.94-.38.24-.36.99-.23,1.36.15.44.95,1.28,1.57,1.54-.15.73-.33,1.24-.62,1.83-.15.29-.33.62-.48.95-.26.44-.4.73-.4.91-.06.27-.11.82.42,1.16.02.01.03.04.08.05.11.05.23.11.37.14.31,0,1.58-.28,1.78-.11.23.19.11.89.35,1.19.21.28.66.35.84.57.18.23.13.12-.02.37-.23.38-.64.58-.93.9-.21.23-.27.48-.39.76-.36.82-.71,1.66-.57,2.58.06.42.38.73.45,1.17.04.23.22,1.05.14,1.24-.23.49-.16,1.03-.32,1.53-.15.45-.46.94-.7,1.32,0,0-.69,1.1-.69,1.1-.43.52-.5,1.03-.75,1.62-.15.36-.45.69-.69.99-.11.14-.66.66-.65.78.04.49.03,1.1.63,1.19.52.08,1.2-.05,1.75-.05.3,0,.85-.26.99-.55.17-.35-.12-.74.01-1.16.11-.33.44-.52.59-.82.22-.43.15-.89.3-1.32.1-.3.37-.6.54-.87.22-.34.43-.69.64-1.04.09-.16.3-.79.45-.87.55-.29.88-.37,1.24-.37l.58.88c-.18.44-.4.95-.4,1.57l-.26,2.85c-.16.18-.3.38-.4.61-.13.3-.15.54-.17.85-.02.3-.29.59-.5.79-.09.08-.68.47-.68.56.03.6-.07,1.02.61,1.14.44.08.91.07,1.36.1.38.03.82-.25,1.03-.54,0,.01.03-.4.05-.46.09-.24.26-.47.45-.64.14-.12.29-.23.41-.36.6-.66.49-2.08.61-2.92.07-.51.48-1.03.88-1.5.48-.62.95-1.24.95-1.9,0,.04,2.82-.19,3.11-.21.35-.03.71-.05,1.06-.1.19-.03.66-.2.84-.04.24.21-.26.75-.41.97-.36.56-.72,1.12-1.09,1.68-.01.29.07.7-.04.96-.17.41-.56.7-.86,1-.23.23-.47.47-.7.7.16.62.21.86.87.91.47.04.93.05,1.4.07.23.01.56-.19.7-.35.23-.26.19-.66.22-.99.03-.36.26-.69.43-1,.38-.69.84-1.34,1.45-1.84.78-.64,1.49-1.4,2.12-2.18.48.11,1.06.51,1.35.99.07,1.17,0,2.12-.22,2.67l-.77,1.43c-.23.32-.32.66-.59.95-.33.37-.7.7-1.07,1.03-.05.05.02.63.04.7.24.72,1.57.52,2.19.58.62-.11.77-.33,1.03-.62.1-.11,0-.59.04-.74.08-.33.26-.46.53-.66.8-.6.43-1.54.91-2.27.51-.79,1.65-1.3,1.92-2.22.22-.74.04-1.18-.06-1.88-.1-.73.12-1.45.24-2.16.1-.63-.05-1.19.03-1.82,0-.55.48-1.14.88-1.61.31-.37.47-.64.4-1.1-.04-.25-.1-.55-.11-.84,0-.19,0-.36.06-.52Z"/>
          </g>
          <path class="cls-6" d="M340.87,142.08c-.67,1.54-1.33,3.07-1.99,4.6-1.73,4-3.46,7.99-5.19,11.99-.62,1.45-1.25,2.89-1.88,4.34-5.64-2.14-11.04-3.78-16.62-5.56-5.27-1.67-10.46-3.23-15.81-4.86.38-1.54.77-3.08,1.15-4.63,1.04-4.17,2.07-8.36,3.1-12.54.41-1.61.81-3.22,1.21-4.83,6.78,1.41,12.93,3.03,19.08,5.06,5.83,1.83,11.34,4.04,16.96,6.44Z"/>
          <path class="cls-1" d="M338.87,146.68c-1.73,4-3.46,7.99-5.19,11.99-5.43-2.16-10.97-4.15-16.56-5.95-5.44-1.77-10.96-3.42-16.6-4.76,1.04-4.17,2.07-8.36,3.1-12.54,1.73.39,10.17,2.35,18.27,5,7.21,2.34,14.32,5.18,16.98,6.26Z"/>
          <path d="M336.05,148.15c-1.46-.04-3.35-.13-4.9-.39-1.51-.26-2.93-.56-4.43-1.03-.47-.82-.99-1.46-1.85-1.94-3.92-2.15-7.68.27-14.77-3.73-.13-.07-.33-.13-.44-.22-.13-.12-.1-.1-.13-.31-.04-.21,0-.68-.14-.84-.11-.13-.25-.1-.41-.1-.37,0-.75,0-1.13,0-.48,0-1.09-.11-1.54.07-.39.16-.63.52-.97.75-.16.1-1.25.6-1.25.73,0,.43-.13.99.9,1.2.6,0,2.41.17,2.54.22.09,0,.39.43.39.86v.9c0,.27-2.21.24-2.41.23-.46-.02-.92-.07-1.36-.18-.21-.06-.9-.23-.91.17,0,.26.45.38.64.45.41.15.77.41,1.21.47.25.04.52.02.77.02.89,0,1.77,0,2.66.04.13,0,.43.56.39.82-.56.26-1.1.46-1.71.56-.55.09-1.12.14-1.68.17-.21.01-.65-.03-.71.26-.04.2.19.38.36.42,0,0,.6.17.6.17.56,0,1.85-.43,2.67-.47,1.48-.47,3.18-.45,4.72-.37.84.05,1.55.21,2.31.58.95.46,1.83.87,2.85,1.17.51.15,1.04.23,1.57.29.3.03,1-.11,1.21.18.16.22.11.98-.2,1.03-.18.03-.41-.02-.6-.03-.55-.04-1.09-.22-1.63-.26-.28-.02-.85-.02-.83.4.03.51,1.46.62,1.84.7.46.11.91.21,1.37.31l1.33.04c.73-.3,1.03-.73,1.38-1.16l.47-.09c1.42.95,2.15,1.21,3.27,1.42.99.09.99.3,1.42,1.03.24.41.29,1.15.21,1.62-.04.22-.32.59-.31.77.02.24.41.4.61.39.91-.02.69-1.11.69-1.69,0-.51.12-1.03,0-1.54-.13-.55-.52-.66-.94-.99-.41-.31-.79-.68-1.1-1.1-.04-.05-.58-.94-.49-.96,1.12-.22,3.57,1.12,5.81,1.03,2.24,0,3.06-1.03,3.06-1.03.39-.43.39-.82-.39-1.07Z"/>
        </g>
      </g>
    </g>
  </g>
</svg>