<?xml version="1.0" encoding="UTF-8"?>
<svg id="_Layer_" data-name="&amp;lt;Layer&amp;gt;" xmlns="http://www.w3.org/2000/svg" viewBox="0 0 500 500">
  <defs>
    <style>
      .cls-1 {
        fill: #e63223;
      }

      .cls-2 {
        fill: #fff;
      }

      .cls-3 {
        fill: #c89131;
      }

      .cls-4 {
        fill: #1a1a1a;
      }
    </style>
  </defs>
  <polygon class="cls-1" points="-125.01 0 625.01 0 625.01 166.67 -125.01 166.67 -125.01 0 -125.01 0"/>
  <polygon class="cls-2" points="-125.01 166.67 625.01 166.67 625.01 333.33 -125.01 333.33 -125.01 166.67 -125.01 166.67"/>
  <polygon class="cls-4" points="-125.01 333.33 625.01 333.33 625.01 500 -125.01 500 -125.01 333.33 -125.01 333.33"/>
  <g>
    <path class="cls-3" d="M272.52,223.73c-4.2.05-9.05-.88-14.21-2.74v40.73c11.82-13.38,14.36-28.69,14.21-37.98Z"/>
    <path class="cls-3" d="M241.3,260.91v-39.7c-4.89,1.69-9.51,2.55-13.52,2.51-.17,9.11,2.3,24,13.52,37.19Z"/>
    <path class="cls-3" d="M220.57,317.34c.17-.49.74-2.52.94-3.43.3-1.52-.34-.58-1.36-.25-1.76.6,0,.22-.41,1.96-.34,1.35-1.13.56-2.28.47-1.14-.11-.05-2.3.26-3.51.35-1.32-.66-.22-1.67.09-.5.14-.45.41-.19.68.35.36.03,1.93-.64,2-.83.1-1.68-.13-1.47-1,.24-1.18,2.55-6.61,1.45-6.59-.4.01-.99.56-1.4.56-.79.18-1.89-.24-2.09.01-.52.67.28,1.71,1.46.63,1.38-1.31,1.05,3.11-.78,3.46-2.27.45-2.99,2.73-1.81,3.07,1.14.34,9.61,2.97,10,1.84ZM212.66,314.03c-.4.64-1.32.28-.7-.17.45-.27.8,0,.7.17Z"/>
    <path class="cls-3" d="M212.39,310.32c-.28-.3-.83-.43-1.08-.08-1.26,1.91,2.17,1.18,1.08.08Z"/>
    <path class="cls-3" d="M211.47,316.96c-1.1,1.37,2,1.39,1.12.1-.18-.28-.64-.62-1.12-.1Z"/>
    <path class="cls-3" d="M214.47,317.37c-.29-.19-.67-.18-.94.17-.88,1.82,2.45.81.94-.17Z"/>
    <path class="cls-3" d="M217.15,318.51c-.59.45-.14,1.54.9,1.02.82-.46-.2-1.58-.9-1.02Z"/>
    <path class="cls-3" d="M233.48,312.17c-.36.04-.49.42-.22.79.58.82-.43,6.25-.59,7.23-.1.48-.97.69-1.01.07-.03-.64.3-1.35-.51-1.62-.8-.27-1.17-.27-1.17-.81.06-1.02,1.9-.05,1.82-1.35-.02-.66-1.24-.96-1.36-1.61-.3-2.06-1.52-2.71-2.67-.72-.61.98-2.48.38-2.2,1.72.12.52,1.03.53,1.4.85,1.16.99-2.19,1.75-2.62.63-.58-1.57-.32-3.97-1.39-2.41-.45.64-.5.76-.12,1.84.31,1.07.2,2.02-.66,2.38-.87.36-2.02.29-2.09.65-.07.35,1.73.68,2.44.37,2.34-1.08-.41-1.76,4.18-.93.77.13.88-.58,1.25-.8.78-.45.54,1.19,1.8,1.3,1.01.09.18,2.12,2.01,2.4,2.7.39,2.68-6.62,3.1-9.42.46-2.5-.32-.68-1.38-.56ZM228.47,315.29c1.02-1.08.35-.08,1.11.51,1.21.85-2.93,1.01-1.11-.51Z"/>
    <path class="cls-3" d="M236.48,320.04c.12-1.05.33-6,1.19-6.43.66-.35-.37-.85-.87-1.55-.26-.36-.52-.38-.69.63-.1,1.12-.88,6.27-.94,7-.09.72,1.19,1.52,1.32.36Z"/>
    <path class="cls-3" d="M252.27,318.28c-.47.45-.4.85-.61,1.24-.2.41-.68.64-.93.08-.61-1.4.88-1.89-1.26-1.98-1.48-.04-5.8.32-6.08-.98-.4-1.78-1.91-.48-1.7.28.78,2.96-.54,3.33-1.03,2.27-.42-.93-.98-2.85-1.58-2.04-.17.24-1.07.77-.38,1.69,2.88,4.21-6.35,4.02-1.54,4.46,2.77.3,2.96-2.28,4.28-2.23,1.13.04,4.63.27,5.02.32.39.04.61.34.83,1.04.57,1.53,2.66,1.43,3.1.14.17-.6.36-1.17,1.09-1.15,3.88.15,4.88.43,3.69-3.84-.21-.74-2.44.26-2.9.71ZM249.27,321.42c0,.35-.5.6-.79.12-.27-.47.04-.65-.06-1.05-.14-.6-3.23-.41-3.95-.53-2.13-.38-.92-1.37.28-1.14,5.4,0,4.65.65,4.53,2.61ZM253.39,320c-.31.05-.61-.22-.29-.59.91-.87,1.39.43.29.59Z"/>
    <path class="cls-3" d="M257.8,314.56c.66-.84-.53-1.51-.91-1.12-.88.89.36,1.83.91,1.12Z"/>
    <path class="cls-3" d="M258.18,315.77c-.31-.33-.65-.77-1.11-.35-.35.36-.72.56-.25,1.01.92.89,1.71-.27,1.36-.66Z"/>
    <path class="cls-3" d="M261.88,321.8c-1.19-.07-.22,1.31-1.81.22-1.49-.82-1.51,2.33.31,1.03.34-.26.42-.42.68-.31.27.12.34.57.75.59,1.06.07.97-1.47.07-1.52Z"/>
    <path class="cls-3" d="M265.89,318.38c1.6,1.21,1.24,2.87-.5,3.73-2.03,1.03,1.05.87,2.24-.15,1.65-1.4.39-3.91-.87-5.67-.29-.41-1.72,1.55-.88,2.08Z"/>
    <path class="cls-3" d="M287.46,317.65c-1.45,1.45,2.22,1.64,1.22-.03-.12-.2-.79-.44-1.22.03Z"/>
    <path class="cls-3" d="M290.13,314.68c-.22-.21-.66-.11-.94.09-.29.2-1.27.92-1.9.16-1.4-1.65-.42-4.84-2-5.93-1.15-.76-5.03-.62-3.8.85,1.11,1.42,2.1-.98,2.99.44,1.1,1.78.14,3.22,1.44,5.07.31.46-.38.89-.9.76-.5-.13-1.14-1.19-1.99-1.07-2.1.28-1.43,3.8-3.14,1.35-.78-1.16-.99-1.38-2.16-1.61-1.15-.24-.85-1.94-1.23-2.33-.53-.59-1.58.62-1.25,1.17,1.46,2.35-.82.79-1.2,3.23-.37,2.25-1.2,1.78-1.6.16-.17-.68-.51-1.22-2.21.1-1.47,1.48-.93,3.06-.23,3,2.7-.21,1.97.92.37,1.42-2.28.69,1.91,1.36,2.39-.72.33-1.3,1.7-1.31,3.15-1.48.82-.08,1.59,1.86,2.92,1.74,1-.09,1.47-.99,1.58-1.77.5-2.77,2.64,1.37,4.23-1.06.74-1.16,4.12-1.75,5.47-2.11,1.38-.37.87-.6,0-1.44ZM271.9,318.31c-.2.74-1.45.27-.74-.27.47-.32.83-.05.74.27ZM275.62,317.26c-.09-.57.47-.75.73-.51,1.01.91-.61,2.06-.73.51ZM277.81,316.96c-.52-1.01.79-.49,1.12-.13.52.59-.51,1.34-1.12.13ZM278.75,318.9c.46-.18.78-.06.89.21.29.69-1.86.3-.89-.21ZM282.82,316.58c.52-.36,1.06.19,1.01.53-.08.89-2.05.43-1.01-.53Z"/>
    <path class="cls-3" d="M262.44,317.19c.14.38.55.27.7.86.52,2.05-2.06,2.31-2.19.97-.14-1.17-.58-5.61-.59-6.11-.06-1.33-2.07.47-1.49,1,.17.17.36.19.46.68.09.89.57,2.77-.19,3.07-2.03.78-2.41,4.07-.77,3.69,1.83-.43,6.44.1,6.22-1.56-.07-.66-.18-2.65-.35-3.22-.33-1.09-1.94.2-1.8.61ZM259.49,319.75c-.85.23-.89-.2-.56-.45.89-.42.77.39.56.45Z"/>
    <path class="cls-3" d="M214.88,301.11c-.38-.12-2.44-.66-2.53-.11-.03.18.08.36.26.39,1.29.26,2.79.64,3.9,1.36.8.48,1-.78-1.62-1.64Z"/>
    <path class="cls-3" d="M219.08,303.26c-.02.18.1.35.29.37,1.31.18,2.82.46,3.98,1.1.16.1.36.03.45-.12.5-.89-4.59-2.27-4.72-1.34Z"/>
    <path class="cls-3" d="M231.46,306.03c1.3-.2,2.83-.34,4.12-.05.88.23.73-1.09-2.1-.98-.38,0-2.47.2-2.4.75.03.18.19.31.39.28Z"/>
    <path class="cls-3" d="M238.5,306.62c1.28-.28,2.81-.52,4.12-.32.88.15.68-1.09-2.17-.84-.38.04-2.47.37-2.35.91.03.18.21.29.39.25Z"/>
    <path class="cls-3" d="M283.79,302.75c1.11-.72,2.61-1.1,3.9-1.36.18-.03.29-.22.26-.39-.1-.55-2.16-.02-2.53.11-2.62.86-2.42,2.12-1.62,1.64Z"/>
    <path class="cls-3" d="M276.93,304.72c1.16-.64,2.67-.92,3.98-1.1.19-.02.31-.19.29-.37-.13-.93-5.22.45-4.72,1.34.09.15.29.22.45.12Z"/>
    <path class="cls-3" d="M264.7,305.98c1.29-.29,2.82-.15,4.12.05.19.03.35-.1.39-.28.07-.54-2.02-.74-2.4-.75-2.83-.11-2.99,1.21-2.1.98Z"/>
    <path class="cls-3" d="M257.66,306.3c1.31-.2,2.84.04,4.12.32.18.04.36-.07.39-.25.12-.54-1.96-.87-2.35-.91-2.85-.25-3.05,1-2.17.84Z"/>
    <path class="cls-3" d="M299.32,311.47c-.61,0-1.74-1.58-2.12-2.06-1.98-2.57-2.36-.94-3.23-3.29.99-4.6-1.74-7.01-4.73-6.74-.84-2.13-3.3.82-17.17,2.74-.42.06-.74.09-1.09.13.03,0,.05,0,.08,0l-2.8-4.53c-.66-1-1.67,2.21-2.46,5.01-1.39.08-2.71.13-3.95.11l-5.11-21.52.3-.98c1.87,2.82,3.43,5.15,4.66,7.01-.58,2.76-1.15,5.59-1.62,7.99l.48,2.02,1.84-8.97c5.07,7.61,4.63,6.88,4.63,6.88.22.07.45-.04.54-.24l-.38-.15.38.14,2.41-6.52,4.22,6.19-2.05,7.42c.33-.05.58-.1.89-.14l1.77-6.39,3.7,5.43c.29-.06.59-.12.87-.18l-4.28-6.28,3.08-11.13,4.73,16.56c.16-.04.36-.09.52-.13l-6.58-23.02c14.77,13.45,30.26,27.56,30.86,28.1-.12-3.86-3.51-85.79-3.9-95.92-.87-22.91-25.23-1.22-39.28-1.38-8.93-16.04,2.62-29.73-11.83-34.84-2.41-.84-6.88-1.78-7.66.61-6.69-1.65-10.98-1.17-9.96,5.64l.12.1s.56.53,1.3-.13c1.93-1.73,6.47.4,6.63,6.15.2,8.46-3.04,15.48-7.64,22.45-14.08-.1-38.15-21.38-39.02,1.4-.39,10.13-3.77,92.06-3.9,95.92.59-.54,16.09-14.66,30.86-28.1l-6.58,23.02c.15.04.36.09.52.13l4.73-16.56,3.08,11.13-4.28,6.28c.28.06.58.12.87.18l3.7-5.43,1.77,6.39c.32.05.56.1.89.14l-2.05-7.42,4.22-6.19,2.41,6.52.38-.14-.38.15c.1.21.32.32.54.24,0,0-.44.73,4.63-6.88l1.84,8.97.48-2.02c-.47-2.4-1.04-5.24-1.62-7.99,1.23-1.86,2.79-4.19,4.66-7.01l.3.98-5.12,21.52c-1.24.02-2.56-.02-3.95-.11-.78-2.8-1.79-6.01-2.46-5.01l-2.8,4.53s.05,0,.08,0c-.35-.04-.67-.07-1.09-.13-13.87-1.92-16.33-4.87-17.17-2.74-2.99-.27-5.73,2.15-4.73,6.76,0,.03.04.02.05.05-.16.44-.38.9-.42,1.25-.84.12-2.16.52-3.09,1.8-.58.8-1.41,2.27-2.34,2.12-1.21-.18-1.36,1.42-.33,1.61.9.29,1.66,3.38,2.24,4.23.35.52.76.9,1.41,1.35.04,1.06.37,3.6,2.4,4.79,6.58,3.78,36.32,4.8,43.91,4.8h0c6.31-.01,41.8-.91,45.27-6.15.54-.82.76-1.8.71-2.97.77-.49,2.18-1.61,2.52-3.55.18-.9.16-2.29,1.06-2.37.95-.08,1.2-1.62-.38-1.62ZM293.32,305.15c-1.24-1.1-1.96-.48-3.35-1.37-.22-1.59-.34-2.75-.49-3.56,2.27-.11,4.2,1.53,3.85,4.93ZM268.03,298.9l2.13,3.45c-1.2.14-2.36.27-3.34.35l1.21-3.79ZM287.17,299.48c2.41-.71,1.72,1.96,1.97,4.32-1.55.43-8.15,2.18-13.48,2.88-.05-4.74-6.69-4.83-5.51.87-7.36,0-1.48,1.18-13.7.24-.18-.47-.67-1.45-1.87-2.43,0-.51.25-2.03,2.7-1.88,12.41.61,17.55-.67,29.89-4ZM274.77,307.36c-.16.34-.39.76-.68,1.26-1.3,2.14-.83,1.71-1.72.72-.29-.32-1.01-1.12-1.26-1.57-1.13-4.94,4-4.91,3.66-.41ZM253.77,305.6v.18c1.51,1.26,1.8,1.89,2.02,2.7-1.1.58-2.74,2.07-3.05,2.58-1.2-2.39-1.16-5.65,1.04-5.98-.03.3,0,.51,0,.52ZM256.76,278.41l-1.1-1.66-1.8-7.58c1.15-1.02,2.23-2.07,3.27-3.12.9,1.11,1.81,2.24,2.45,3.09l-2.81,9.27ZM256.45,279.44l-.08.28-.15-.62c.07.11.16.24.23.35ZM239.11,261.55c1.08,1.33,2.23,2.65,3.48,3.95-2.17,2.66-2.86,3.31-5.94,7.24l-.87-8.14c1.22-1.1,2.36-2.15,3.33-3.05ZM235.66,263.5l-.85-8.01c1.12,1.8,2.38,3.59,3.78,5.37l-2.92,2.65ZM225.82,222.04h.17c7.5,0,15.84-2.4,24.16-6.95,8.19,4.49,16.76,6.95,24.18,6.95h.15c.11,9.36-2.09,32.43-24.33,49.69-22.23-17.27-24.44-40.33-24.33-49.69ZM227.66,239.15l-.86,25.94-3.02,10.58.28-6.64,1.85-38.62c.34,2.65.9,5.6,1.76,8.73ZM276.24,269.03l.28,6.64-7.58-26.51c3.22-6.85,4.77-13.4,5.45-18.73l1.85,38.61ZM261.7,260.86c1.4-1.78,2.66-3.57,3.78-5.36l-.85,8.01-2.92-2.64ZM264.51,264.6l-.87,8.14c-3.09-3.93-3.77-4.58-5.94-7.24,1.25-1.3,2.4-2.62,3.48-3.95.97.9,2.11,1.95,3.33,3.05ZM274.49,293.66l-4.28-6.28c-.87-1.27-2.52,4.92-3.14,6.59l-4.44-6.71,1.94-9.49c1.11,1.38,4.53,6.67,5.03,5.23l1.88-6.46,6.1,5.94-3.09,11.17ZM277.58,281.34l-6.02-5.85c-.99-.95-2.08,4.96-2.54,6.54l-4.34-5.44c-.41-.49-1.57,4.22-2.74,9.64l-4.59-6.92,2.84-9.36c2.07,2.69,4.1,5.09,4.16,3.89l.92-8.55c3.12,2.8,6.24,5.42,6.43,4.95l1.54-4.1-.38-1.33-1.72,4.58-5.75-5.2,1.11-10.35c.77-1.32,1.47-2.64,2.1-3.95l8.99,31.45ZM250.08,176.51c0,1.32-1.99,1.33-1.99,0s1.99-1.3,1.99,0ZM243.56,190.74c.94-6.2-1.31-9.78,3.68-8.2,0,0-7.25-11.91-11.42-4.07-.84-5.72,3.96-5.41,8.65-1.98,2.05,1.49,2.95,1.39,3.45,1.33,0,0,.89,2.09,2.46.49,1.68-1.73,7.51-2.87,8.58.71,1.1,3.66.8,9.46.88,12.75.1,6.47,1.36,12.52,4.92,17.95-1.54-.05-3.21-.52-4.73-1-2.92-3.83-3.64-12.73-4.03-17.37,0,0,.02,0-.82.07.4,4.93,1.15,13.99,4.28,17.95.1.43.2.96.23,1.54-2.3-.32-4.37-1.31-6.09-2.95-.85-3.4-.86-14.09-.85-17.29.05,0-.77,0-.82,0,0,3.24.01,13.84.86,17.41-.78.78-2.32,2.33-2.7,2.71-.35-.32-2.05-1.86-2.93-2.66,1.68-4.1,2.81-13.84,3.03-18.03,0,0-.17,0-.83-.04-.22,4.16-1.32,13.97-3.02,17.9-.63.55-2.24,1.85-5.17,3.51.24-1.04.4-2.16.57-3.25,4.37-6.05,5.51-17.67,5.51-17.71,0,0,.01,0-.82-.08,0,.03-1.1,11.34-5.31,17.21-1.36.93-2.9,1.71-6.34,2.5,6.74-9.65,8.03-14.79,8.75-19.37ZM221.24,219.93l-2.62,60.16-2.45,2.24,2.29-63.81-4.57-3.91-3.2,72.71-2.57,2.33,3.14-77.1-5.71-5.03-4.01,88.13-1.96,1.78,3.75-91.43c-2.83.72-5.08,2.43-6.01,3.22,0-2.37.54-5.19,1.99-7.11,5.48-7.25,18.8,2.73,28.52,5.41,2.36.63,4.62.86,7.15.88-.65.97-1.33,1.94-2.02,2.91,8.2-1.51,9.07-4.8,6.93,1.76l.89-.46s3.6-1.88,5.92-3.87c-.03-.02,3.02,2.73,3.47,3.13.43-.42,2.64-2.64,3.07-3.07,1.7,1.55,4.14,2.69,7.27,2.98,0,.04.13-.88-.09-2.09,3.26.94,4.41.86,5.86.73-.48-.68-.85-1.34-1.25-2.01,2.65,0,4.99-.24,7.44-.9,9.72-2.68,23.03-12.66,28.52-5.41,1.45,1.92,1.99,4.74,1.99,7.11-.92-.79-3.17-2.5-6.01-3.22l3.75,91.43-1.96-1.78-4.01-88.13-5.71,5.03,3.14,77.1-2.57-2.33-3.2-72.71-4.57,3.91,2.29,63.81-2.45-2.24-2.62-60.16-4.15,1.91h0s0-.22,0-.22h-.57c-7.38,0-15.91-2.46-24.07-6.96l-.1-.05-.1.05c-10.41,5.72-18.77,6.96-24.07,6.96h-.58v.21s0,0,0,0l-4.15-1.91ZM233.22,293.97c-.62-1.67-2.27-7.86-3.14-6.59l-4.28,6.28-3.09-11.17,6.1-5.94,1.88,6.46c.5,1.44,3.92-3.85,5.03-5.23l1.94,9.49-4.44,6.71ZM238.34,286.23c-1.17-5.42-2.32-10.13-2.74-9.64l-4.34,5.44c-.46-1.58-1.56-7.49-2.54-6.54l-6.02,5.85,8.99-31.45c.64,1.31,1.33,2.62,2.1,3.95l1.11,10.35-5.75,5.2-1.72-4.58-.38,1.33,1.54,4.1c.2.47,3.31-2.16,6.43-4.95l.92,8.55c.05,1.2,2.09-1.2,4.16-3.89l2.84,9.36-4.59,6.92ZM243.52,278.41l-2.81-9.27c.64-.85,1.55-1.98,2.45-3.09,1.03,1.05,2.11,2.09,3.26,3.12l-1.8,7.58-1.1,1.66ZM244.07,279.09l-.15.62-.08-.28c.07-.11.16-.24.23-.35ZM232.25,298.9l1.21,3.79c-.98-.08-2.14-.2-3.34-.35l2.13-3.45ZM213.11,299.48c12.33,3.33,17.47,4.61,29.89,4,2.46-.15,2.7,1.37,2.7,1.88-1.2.98-1.69,1.95-1.87,2.43-12.22.94-6.35-.24-13.7-.24,1.18-5.7-5.46-5.61-5.51-.87-5.33-.7-11.93-2.45-13.48-2.88.25-2.36-.44-5.03,1.97-4.32ZM246.51,305.09c2.19.33,2.24,3.59,1.04,5.98-.31-.51-1.95-2.01-3.05-2.58.22-.81.5-1.44,2-2.7v-.18s.04-.21,0-.52ZM229.18,307.78c-.25.45-.97,1.25-1.26,1.57-.89.99-.42,1.42-1.72-.72-.28-.5-.52-.93-.68-1.26-.34-4.49,4.79-4.53,3.66.41ZM210.81,300.22c-.15.8-.27,1.97-.49,3.56-1.39.9-2.11.28-3.35,1.37-.35-3.4,1.58-5.04,3.85-4.93ZM297.19,314.23c-.23,1.55-.52,2.66-2.22,3.54-.33.13-.54.46-.51.84.62,7.46-36.86,7.86-44.31,7.86h0c-10.29,0-26.82-.82-37.72-3.03-4.04-.83-7.07-1.14-6.95-5.25.03-.29-.11-.6-.36-.78-1.4-.91-1.54-1.33-2.16-3.16-.8-2.15-1.11-.76.92-3.6,1.25-1.68,1.61-1.51,2.95-1.62.45-.04.78-.43.75-.89h0c0-1.4.4-2.26.69-2.74.13-.05.22-.17.37-.18,1.04-.1,1.79-.54,2.04-.69,1.68.47,8.2,2.16,14.05,2.96.43,1.03,2.07,3.45,2.02,4.17-.05.54.76.62.81.07,0,0,0-.8,1.59-2.5.38-.44.58-.7.73-.96,4,.83,10.14.63,14.08.33.66,1.45,2.86,1.82,3.13,3.53.16,1.75,2.27-2.22,2.18-4.45-.1-2.03-1.11-3.53-3.01-3.53-.37-.8-1.23-1.61-3.28-1.49-1.46.08-2.74.14-3.99.17l.85-3.58,2.07,2.32,3.38-2.36,3-21.05-1.24,20.98,3.11,3.81,3.11-3.81-1.24-20.98,3,21.05,3.38,2.36,2.07-2.32.85,3.58c-1.24-.03-2.52-.09-3.98-.17-2.05-.12-2.91.69-3.28,1.49-1.89,0-2.91,1.5-3.01,3.53-.09,2.23,2.02,6.2,2.18,4.45.27-1.7,2.47-2.07,3.13-3.53,3.94.3,10.08.51,14.08-.33.16.26.35.52.73.96,1.59,1.7,1.59,2.5,1.59,2.5.05.55.86.47.81-.07-.05-.72,1.6-3.14,2.02-4.17,5.86-.81,12.37-2.49,14.05-2.96.25.15,1,.59,2.04.69.19.02.3.15.46.23.45,1.44.08,3.56,1.41,3.44,0,0,1.03-.17,2.35,1.53,1.9,2.49,1.73,1.37,1.28,3.81Z"/>
  </g>
</svg>