<?xml version="1.0" encoding="UTF-8"?>
<svg id="_Layer_" data-name="&amp;lt;Layer&amp;gt;" xmlns="http://www.w3.org/2000/svg" viewBox="0 0 500 500">
  <defs>
    <style>
      .cls-1 {
        fill: #e93323;
      }

      .cls-2 {
        fill: #f4be41;
      }

      .cls-3 {
        fill: #49a22e;
      }
    </style>
  </defs>
  <polygon class="cls-3" points="-125.02 500 625.02 500 625.02 333.34 -125.02 333.34 -125.02 500 -125.02 500"/>
  <polygon class="cls-1" points="-125.02 166.67 625.02 166.67 625.02 0 -125.02 0 -125.02 166.67 -125.02 166.67"/>
  <polygon class="cls-2" points="-125.02 333.34 625.02 333.34 625.02 166.67 -125.02 166.67 -125.02 333.34 -125.02 333.34"/>
  <polygon points="162.99 230.46 229.47 230.46 250 167.24 270.54 230.46 337.03 230.46 283.25 269.54 303.78 332.77 250 293.7 196.24 332.77 216.77 269.54 162.99 230.46 162.99 230.46"/>
</svg>