<?xml version="1.0" encoding="UTF-8"?>
<svg id="_Layer_" data-name="&amp;lt;Layer&amp;gt;" xmlns="http://www.w3.org/2000/svg" viewBox="0 0 500 500">
  <defs>
    <style>
      .cls-1 {
        fill: #e93323;
      }

      .cls-2 {
        fill: #fff;
      }

      .cls-3 {
        fill: #459a2b;
      }
    </style>
  </defs>
  <polygon class="cls-2" points="-125.04 0 625.04 0 625.04 500 -125.04 500 -125.04 0 -125.04 0"/>
  <path class="cls-1" d="M282.78,203.39c18.61,14.85,41.91,50.93,14.09,94.35,40.25-23.42,28.14-87.23-14.09-94.35h0ZM225.8,203.39c-18.61,14.85-41.9,50.93-14.08,94.35-40.25-23.42-28.11-87.23,14.08-94.35h0ZM254.29,321.04l-5.28-7.01v-2.23s-15.3,3.98-30.66-1.29c0,0,19.26-.79,25.14-4.51-37.69-16.45-43.31-73.54-12.32-100.35-18.54,29.23-12.7,73.64,17.28,91.34l-2.19-89.97s4-.76,8.02-6.37c4.03,5.6,8.03,6.37,8.03,6.37l-2.21,89.97c29.99-17.69,35.83-62.11,17.29-91.34,30.99,26.81,25.38,83.91-12.31,100.35,5.89,3.72,25.15,4.51,25.15,4.51-15.37,5.26-30.68,1.29-30.68,1.29v2.23l-5.28,7.01h0ZM237.2,188.42s5.79,14.42,17.09,2.86c11.3,11.56,17.08-2.86,17.08-2.86,1.65,6.3-1.7,12.03-7.85,12.97-6.14.93-9.23-3.71-9.23-3.71-5.45,8.2-20.24,2.83-17.09-9.26h0Z"/>
  <path class="cls-3" d="M-125.04,0h750.07v167.04h0v-4.13h-37.67v4.13h-4.18v-4.13h-37.62v4.13h-4.37v-4.13h-37.64v4.13h-4.2v-4.13h-37.63v4.13h-4.35v-4.13h-37.64v4.13h-4.22v-4.13h-37.62v4.13h-4.35v-4.13h-37.65v4.13h-4.2v-4.13h-37.61v4.13h-4.36v-4.13h-37.66v4.13h-4.2v-4.13h-37.61v4.13h-4.35v-4.13h-37.67v4.13h-4.18v-4.13h-37.64v4.13h-4.35v-4.13h-37.65v4.13h-4.2v-4.13h-37.63v4.13h-4.35v-4.13H.61v4.13H-3.58v-4.13h-37.62v4.13h-4.35v-4.13h-37.66v4.13h-4.2v-4.13h-37.63v-4.15h4.16v-8.39h12.59v8.39h20.88v-12.54h-12.59v4.15h8.44v4.24h-12.57v-8.39h-20.9v-4.18h54.37v-4.15h-54.37V0h0ZM549.7,158.76v-8.39h12.59v8.39h20.89c0-.28,0-12.74,0-12.54h-12.6v4.15h8.44v4.24h-12.57c0-.08,0-8.47,0-8.39-.78,0-21.48,0-20.88,0v12.54h4.13ZM599.9,142.04v-4.15h-54.34v4.15h54.34ZM620.87,154.61h-4.33v-16.72h-4.14v16.72h-4.19v-16.72h-4.15v8.33c-.31,0-16.96,0-16.69,0v12.54h12.54v-4.15h-8.38v-4.24h12.54v8.39h20.98v-20.87h-4.16v16.72h0ZM558.14,158.76v-4.15h-4.2v4.15h4.2ZM465.88,158.76v-8.39h12.59v8.39h20.89v-12.54h-12.59v4.15h8.44v4.24h-12.59c0-.08,0-8.47,0-8.39-.5,0-21.28,0-20.88,0v12.54h4.14ZM516.08,142.04v-4.15h-54.35v4.15h54.35ZM537.04,154.61h-4.33v-16.72h-4.16v16.72h-4.19v-16.72h-4.15v8.33c-.3,0-16.93,0-16.66,0v12.54h12.52v-4.15h-8.36v-4.24h12.51v8.39h20.98v-20.87h-4.16v16.72h0ZM474.31,158.76v-4.15h-4.2v4.15h4.2ZM382.06,158.76v-8.39h12.58v8.39h20.88c0-.28,0-12.74,0-12.54h-12.57v4.15h8.44v4.24h-12.59v-8.39c-.67,0-21.56,0-20.89,0v12.54h4.16ZM432.26,142.04v-4.15h-54.36v4.15h54.36ZM453.23,154.61h-4.33v-16.72h-4.16v16.72h-4.2v-16.72h-4.14v8.33h-16.66v12.54h12.52v-4.15h-8.38v-4.24h12.53v8.39h20.98v-20.87h-4.15v16.72h0ZM390.5,158.76v-4.15h-4.2v4.15h4.2ZM298.25,158.76v-8.39h12.57v8.39h20.89v-12.54h-12.58v4.15h8.43v4.24h-12.57v-8.39h-20.88v12.54h4.14ZM348.44,142.04v-4.15h-54.34v4.15h54.34ZM369.41,154.61h-4.34v-16.72h-4.14v16.72h-4.2v-16.72h-4.16v8.33h-16.67v12.54h12.53v-4.15h-8.39v-4.24h12.53v8.39h20.98v-20.87h-4.15v16.72h0ZM306.67,158.76v-4.15h-4.19v4.15h4.19ZM214.41,158.76v-8.39h12.59v8.39h20.88c0-.28,0-12.74,0-12.54h-12.59v4.15h8.45v4.24h-12.58v-8.39h-20.88v12.54h4.13ZM264.6,142.04v-4.15h-54.32v4.15h54.32ZM285.6,154.61h-4.35v-16.72h-4.16v16.72h-4.19v-16.72h-4.16v8.33h-16.67v12.54h12.52v-4.15h-8.36v-4.24h12.52v8.39h20.99v-20.87h-4.15v16.72h0ZM222.85,158.76v-4.15h-4.2v4.15h4.2ZM130.58,158.76v-8.39h12.59v8.39h20.9v-12.54h-12.6v4.15h8.44v4.24h-12.59v-8.39h-20.88v12.54h4.14ZM180.79,142.04v-4.15h-54.35v4.15h54.35ZM201.76,154.61h-4.33v-16.72h-4.16v16.72h-4.2v-16.72h-4.13v8.33h-16.7v12.54c7.52,0-4.86,0,12.53,0v-4.15h-8.36v-4.24h12.53v8.39h20.98v-20.87h-4.16v16.72h0ZM139.02,158.76v-4.15h-4.2v4.15h4.2ZM46.76,158.76v-8.39h12.6v8.39h20.88v-12.54h-12.59v4.15h8.44v4.24h-12.58v-8.39h-20.89v12.54h4.14ZM96.97,142.04v-4.15h-54.36v4.15h54.36ZM117.95,154.61h-4.34v-16.72h-4.15v16.72h-4.2v-16.72h-4.14v8.33c-.32,0-16.93,0-16.67,0v12.54h12.53v-4.15h-8.39v-4.24h12.53v8.39h20.98v-20.87h-4.15v16.72h0ZM55.21,158.76v-4.15h-4.2v4.15h4.2ZM-37.07,158.76v-8.39h12.59v8.39H-3.58v-12.54h-12.59v4.15H-7.74v4.24h-12.57v-8.39h-20.89v12.54h4.13ZM13.15,142.04v-4.15h-54.35v4.15H13.15ZM34.12,154.61h-4.34v-16.72h-4.14v16.72h-4.2v-16.72h-4.16v8.33H.61v12.54c7.52,0-4.88,0,12.54,0v-4.15H4.77v-4.24h12.52v8.39h20.98v-20.87h-4.14v16.72h0ZM-28.62,158.76v-4.15h-4.2v4.15h4.2ZM-49.7,154.61h-4.33v-16.72h-4.16v16.72h-4.19v-16.72h-4.16v8.33h-16.67v12.54h12.54v-4.15h-8.4v-4.24h12.53v8.39h20.99v-20.87h-4.16v16.72h0ZM-112.44,158.76v-4.15h-4.2v4.15h4.2Z"/>
  <path class="cls-1" d="M-112.44,362.12v-4.15h-4.2v4.15h4.2ZM-83.21,332.96v4.13h37.66v-4.13h4.35v4.13H-3.58v-4.13H.61v4.13h37.66v-4.13h4.35v4.13h37.63v-4.13h4.2v4.13h37.65v-4.13h4.35v4.13h37.64v-4.13h4.18v4.13h37.67v-4.13h4.35v4.13h37.61v-4.13h4.2v4.13h37.66v-4.13h4.36v4.13h37.61v-4.13h4.2v4.13h37.65v-4.13h4.35v4.13h37.62v-4.13h4.22v4.13h37.64v-4.13h4.35v4.13h37.63v-4.13h4.2v4.13h37.64v-4.13h4.37v4.13h37.62v-4.13h4.18v4.13h37.67v-4.13h0v167.04H-125.04v-137.88h4.16v-8.4h12.59v8.4h20.88v-12.55h-12.59v4.15h8.44v4.24h-12.57v-8.39h-20.9v-4.19h54.37v-4.14h-54.37v-4.15h37.63v-4.13h4.2ZM558.14,362.12v-4.15h-4.2v4.15h4.2ZM549.7,362.12v-8.4h12.59v8.4h20.89c0-.27,0-12.74,0-12.55h-12.6v4.15h8.44v4.24h-12.57v-8.39h-20.88v12.55h4.13ZM599.9,345.39v-4.14h-54.34v4.14h54.34ZM620.87,357.96h-4.33v-16.72h-4.14v16.72h-4.19v-16.72h-4.15v8.33h-16.69v12.55h12.54v-4.15h-8.38v-4.24h12.54v8.4h20.98v-20.88h-4.16v16.72h0ZM474.31,362.12v-4.15h-4.2v4.15h4.2ZM465.88,362.12v-8.4h12.59v8.4h20.89v-12.55h-12.59v4.15h8.44v4.24h-12.59v-8.39h-20.88v12.55h4.14ZM516.08,345.39v-4.14h-54.35v4.14h54.35ZM537.04,357.96h-4.33v-16.72h-4.16v16.72h-4.19v-16.72h-4.15v8.33h-16.66v12.55h12.52v-4.15h-8.36v-4.24h12.51v8.4h20.98v-20.88h-4.16v16.72h0ZM390.5,362.12v-4.15h-4.2v4.15h4.2ZM382.06,362.12v-8.4h12.58v8.4c.78,0,21.48,0,20.88,0v-12.55h-12.57v4.15h8.44v4.24h-12.59v-8.39h-20.89v12.55h4.16ZM432.26,345.39v-4.14h-54.36v4.14h54.36ZM453.23,357.96h-4.33v-16.72h-4.16v16.72h-4.2v-16.72h-4.14v8.33h-16.66v12.55h12.52v-4.15h-8.38v-4.24h12.53v8.4c.52,0,21.43,0,20.98,0v-20.88h-4.15v16.72h0ZM306.67,362.12v-4.15h-4.19v4.15h4.19ZM298.25,362.12v-8.4h12.57v8.4h20.89v-12.55h-12.58v4.15h8.43v4.24h-12.57v-8.39h-20.88v12.55h4.14ZM348.44,345.39v-4.14h-54.34v4.14h54.34ZM369.41,357.96h-4.34v-16.72h-4.14v16.72h-4.2v-16.72h-4.16v8.33h-16.67v12.55h12.53v-4.15h-8.39v-4.24h12.53v8.4h20.98v-20.88h-4.15v16.72h0ZM222.85,362.12v-4.15h-4.2v4.15h4.2ZM214.41,362.12v-8.4h12.59v8.4h20.88v-12.55h-12.59v4.15h8.45v4.24h-12.58v-8.39h-20.88v12.55h4.13ZM264.6,345.39v-4.14h-54.32v4.14h54.32ZM285.6,357.96h-4.35v-16.72h-4.16v16.72h-4.19v-16.72h-4.16v8.33h-16.67v12.55h12.52v-4.15h-8.36v-4.24h12.52v8.4h20.99v-20.88h-4.15v16.72h0ZM139.02,362.12v-4.15h-4.2v4.15h4.2ZM130.58,362.12v-8.4h12.59c0,.08,0,8.47,0,8.4h20.9v-12.55h-12.6v4.15h8.44v4.24h-12.59v-8.39h-20.88v12.55h4.14ZM180.79,345.39v-4.14h-54.35v4.14h54.35ZM201.76,357.96h-4.33v-16.72h-4.16v16.72h-4.2v-16.72h-4.13v8.33h-16.7v12.55c7.52,0-4.86,0,12.53,0v-4.15h-8.36v-4.24h12.53v8.4h20.98v-20.88h-4.16v16.72h0ZM55.21,362.12v-4.15h-4.2v4.15h4.2ZM46.76,362.12v-8.4h12.6v8.4c.49,0,21.31,0,20.88,0v-12.55h-12.59v4.15h8.44v4.24h-12.58v-8.39h-20.89v12.55h4.14ZM96.97,345.39v-4.14h-54.36v4.14h54.36ZM117.95,357.96h-4.34v-16.72h-4.15v16.72h-4.2c0-15.79,0,1.24,0-16.72h-4.14v8.33h-16.67v12.55h12.53v-4.15h-8.39v-4.24h12.53v8.4h20.98v-20.88h-4.15v16.72h0ZM-28.62,362.12v-4.15h-4.2v4.15h4.2ZM-37.07,362.12v-8.4h12.59v8.4H-3.58v-12.55h-12.59v4.15H-7.74v4.24h-12.57v-8.39h-20.89v12.55h4.13ZM13.15,345.39v-4.14h-54.35v4.14H13.15ZM34.12,357.96h-4.34v-16.72h-4.14v16.72h-4.2v-16.72h-4.16v8.33H.61v12.55c7.52,0-4.88,0,12.54,0v-4.15H4.77v-4.24h12.52v8.4c.4,0,21.1,0,20.98,0v-20.88h-4.14v16.72h0ZM-49.7,357.96h-4.33v-16.72h-4.16v16.72h-4.19v-16.72h-4.16v8.33h-16.67v12.55h12.54v-4.15h-8.4v-4.24h12.53v8.4c.52,0,21.44,0,20.99,0v-20.88h-4.16v16.72h0Z"/>
</svg>