<?xml version="1.0" encoding="UTF-8"?>
<svg id="_Layer_" data-name="&amp;lt;Layer&amp;gt;" xmlns="http://www.w3.org/2000/svg" viewBox="0 0 500 500">
  <defs>
    <style>
      .cls-1 {
        fill: #e63223;
      }

      .cls-2 {
        fill: #fff;
      }

      .cls-3 {
        fill: #489c2e;
      }

      .cls-4 {
        fill: #1a1a1a;
      }
    </style>
  </defs>
  <polygon class="cls-1" points="-125.01 0 625.01 0 625.01 156.06 -125.01 156.06 -125.01 0 -125.01 0"/>
  <polygon class="cls-2" points="-125.01 154.74 625.01 154.74 625.01 337.31 -125.01 337.31 -125.01 154.74 -125.01 154.74"/>
  <polygon class="cls-4" points="-125.01 337.31 625.01 337.31 625.01 500 -125.01 500 -125.01 337.31 -125.01 337.31"/>
  <path class="cls-3" d="M78.04,310.26c3.19-1.45,14.36-6.31,13.95-16.11-.42-9.82-5.48-20.25-8.79-23.97,0,0,11.7-4.37,14.38-7.67-3.88,13.26,12.28,14.25,26,12.6,0,0,1.6-9.67-3.3-11.83,0,0,5.21-.88,13.17-9v19.85h95.34v-12.99c0-5.29-5.83-4.7-5.83-.11v6.72c0,1.86-.05,2.54-2.38,2.54h-72.6v-12.53s45.86-46.07,54.24-52.38c0,0,1.32,6.64,6.94,10.3,0,0-4.24.42-5.99,2.22-1.76,1.81-42.32,43.05-42.32,43.05,0,0,32.3,1.11,49.3-.65,0,0,0-7.74,6.57-10.75,6.56-3,9.55-3.51,10.73-4.81,3.63,6.23,13.49,5.53,13.49,14v36.03H103.26s-3.39,19.63-25.22,15.48h0ZM342.63,209.69c3.58-17.01-8.45-9.38,0,0h0ZM326.69,217.16s10.84,4.37,16.21-3.38c6.84,4.94,10.91,2.24,11.5-3.35,5.61,3.45.49,12.07-8,8.75-4.12-1.6-3.56.77-7.66,1.88-4.1,1.11-9.27-.18-12.06-3.9h0ZM386.31,204.83v90.17h30.04s-.53-6.87-3-12.35c-2.48-5.48-3.46-10.9-3.46-12.19,0,0-5.22,5.83-12.08,4.75v-56.29s3.13-3.98,3.79-5.78c0,0-5.63-1.14-15.29-8.32h0ZM375.58,294.73v-86.44s-3.44,5.16-11.06,10.84v54.5h-7.54v-48.42l-10.77,9.39v39.09h-8.24v-32.34l-13.64,12.29s2.13.32,2.13,1.4v7.31c-19.78-5.07-21.97,16.64-19.9,32.39h69.01ZM323.48,274.27c-4.78,0-4.74-4.65,0-4.65s4.74,4.65,0,4.65ZM250.59,205.03v90.07h30.05c-2.28-14.41-4.38-10.04-6.54-24.51,0,0-5.12,6.46-12.03,4.44,0-56.3-2.07-55.8,3.74-61.65,0,0-4.55-.98-15.22-8.34h0ZM124.38,305.03c0,5.53-8.37,5.53-8.37,0s8.37-5.54,8.37,0Z"/>
</svg>