<?xml version="1.0" encoding="UTF-8"?>
<svg id="_Layer_" data-name="&amp;lt;Layer&amp;gt;" xmlns="http://www.w3.org/2000/svg" viewBox="0 0 500 500">
  <defs>
    <style>
      .cls-1 {
        fill: #1b46d4;
      }

      .cls-2 {
        fill: #e93323;
      }

      .cls-3 {
        fill: #fff;
      }

      .cls-4 {
        fill: #f1f1f2;
      }
    </style>
  </defs>
  <g>
    <polygon class="cls-3" points="-124.93 .06 624.93 .06 624.93 499.94 -124.93 499.94 -124.93 .06 -124.93 .06"/>
    <path class="cls-4" d="M624.99,500H-124.99V0h749.97v500ZM-124.87,499.88h749.73V.12H-124.87v499.76Z"/>
  </g>
  <g>
    <path class="cls-1" d="M327.55,284.44c-13.21,29.98-43.18,50.9-78.05,50.9-47.08,0-85.25-38.16-85.25-85.25,0-14.09,3.42-27.37,9.46-39.08-8.12,42.11,24.61,67.47,54.9,55.36,16.79-6.72,20.01-17.94,32.53-27.18,31.06-22.91,71.8,2.78,66.56,44.91-.05.12-.06.18-.16.35h0Z"/>
    <path class="cls-2" d="M249.5,164.83c47.09,0,85.27,38.17,85.27,85.25,0,12.09-2.52,23.59-7.07,34,5.24-42.13-35.51-67.82-66.56-44.91-12.52,9.24-15.74,20.47-32.53,27.18-30.29,12.11-63.01-13.25-54.9-55.36,14.18-27.42,42.79-46.17,75.78-46.17h0Z"/>
    <path d="M90.41,194.71l47.4-71.04,11.76,7.89-47.38,71.04-11.78-7.88h0ZM107.79,206.61l47.39-71.04,11.76,7.88-47.38,71.04-11.77-7.88h0ZM72.26,183.17l47.39-71.05,11.77,7.88-47.39,71.04-11.77-7.88h0Z"/>
    <path d="M397.83,202.59l-47.38-71.04,11.76-7.89,47.39,71.04-11.77,7.88h0ZM415.99,191.05l-22.08-33.1,11.77-7.86,22.07,33.08-11.77,7.88h0ZM390.14,152.3l-21.55-32.3,11.77-7.88,21.55,32.32-11.77,7.86h0ZM380.46,214.49l-21.96-32.93,11.77-7.86,21.95,32.9-11.76,7.88h0ZM354.73,175.91l-21.66-32.46,11.77-7.88,21.67,32.49-11.78,7.85h0Z"/>
    <path d="M392.22,293.39l-21.95,32.9-11.77-7.86,21.96-32.92,11.76,7.88h0ZM366.51,331.94l-21.67,32.49-11.77-7.87,21.66-32.48,11.78,7.86h0ZM427.75,316.83l-22.07,33.07-11.77-7.86,22.08-33.08,11.77,7.88h0ZM401.92,355.56l-21.55,32.32-11.77-7.88,21.55-32.3,11.77,7.86h0ZM409.6,305.29l-21.8,32.69-11.77-7.86,21.81-32.71,11.77,7.88h0ZM384.03,343.63l-21.82,32.7-11.76-7.88,21.79-32.68,11.79,7.86h0Z"/>
    <path d="M102.45,297.4l21.83,32.71-11.78,7.86-21.8-32.69,11.76-7.88h0ZM119.84,285.51l47.39,71.05-11.78,7.87-47.38-71.04,11.77-7.88h0ZM84.32,308.96l47.38,71.04-11.77,7.88-47.39-71.05,11.78-7.88h0ZM128.05,335.77l21.8,32.68-11.77,7.88-21.81-32.7,11.78-7.86h0Z"/>
  </g>
</svg>