<?xml version="1.0" encoding="UTF-8"?>
<svg id="_Layer_" data-name="&amp;lt;Layer&amp;gt;" xmlns="http://www.w3.org/2000/svg" viewBox="0 0 500 500">
  <defs>
    <style>
      .cls-1 {
        fill: #c1292e;
      }

      .cls-2 {
        fill: #296233;
      }
    </style>
  </defs>
  <polygon class="cls-1" points="-125.03 0 625.03 0 625.03 500 -125.03 500 -125.03 0 -125.03 0"/>
  <path class="cls-2" d="M255.09,188.83l12.17,36.17h59.95l-16.69,11.69-31.82,22.32,12.13,36.04,6.22,18.5-15.98-11.21-32.09-22.5-32.1,22.5-15.98,11.21,6.23-18.5,12.13-36.04-31.83-22.32-16.67-11.69h59.95l12.19-36.17,6.08-18.07,6.1,18.07h0ZM271.6,237.87l1.37,4.07,1.47,4.4,12.07-8.47h-14.91ZM260.79,246.01l-2.74-8.14h-18.12l-2.76,8.14-2.68,8.01,7.1,4.99,7.39,5.17,7.39-5.17,7.11-4.99-2.7-8.01h0ZM253.71,224.99l-4.72-14.01-4.71,14.01h9.43ZM272.45,280.6l-4.69-13.92-4.04,2.83-3.55,2.49,12.27,8.6h0ZM237.83,272l-3.56-2.49-4.05-2.83-4.68,13.92,12.28-8.6h0ZM211.47,237.87l12.07,8.47,1.48-4.4,1.39-4.07h-14.93Z"/>
</svg>