<?xml version="1.0" encoding="UTF-8"?>
<svg id="_Layer_" data-name="&amp;lt;Layer&amp;gt;" xmlns="http://www.w3.org/2000/svg" viewBox="0 0 500 500">
  <defs>
    <style>
      .cls-1 {
        fill: #16369a;
      }

      .cls-2 {
        fill: #e43424;
      }

      .cls-3 {
        fill: #fff;
      }
    </style>
  </defs>
  <polygon class="cls-1" points="0 0 375.31 0 750.61 0 750.61 500 375.31 500 0 500 0 0 0 0"/>
  <path class="cls-3" d="M156.65,0h11.65v99.21H0v-15.52h79.22L0,30.92V11.6l108.23,72.1h34.83L17.4,0h29.02l110.22,73.43V0h0ZM207,0h11.65v73.43L328.88,0h29.02l-125.64,83.7h34.81L375.31,11.6v19.32l-79.23,52.77h79.23v15.52h-168.31V0h0ZM375.31,150.78v15.51h-79.23l79.23,52.78v19.33l-108.26-72.12h-34.81l125.64,83.73h-29.02l-110.23-73.44v73.44h-11.65v-99.23h168.31ZM168.29,250.02h-11.65v-73.44l-110.22,73.44h-29.02l125.66-83.73h-34.83L0,238.41v-19.33l79.22-52.78H0v-15.51h168.29v99.23h0Z"/>
  <path class="cls-2" d="M207,0v99.21h168.31v51.57h-168.31v99.23h-38.71v-99.23H0v-51.57h168.29V0h38.71ZM375.31,238.41l-108.26-72.12h-34.81l125.64,83.73h17.42v-11.61h0ZM267.05,83.7L375.31,11.6V0h-17.42l-125.64,83.7h34.81ZM143.06,83.7L17.4,0H0v11.6l108.23,72.1h34.83ZM108.23,166.29L0,238.41v11.61h17.4l125.66-83.73h-34.83Z"/>
  <path class="cls-3" d="M569.95,329.49l4.88,15.09,15.86-.04-12.85,9.27,4.93,15.07-12.81-9.34-12.8,9.34,4.92-15.07-12.84-9.27,15.87.04,4.85-15.09h0ZM652.16,161.35l4.86,15.09,15.85-.04-12.84,9.3,4.93,15.05-12.81-9.32-12.82,9.32,4.94-15.05-12.85-9.3,15.85.04,4.87-15.09h0ZM478.94,185.07l4.86,15.09,15.85-.04-12.84,9.29,4.92,15.06-12.8-9.34-12.82,9.34,4.94-15.06-12.85-9.29,15.85.04,4.88-15.09h0ZM571.62,92.46l4.87,15.09,15.85-.05-12.83,9.29,4.92,15.06-12.81-9.34-12.82,9.34,4.94-15.06-12.85-9.29,15.85.05,4.87-15.09h0Z"/>
</svg>