<?xml version="1.0" encoding="UTF-8"?>
<svg id="_Layer_" data-name="&amp;lt;Layer&amp;gt;" xmlns="http://www.w3.org/2000/svg" viewBox="0 0 500 500">
  <defs>
    <style>
      .cls-1 {
        fill: #469c2c;
      }

      .cls-2 {
        fill: #e63223;
      }

      .cls-3 {
        fill: #fff;
      }

      .cls-4 {
        fill: #f8da4a;
      }

      .cls-5 {
        fill: #1539ac;
      }
    </style>
  </defs>
  <path class="cls-5" d="M-125,0h750v500H-125V0Z"/>
  <path class="cls-3" d="M-125,0h750v333.33H-125V0Z"/>
  <path class="cls-2" d="M-125,0h750v166.67H-125V0Z"/>
  <g>
    <g>
      <path class="cls-3" d="M313.38,249.98c0,35.01-28.36,63.39-63.38,63.39s-63.37-28.38-63.37-63.39,28.38-63.36,63.37-63.36,63.38,28.36,63.38,63.36Z"/>
      <path d="M250,314.77c-35.71,0-64.77-29.06-64.77-64.79s29.06-64.76,64.77-64.76,64.77,29.05,64.77,64.76-29.06,64.79-64.77,64.79ZM250,188.02c-34.17,0-61.98,27.8-61.98,61.96s27.8,62,61.98,62,61.98-27.81,61.98-62-27.8-61.96-61.98-61.96Z"/>
    </g>
    <g>
      <path class="cls-1" d="M280.64,240.17c-1.54-.06-1.55,1.64-1.55,1.64,0,0,.05-.5,0,.07-.03.56.25,1.94,1.39,2.05,1.2.11,1.6-1.3,1.61-1.98,0-.27-.09-1.74-1.46-1.77h0Z"/>
      <path d="M280.62,244.07s-.09,0-.14,0c-1.22-.12-1.56-1.56-1.52-2.2,0-.02,0-.04,0-.06h-.01s.01-.87.55-1.39c.29-.28.67-.41,1.15-.39h0c1.26.03,1.6,1.22,1.6,1.92,0,.55-.24,1.35-.72,1.78-.26.23-.57.35-.91.35ZM279.26,241.58c0,.07,0,.16-.01.31-.03.55.25,1.79,1.26,1.89.32.02.6-.07.83-.27.48-.43.61-1.21.62-1.56,0-.16-.04-1.59-1.31-1.62v-.15s0,.15,0,.15c-.38-.01-.7.09-.93.31-.3.28-.4.7-.44.95Z"/>
    </g>
    <path d="M210.24,275.35l-.54-.9c-.05-.1-.2-.26-.42-.51-.11-.12-.26-.19-.42-.21-.17-.03-.35.01-.49.1-.21.13-.35.3-.37.51-.04.21.06.51.3.91l.55.94,1.4-.84ZM215.6,275.04l-6.89,4.1-2.1-3.54c-.39-.66-.63-1.19-.72-1.61-.11-.42-.06-.82.12-1.21.17-.4.49-.73.93-1,.34-.21.72-.32,1.12-.35.39,0,.74.1,1.08.28.21.12.46.31.72.58-.06-.29-.1-.53-.09-.71.02-.11.07-.28.17-.55.09-.26.18-.44.24-.55l1.39-2.22,1.42,2.41-1.42,2.39c-.18.3-.29.53-.3.7,0,.22.04.42.15.61l.12.19,2.79-1.66,1.27,2.13ZM203.47,269.43l-2.1-6.29,1.62-.55,1.32,3.94,1.22-.41-1.24-3.66,1.56-.51,1.22,3.64,1.49-.48-1.35-4.06,1.72-.59,2.14,6.41-7.6,2.55ZM203.69,256.63l-.09-.59c-.05-.49-.17-.81-.36-.97-.18-.17-.43-.24-.68-.21-.25.04-.45.14-.6.32-.16.19-.21.51-.14.97l.07.71,1.8-.22ZM200.57,259.5l-.48-4.09c-.1-.88.03-1.58.4-2.07.38-.49.96-.78,1.74-.87.8-.1,1.47.07,1.97.5.5.43.82,1.15.94,2.14l.15,1.35,2.95-.34.29,2.47-7.96.92ZM200.29,243.86l.26-2.46,4.76.51c.45.05.89.17,1.3.36.41.18.76.46,1.03.81.28.36.47.69.56,1.06.12.48.15,1.07.08,1.75-.05.42-.12.84-.22,1.25-.1.45-.26.83-.45,1.11-.21.31-.47.57-.77.78-.29.21-.63.35-.98.42-.53.11-.98.13-1.37.09l-4.74-.5.26-2.47,4.86.53c.44.04.79-.04,1.06-.26.27-.22.42-.53.48-.95.05-.44-.05-.78-.26-1.04-.21-.27-.54-.42-.98-.47l-4.86-.53ZM208.27,237.13l.43-1.19c.13-.4.17-.71.08-.94-.09-.21-.26-.38-.49-.44-.24-.08-.43-.07-.63.05-.2.12-.37.38-.51.78l-.42,1.19,1.54.53ZM205.29,236.08l.36-1.01c.12-.37.16-.65.07-.84-.07-.18-.22-.32-.46-.39-.19-.08-.4-.07-.59.03-.17.1-.32.32-.44.68l-.38,1.04,1.44.5ZM201.51,237.41l1.52-4.39c.26-.73.64-1.22,1.14-1.49.48-.26,1.04-.3,1.55-.12.44.17.77.44,1,.83.14.26.22.6.22.99.32-.5.68-.82,1.08-.95.41-.15.86-.14,1.35.03.38.13.7.35.96.64.24.3.4.64.48,1.01.04.24.02.57-.07.97-.13.56-.2.92-.26,1.09l-1.41,4.04-7.56-2.64ZM205.6,227.14l1.3-2.11,5.16,3.13,2.01-3.3,1.68,1.03-3.27,5.41-6.87-4.15ZM210.89,219.26l1.59-1.9,6.11,5.17-1.6,1.9-6.11-5.17ZM221.99,214.95l2.08-.89c.27.56.42,1.09.44,1.62.02.5-.08,1-.29,1.45-.24.46-.63.91-1.16,1.38-.68.55-1.3.91-1.89,1.07-.58.15-1.24.11-1.96-.11-.7-.23-1.37-.74-2.01-1.49-.84-1.03-1.23-2.03-1.14-3.02.08-1.01.62-1.91,1.61-2.74.78-.65,1.51-.99,2.23-1.04.7-.07,1.44.15,2.19.61l-1.37,1.78c-.21-.14-.38-.23-.53-.26-.22-.06-.45-.07-.66,0-.22.05-.43.15-.61.3-.43.36-.62.81-.56,1.35.04.4.29.87.74,1.43.58.68,1.07,1.06,1.48,1.14.43.09.83-.03,1.2-.34.36-.31.56-.63.56-.99.01-.38-.09-.78-.33-1.23h0ZM230.1,210.14l-2.09-2.17.53,2.97,1.57-.81ZM231.35,211.45l-2.51,1.28.26,1.36-2.25,1.15-.95-8.51,2.41-1.23,6.32,5.78-2.3,1.18-.97-1ZM241.09,203.1l.62,4.32.6-.09c.52-.06.88-.18,1.08-.32.2-.16.33-.36.41-.68.09-.29.09-.76,0-1.4-.12-.84-.34-1.4-.65-1.66-.32-.27-.8-.36-1.44-.27l-.62.09ZM238.39,201.65l3.64-.52c.72-.09,1.3-.09,1.77.05.48.14.88.36,1.23.68.34.32.61.72.8,1.18.21.48.35.99.42,1.51.13.84.13,1.52,0,2-.11.47-.33.92-.63,1.3-.3.36-.64.63-1.02.78-.46.21-.94.36-1.44.44l-3.65.51-1.11-7.93ZM249.3,200.1l6.61.49-.12,1.71-4.14-.31-.1,1.27,3.84.28-.14,1.62-3.82-.27-.11,1.56,4.26.32-.13,1.81-6.74-.5.59-7.98ZM259.48,201.04l2.38.66-1.65,5.82,3.72,1.05-.54,1.89-6.1-1.73,2.19-7.7ZM273,209.92l.51.33c.39.26.73.37.97.35.25-.02.47-.15.59-.37.13-.2.18-.43.15-.68-.05-.23-.27-.47-.65-.73l-.59-.4-.98,1.5ZM272.8,205.71l3.44,2.27c.75.49,1.18,1.04,1.32,1.64.14.6,0,1.24-.44,1.89-.43.67-.99,1.06-1.65,1.17-.67.11-1.4-.1-2.23-.65l-1.13-.75-1.63,2.48-2.08-1.37,4.4-6.68ZM281.49,217.92l1.4-2.67-2.65,1.43,1.25,1.24ZM280.65,219.51l-2.01-1.97-1.21.66-1.8-1.77,3.7-1.71,4.08-1.89,1.92,1.9-3.48,7.83-1.84-1.83.65-1.22ZM288.09,222.99l.56.89c.07.09.19.26.44.5.12.11.27.18.43.19.17.02.34-.02.47-.12.21-.14.33-.3.37-.52.03-.21-.08-.52-.33-.89l-.57-.91-1.38.87ZM282.73,223.46l6.75-4.31,2.22,3.47c.41.64.67,1.17.8,1.58.1.41.06.83-.1,1.22-.16.41-.46.74-.89,1.02-.38.24-.75.38-1.13.38-.36.02-.73-.07-1.09-.22-.26-.16-.51-.35-.73-.57.07.29.12.53.11.7-.03.19-.08.37-.14.55-.06.2-.14.39-.24.57l-1.31,2.26-1.51-2.36,1.36-2.42c.18-.32.27-.56.27-.72,0-.22-.03-.42-.17-.61l-.11-.18-2.75,1.75-1.34-2.1ZM292.2,234.25l2.4-1.81-3,.17.6,1.65ZM290.74,235.32l-.96-2.65-1.37.1-.87-2.38,8.56.1.93,2.53-6.5,5.57-.89-2.45,1.11-.82ZM294.57,243.84l1.65-.22.48,3.82-3.39.41c-.57-.66-1.01-1.26-1.24-1.8-.26-.54-.43-1.19-.52-1.95-.12-.94-.06-1.73.2-2.37.24-.63.66-1.16,1.25-1.58.6-.39,1.3-.66,2.12-.76.86-.11,1.65-.03,2.33.26.68.27,1.23.73,1.66,1.38.33.51.55,1.22.65,2.13.12.87.12,1.54,0,1.99-.09.44-.3.85-.6,1.18-.32.36-.73.63-1.18.8l-.72-2.31c.29-.14.5-.33.62-.59.13-.25.16-.57.13-.91-.09-.55-.31-.95-.72-1.22-.42-.27-1.04-.36-1.85-.26-.86.11-1.44.35-1.78.71-.32.38-.44.86-.38,1.43.03.27.11.53.22.76.12.25.28.5.51.82l.75-.1-.21-1.64ZM299.64,255.85l-.28,2.45-4.74-.53c-.45-.05-.9-.18-1.31-.37-.4-.19-.75-.47-1.02-.81-.27-.35-.46-.7-.55-1.05-.12-.51-.14-1.09-.07-1.76.05-.38.13-.81.22-1.26.11-.45.27-.82.47-1.11.21-.3.47-.56.77-.77.35-.22.67-.35.99-.41.52-.1.98-.13,1.37-.07l4.74.54-.28,2.45-4.85-.56c-.44-.05-.79.03-1.07.25-.27.22-.43.53-.47.95-.05.43.03.78.25,1.04.21.27.54.42.97.49l4.86.54ZM292.27,264.97l3.02.11-2.44-1.78-.58,1.67ZM290.48,264.88l.91-2.66-1.12-.8.83-2.39,6.59,5.47-.91,2.56-8.53.21.84-2.45,1.39.06ZM294.9,272.25l-1.39,2.37h-3.15s1.51,2.78,1.51,2.78l-1.38,2.34-2.43-5.05-2.89-1.7,1.27-2.14,2.89,1.71,5.59-.32Z"/>
    <path d="M249.99,303.63c-29.56,0-53.61-24.05-53.61-53.62s24.05-53.6,53.61-53.6,53.61,24.04,53.61,53.6h0c0,29.57-24.05,53.62-53.61,53.62ZM249.99,197.52c-28.95,0-52.5,23.54-52.5,52.48s23.55,52.5,52.5,52.5,52.49-23.55,52.49-52.51h.56-.56c0-28.94-23.55-52.48-52.49-52.48Z"/>
    <path d="M249.99,289.86c-22.08,0-40.04-17.97-40.04-40.05s17.96-40.03,40.04-40.03,40.04,17.96,40.04,40.03h0c0,22.08-17.96,40.05-40.03,40.05ZM249.99,210.9c-21.46,0-38.92,17.46-38.92,38.91s17.46,38.93,38.92,38.93,38.92-17.46,38.92-38.93h0c0-10.39-4.05-20.16-11.4-27.51-7.35-7.35-17.13-11.4-27.52-11.4Z"/>
    <g>
      <path class="cls-4" d="M249.99,234.25l3.67,10.51,11.11.25-8.86,6.73,3.22,10.65-9.15-6.33-9.15,6.33,3.2-10.65-8.87-6.73,11.13-.25,3.68-10.51Z"/>
      <path d="M259.59,263.02l-9.6-6.65-9.6,6.64,3.36-11.18-9.3-7.07,11.68-.26,3.86-11.03,3.85,11.03,11.66.26-9.29,7.07,3.38,11.18ZM235.91,245.25l8.43,6.4-3.05,10.13,8.7-6.02,8.7,6.02-3.06-10.13,8.42-6.4-10.57-.24-3.49-10-3.5,10h-.17s-10.41.24-10.41.24Z"/>
    </g>
    <g>
      <path class="cls-1" d="M268.22,277.07c-.34.28-1.68.43-2.04.49-.36.05-1.77.06-2.37.08-.33.02-.96.11-1.29.11-2.9-.33,4.71-.28,5.71-.69h0ZM260.62,274.82c.19-.34,1.14-2.45,1.48-3.05.35-.59,1.14-2.16,1.61-2.82.24-.35,1.19-1.38,1.41-.92-1.65,1.42-2.95,3.91-3.64,5.58-.09.18-.63,1.11-.83,1.36-.19.24-.11.69-.42.73-.32.04-.1.1-.1.1,0,0,.27-.61.48-.97h0ZM271.56,276.44s-1.31-.2-2.12-.48c-.81-.27-2.17-.48-3.33-.45-1.15.02-2.2.36-3.13.72-.93.35-2.14.38-2.14.38,0,0-.68.11-.36-.05.3-.15,1.36-.98,1.36-.98l.68-.94c.2-.05,3.66-4.6,3.29-5.83.53-.9,1.15-2.5.92-2.78-.11-.11-2.7.82-3.27,1.34-.66.57-1.12,1.75-1.32,2.43-.19.68-1.19,1.24-1.19,1.24-.81.58-1.4,2.42-1.67,3.93-.28,1.49-3.95,2.31-3.95,2.31,0,0-1.02.38-.11.67.15.04.56.73.88.74.45.05,2.73-.92,3.08-.85.77.18,1.54.38,2.29.63.87.29,1.59.45,2.19.22.62-.22,1.5-.14,2.16,0,.65.14,1.38.08,1.8-.05.45-.14,1.63-.79,1.63-.79,0,0,1.28-.55,2.01-.9.74-.35.29-.5.29-.5h0Z"/>
      <path d="M263.02,278.94c-.52,0-1.07-.16-1.6-.34-.75-.24-1.52-.45-2.28-.62-.15-.03-.87.22-1.4.4-.87.3-1.42.47-1.66.45-.25,0-.5-.29-.71-.53-.07-.08-.17-.19-.2-.21-.11-.03-.47-.15-.47-.41,0-.29.45-.48.59-.54.05-.01,3.59-.83,3.85-2.2.28-1.55.88-3.42,1.73-4.03.02-.01.96-.55,1.13-1.16.08-.29.55-1.8,1.36-2.5.42-.38,3.21-1.58,3.47-1.33.34.41-.46,2.19-.87,2.91.09.42-.14,1.12-.69,2.13-.78,1.43-2.23,3.41-2.63,3.76l-.71.96s-.6.47-1.02.76c.3-.01,1.26-.08,2.02-.36.97-.37,2.03-.71,3.18-.73,1.1-.04,2.49.16,3.38.46.79.28,2.09.48,2.1.48l-.02.14.05-.13c.1.03.23.13.24.27.01.18-.15.33-.51.5-.73.34-2.01.9-2.02.9-.04.02-1.19.66-1.65.8-.43.13-1.18.2-1.87.05-.5-.1-1.44-.22-2.08,0-.22.08-.45.12-.69.12ZM259.13,277.68s.05,0,.08,0c.77.17,1.54.39,2.31.63.73.25,1.49.45,2.1.22.67-.24,1.59-.14,2.24-.02.64.14,1.34.07,1.72-.04.43-.13,1.59-.77,1.6-.78.03-.01,1.3-.56,2.02-.9.24-.11.31-.19.33-.21,0,0,0,0-.01,0-.14-.02-1.35-.21-2.14-.49-.86-.29-2.21-.47-3.27-.44-1.11.01-2.14.35-3.08.71-.94.35-2.14.38-2.19.39-.46.08-.56.03-.59-.09-.05-.14.11-.22.16-.24.23-.12,1.02-.71,1.32-.95l.7-.96h.05c.34-.27,3.51-4.58,3.18-5.65l-.02-.06.03-.06c.56-.95,1.01-2.25.95-2.56-.43.07-2.56.84-3.07,1.3-.58.5-1.05,1.59-1.28,2.36-.21.73-1.21,1.3-1.26,1.33-.76.55-1.34,2.41-1.6,3.83-.29,1.57-3.9,2.4-4.06,2.43-.17.06-.36.19-.37.25h0s.04.06.27.13c.09.03.18.12.33.3.14.16.37.43.51.43.21.03.95-.23,1.54-.43.75-.25,1.25-.42,1.49-.42ZM262.52,277.9c-.65-.07-.81-.11-.8-.29,0-.2,0-.22,2.53-.34,1.55-.07,3.48-.17,3.92-.35l.06.14.09.11c-.29.24-1.12.38-1.88.49-.09.01-.17.02-.23.03-.26.03-.99.05-1.64.07-.29,0-.56.01-.75.02-.12,0-.28.03-.46.04-.29.03-.63.07-.84.07ZM260.22,275.97l-.12-.03c-.18-.05-.19-.15-.19-.2,0-.1.08-.14.16-.17.1-.21.27-.57.42-.82h0c.08-.17.28-.6.51-1.09.35-.75.75-1.61.96-1.97.12-.2.29-.51.47-.86.37-.68.83-1.53,1.14-1.97.12-.17.86-1.1,1.36-1.1,0,0,.02,0,.03,0,.13,0,.23.08.29.2l.05.1-.09.08c-1.89,1.64-3.23,4.64-3.6,5.53-.1.2-.65,1.14-.85,1.39-.06.07-.09.18-.12.29-.05.18-.11.44-.37.48,0,.01,0,.02,0,.02l-.05.12ZM264.84,268.09c-.28.12-.78.62-1,.95-.16.22-.35.55-.56.9.46-.67.98-1.31,1.56-1.85Z"/>
    </g>
    <g>
      <path class="cls-1" d="M261.59,280.87s-5.05-2.64-5.32-2.7c-.16-.02-2.29-1.2-3.27-1.5-.71-.23-1.68-.29-2.03-.27-.83.06-2.19.43-2.19.43l1.25.51s1.18.58,1.75.89c.82.43.86.96.86.96l4.57,2.01.93.67s.84-1.17,3.44-1h0Z"/>
      <path d="M258.19,282.07l-1.05-.75-4.63-2.03v-.09s-.06-.46-.79-.84c-.57-.31-1.74-.88-1.75-.89l-1.65-.67.42-.11c.06-.02,1.38-.37,2.22-.43.35-.02,1.35.03,2.08.27.64.2,1.76.76,2.5,1.14.34.17.69.35.75.36.28.06,4.51,2.27,5.36,2.72l-.08.28c-2.47-.16-3.3.93-3.31.94l-.09.12ZM252.79,279.08l4.5,1.98.84.6c.26-.27,1.08-.93,2.82-.96-1.96-1.03-4.52-2.34-4.72-2.4-.06,0-.21-.08-.82-.39-.73-.37-1.84-.93-2.46-1.12-.67-.21-1.62-.29-1.97-.26-.52.04-1.26.2-1.72.31l.84.34s1.2.59,1.77.89c.69.36.87.8.92.99Z"/>
    </g>
    <g>
      <path class="cls-1" d="M266.67,270.38c1.59-1.42,2.36-3.43,3.67-4.54.21.15.21.4-.05.85-.25.44-.58.59-.72.82-.27.36-1.06,1.02-1.28,1.41-.19.38-.44.9-1.13,1.3-.69.41-.47,1.07-.53,1.34-.06.3-1.12,1.06-1.63,2-.1.98-.14.57-.74.92,1.08-1.63,1.65-2.68,2.4-4.11h0ZM263.1,274.86c-.1.22-3.23,1.99-2.25,1.73.97-.26,3.87-1.3,4.69-1.67,1.01-.44,1.61-1.36,2.36-2.11.77-.77,3.15-3.04,3.57-3.92.4-.9.77-2.16-.85-4.99,0,0-.25.54-.85,1.07-.6.54-1.48,1.14-1.48,1.14l-1.04.98s-3.66,6.72-4.15,7.77h0Z"/>
      <path d="M260.7,276.77c-.07,0-.14-.02-.18-.1-.08-.18.01-.27,1.42-1.18.42-.27.95-.61,1.03-.7.51-1.08,3.99-7.49,4.14-7.76l.03-.04,1.04-.98s.9-.61,1.49-1.14c.57-.5.82-1.02.82-1.02l.12-.26.14.25c1.63,2.84,1.29,4.13.85,5.12-.38.8-2.26,2.65-3.27,3.64l-.33.33c-.2.2-.39.41-.58.62-.52.58-1.06,1.18-1.83,1.52-.85.38-3.76,1.42-4.71,1.67-.05.01-.12.03-.18.03ZM263.23,274.92h0c-.05.11-.27.26-1.13.81-.28.18-.64.41-.92.6,1.18-.36,3.54-1.22,4.29-1.55.71-.31,1.2-.86,1.73-1.44.19-.21.39-.43.59-.63l.33-.33c.93-.91,2.85-2.8,3.2-3.55.4-.89.7-2.06-.71-4.62-.14.22-.38.55-.75.88-.59.54-1.46,1.12-1.5,1.15l-1,.95c-.22.41-3.67,6.74-4.13,7.74h0ZM264.34,274.61l-.2-.21c1.07-1.62,1.64-2.67,2.39-4.09l.03-.04c.81-.72,1.4-1.59,1.97-2.44.54-.8,1.05-1.56,1.7-2.11l.09-.08.09.07c.38.27.18.73,0,1.05-.16.28-.35.45-.5.59-.09.08-.17.16-.22.23-.12.17-.33.37-.55.59-.29.28-.61.6-.72.82l-.02.04c-.2.38-.46.91-1.17,1.32-.45.27-.45.66-.44.97,0,.1,0,.2-.01.27-.03.17-.21.36-.55.71-.35.36-.8.81-1.08,1.31-.06.63-.11.76-.43.85-.09.02-.21.05-.37.15ZM264.81,273.92c-.05.08-.11.16-.16.25.09-.03.13-.04.16-.25ZM266.51,271.01c-.25.46-.48.89-.73,1.33.08-.09.16-.17.24-.25.21-.21.46-.47.48-.56.01-.05.01-.13,0-.21,0-.09,0-.2,0-.32ZM268.09,269c-.24.32-.49.64-.77.95.42-.3.62-.65.77-.95ZM270.33,266.04c-.57.52-1.04,1.22-1.54,1.96-.09.13-.18.27-.28.41.13-.14.28-.29.43-.44.21-.21.41-.41.51-.55.06-.1.16-.19.27-.28.14-.13.31-.28.44-.52.19-.33.2-.49.17-.57Z"/>
    </g>
    <g>
      <path class="cls-1" d="M275.82,272.5s-2-.18-2.18-.18c-.19,0-1.29-.15-2.88-.15s-2.18.55-2.59.99c-.45.49-1.7,1.64-1.7,1.64l.67-.06c1.6-1.25,2.85-.79,3.35-.83.52-.02,1.15.03,2.75-.53,1.63-.57,1.53-.04,1.35.02-.78.28-1.59.44-2.42.49-1.21.07-2.27.3-2.75.3s-4.01.97-4.01.97c0,0,3.82.22,4.23.36.41.17,1.05.09,1.58-.17,1.46-.67,2.12-.8,2.73-.94.6-.12,1.33-.53,1.33-.53,0,0,.39-.24.74-.89.37-.66-.21-.48-.21-.48h0ZM277.7,262.03c.24-.6.84-2,1.48-2.55.39-.34,1.06-.5,1.42-.65.15-.05,1.25-.1-.12.27-.57.15-1.34.49-1.68,1.06-.48,1.33-.9,2.49-1.79,3.34-.65.69-1.07,1.58-1.07,1.58l-.7.24c1.28-.79,1.84-2.24,2.45-3.29h0ZM283.9,261.29c-.73.24-.99.45-.99.45-1.64.49-2.31,1.52-3.02,2.35-.36.44-.88.77-2.6,1.51-1.58.68-2.8,1.73-2.83,1.73,0,0-.5.1-.4.35.04.12.46.02.46.02,0,0,3.25-.46,4.6-1.29.86-.54,1.35-.94,2.17-2.2.37-.56.78-1.61.8-.94.06,1.8-2.73,3.54-3.95,4.08-.65.28-1.52.39-2.65.58-1.12.21-1.8.14-1.72-.1.11-.36.25-.43.54-.79.53-.64,1.83-.86,2.78-1.31,1.13-.5,2.19-1.25,2.73-1.88.54-.64.73-.88.88-1.42.42-1.42.44-2.2.83-2.71,1.37-1.69,1.57-2.24,1.64-2.99.01-.17-.71.4-1.09.61-.74.44-1.01.44-2.53.83-1.54.38-1.5,1.37-1.74,1.84-.07.19-.69.96-.99,1.11-.3.15-1.03,1.21-1.3,1.83-.2.45-.56.78-.84.74-.3-.06.58-3.33.77-3.87.21-.54.25-1.59.25-1.94s.01-1.23-.58-1.33c-.59-.1-.62-.92-.62-.92-1.42,1.23-.63,3.4-.47,4.69.15,1.27-.29,3.63-.29,3.63,1.37.59.29,2.25-.13,2.79-.45.55-1.3.65-1.68,1.13-.4.5-3.28,4.5-3.28,4.5l3.58-1.01s.33.06-.2-.35c-.54-.39.17-1.89.64-2.26.88-.69,2.07-.19,2.07-.19,0,0,1.66.26,3.69-.55,1.7-.67,2.43-1.76,3.24-2.58.44-.44,1.24-1.92,1.75-2.8.3-.51.85-1.47.52-1.35h0Z"/>
      <path d="M270.17,275.74c-.21,0-.41-.03-.57-.1-.28-.09-2.66-.26-4.18-.35l-.03-.29c.11-.03.45-.12.9-.24l.08-.07s1.25-1.14,1.69-1.63c.18-.19.38-.38.64-.55l-.43.12.25-.35c.12-.16,2.88-4.01,3.29-4.51.21-.26.53-.42.84-.57.31-.15.63-.31.84-.56.44-.55.89-1.4.75-1.98-.07-.26-.25-.45-.55-.58l-.11-.05.02-.12s.44-2.35.29-3.59c-.03-.24-.08-.51-.13-.8-.24-1.25-.56-2.96.66-4.01l.23-.2v.31s.04.7.51.78c.71.12.71,1.09.71,1.46,0,.03,0,1.35-.26,2.02-.24.67-.88,3.2-.82,3.67.18-.03.45-.27.62-.66.26-.58,1-1.71,1.37-1.9.26-.13.86-.86.92-1.03.05-.1.08-.21.12-.33.16-.51.41-1.28,1.72-1.61.32-.08.59-.15.81-.21.83-.21,1.11-.28,1.67-.61.13-.07.3-.19.46-.3.48-.32.64-.42.77-.34l.08.05v.12c-.07.77-.25,1.33-1.67,3.07-.23.29-.32.7-.46,1.32-.08.36-.18.8-.34,1.33-.05.2-.11.36-.19.51.52-.54,1.17-1.06,2.2-1.37.08-.06.38-.24,1.01-.45h0c.15-.05.23.02.25.06.08.09.18.22-.59,1.51-.08.15-.18.31-.28.49-.5.87-1.11,1.96-1.49,2.34-.15.16-.3.32-.46.49-.67.73-1.42,1.56-2.83,2.12-2.05.81-3.7.57-3.77.56-.05-.02-1.15-.47-1.95.16-.3.24-.79,1.13-.77,1.69,0,.16.05.27.13.33.27.21.42.35.35.5-.04.08-.13.12-.22.11l-1.83.52c.12,0,.24-.01.37-.01,1.19,0,2.1.08,2.58.13.15.01.26.02.3.02.17,0,1.86.15,2.16.18.09-.02.31-.06.43.09.14.17.02.43-.08.62-.37.67-.78.94-.79.95-.04.02-.75.43-1.38.55l-.09.02c-.58.13-1.23.28-2.6.91-.37.18-.77.27-1.13.27ZM266.34,275.05c1.17.07,3.06.21,3.36.31.37.15.97.08,1.47-.16,1.4-.65,2.07-.8,2.66-.93l.1-.02c.58-.11,1.28-.51,1.29-.51h0s.36-.24.69-.83c.12-.22.1-.29.1-.29-.01,0-.09,0-.14.02l-.04-.14v.15c-.82-.07-2.06-.18-2.18-.18-.05,0-.16-.01-.33-.03-.48-.04-1.37-.13-2.55-.13-1.6,0-2.15.59-2.48.94-.31.34-.97.96-1.37,1.34.09-.02.18-.05.27-.07,1.28-.95,2.33-.85,2.96-.79.14.01.26.03.35.02h.18c.47-.01,1.12-.03,2.53-.53.84-.29,1.35-.35,1.56-.17.07.07.11.16.09.25-.02.1-.1.18-.19.21-.79.28-1.61.45-2.45.49-.66.04-1.29.13-1.79.2-.42.06-.74.11-.97.11s-1.18.23-2.14.48c-.02.02-.04.03-.06.05l-.03.03-.29.03c-.2.05-.39.1-.57.15ZM269.54,274c-.37,0-.82.05-1.33.27.58-.14,1.06-.24,1.23-.24.09,0,.19,0,.32-.02-.07,0-.14,0-.22,0ZM274.37,273.26c-.17,0-.49.05-1.08.25-.17.06-.32.11-.47.16.57-.08,1.13-.21,1.67-.4-.03,0-.07-.01-.12-.01ZM273.9,263.86c.33.17.54.41.62.73.22.88-.63,2.02-.8,2.24-.25.31-.6.48-.94.64-.3.14-.58.28-.74.49-.33.4-2.32,3.17-3.03,4.15l3.06-.87s-.08-.07-.14-.11c-.11-.08-.24-.24-.25-.56-.02-.63.48-1.61.88-1.93.94-.73,2.17-.23,2.22-.21,0,0,.21.03.59.03.64,0,1.75-.09,2.99-.58,1.34-.53,2.07-1.33,2.72-2.04.16-.17.31-.34.47-.5.35-.36.98-1.47,1.44-2.28.1-.17.19-.34.28-.49.38-.64.52-.95.57-1.1-.6.21-.82.38-.83.38l-.05.03c-1.39.42-2.04,1.21-2.68,1.98-.09.11-.18.22-.28.33-.36.44-.87.76-2.15,1.33-.23.12-.46.24-.7.35-.17.08-.34.15-.52.22-.95.5-1.69,1.07-1.96,1.28-.14.11-.15.12-.21.12-.09.02-.19.07-.24.11.07,0,.18-.01.27-.03.04,0,3.25-.47,4.56-1.27.83-.52,1.32-.91,2.13-2.16.1-.16.21-.36.31-.55.26-.48.39-.72.58-.67.17.04.17.26.18.36.07,1.96-2.97,3.75-4.03,4.22-.59.25-1.33.37-2.27.52l-.42.07c-.58.11-1.59.25-1.84-.04-.06-.07-.08-.16-.05-.25.1-.3.21-.43.39-.62.05-.06.11-.13.18-.21.38-.46,1.08-.7,1.82-.96.16-.06.33-.12.49-.18.23-.12.47-.24.72-.34.18-.08.34-.15.49-.21.83-.45,1.57-1,1.98-1.5.55-.65.71-.86.85-1.36.15-.52.25-.94.34-1.32.15-.64.25-1.1.52-1.44,1.23-1.52,1.5-2.09,1.59-2.71-.11.07-.26.16-.37.24-.17.12-.35.23-.48.31-.6.35-.91.43-1.75.64-.23.06-.49.12-.81.21-1.15.29-1.35.91-1.51,1.41-.04.13-.08.25-.13.36-.07.2-.73,1.02-1.06,1.18-.23.12-.94,1.09-1.23,1.75-.24.53-.65.86-1,.83-.07-.01-.11-.05-.14-.1-.26-.44.73-3.79.79-3.97.2-.51.24-1.54.24-1.89,0-.53-.05-1.11-.46-1.18-.45-.08-.63-.47-.7-.75-.85.95-.58,2.38-.36,3.54.06.29.11.57.14.82.14,1.14-.19,3.07-.27,3.56ZM273.93,267.83c.11.06.58.11,1.55-.06l.43-.07c.92-.15,1.65-.27,2.2-.5,1.26-.56,3.83-2.22,3.86-3.85-.07.11-.14.25-.2.36-.11.2-.22.4-.33.57-.84,1.3-1.34,1.7-2.22,2.25-1.37.83-4.53,1.29-4.66,1.31-.31.07-.51.05-.59-.06,0,.02-.02.04-.02.06ZM275.16,266.62c-.3.14-.56.3-.73.5-.02.02-.04.04-.05.06.01,0,.02,0,.03,0,.02-.01.05-.03.08-.06.13-.1.36-.28.67-.49ZM283.95,261.43s0,0,0,0l-.08-.22.07.22ZM275.29,265.46l-.13-.27c.99-.61,1.54-1.64,2.03-2.56.12-.23.24-.46.37-.67.37-.91.93-2.09,1.52-2.6.31-.27.76-.42,1.12-.55.13-.04.24-.08.33-.12.07-.02.57-.11.71.02l.06.06v.1c-.04.1-.1.18-.8.37-.28.07-1.21.36-1.59.99-.47,1.32-.9,2.49-1.81,3.37-.62.65-1.03,1.52-1.03,1.53l-.03.06-.76.26ZM278.36,260.92c-.17.34-.35.73-.53,1.16v.02c-.11.17-.21.35-.31.54.34-.51.59-1.09.83-1.72Z"/>
    </g>
    <g>
      <path class="cls-1" d="M273.76,270.9c.27-.11.31-.16.82-.71.49-.55.06-1.47-.7-1.43-.37.02-.77-.06-1.5.92-.71.99.34,1.35.74,1.39.17,0,.39-.06.65-.18h0Z"/>
      <path d="M273.13,271.23s-.03,0-.04,0c-.28-.03-.86-.2-1.05-.63-.13-.29-.06-.63.2-.99.71-.95,1.15-.97,1.51-.98h.1s.03,0,.05,0c.4,0,.74.22.92.59.18.37.12.79-.14,1.09l-.03.03c-.48.52-.54.59-.84.71-.31.13-.51.19-.68.19ZM273.91,268.92s-.03,0-.04,0h-.11c-.32.02-.66.03-1.28.86-.2.28-.26.51-.17.7.13.28.56.43.81.45.14,0,.41-.09.58-.17h0c.24-.1.26-.13.73-.64l.03-.03c.22-.25.2-.56.1-.76-.1-.21-.32-.42-.65-.42Z"/>
    </g>
    <g>
      <path class="cls-1" d="M271.91,264.67c-.47.79-.73,1.7-.35,1.99.08.05.41.34.69.34s1.05-.37,1.5-1.06c.44-.66.81-1.39-.1-1.85-.82-.41-1.39-.03-1.73.58h0Z"/>
      <path d="M272.25,267.14c-.27,0-.55-.2-.7-.31-.03-.02-.05-.04-.07-.05-.49-.37-.2-1.36.3-2.19h0c.45-.81,1.14-1.03,1.93-.64.34.17.54.39.62.66.12.45-.15.94-.46,1.4-.48.74-1.31,1.12-1.62,1.12ZM271.87,264.65l.16.1c-.48.81-.65,1.59-.39,1.79,0,0,.04.02.08.05.11.08.35.25.53.25.22,0,.95-.34,1.37-.99.26-.38.51-.82.42-1.16-.05-.19-.2-.34-.46-.47-.64-.32-1.16-.14-1.54.52l-.16-.09Z"/>
    </g>
    <g>
      <path class="cls-1" d="M274.62,254.98s.07-.12-.24-.44c-.49-.51-1.11-1.41-1.11-1.41-.98.54-1.31,1.63-1.31,2.06s.17,1.42.02,2.42c-.05.34-.11.73-.59,1.96-.5,1.22.07,2.33.18,2.73.08.39.49,1.61.49,1.61,0,0,.38-.25.52-.28.15-.04.68-.02.68-.02,0,0,.59-1.07.61-1.67.01-.44-.06-1.18-.27-2.33-.29-1.66-.27-2.14-.07-3.07.2-.94,1.1-1.56,1.1-1.56h0Z"/>
      <path d="M271.97,264.12l-.06-.18s-.41-1.23-.49-1.62c-.01-.05-.04-.12-.07-.21-.19-.53-.55-1.52-.1-2.6.47-1.19.53-1.57.58-1.9.11-.72.06-1.41.02-1.91-.02-.2-.03-.37-.03-.5,0-.47.34-1.61,1.39-2.19l.12-.06.08.11s.62.9,1.1,1.39c.35.37.3.56.26.63l-.12-.08.08.12s-.86.6-1.04,1.47c-.2.93-.21,1.38.08,3.01.19,1.04.28,1.85.27,2.36-.02.62-.61,1.69-.63,1.73l-.04.08h-.09c-.21-.01-.54-.01-.63,0-.07.02-.3.15-.48.26l-.16.1ZM273.22,253.33c-.83.52-1.12,1.48-1.12,1.86,0,.12.01.29.03.48.04.52.1,1.23-.02,1.96-.05.35-.12.77-.6,1.99-.4.98-.07,1.9.11,2.39.03.09.06.18.08.24.06.3.31,1.07.43,1.42.13-.08.31-.18.4-.19.13-.04.45-.03.62-.03.13-.26.54-1.06.55-1.52,0-.34-.03-1.01-.26-2.3-.29-1.67-.28-2.16-.07-3.12.18-.85.88-1.44,1.1-1.61-.02-.04-.06-.13-.19-.27-.4-.41-.86-1.05-1.05-1.31ZM274.47,254.94h0Z"/>
    </g>
    <g>
      <path class="cls-1" d="M276.08,256.64s.56-.13.84-.64c.35-.61.26-1.26.26-1.26-.86-1.68-2.03-.32-2.03-.32-1.04,2.13.93,2.22.93,2.22h0Z"/>
      <path d="M276.07,256.79s-.85-.05-1.21-.66c-.26-.44-.21-1.04.16-1.78l.02-.03s.56-.64,1.21-.56c.41.05.77.36,1.06.91v.05s.11.71-.27,1.35c-.31.56-.91.7-.93.71l-.04-.14v.15ZM275.28,254.51c-.31.64-.36,1.14-.16,1.48.25.42.83.5.95.51.1-.03.51-.17.72-.56.29-.5.26-1.03.25-1.14-.24-.45-.51-.69-.82-.73-.03,0-.06,0-.08,0-.42,0-.79.38-.86.45Z"/>
    </g>
    <g>
      <path class="cls-1" d="M279.03,253.57c-1.29.07-1.93,2.39-1.93,2.39,0,0-.21.57-.9,1.02-.73.45-.3,1.1-.3,2.26s-.81,3.2-.81,3.2l-.3.69s.03.52.5-.42c.8-1.59,1.68-1.2,2.01-2.91.21-1.27,2.31-1.68,2.31-1.68l-.59-.11c-2.19-1.03.13-3.58.5-4.03.4-.45.78-.45-.5-.39h0Z"/>
      <path d="M274.89,263.41s-.03,0-.05,0c-.13-.03-.18-.16-.19-.28v-.03s.31-.73.31-.73c0-.02.79-2.02.79-3.14,0-.34-.04-.64-.07-.9-.08-.62-.15-1.11.44-1.48.63-.41.83-.94.84-.94.02-.09.68-2.41,2.06-2.48h.14c.75-.04.82-.04.88.1.05.12-.05.21-.16.31-.07.06-.16.14-.25.24l-.07.08c-.38.45-1.52,1.8-1.29,2.83.08.38.34.67.8.88l.57.11v.29s-2,.4-2.19,1.55c-.19,1.01-.59,1.34-1,1.7-.33.28-.68.58-1.02,1.26-.23.46-.38.65-.54.65ZM279.04,253.72c-1.17.06-1.79,2.26-1.79,2.28-.01.04-.24.64-.96,1.1-.41.25-.39.55-.31,1.19.04.27.08.58.08.94,0,1.17-.78,3.17-.82,3.25l-.02.05c.35-.66.72-.97,1.04-1.25.41-.35.73-.62.9-1.52.15-.9,1.14-1.39,1.81-1.62h0c-.54-.26-.87-.63-.98-1.1-.26-1.17.96-2.61,1.36-3.08l.07-.08c.06-.07.12-.13.17-.18-.11,0-.25,0-.41.02h-.14Z"/>
    </g>
    <g>
      <path class="cls-1" d="M278.66,256.32c-.59,1.27,1.09,1.33,1.48,1.11.16-.09.51-.51.51-.51.68-.98.06-1.64-.3-1.74-.34-.11-1.07-.2-1.69,1.14h0Z"/>
      <path d="M279.6,257.68c-.34,0-.73-.08-.98-.31-.2-.18-.38-.52-.1-1.11.64-1.39,1.45-1.36,1.87-1.22.21.05.5.28.64.64.1.28.14.74-.26,1.32-.07.09-.39.46-.56.56-.12.07-.35.12-.61.12ZM280.01,255.27c-.58,0-.97.58-1.22,1.11h0c-.16.34-.15.6.04.76.33.3,1.04.26,1.24.15.09-.05.33-.31.47-.48.26-.37.33-.73.22-1.04-.1-.28-.32-.43-.44-.46-.11-.03-.21-.05-.3-.05Z"/>
    </g>
    <g>
      <path class="cls-1" d="M275.46,251.4c.44.82,1.67,3.11,1.96,2.97.18-.09.04-.56.04-.56,0,0-.04-.62-.24-1.37-.2-.75-.15-1.72-.54-2.34-.38-.62-1.3-1.35-1.66-2.33-.36-.98-.08-2.83-.05-3.06.04-.21.14-.07-.05-.29-.19-.24-1.75-1.07-1.75-1.07,0,0,.09.6.05,1.7-.01.26-.09.57-.13,1.04-.04.44.23.99.87,2.25.74,1.46,1.1,2.36,1.49,3.07h0ZM284.81,240.52s-.45.75-.61.91c-.17.17-2.71,2.35-2.85,2.44-.12.1-1.45.52-2.66,3.78-1.21,3.25-.69,6.29-.69,6.29l.59-.07.1-.32s.2-1.08.35-1.9c.17-.81,1.07-1.93,1.67-2.77.57-.81,1.03-1.99,1.03-1.99.68-1.37,1.01-2.6,1.68-3.55.03,1.14-4.3,8.14-4.76,10.52l1.28-.2c1.02-.94,2.36-2.9,3.27-4.17.91-1.27,1.3-3.26,1.47-4.14.16-.87.12-4.85.12-4.85h0Z"/>
      <path d="M277.39,254.53c-.24,0-.66-.45-2.06-3.05-.2-.36-.39-.76-.62-1.26-.24-.51-.5-1.08-.87-1.8-.64-1.27-.92-1.84-.88-2.33.02-.24.05-.44.08-.62.02-.15.04-.29.05-.41.04-1.06-.05-1.66-.05-1.67l-.04-.29.26.14c.26.14,1.59.85,1.8,1.11l.02.03c.09.11.17.2.07.32,0,0-.02.02-.02.06v.04c-.19,1.32-.17,2.37.04,2.94.22.6.67,1.11,1.06,1.56.23.26.44.5.59.74.27.42.34.99.41,1.53.04.3.08.59.15.85.2.75.24,1.37.24,1.4.04.1.15.57-.12.7-.03.01-.06.03-.1.03ZM273.36,243.62c.02.28.05.77.02,1.44,0,.14-.03.28-.05.45-.03.17-.06.36-.08.6-.03.41.25.99.85,2.17.37.73.65,1.33.88,1.81.23.5.42.89.61,1.25h0c1.18,2.19,1.61,2.75,1.78,2.87,0-.07,0-.22-.05-.35,0-.04-.04-.65-.24-1.37-.07-.28-.11-.59-.15-.89-.07-.51-.14-1.04-.37-1.41-.13-.22-.34-.45-.56-.7-.41-.47-.88-1.01-1.12-1.66-.23-.63-.25-1.7-.06-3.08v-.05c.02-.05.03-.09.04-.13,0,0-.01-.01-.02-.02l-.03-.03c-.11-.13-.85-.57-1.46-.9ZM277.89,254.11l-.02-.14s-.52-3.12.69-6.37c.73-1.99,1.63-3.27,2.66-3.82.02-.01.04-.02.05-.03.14-.1,2.65-2.25,2.83-2.43.12-.12.46-.68.59-.88l.13.08h.15c0,.16.03,4-.12,4.87-.15.79-.54,2.87-1.49,4.2l-.37.53c-.9,1.27-2.02,2.84-2.92,3.66l-.03.03-1.53.23h0s-.6.06-.6.06ZM284.66,241.04c-.13.2-.27.42-.36.5-.14.14-2.7,2.35-2.88,2.46,0,0-.03.02-.08.05-1.2.64-2.03,2.34-2.52,3.66-1.04,2.78-.78,5.44-.7,6.07l.35-.04.07-.23s.19-1.07.34-1.88c.15-.72.82-1.64,1.42-2.45.1-.13.19-.26.28-.38.55-.79,1.01-1.94,1.02-1.95.27-.54.48-1.04.68-1.53.31-.75.6-1.46,1.02-2.05l.26-.37v.45c.02.55-.75,2.07-2.01,4.5-1.11,2.14-2.36,4.54-2.69,5.84l1.02-.16c.87-.81,1.96-2.35,2.84-3.59l.38-.53c.91-1.27,1.3-3.31,1.44-4.08.12-.66.13-3.2.12-4.31ZM280.18,249.88c-.45.63-.89,1.3-.99,1.81-.03.15-.06.31-.09.47.3-.69.67-1.48,1.08-2.29Z"/>
    </g>
    <g>
      <path class="cls-1" d="M276.18,241.24c-.65-.6-1.16-.79-1.16-.79,0,0,.16,1.19.16,1.91s.06,1.94.03,2.59c-.03.65-.35,1.72.11,2.77.47,1.04,1,1.56,1.38,2.21.34.64.97,3.95.97,3.95,0,0-.23-4.48-.03-5.75.18-1.25.24-3.19-.04-4.16-.29-.98-.77-2.12-1.41-2.74h0ZM279.17,236.87c.2-.38.66-1.17.85-2.38.07-.51.12-1.34.1-1.92-.01-.38-.17-1.05,0-1.09.15-.04.03.21.11.78.04.2-.1.76-.12,1.48-.03.57-.06,1.05-.31,1.83-.22.69-.02,1.45-.16,1.66-.15.22-.54,1.04-.54,1.04,0,0-.24.66-.2,1.27.02.62.06,1.29.06,1.29,0,0,.29-.53.92-.62,0,0,.14-1.04.14-1.36s.42-2.45.63-3.1c.29-.95.49-2.6.03-4.52-.13-.52-.22-2.14-.22-2.14,0,0-.61.49-.98,2.34-.11.56.13,2.07.03,3.69-.04.89-.89,4.49-1,4.71l.66-2.95Z"/>
      <path d="M277.51,253.92c-.22-1.14-.69-3.42-.95-3.91-.13-.23-.29-.45-.45-.68-.29-.41-.62-.87-.93-1.54-.37-.84-.26-1.7-.18-2.33.02-.19.05-.36.05-.51.02-.41,0-1.03,0-1.63,0-.35-.02-.69-.02-.96,0-.7-.15-1.88-.16-1.89l-.03-.24.23.08s.54.2,1.21.82h0c.75.73,1.23,2.07,1.45,2.81.28.99.23,2.91.04,4.22-.19,1.24.03,5.68.03,5.72l-.29.04ZM275.2,240.71c.05.39.12,1.14.12,1.66,0,.27,0,.6.02.95.02.61.03,1.23,0,1.65,0,.15-.03.34-.06.54-.08.62-.18,1.4.15,2.17.29.64.61,1.09.9,1.49.17.24.33.46.47.71.18.33.42,1.3.62,2.2-.04-1.4-.07-3.2.04-3.95.19-1.3.23-3.18-.03-4.1-.36-1.2-.85-2.18-1.37-2.67-.36-.33-.68-.54-.88-.64ZM278.83,241.35l-.03-.53s-.04-.65-.06-1.26c-.04.17-.08.28-.1.31l-.26-.13c.06-.12.43-1.62.7-2.92l-.05-.02.06-.12s.02-.03.02-.05c.13-.66.23-1.24.25-1.54.05-.85,0-1.67-.03-2.33-.03-.61-.06-1.09,0-1.38.37-1.88,1-2.41,1.03-2.43l.22-.18.02.29s.09,1.62.22,2.12c.56,2.33.11,4.11-.04,4.6-.22.67-.62,2.77-.62,3.05,0,.33-.14,1.34-.14,1.38l-.02.11-.11.02c-.56.08-.81.54-.81.54l-.25.46ZM279.23,238.33s-.22.63-.19,1.19c.01.32.03.66.04.9.15-.14.37-.29.66-.35.04-.27.13-.98.13-1.23,0-.35.42-2.47.64-3.14.14-.47.57-2.19.03-4.44-.09-.37-.16-1.27-.2-1.79-.2.31-.49.91-.71,1.98-.05.25-.02.71,0,1.3.03.67.08,1.5.03,2.36,0,.09-.02.21-.04.35.1-.29.18-.63.24-1,.07-.53.12-1.34.1-1.89,0-.11-.02-.25-.04-.38-.05-.44-.09-.8.15-.86.09-.02.15,0,.19.03.08.07.08.17.08.32,0,.13,0,.3.03.55.02.12,0,.31-.04.59-.03.25-.07.57-.09.92v.04c-.03.56-.06,1.05-.32,1.83-.12.36-.11.76-.1,1.07,0,.28.01.49-.07.62-.12.17-.43.8-.53,1.02h0ZM279.4,236.74c-.07.32-.14.65-.21.98.12-.23.24-.47.32-.58.03-.05.03-.27.02-.45,0-.06,0-.13,0-.2-.05.09-.09.18-.13.25Z"/>
    </g>
    <g>
      <path class="cls-1" d="M279.17,236.87c-.03.05-.04.08-.04.08,0,0,.03-.02.04-.08h0Z"/>
      <path d="M279.23,237.06l-.24-.17s.01-.03.05-.09l.27.11c-.02.09-.07.14-.08.15Z"/>
    </g>
    <g>
      <path class="cls-1" d="M276.76,227.53c.33,0,.33.35.26.63-.05.29-.04.82-.04.93,0,.13.14.89.25,1.29.12.41.32.54.23,1.36-.06.52-.59,1.12-.4,2,.1.46.43.94.59,1.34.14.28.06.95.1,1.5.01.54.31.9.31.9,0,0-.37.69-.49-.17-.13-.98-.18-1.42-.37-1.87-.31-.73-.59-2.04-.11-3.06.08-.19.14-.56.14-.99s-.27-1.19-.32-1.65c-.05-.37-.02-1.15-.02-1.43l-.14-.79ZM275.17,232.44c.08.56.26.87.88,2.08.19.4.63,1.41.7,1.74.08.32.15.71.15.81,0,.11.07.87.07.87v.32s-1.74-1.01-2.5-1.55c-.76-.54-1.62-1.29-2.17-1.75-.62-.51-2.11-2.27-2.13-3.69l-.68-.62s-.52,3.14,1.94,5.17c.71.58,1.48,1.22,3.13,1.97,1.66.76,1.44,1.45,2.13,2.91.68,1.47,1.11,2.32,1.19,2.74.06.45-.19,6.71-.19,6.71l.06.57s1.51-5.8,2.24-6.45c0,0-1.44-.22-1.33-2.49l-.25-1.5s-.29-1.8.25-2.92c0,0,.64-2.05.42-3.81-.14-1.06-.19-1.38-.32-2.39-.2-1.58-.83-3.83-.9-4.1-.22-.79-.29-.91-.54-1.54-.08-.22-.22-.95-.45-.96-.13,0-.34.94-.34.94,0,0-.3,1.03-.37,1.31-.2.83-.66,1.53-.87,3.4-.04.34-.08,1.25-.12,1.37-.02.1-.07.64-.02.85h0Z"/>
      <path d="M277.9,250.76l-.29-.02-.06-.57c.07-1.76.24-6.35.19-6.71-.06-.3-.35-.91-.78-1.83-.12-.26-.26-.55-.4-.86-.18-.38-.29-.7-.4-.99-.31-.84-.48-1.31-1.66-1.85-1.65-.75-2.44-1.4-3.14-1.97-2.52-2.08-2.02-5.29-2.01-5.32l.04-.27.93.85v.06c.02,1.34,1.47,3.08,2.07,3.57.13.11.28.23.43.36.51.43,1.15.97,1.73,1.38.58.42,1.77,1.13,2.26,1.42v-.06c0-.07-.07-.76-.07-.87,0-.07-.06-.44-.14-.78-.06-.3-.48-1.29-.69-1.71l-.11-.22c-.54-1.04-.7-1.36-.78-1.9-.05-.23,0-.78.02-.9.02-.08.05-.46.07-.74.02-.24.03-.48.05-.62.14-1.29.41-2.04.62-2.64.1-.28.19-.52.25-.78.06-.28.36-1.28.37-1.32.23-1.06.39-1.05.49-1.05.27.01.4.41.53.88.02.07.04.13.05.18l.12.28c.17.4.25.6.43,1.27l.04.13c.46,1.7.75,3.04.87,3.99.07.56.12.91.17,1.28.04.31.09.63.15,1.11.22,1.78-.4,3.79-.43,3.88-.52,1.08-.25,2.83-.25,2.85l.25,1.49c-.1,2.13,1.15,2.36,1.21,2.37l.31.05-.23.21c-.57.51-1.78,4.77-2.2,6.38ZM269.61,230.96c-.05.8-.02,3.14,1.91,4.74.71.58,1.49,1.22,3.1,1.95,1.29.6,1.5,1.16,1.81,2.02.1.28.22.6.39.96.15.32.28.6.4.86.45.97.73,1.56.8,1.91.05.4-.12,4.94-.17,6.34.43-1.56,1.29-4.53,1.88-5.41-.43-.18-1.32-.76-1.23-2.57l-.25-1.46c-.01-.08-.29-1.86.27-3,0,0,.62-2.02.41-3.73-.06-.47-.11-.8-.15-1.1-.05-.38-.1-.72-.17-1.28-.12-.94-.41-2.27-.86-3.95l-.04-.14c-.17-.64-.26-.84-.42-1.23l-.12-.29c-.02-.05-.04-.12-.06-.2-.04-.13-.13-.49-.22-.62-.07.15-.16.49-.22.78,0,.02-.3,1.04-.37,1.31-.07.27-.16.54-.26.81-.21.59-.47,1.32-.61,2.57-.02.14-.03.37-.05.61-.03.49-.05.71-.08.8-.02.09-.06.59-.02.77h0c.07.51.23.81.75,1.82l.12.22c.18.37.64,1.42.71,1.78.07.29.15.72.15.85,0,.07.04.56.07.86v.59s-.22-.13-.22-.13c-.07-.04-1.75-1.02-2.51-1.56-.58-.42-1.23-.96-1.74-1.39-.16-.13-.3-.25-.43-.36-.54-.45-2.11-2.22-2.18-3.73l-.42-.38ZM277.78,237.89s-.03,0-.04,0c-.22-.04-.29-.34-.32-.56l-.04-.27c-.1-.78-.16-1.17-.32-1.56-.35-.83-.59-2.16-.11-3.18.06-.15.13-.48.13-.93,0-.23-.09-.57-.17-.9-.07-.27-.13-.52-.15-.73-.04-.29-.03-.8-.02-1.17,0-.11,0-.2,0-.27h.1c0-.07.01-.13.02-.19.05-.19.04-.36,0-.42,0,0-.03-.04-.11-.04v-.3c.18,0,.28.08.34.15.14.18.11.46.07.66-.04.24-.04.7-.04.86v.04c0,.1.13.85.24,1.25.03.1.06.18.1.26.11.25.21.51.14,1.15-.02.2-.11.4-.19.61-.15.38-.33.81-.22,1.34.06.28.21.57.36.85.09.16.17.32.23.47.1.2.1.55.1.96,0,.2,0,.4.01.59.01.48.28.82.28.82l.06.08-.05.09c-.04.08-.2.34-.4.34ZM277.68,237.09l.03.2c.04.26.09.31.09.31,0-.01.04-.06.07-.11-.05-.08-.13-.22-.19-.4ZM277,234.08c.05.48.18.94.33,1.3.12.29.19.57.25.99,0-.13,0-.26,0-.39,0-.34,0-.69-.07-.84-.06-.15-.14-.3-.22-.45-.1-.2-.21-.4-.29-.61Z"/>
    </g>
    <g>
      <path class="cls-1" d="M276.46,240.36s-.25-.56-.51-.85c-.52-.61-1.21-1.12-3.18-2.09-1.97-.98-2.49-2.59-3.49-3.25-.46-.32-1.35-.47-1.35-.47,0,0,.88,1.21,1.08,1.62.27.53.33.89,1.41,1.9,1.08,1.01,2.39,1.37,3.24,1.62,1.2.37,2.8,1.52,2.8,1.52h0ZM270.26,231.05c.05.16.56,1.89,1.63,3.24,1.63,2.06,4.77,3.53,4.77,3.53-.29-1.28-.8-2.76-1.21-3.42-1.43-2.3-5.19-3.43-5.19-3.43,0,0-.07-.09.01.08h0ZM274.76,232.02c.84-1.85-1.68-3.61-2.39-4.9.26-.21.58.34.86.7.41.55,1.57,2.14,1.57,2.14l.36-1.69-3-2.73c-.04.4-.96.72-.96.72-.45,2.53,3.55,5.76,3.55,5.76h0Z"/>
      <path d="M276.83,240.8l-.45-.32s-1.6-1.14-2.76-1.5l-.12-.03c-.85-.25-2.13-.63-3.18-1.62-.94-.88-1.14-1.29-1.34-1.72-.03-.07-.07-.15-.11-.22-.2-.4-1.06-1.59-1.07-1.6l-.21-.29.36.06s.93.16,1.41.49c.4.27.72.67,1.09,1.14.56.71,1.2,1.52,2.38,2.11,2.05,1,2.72,1.52,3.23,2.13.27.3.52.86.53.88l.23.5ZM268.28,233.93c.28.39.73,1.04.87,1.33.04.08.08.15.11.23.2.42.37.79,1.27,1.63,1,.94,2.24,1.31,3.06,1.55l.12.03c.81.25,1.77.83,2.35,1.21-.07-.11-.14-.21-.21-.29-.49-.58-1.14-1.07-3.14-2.05-1.24-.62-1.93-1.49-2.48-2.19-.35-.45-.66-.83-1.03-1.07-.25-.17-.64-.29-.92-.36ZM276.87,238.08l-.28-.13c-.13-.06-3.19-1.51-4.82-3.57-.89-1.12-1.41-2.51-1.64-3.24v-.03c-.05-.09-.1-.22.02-.29l.11-.07.07.09c.45.14,3.86,1.27,5.23,3.48.4.65.92,2.11,1.23,3.46l.07.3ZM270.47,231.19c.24.74.74,1.99,1.54,3,1.31,1.65,3.63,2.93,4.43,3.35-.3-1.22-.77-2.5-1.12-3.07-1.17-1.88-3.99-2.98-4.85-3.28ZM274.67,232.13c-.17-.13-4.06-3.32-3.61-5.9l.02-.09.08-.03c.34-.12.85-.39.86-.6l.03-.3,3.28,2.99-.45,2.1-.03-.03c.24.58.31,1.19.03,1.8l-.13-.06-.09.11ZM271.34,226.37c-.29,2.12,2.64,4.78,3.36,5.4.38-1.16-.61-2.31-1.49-3.33-.39-.44-.75-.87-.96-1.25l-.06-.11.1-.08c.08-.06.16-.09.26-.08.24.03.44.31.66.6.05.07.1.14.16.21.31.41,1.03,1.4,1.38,1.87l.27-1.28-2.78-2.53c-.2.29-.67.5-.89.58ZM272.8,227.49s.04.06.07.09c-.02-.03-.05-.06-.07-.09Z"/>
    </g>
    <g>
      <path class="cls-1" d="M269.54,227.73c-.72.32-.98.32-.98.32l.4,1.07.23.29s.94,1.36,1.49,1.53c.23.08,1.09.23,1.95.6,1.08.46,2.85,2.01,2.85,2.01,0,0-2.94-3.32-4.07-5.81l-.38-1.43-1.07.07s.29,1.01-.43,1.34h0Z"/>
      <path d="M275.39,233.68s-1.76-1.54-2.81-1.98c-.6-.26-1.18-.4-1.57-.5-.17-.04-.3-.07-.37-.1-.57-.18-1.46-1.44-1.56-1.59l-.25-.32-.48-1.27h.21s.25-.01.92-.31h0c.6-.28.35-1.15.35-1.16l-.05-.18,1.37-.09.41,1.55c1.1,2.42,4.01,5.71,4.04,5.75l-.21.21ZM269.09,229.06l.22.27c.26.38,1.01,1.36,1.42,1.49.07.03.19.06.35.09.4.1,1,.25,1.62.51.51.22,1.15.65,1.7,1.07-.97-1.2-2.4-3.1-3.11-4.67l-.36-1.34-.77.05c.07.42.02,1.07-.56,1.34l-.03-.06.03.06c-.41.18-.68.27-.84.31l.33.88Z"/>
    </g>
    <g>
      <path class="cls-1" d="M258.52,225.61c.49.44,1.03.84,1.6,1.19.65.39,2.52,1.49,3.92,1.76.33.05,2.08.27,2.08.27.07-.77.91-.84.91-.84l-2.49-.27c-2.01-.15-3.54-.99-4.73-2.33,1.6.97,3.89,2.49,5.75,2.41,7.63-.75-2.3-.94-3.16-1.49-.91-.56-1.69-1.5-1.69-1.5l-2.24-.1s-1.1-.07.05.91h0Z"/>
      <path d="M266.26,229l-.15-.02c-.07,0-1.76-.22-2.09-.27-1.24-.23-2.85-1.1-3.97-1.78-.57-.35-1.12-.75-1.62-1.2-.47-.4-.64-.69-.55-.91.11-.27.53-.26.61-.25l2.3.1.04.05s.77.92,1.66,1.47c.28.18,1.83.34,3.08.47,2.6.27,3.02.36,3.02.64,0,.16,0,.31-1.8.53l.27.03v.3s-.72.07-.78.7v.15ZM258.43,224.85c-.13,0-.26.03-.28.07,0,0-.04.15.47.58h0c.49.44,1.02.84,1.58,1.17,1.59.96,2.93,1.56,3.87,1.74.26.04,1.51.2,1.93.25.06-.27.22-.46.4-.59l-1.2-.13c-.14,0-.27-.02-.41-.04l-.27-.03c-1.95-.14-3.53-.92-4.82-2.38l.19-.22.43.26c1.29.79,2.99,1.84,4.49,2.08l.44.05c.11,0,.21,0,.31,0,1.64-.16,2.31-.28,2.58-.36-.46-.12-1.68-.25-2.61-.35-1.73-.18-2.89-.31-3.2-.51-.81-.5-1.51-1.28-1.68-1.48l-2.17-.1s-.03,0-.04,0ZM260.97,226.26c.52.4,1.08.7,1.69.92-.59-.28-1.16-.6-1.69-.92Z"/>
    </g>
    <g>
      <path class="cls-1" d="M267.51,229.96c.49-.04.84-.13.95-.67.1-.6-.13-1.04-.86-1.2-.4-.1-1.11-.12-1.4.6-.32.74.83,1.21.83,1.21,0,0,.22.1.48.07h0ZM268.37,225.58c-.65,0-.87.53-.73,1.55.17,1.04,1.75.58,1.75.58l.29-.15s.22-.17.1-.99c-.11-.84-.77-1-1.42-1h0ZM270.96,226.31h-.02s.02,0,.02,0h0Z"/>
      <path d="M267.41,230.11c-.24,0-.43-.08-.43-.08-.03-.01-.71-.3-.92-.8-.08-.2-.08-.4,0-.6.36-.9,1.3-.75,1.57-.68.75.16,1.09.64.97,1.37-.14.67-.61.76-1.08.79-.04,0-.08,0-.12,0ZM267.19,228.18c-.31,0-.68.11-.86.56-.06.13-.06.25,0,.38.16.39.75.64.76.64,0,0,.19.08.4.05h0c.49-.04.73-.13.82-.55.09-.57-.14-.9-.74-1.03-.09-.02-.23-.05-.38-.05ZM268.66,227.97c-.27,0-.55-.04-.77-.19-.22-.14-.35-.35-.4-.62-.09-.71-.02-1.18.22-1.46.16-.18.38-.27.66-.27h0c.35,0,1.42,0,1.56,1.12.12.84-.09,1.08-.15,1.13l-.32.17s-.4.11-.8.11ZM268.37,225.73c-.19,0-.34.05-.43.17-.18.2-.23.61-.15,1.22.03.18.12.32.26.41.45.29,1.3.05,1.31.05l.24-.13s.13-.25.04-.85c-.08-.61-.46-.87-1.27-.87ZM270.87,226.48l-.07-.11-.05-.11.14-.1h.04l.03.14.11-.04-.11.04v.07s.06.06.06.06l-.04-.06.02.09-.12.03Z"/>
    </g>
    <g>
      <path class="cls-1" d="M270.94,226.31s.06-.03.23-.08c.33-.13.66-.92.66-.92.17-1.07-.6-1.34-.6-1.34-1.29-.26-1.33.88-1.33.88-.36,1.48.84,1.46,1.03,1.45h0ZM265.18,221.24c.07.49.77,1.2.88,1.32.13.11,1.02,1.04,1.32,1.45.3.42,1.3,2.3,1.3,2.3,0,0,.17-.03.25-.17.17-.29-.67-2.58-.75-2.74-.31-.69-.81-1.21-1.32-1.75-.12-.08-.54-.61-.99-1.19.9,1.16,3.22,4.44,3.9,5.9,0,0-.08-1.56-.17-2.39-.29-2.44-.92-3.19-1.13-3.55-.36-.66-1.27-1.3-1.93-1.53-.65-.24-1.42-.56-2.25-.83-.85-.26-.2.51.12,1.17.39.79.71,1.49.78,1.99h0Z"/>
      <path d="M268.6,226.48l-.05-.09s-1-1.88-1.29-2.29c-.29-.4-1.17-1.32-1.3-1.43l-.06-.06c-.34-.37-.81-.91-.87-1.35h.06s-.06,0-.06,0c-.07-.51-.43-1.27-.77-1.94-.07-.15-.16-.31-.25-.46-.23-.4-.4-.69-.25-.88.12-.15.36-.1.56-.04.55.18,1.09.38,1.56.56.25.1.48.19.7.27.69.24,1.63.9,2.01,1.59.02.03.05.08.08.13.26.41.81,1.27,1.07,3.48.02.19.04.41.06.64.05-.17.15-.41.37-.58.27-.21.64-.28,1.1-.19.03,0,.9.33.72,1.51-.07.18-.39.89-.76,1.03-.14.04-.19.06-.21.07l-.07-.13v.15c-.15,0-.7,0-1.01-.38-.01-.01-.02-.02-.03-.04.01.2.02.32.02.33l-.28.07c-.16-.33-.39-.76-.68-1.23.12.46.19.87.11,1.02-.1.2-.33.24-.35.24l-.11.02ZM270.94,226.3h0s0,0,0,0h0ZM270.88,224.09c-.21,0-.39.05-.53.16-.28.22-.3.61-.3.61-.11.48-.08.81.1,1.03.22.26.61.28.76.28.03-.01.09-.04.22-.07.17-.07.44-.53.57-.83.13-.89-.49-1.13-.51-1.14-.11-.02-.21-.03-.3-.03ZM265.33,221.22c.04.26.31.67.79,1.19l.05.05c.12.1,1.02,1.04,1.33,1.47.26.36,1.02,1.78,1.25,2.21.02-.01.04-.03.05-.05.07-.18-.23-1.15-.47-1.86-.93-1.43-2.05-2.98-2.58-3.66h0s.23-.19.23-.19l.14.18c.34.43.72.91.81.97l.1.1c.48.51.97,1.03,1.28,1.72,0,0,.13.31.28.73.38.58.72,1.14.99,1.61-.03-.52-.08-1.23-.13-1.7-.25-2.13-.77-2.95-1.02-3.35-.03-.05-.06-.1-.09-.14-.34-.63-1.22-1.25-1.85-1.46-.22-.08-.46-.17-.71-.27-.47-.18-1-.38-1.54-.56-.12-.04-.19-.04-.23-.04h0c.02.11.17.36.26.53.09.15.18.32.26.48.35.69.71,1.48.79,2.03h0Z"/>
    </g>
    <g>
      <path class="cls-1" d="M262,225.25c.84.72,1.22,1.21,2.97,1.47,1.76.28,1.91.16,1.91.16,0,0,.91-.44.45-.83-2.59-1.14-5.04-2.5-6.29-4.02,0,0,.22-.21,1.11.69.52.53.87.79,1.19,1.04.94.66,1.35.85,2.29,1.36.5.27,1.75.57,1.75.57,0,0,.18-.38.34-.42.15-.04-.1-.63-1.18-1.51-.6-.5-1.14-1.08-1.59-1.72,0,0-1.29-.28-2.68-.52-1.04-.16-3-1.68-2.96-1.27.04.42.29,1.74.82,2.58.53.84,1.04,1.7,1.87,2.44h0Z"/>
      <path d="M266.65,227.06c-.32,0-.9-.06-1.71-.19-1.59-.23-2.08-.66-2.77-1.26-.09-.08-.18-.16-.28-.24l.07-.08-.07.08c-.79-.69-1.29-1.49-1.77-2.26l-.13-.21c-.54-.85-.8-2.17-.84-2.64,0-.08.03-.16.09-.2.17-.11.43.03,1.17.46.61.34,1.36.77,1.87.85,1.38.23,2.68.51,2.69.51h.06s.03.06.03.06c.44.63.97,1.2,1.56,1.7.83.67,1.34,1.32,1.27,1.62-.02.08-.07.14-.15.15-.04.02-.16.18-.24.34l-.05.11-.12-.03s-.16-.04-.35-.09c.13.06.26.12.39.18l.04.02c.17.14.19.3.18.4-.04.36-.56.63-.66.67-.03.03-.13.05-.29.05ZM262.09,225.14c.1.08.19.16.28.24.67.59,1.11.97,2.61,1.19,1.56.24,1.82.17,1.83.17h0c.22-.11.47-.3.49-.44,0-.02,0-.06-.06-.12-3.17-1.4-5.24-2.72-6.32-4.05l-.09-.11.1-.09c.12-.12.45-.18,1.32.69.49.49.82.76,1.12.99l.05.04c.77.54,1.16.75,1.82,1.11l.45.24c.39.21,1.29.45,1.6.52.07-.12.17-.28.3-.36-.05-.15-.31-.6-1.16-1.29-.6-.5-1.14-1.07-1.58-1.71-.26-.06-1.41-.3-2.62-.5-.55-.09-1.34-.53-1.97-.89-.29-.16-.63-.36-.81-.43.06.48.31,1.64.79,2.39l.13.21c.47.75.96,1.53,1.71,2.19h0ZM267.68,225.12s0,0,0,0c0,0,0,0,0,0ZM261.57,222.39c.17.17.36.35.57.52-.03-.03-.06-.06-.09-.09-.19-.19-.35-.33-.48-.43ZM261.11,222.16h0Z"/>
    </g>
    <g>
      <path class="cls-1" d="M247.43,277.97c-.76.22-6.49,2.38-6.49,2.38l-1.6.64c2.21-.5,3.9.62,3.9.62l6.38-2.95s-.02-.1-.18-.21c-.17-.11-1.24-.7-2.01-.47h0Z"/>
      <path d="M243.23,281.77l-.07-.04s-1.67-1.07-3.79-.6l-.09-.28,1.6-.64c.24-.09,5.75-2.16,6.51-2.38h0c.81-.24,1.91.33,2.14.49.2.14.23.27.24.31l.02.11-.1.05-6.46,2.99ZM240.5,280.7c1.43,0,2.47.56,2.75.73l6.15-2.85s-.02-.02-.04-.03c-.17-.11-1.18-.66-1.88-.45h0c-.75.22-6.43,2.35-6.48,2.37l-.56.22h.07Z"/>
    </g>
    <g>
      <path class="cls-1" d="M239.1,281.18s-.09.19.03.24c.32.18.23.25,1.68.42,1.46.16,2.41-.12,2.66-.39.29-.32-3.61-.92-4.36-.26h0Z"/>
      <path d="M241.63,282.03c-.26,0-.54-.01-.84-.05-1.22-.15-1.38-.22-1.62-.37-.03-.02-.07-.04-.11-.07-.07-.03-.13-.11-.14-.2-.02-.1.02-.22.09-.28h0c.77-.67,4.19-.18,4.56.19.08.09.09.2.01.29-.23.26-.92.49-1.94.49ZM239.21,281.27s.08.06.11.08c.18.12.3.19,1.5.33,1.26.14,2.13-.06,2.45-.28-.56-.27-3.45-.62-4.06-.13ZM243.35,281.34h0s0,0,0,0Z"/>
    </g>
    <g>
      <path class="cls-1" d="M229.93,260.56l-.27-1.79s-.33-4.84-.88-5.81c-.11-.22-.06-.72-.41-.73-.67-.05-.67,1.53-.75,2.95-1.09,7.2,4.65,12.69,4.65,12.69l-2.35-7.31Z"/>
      <path d="M232.17,267.98c-.06-.05-5.78-5.63-4.7-12.82l.02-.44c.06-1.11.11-2.16.51-2.51.11-.1.23-.15.38-.13.36,0,.43.36.47.6.02.08.03.17.06.21.56.98.88,5.67.9,5.87l.26,1.77,2.35,7.3-.24.15ZM228.35,252.38c-.06,0-.1.02-.15.05-.3.27-.36,1.35-.41,2.3l-.02.46c-.88,5.86,2.85,10.63,4.16,12.1l-2.15-6.71-.27-1.79c0-.06-.34-4.83-.86-5.76-.04-.09-.06-.19-.09-.29-.05-.26-.09-.36-.2-.36,0,0-.02,0-.02,0Z"/>
    </g>
    <g>
      <path class="cls-1" d="M258.33,281.89s-.6-.13-.22-.6c.36-.45,1.45-.69,1.67-.69.21,0,.82.04,1.28.17.46.11,1.09.52.9.81-.19.28-.81.63-1.66.63-.73,0-1.1-.02-1.42-.11-.31-.12-.56-.2-.56-.2h0Z"/>
      <path d="M260.3,282.35c-.71,0-1.11-.02-1.46-.11-.29-.11-.52-.19-.56-.2-.07-.02-.35-.1-.43-.34-.05-.16,0-.33.14-.51.41-.5,1.55-.74,1.78-.74.21-.02.83.04,1.32.18.39.1.89.39,1.01.69.05.12.04.24-.03.34-.24.35-.93.69-1.78.69ZM258.38,281.75s.25.09.56.2c.3.09.68.1,1.36.1.83,0,1.38-.34,1.53-.56,0,0,.01-.03,0-.07-.07-.18-.47-.43-.81-.51-.45-.12-1.04-.18-1.23-.16-.22,0-1.24.24-1.56.63-.04.05-.11.15-.09.22.03.08.17.13.23.15l-.03.14.05-.13Z"/>
    </g>
    <g>
      <path class="cls-1" d="M252.11,278.46s-1.97-.91-3.84-1.82c-2.46-1.2-5.42-2.87-7.48-5.93-2.58-3.79-4.82-5.82-5.36-6.23-.56-.41-.64-.56-.84-.27-.19.25-.06.47.1.73.53.86,1.83,2.48,2.3,3.35.8,1.55,2.47,3.25,2.46,4.26,0,.14-.49-.1-.49-.1,0,0-3.9-1.34-5.48-6.06-1.15-3.43-.66-4.43-.93-6.15-.46-3.04-.55-3.29-2.06-6.7-.04-.09-.92-1.51-1.04-1.19-.16.41.15,1.94.15,1.94l.16,1.76s-.13,3.9-.13,4.14-.98,2.67,3.19,6.76c0,0,.06.7-.5.08-.4-.44-3.39-2.73-4.29-6.51-.94-3.78-1.07-7.56-.36-9.13.64-1.42,1.93-4.89,1.38-7.91-.06-.32-.15-1.24-.35-1-.08.12-.46,1.65-.69,2.18-.32.73-.8,1.44-.96,1.94-.29.85-1.73,2.17-1.45,4.59.32,2.78.5,3.22.83,4.21.11.36.39,1.28.21,1.38-.17.09-.76-1.1-.76-1.1,0,0-2.64-5.2-1.01-9.41,1.65-4.2,5.78-8.18,5.78-8.18,0,0,3.36-2.79,4.04-3.43.27-.25.2-.44.11-.41-.83.21-7.3,1.55-9.57,9.25,0,0-.12.32-.29.24-.21-.09,0-.45,0-.45,0,0,1.42-5.46,5.41-7.94,4.35-2.72,3.84-2.32,5.28-3.17.91-.56,1.73-1.32,2.74-2.99.1-.19.52-1.16.46-1.33-.05-.17-.24.06-.33.34,0,0-1.23,1.9-3.08,2.55-1.85.64-3.36-.27-5.22,1.78-1.86,2.07-3.34,4.93-3.34,4.93,0,0-.49.74-.59.72-.21-.06.1-.79.1-.79,0,0,2.49-5.28,4.48-6.35,2-1.08,3.78-2.12,4.92-2.99,1.38-1.08,3.76-3.74,4.62-4.65.18-.19,1.46-1.49,1.74-1.91.17-.23.58-.56.51-.62-.18-.14-1.39.45-1.39.45,0,0-6.59,1.81-10.68,8.01-.19.29-.64.87-.88,1.12-.44.45-.66,1.21-.66,1.21-.27-.22,2.32-3.45,2.32-3.45l.45-2.09s.77-3.14,2.37-5.36c.16-.2,1.11-1.16,1.27-1.36.32-.35-.61.3-.44.16,0,0-6.14,4.41-6.14,9.97,0,1-.62,1.91-1.48,3.15-1,1.44-1.34,2.33-1.77,4.47-.18.9-.37,1.8-.56,2.7,0,0,.06.79-.2.73-.27-.06-.17-.71-.17-.71,0,0,.63-4.14,1.07-5.42.43-1.24.72-2.08.72-2.08,0,0-.26-3.11.43-4.82.59-1.49,2.07-3.45,2.3-3.94.1-.21.79-1.61.98-3.2.03-.21-.14-.04-.42.58-.67,1.52-1.24,1.92-2.35,3.35,0,0-2.85,2.06-3.88,8.2,0,0-.03,2.29-.38,5.87-.25,2.63-.04,5.09.26,6.57.19.91.55.91.33,1.02-.14.07.09.01-.23-.67-.39-.82-.7-2.09-.7-3.83,0-3.2.28-5.77.28-5.77,0,0,.21-5.17-1.94-7.51-.1-.12.38,1.05.59,2.21.26,1.44-.22,3.45-.36,4.23-.14.79-1.57,4.2-1.06,7.41,0,0,1.21,5.44,2.77,8.08,0,0,.97,1.14.11.07-.85-1.07-2.6-5.3-2.75-5.66-.13-.35-1.39-2.98-2.56-4.05-.61-.57-2.28-1.57-2.28-1.57,0,0-.91-.69-.22.23.55.73,1.28,2.03,1.63,2.6.73,1.17,1.37,2.39,1.93,3.65.56,1.23,1.86,4.85,1.86,4.85l.83,2.3s1.4.77,2.16,1.62c.62.69,1.91,2.26,2.99,5.06.48,1.24,1.45,2.37,1.45,2.37,0,0-.21.39-1.06-1.09-.85-1.5-1.68-4.33-3.71-6.52-1.55-1.68-5.71-3.38-5.71-3.38,0,0,2.68,4.66,3.34,5.5,1.13,1.33,2.75,3.21,3.17,3.7.43.5,2.95,3.61,3.32,4.11.59.78.97,1.12,1.28,1.44.66.71,2.63,2,2.78,2.2.03.21.07.04-.1-.09-.87-.52-1.92-1.34-2.99-2.04-1.07-.71-5.22-2.48-8.01-6.33-.66-1.14-.98-1.59-1.2-1.47-.34.18,1.88,7.53,6.45,9.86,0,0,5.04,2.24,6.15,2.91.61.37,1.85.91,2.42,1.37.33.27-.3.26-.34.25-2.68-.21-6.52-.56-8.88-1.93,0,0-1.01-.71-.18.29.66.77,1.92,2.68,4.34,3.75,2.42,1.06,5.95,1.68,7.23,1.75,1.27.07,5.78.09,6.64.37.85.29,2.29,1.21,3.11,1.48.75.24,3.01,1.11,3.01,1.11,0,0,.68.37,1.04.5.41.16,2.1.15,2.22-.17.11-.28-.48-.72-.48-.72h0Z"/>
      <path d="M251.29,279.6c-.4,0-.79-.04-.97-.11-.37-.13-1.03-.5-1.06-.51,0,0-2.25-.86-2.98-1.1-.43-.14-1.02-.45-1.6-.75-.55-.29-1.11-.59-1.52-.72-.6-.19-3.22-.26-4.96-.31-.7-.02-1.3-.03-1.65-.05-1.25-.06-4.79-.66-7.29-1.76-2.1-.93-3.33-2.47-4.07-3.39-.12-.15-.23-.29-.32-.4-.36-.43-.43-.6-.32-.72.08-.08.2-.14.7.21,2.42,1.41,6.57,1.73,8.8,1.91.05,0,.13,0,.21,0-.36-.28-.98-.6-1.53-.89-.32-.16-.62-.32-.85-.45-1.1-.66-6.09-2.88-6.14-2.91-4.33-2.22-6.56-8.76-6.57-9.86,0-.06,0-.21.11-.27.35-.19.68.3,1.4,1.53,2.25,3.1,5.38,4.83,7.07,5.76.32.18.59.33.79.45-.27-.27-.61-.62-1.07-1.23-.37-.49-2.89-3.61-3.32-4.11-.14-.17-.42-.49-.76-.89-.69-.8-1.66-1.92-2.41-2.81-.67-.84-3.25-5.33-3.36-5.52l-.21-.37.4.16c.11.05,1.91.78,3.57,1.77l-.7-1.94s-1.31-3.63-1.86-4.84c-.56-1.25-1.2-2.47-1.92-3.64-.09-.14-.19-.32-.32-.53-.38-.64-.89-1.51-1.3-2.05-.26-.35-.36-.54-.23-.66.08-.08.19-.13.66.23.06.03,1.68,1.01,2.3,1.58,1.22,1.11,2.49,3.83,2.6,4.11l.04.09c.22.52.43,1.01.63,1.47-.66-2.07-1.07-3.93-1.08-3.96-.41-2.59.41-5.26.84-6.69.11-.35.19-.63.22-.78.02-.1.04-.23.07-.37.18-.9.51-2.58.28-3.8-.13-.7-.36-1.41-.49-1.83-.14-.43-.16-.48-.04-.55l.11-.06.09.1c1.96,2.13,1.99,6.5,1.98,7.44.13-1.88.15-3.01.15-3.03,1-5.97,3.66-8.1,3.92-8.3.3-.39.57-.71.81-.99.62-.74,1.03-1.24,1.51-2.32.36-.81.48-.78.58-.75.05.02.14.07.12.25-.12,1.01-.46,2.12-.97,3.21l-.02.03c-.08.17-.28.48-.56.9-.54.81-1.34,2.04-1.73,3.03-.67,1.65-.43,4.72-.42,4.75v.03s0,.03,0,.03c0,0-.29.84-.72,2.08-.44,1.25-1.06,5.35-1.07,5.39-.03.23,0,.46.04.53.04-.09.06-.34.04-.56v-.02s0-.02,0-.02c.2-.9.38-1.8.56-2.7.45-2.21.8-3.09,1.79-4.52.81-1.17,1.45-2.1,1.45-3.07,0-2.92,1.69-5.51,3.11-7.16,1.53-1.79,3.08-2.91,3.1-2.92l.02.03v-.02s.06-.04.11-.07c.34-.21.47-.29.57-.16.09.11-.02.24-.07.29-.08.09-.34.37-.61.65-.27.28-.57.6-.65.7-1.57,2.16-2.34,5.27-2.34,5.3l-.33,1.52c4.06-4.91,9.54-6.47,9.6-6.49.83-.4,1.35-.55,1.52-.42l.06.04v.09c.02.11-.07.21-.28.42-.09.09-.19.2-.26.28-.23.35-1.12,1.27-1.55,1.71-.1.1-.17.17-.2.21-.13.14-.31.33-.51.55-1.1,1.2-2.95,3.2-4.13,4.12-1,.77-2.57,1.72-4.94,3.01-1.93,1.04-4.4,6.23-4.42,6.28-.06.15-.12.32-.14.45.11-.13.26-.34.38-.52,0-.02,1.5-2.89,3.36-4.95,1.26-1.4,2.4-1.47,3.51-1.54.57-.04,1.15-.07,1.77-.29,1.69-.59,2.88-2.3,2.99-2.47.03-.09.19-.48.41-.48h0c.07,0,.16.05.19.16.09.27-.47,1.43-.47,1.44-1.12,1.85-2,2.56-2.79,3.05-.42.25-.68.39-.93.54-.62.35-1.26.71-4.35,2.64-3.89,2.42-5.33,7.79-5.35,7.85l-.02.04c-.05.1-.09.22-.07.25,0-.01.06-.09.09-.16,1.93-6.55,6.83-8.65,9.58-9.32l.1-.02c.08-.03.18,0,.23.09.07.11.05.33-.2.57-.68.64-3.91,3.33-4.05,3.44-.03.03-4.12,4-5.74,8.12-1.59,4.1.98,9.24,1.01,9.29.17.35.39.73.53.92-.01-.15-.07-.47-.26-1.08l-.05-.15c-.3-.89-.49-1.44-.79-4.09-.21-1.83.52-3.03,1.05-3.9.18-.29.33-.54.41-.75.09-.29.28-.64.48-1.01.17-.31.34-.62.48-.94.12-.28.29-.88.43-1.36.17-.58.22-.78.27-.85.1-.12.2-.11.24-.1.19.05.25.33.34.92.01.09.03.18.04.24.59,3.27-.92,6.95-1.39,8.01-.7,1.54-.54,5.34.37,9.03.78,3.22,3.09,5.36,3.96,6.16.14.13.24.23.3.29.18.19.25.2.25.2-.01,0,0-.06,0-.12-1.75-1.73-3.71-4.28-3.21-6.75,0-.04.02-.07.02-.09,0-.23.12-3.98.13-4.14l-.16-1.74c-.03-.14-.31-1.57-.14-2,.03-.08.1-.13.18-.14h0c.37,0,1.11,1.31,1.12,1.32,1.54,3.49,1.62,3.74,2.07,6.75.09.55.1,1.03.1,1.54.02,1.06.04,2.27.82,4.58,1.54,4.6,5.35,5.96,5.39,5.97.1.05.21.09.28.12-.07-.56-.64-1.37-1.24-2.22-.43-.61-.87-1.24-1.19-1.85-.26-.48-.79-1.21-1.3-1.91-.4-.54-.77-1.06-1-1.44-.16-.27-.34-.57-.09-.9.06-.09.15-.19.27-.21.16-.02.29.08.53.26.07.05.15.11.24.18.65.49,2.88,2.57,5.4,6.27,1.99,2.96,4.87,4.64,7.42,5.88,1.84.9,3.82,1.81,3.84,1.82h.02c.12.1.68.53.54.91-.03.08-.1.15-.23.2-.25.11-.75.16-1.22.16ZM225,270.16s.07.08.11.13c.1.11.21.25.33.4.72.9,1.92,2.4,3.95,3.31,2.35,1.03,5.87,1.67,7.18,1.74.35.02.94.04,1.64.05,1.86.05,4.4.12,5.04.33.43.15,1.01.45,1.56.74.56.3,1.14.6,1.55.73.74.24,2.93,1.08,3.02,1.11.02.01.69.38,1.04.5.42.16,1.9.1,2.04-.09.04-.1-.19-.36-.42-.53-.18-.08-2.06-.95-3.83-1.82-2.59-1.26-5.51-2.96-7.54-5.98-2.5-3.66-4.69-5.71-5.33-6.19-.09-.07-.18-.13-.25-.18-.13-.1-.27-.21-.31-.21,0,0-.02.01-.08.09-.12.16-.07.28.11.57.23.37.6.88.99,1.42.51.71,1.05,1.44,1.32,1.94.31.6.75,1.22,1.17,1.82.7.99,1.31,1.85,1.3,2.51,0,.07-.03.12-.09.16-.04.03-.16.1-.61-.13-.02,0-3.97-1.41-5.56-6.15-.79-2.36-.82-3.59-.83-4.67,0-.5-.02-.97-.1-1.5-.44-2.97-.52-3.22-2.05-6.67-.08-.15-.56-.89-.79-1.1-.05.37.07,1.23.18,1.75l.16,1.77c0,.06-.13,3.92-.13,4.15,0,.03,0,.07-.02.14-.48,2.35,1.46,4.84,3.17,6.52l.04.04v.05c.01.09.02.39-.18.48-.2.09-.42-.12-.57-.28-.05-.06-.15-.15-.28-.27-.77-.71-2.66-2.45-3.67-5.08-.03.02-.07.01-.11.02-.17,0-.47-.13-1.1-1.21-.25-.44-.49-.98-.76-1.6-.67-1.49-1.49-3.35-2.93-4.89-1.22-1.33-4.17-2.7-5.25-3.17.65,1.13,2.57,4.42,3.11,5.09.75.88,1.71,2.01,2.4,2.81.35.4.62.72.77.89.44.51,2.95,3.61,3.33,4.12.47.63.81.97,1.09,1.24.06.06.12.12.18.18.4.42,1.29,1.07,1.94,1.55.53.39.79.57.85.67l.02.03v.04s0,0,0,.01c.03.06.03.11.01.16l-.04.11h-.12c-.09-.02-.13-.1-.14-.17-.01-.02-.03-.03-.05-.05-.48-.28-1.01-.66-1.58-1.07-.45-.32-.93-.66-1.4-.97-.19-.13-.49-.29-.87-.5-1.71-.94-4.88-2.7-7.18-5.86-.24-.41-.76-1.3-.97-1.42.02.81,2.09,7.38,6.4,9.59.2.09,5.05,2.25,6.16,2.92.21.13.51.28.83.45.58.3,1.23.63,1.61.94.17.14.16.26.13.34-.1.23-.58.17-.59.17-2.24-.18-6.43-.5-8.93-1.95-.03-.02-.07-.05-.1-.07ZM239.3,272.55h0s0,0,0,0ZM221.78,252.45c.26.15,1.45.85,2.15,1.62,1.2,1.32,2.24,3.09,3.02,5.11.29.74.76,1.46,1.08,1.9-.05-.17-.1-.35-.14-.53-.94-3.8-1.09-7.6-.36-9.22.47-1.03,1.95-4.65,1.37-7.83-.01-.06-.03-.15-.04-.24-.02-.13-.06-.37-.1-.54-.05.15-.11.38-.17.59-.15.52-.31,1.1-.44,1.4-.15.33-.32.66-.49.97-.2.36-.38.7-.46.96-.08.25-.25.51-.44.82-.51.83-1.21,1.98-1.01,3.71.3,2.62.48,3.15.78,4.03l.05.15c.41,1.29.29,1.48.14,1.55-.04.02-.1.03-.15.01-.23-.07-.6-.77-.81-1.18-.03-.05-2.66-5.3-1.02-9.53,1.64-4.18,5.78-8.19,5.82-8.23.04-.04,3.37-2.8,4.04-3.43.05-.05.08-.09.11-.12-2.7.67-7.44,2.74-9.32,9.11-.02.05-.11.28-.27.34-.07.03-.15.03-.22,0-.08-.03-.13-.1-.16-.18-.06-.18.04-.39.08-.47.1-.36,1.6-5.6,5.47-8.01,3.1-1.93,3.74-2.29,4.36-2.64.25-.14.51-.29.92-.53.76-.47,1.6-1.15,2.69-2.94.07-.12.2-.45.31-.73-.29.42-1.44,1.93-3.08,2.5-.65.23-1.26.26-1.85.3-1.09.07-2.13.13-3.31,1.44-1.83,2.03-3.31,4.87-3.32,4.9-.55.84-.67.82-.75.8-.08-.02-.13-.07-.16-.13-.1-.21.07-.67.15-.86.1-.22,2.53-5.34,4.55-6.42,2.36-1.28,3.92-2.22,4.9-2.98,1.15-.9,2.99-2.9,4.09-4.08.2-.22.37-.4.51-.55.03-.04.11-.11.21-.21.39-.4,1.3-1.34,1.52-1.68.08-.1.18-.21.29-.32.02-.02.04-.04.07-.07-.25.08-.68.25-1.05.43-.09.03-6.61,1.89-10.63,7.95-.2.3-.65.89-.9,1.14-.04.04-.08.09-.12.14-.07.1-.13.19-.18.28-.21.36-.32.73-.32.73l-.06.22-.17-.14c-.07-.06-.19-.15.27-.91.06-.1.12-.21.2-.31.35-.53.91-1.3,1.81-2.42l.45-2.06s.79-3.2,2.4-5.41c.09-.11.35-.39.63-.68-1.36,1.09-5.68,4.95-5.68,9.54,0,1.06-.66,2.02-1.5,3.23-.97,1.39-1.31,2.26-1.75,4.41-.18.9-.37,1.79-.56,2.68.01.21.02.66-.16.81-.06.05-.14.07-.22.05-.38-.08-.31-.75-.29-.88.03-.17.63-4.17,1.08-5.44.39-1.1.66-1.89.71-2.05-.03-.35-.22-3.21.45-4.86.4-1.01,1.22-2.26,1.76-3.08.26-.4.47-.72.54-.87l.02-.04c.41-.86.7-1.74.86-2.56-.02.03-.03.07-.05.11-.5,1.12-.94,1.65-1.56,2.38-.24.28-.5.6-.81,1l-.03.03s-2.81,2.11-3.82,8.1c0,0-.04,2.31-.38,5.86-.25,2.61-.03,5.08.26,6.53.03.13.06.25.09.34.04.09.07.17.1.24.05.1.09.16.13.21.05.08.1.15.08.24-.02.09-.11.14-.15.15-.04.02-.12.06-.19.01l-.07-.05v-.11c.01-.09-.01-.2-.06-.34-.03-.07-.07-.15-.1-.25,0,0,0,0,0,0-.32-.68-.71-1.9-.71-3.9,0-3.17.28-5.76.28-5.79,0-.04.15-4.33-1.43-6.78.13.41.28.94.38,1.47.23,1.28-.1,3-.29,3.92-.03.14-.05.26-.07.37-.03.17-.11.44-.23.82-.43,1.41-1.23,4.03-.83,6.55,0,.04,1.04,4.64,2.4,7.38.18.31.33.55.45.7q.45.56.33.66c-.12.1-.12.1-.67-.54-.11-.19-.22-.4-.33-.61-.73-1.27-1.7-3.53-2.29-4.93l-.04-.09c-.11-.27-1.35-2.93-2.52-4-.59-.55-2.24-1.55-2.26-1.56-.02-.02-.05-.04-.07-.05.01.02.03.04.05.06.42.56.94,1.44,1.32,2.08.12.21.23.39.32.53.73,1.17,1.38,2.41,1.94,3.67.56,1.22,1.85,4.83,1.87,4.86l.81,2.25ZM229.59,252.4h0s0,0,0,0ZM223.22,235.98c-.03.27-.07.74-.11,1.35.04-.48.08-.93.11-1.35ZM234.86,234.38h-.01s0,0,.01,0Z"/>
    </g>
    <g>
      <path class="cls-1" d="M281.38,240.21c.51.19.74,1.71.74,1.71,0,0-.04-.87-.04-1.3s-.21-2.05-.21-2.05l-.45.32c-.54.43-.84,1.19-.84,1.19,0,0,.31-.05.81.12h0Z"/>
      <path d="M281.97,241.94c-.09-.6-.35-1.48-.64-1.59-.45-.16-.74-.12-.74-.12l-.26.04.09-.24s.32-.8.89-1.25l.66-.47.03.25c0,.07.21,1.63.21,2.07s.04,1.28.04,1.29l-.29.03ZM280.8,239.93c.15,0,.37.04.63.13h0c.21.08.37.31.49.58v-.03c0-.32-.12-1.32-.18-1.78l-.25.18c-.33.26-.57.67-.7.92Z"/>
    </g>
  </g>
</svg>