<?xml version="1.0" encoding="UTF-8"?>
<svg id="_Layer_" data-name="&amp;lt;Layer&amp;gt;" xmlns="http://www.w3.org/2000/svg" viewBox="0 0 500 500">
  <defs>
    <style>
      .cls-1 {
        fill: #367c21;
      }

      .cls-2 {
        fill: #da2f20;
      }

      .cls-3 {
        fill: #16369a;
      }

      .cls-4 {
        fill: #fff;
      }

      .cls-5 {
        fill: #f4be41;
      }
    </style>
  </defs>
  <g id="effectFlag">
    <rect class="cls-1" width="261.88" height="500"/>
    <rect class="cls-2" x="261.88" width="488.13" height="500"/>
    <g>
      <path class="cls-5" d="M364.11,247.73c0-.43,0-.86,0-1.3,0-1.45-.03-2.89-.09-4.32,1.29.89,2.23,1.79,2.67,2.7l-.2-3.12c-.44-.9-1.36-1.79-2.64-2.68-1.03-14.29-4.99-27.76-11.3-39.82.83.48,1.54.98,2.09,1.5l.44-2.31c-1.01-.96-2.56-1.85-4.44-2.67-1.11-1.93-2.28-3.82-3.51-5.68,1.47.7,2.69,1.46,3.54,2.26l.44-2.31c-1.36-1.28-3.67-2.44-6.42-3.47-17.38-23.95-44.92-40.05-76.28-41.99v-2.19h-2.47v2.07c-1.31-.05-2.62-.07-3.94-.07s-2.63.03-3.94.07v-2.07h-2.47v2.19c-31.65,1.96-59.4,18.34-76.75,42.64-1.93-.03-2.56.37-2.56.37,0,0-.26,1.81-.49,2.17,0,0,.39-.25,1.52-.34-2.82,4.17-5.33,8.56-7.51,13.14-1.25.08-1.68.35-1.68.35,0,0-.26,1.81-.49,2.17,0,0,.3-.19,1.14-.3-4.87,10.88-7.9,22.76-8.68,35.26-1.12,1.1-1.29,1.77-1.29,1.77v2.92s.15-.61,1.14-1.63c-.04,1.13-.06,2.25-.06,3.39,0,.87.01,1.74.03,2.61-.97,1-1.12,1.6-1.12,1.6v2.92s.16-.64,1.23-1.71c.78,14.87,4.73,28.89,11.2,41.4-.67.86-.75,1.36-.75,1.36l1.18,2.06s.08-.48.7-1.3c1.06,1.94,2.19,3.84,3.37,5.71-.7.88-.79,1.4-.79,1.4l1.18,2.06s.1-.57.88-1.51c17.2,25.76,45.8,43.27,78.59,45.3v2.19h2.47v-2.07c1.31.05,2.62.07,3.94.07s2.63-.03,3.94-.07v2.07h2.47v-2.19c30.55-1.89,57.46-17.22,74.91-40.14.8,1.37.97,2.04.97,2.04.22-.37,1.7-1.44,1.7-1.44,0,0-.22-.85-1.23-2.55,3.01-4.16,5.72-8.55,8.08-13.14,1.31,2.03,1.25,2.8,1.25,2.8.22-.37,1.7-1.44,1.7-1.44,0,0,.26-1.06-1.66-3.95,5.83-12.16,9.32-25.64,9.9-39.88,1.17.84,2.01,1.68,2.42,2.52l-.2-3.13c-.38-.77-1.12-1.55-2.15-2.32Z"/>
      <g>
        <path d="M262.01,348.7c-1.31,0-2.64-.03-3.94-.07h-.15v-204.37h.15c2.6-.1,5.29-.1,7.89,0h.15v204.37h-.15c-1.3.05-2.63.08-3.94.08ZM258.22,348.32c2.5.09,5.07.09,7.57,0v-203.77c-2.5-.09-5.07-.09-7.57,0v203.77Z"/>
        <path d="M171.22,293.54l-.11-.21c-6.68-12.93-10.46-26.88-11.22-41.47v-.07s.05-.05.05-.05c.63-.63,1.44-1.28,2.41-1.92,1.67-1.11,3.8-2.21,6.34-3.26.82-.34,1.66-.67,2.47-.97l.21-.08v.23c0,.23,0,.46,0,.69,0,12.24,2.4,24.11,7.12,35.28.76,1.8,1.59,3.6,2.48,5.36l.07.15-.15.06c-.81.34-1.57.68-2.25,1-2.23,1.06-4.06,2.17-5.45,3.28-.76.61-1.37,1.21-1.82,1.78l-.15.19ZM160.2,251.92c.76,14.44,4.49,28.25,11.07,41.06.45-.54,1.02-1.09,1.72-1.65,1.4-1.12,3.26-2.24,5.51-3.31.64-.31,1.35-.63,2.11-.95-.86-1.72-1.67-3.48-2.41-5.23-4.74-11.21-7.14-23.12-7.14-35.4,0-.16,0-.32,0-.47-.75.28-1.5.58-2.25.89-2.52,1.05-4.63,2.14-6.29,3.24-.92.61-1.7,1.23-2.31,1.83Z"/>
        <path d="M159.92,240.38l.03-.4c.76-12.27,3.69-24.15,8.69-35.31l.04-.08h.09c.75-.11,1.68-.1,2.74,0,1.8.16,3.98.6,6.46,1.29.74.21,1.55.45,2.4.72l.17.05-.08.16c-.68,1.4-1.35,2.86-1.98,4.36-3.04,7.2-5.14,14.76-6.22,22.47v.09s-.1.03-.1.03c-.91.32-1.79.66-2.62.99-2.7,1.08-4.97,2.21-6.73,3.35-1.05.68-1.92,1.35-2.59,2.01l-.29.28ZM168.89,204.87c-4.91,10.99-7.81,22.67-8.61,34.73.64-.59,1.43-1.18,2.36-1.78,1.78-1.15,4.07-2.28,6.78-3.37.8-.32,1.66-.65,2.54-.96,1.09-7.7,3.19-15.26,6.23-22.45.61-1.44,1.25-2.86,1.91-4.21-.79-.25-1.53-.47-2.22-.66-2.47-.69-4.63-1.12-6.41-1.28-1-.09-1.87-.1-2.59-.02Z"/>
        <path d="M255.76,337.18h-.16c-10.01-.7-19.76-3.03-28.99-6.93-10.83-4.58-20.56-11.14-28.92-19.5-4.19-4.19-7.97-8.77-11.23-13.63l-.1-.16.17-.07c5.92-2.47,13.92-4.67,23.79-6.54l-1.02-1.78c-9.97,1.89-18.03,4.11-23.97,6.6-.76.32-1.53.66-2.27,1.01-2.22,1.06-4.05,2.16-5.43,3.27-.73.58-1.32,1.17-1.77,1.73l-.13.17-.12-.18c-1.18-1.85-2.32-3.78-3.38-5.71l-.05-.09.06-.08c.46-.6,1.08-1.22,1.84-1.84,1.38-1.12,3.23-2.24,5.49-3.33.73-.35,1.49-.69,2.26-1.02,5.95-2.5,14.02-4.74,24.01-6.63l-1.02-1.78c-9.96,1.89-18.02,4.1-23.96,6.59l-.13.06-.06-.13c-.89-1.77-1.72-3.58-2.49-5.38-4.74-11.21-7.14-23.12-7.14-35.4,0-.23,0-.47,0-.7v-.1s.1-.04.1-.04c7.27-2.7,17.15-5.06,29.37-7.03v-2.61c-12.06,1.94-21.85,4.28-29.1,6.94l-.1.04c-.9.33-1.73.66-2.49.98-2.56,1.06-4.7,2.17-6.38,3.29-.99.66-1.8,1.31-2.41,1.95l-.25.26v-.37c-.03-.84-.04-1.72-.04-2.61,0-1.13.02-2.27.06-3.39v-.06s.04-.05.04-.05c.66-.68,1.53-1.37,2.58-2.06,1.74-1.15,3.98-2.28,6.66-3.37.81-.33,1.68-.66,2.58-.99,7.24-2.62,16.95-4.92,28.86-6.84v-2.61c-11.67,1.88-21.21,4.13-28.38,6.68l-.24.09.04-.25c1.09-7.74,3.19-15.32,6.25-22.54.63-1.5,1.3-2.97,1.99-4.37l.06-.12.13.04c5.65,1.8,12.59,4.72,20.64,8.67l.42-1.86c-7.8-3.84-14.58-6.71-20.14-8.52-.84-.27-1.64-.52-2.39-.73-2.45-.71-4.61-1.17-6.41-1.38-1-.12-1.9-.15-2.66-.11l-.26.02.11-.24c2.17-4.55,4.7-8.98,7.53-13.15l.04-.06h.07c.82-.07,1.81-.04,2.94.09,1.9.22,4.19.73,6.8,1.5.85.25,1.67.51,2.5.79,5.46,1.81,12.06,4.62,19.61,8.33l.42-1.86c-7.13-3.51-13.42-6.21-18.69-8.03l-.21-.07.14-.17c1.5-1.88,3.09-3.72,4.72-5.45v-.09h.14c1.83-.43,3.75-.83,5.73-1.17l-.39-1.73c-.92.17-1.82.35-2.67.53l-.51.11.37-.37c8.24-8.12,17.8-14.51,28.41-18.99,9.23-3.9,18.98-6.23,28.99-6.92h.16s0,181.48,0,181.48ZM186.82,297.11c3.23,4.78,6.95,9.29,11.09,13.42,8.33,8.33,18.03,14.87,28.82,19.43,9.14,3.87,18.81,6.19,28.72,6.89v-180.83c-9.92.7-19.58,3.02-28.72,6.89-10.41,4.4-19.81,10.65-27.93,18.56.75-.15,1.52-.3,2.31-.45l.15-.03.53,2.34-.16.03c-2.02.35-3.98.75-5.85,1.19-1.58,1.68-3.12,3.46-4.58,5.28,5.27,1.83,11.54,4.53,18.63,8.03l.11.05-.56,2.48-.18-.09c-7.61-3.75-14.26-6.58-19.75-8.41-.83-.28-1.65-.53-2.49-.78-2.59-.76-4.87-1.26-6.75-1.48-1.08-.13-2.02-.16-2.81-.11-2.75,4.07-5.22,8.39-7.35,12.82.72-.02,1.54.02,2.45.12,1.82.21,3.99.68,6.46,1.39.75.22,1.56.46,2.4.74,5.6,1.82,12.43,4.71,20.29,8.59l.11.05-.56,2.48-.18-.09c-8.04-3.96-14.99-6.89-20.64-8.7-.66,1.36-1.31,2.79-1.92,4.24-3.01,7.12-5.09,14.59-6.19,22.21,7.19-2.54,16.73-4.77,28.37-6.64l.18-.03v3.23l-.13.02c-11.95,1.92-21.69,4.22-28.93,6.84-.9.33-1.77.66-2.57.99-2.66,1.09-4.88,2.21-6.61,3.35-1.01.66-1.85,1.33-2.49,1.98-.04,1.1-.05,2.22-.05,3.32,0,.76,0,1.52.02,2.25.59-.57,1.34-1.16,2.21-1.74,1.7-1.13,3.86-2.25,6.43-3.32.74-.31,1.54-.62,2.41-.94h0s.1-.04.1-.04c7.31-2.7,17.22-5.06,29.43-7.02l.18-.03v3.23l-.13.02c-12.2,1.96-22.07,4.31-29.34,7,0,.2,0,.39,0,.59,0,12.24,2.4,24.11,7.12,35.28.74,1.75,1.55,3.51,2.41,5.23,5.97-2.48,14.04-4.7,24-6.58l.11-.02,1.34,2.35-.21.04c-10.06,1.9-18.19,4.14-24.16,6.65-.77.32-1.53.66-2.25,1.01-2.24,1.07-4.06,2.18-5.43,3.29-.71.58-1.3,1.15-1.73,1.71,1.01,1.84,2.09,3.66,3.2,5.43.44-.53,1.01-1.07,1.68-1.61,1.4-1.12,3.24-2.23,5.49-3.31.74-.36,1.51-.7,2.28-1.02,5.98-2.51,14.1-4.74,24.13-6.64l.11-.02,1.34,2.35-.21.04c-9.85,1.86-17.85,4.05-23.77,6.49Z"/>
        <path d="M191,190.08l-.1-.04c-.84-.29-1.67-.56-2.49-.82l-.21-.07.14-.18c.91-1.17,1.88-2.34,2.86-3.48v-.06l.11-.03c1.43-.42,2.9-.81,4.36-1.15l.5-.12-.35.37c-1.64,1.74-3.23,3.59-4.74,5.48l-.07.09ZM188.71,189c.72.22,1.45.47,2.19.72,1.39-1.73,2.84-3.43,4.34-5.04-1.28.31-2.56.65-3.8,1.02-.94,1.08-1.85,2.19-2.72,3.3Z"/>
        <path d="M181.78,187.61l-.11-.02c-1.05-.16-2-.25-2.82-.26h-.29s.17-.24.17-.24c8.66-12.14,20.1-22.43,33.06-29.75,13.52-7.64,28.26-12,43.8-12.96h.16s0,11.63,0,11.63h-.14c-9.97.7-19.69,3.02-28.89,6.91-10.57,4.47-20.1,10.84-28.31,18.93l-.03.03h-.05c-1.52.32-2.97.65-4.29.98h0s-.12.03-.12.03c-9.61,2.37-11.92,4.47-12.11,4.65l-.04.08ZM179.15,187.02c.74.03,1.58.11,2.5.25.42-.39,2.93-2.39,12.1-4.67v-.03h.14c1.34-.33,2.81-.67,4.36-.99,8.23-8.1,17.78-14.48,28.37-18.96,9.18-3.89,18.89-6.21,28.84-6.91v-11.02c-15.43.98-30.07,5.32-43.51,12.91-12.84,7.25-24.18,17.42-32.8,29.42Z"/>
        <path d="M255.76,348.51h-.16c-15.88-.99-31.51-5.75-45.21-13.78-13.33-7.81-24.91-18.74-33.49-31.6l-.06-.1.07-.09c.47-.57,1.09-1.16,1.83-1.75,1.41-1.11,3.26-2.22,5.51-3.28.73-.35,1.5-.69,2.29-1.02l.12-.05.07.1c3.25,4.84,7.02,9.4,11.19,13.58,8.33,8.33,18.03,14.87,28.82,19.43,9.2,3.89,18.92,6.21,28.89,6.9h.14v11.65ZM177.21,303.06c8.55,12.78,20.07,23.64,33.33,31.41,13.61,7.97,29.13,12.72,44.91,13.72v-11.02c-9.96-.7-19.66-3.03-28.84-6.91-10.83-4.58-20.56-11.14-28.92-19.5-4.16-4.16-7.91-8.71-11.16-13.52-.75.31-1.48.64-2.16.96-2.23,1.06-4.06,2.15-5.45,3.25-.69.54-1.26,1.09-1.71,1.61Z"/>
        <path d="M345.12,186.84l-.48-.18c-1.22-.46-2.59-.91-4.08-1.35-3.05-.89-6.59-1.74-10.53-2.51-1.39-.27-2.8-.53-4.18-.76h-.05s-.03-.04-.03-.04c-8.26-8.17-17.84-14.59-28.48-19.09-9.2-3.89-18.91-6.21-28.89-6.9h-.14v-11.65h.16c15.4.96,30.02,5.26,43.45,12.77,12.87,7.2,24.27,17.33,32.95,29.29l.3.41ZM325.95,181.75c1.37.23,2.76.49,4.14.76,3.95.77,7.5,1.62,10.56,2.52,1.31.38,2.52.78,3.62,1.18-8.62-11.74-19.86-21.69-32.55-28.79-13.34-7.46-27.86-11.74-43.15-12.71v11.02c9.96.7,19.66,3.03,28.84,6.91,10.66,4.51,20.26,10.94,28.54,19.12Z"/>
        <path d="M364.03,239.31l-.26-.18c-.72-.5-1.59-1.01-2.58-1.53-1.8-.94-4.05-1.91-6.7-2.89-.82-.31-1.7-.62-2.61-.93l-.09-.03v-.09c-1.1-7.72-3.19-15.29-6.24-22.5-2.57-6.07-5.8-11.86-9.6-17.2l-.23-.32.39.08c1.2.25,2.4.52,3.56.81,3.64.88,6.73,1.82,9.2,2.77l.1.04c1.44.56,2.68,1.14,3.67,1.72l.04.02.02.04c6.5,12.43,10.31,25.85,11.32,39.88l.02.32ZM352.06,233.52c.88.3,1.73.6,2.53.9,2.66.99,4.93,1.97,6.74,2.91.89.46,1.67.92,2.35,1.37-1.04-13.86-4.82-27.12-11.24-39.4-1-.57-2.24-1.15-3.69-1.71l-.1-.04c-2.44-.94-5.49-1.86-9.07-2.72-1.03-.25-2.09-.49-3.16-.72,3.72,5.27,6.88,10.97,9.41,16.94,3.05,7.21,5.14,14.77,6.24,22.48Z"/>
        <path d="M268.26,348.51v-11.64h.14c9.97-.7,19.69-3.02,28.89-6.91,10.79-4.56,20.49-11.1,28.82-19.43,3.55-3.55,6.82-7.4,9.71-11.44l.11-.15.13.13c.66.67,1.23,1.26,1.74,1.81,1.67,1.79,3.09,3.49,4.22,5.05.56.78,1.04,1.52,1.44,2.19l.05.09-.06.08c-18.04,23.71-45.38,38.37-75.02,40.2h-.16ZM268.57,337.16v11.02c29.45-1.87,56.61-16.43,74.56-39.99-.38-.64-.84-1.34-1.37-2.08-1.12-1.55-2.53-3.24-4.19-5.02-.48-.51-1-1.06-1.61-1.67-2.87,4-6.11,7.81-9.63,11.33-8.36,8.36-18.09,14.92-28.92,19.5-9.18,3.88-18.89,6.21-28.84,6.91Z"/>
        <path d="M354.15,290.85l-.15-.23c-.46-.69-1.01-1.45-1.65-2.24-1.25-1.55-2.82-3.27-4.68-5.12-.62-.61-1.25-1.23-1.9-1.84l-.08-.07.04-.1c4.59-11.03,6.92-22.74,6.92-34.81,0-.33,0-.66,0-.99v-.22s.2.07.2.07c.84.3,1.68.6,2.48.91,2.53.96,4.66,1.92,6.35,2.83.93.5,1.75,1,2.43,1.49l.07.05v.08c-.57,13.97-3.91,27.4-9.92,39.94l-.12.25ZM346.06,281.27c.62.59,1.23,1.18,1.83,1.77,1.86,1.85,3.45,3.59,4.7,5.15.58.72,1.09,1.4,1.52,2.04,5.91-12.4,9.2-25.69,9.77-39.49-.66-.47-1.44-.95-2.33-1.43-1.68-.91-3.8-1.85-6.32-2.81-.73-.28-1.49-.56-2.26-.83,0,.26,0,.51,0,.77,0,12.07-2.32,23.79-6.91,34.83Z"/>
        <path d="M173.03,291.69l-.09-.17c-1.03-2.04-2.01-4.14-2.9-6.24-4.74-11.22-7.36-23.1-7.78-35.32v-.09s.07-.05.07-.05c1.67-1.11,3.8-2.21,6.34-3.26.82-.34,1.66-.67,2.47-.97l.21-.08v.23c0,.23,0,.46,0,.69,0,12.24,2.4,24.11,7.12,35.28.76,1.8,1.59,3.6,2.48,5.36l.07.15-.15.06c-.81.34-1.57.68-2.25,1-2.23,1.06-4.06,2.17-5.45,3.28l-.15.12ZM162.58,250.04c.43,12.15,3.04,23.97,7.75,35.13.86,2.04,1.8,4.07,2.8,6.05,1.39-1.08,3.19-2.16,5.36-3.19.64-.31,1.35-.63,2.11-.95-.86-1.72-1.67-3.48-2.41-5.23-4.74-11.21-7.14-23.12-7.14-35.4,0-.16,0-.32,0-.47-.75.28-1.5.58-2.25.89-2.48,1.03-4.57,2.1-6.22,3.19Z"/>
        <path d="M162.54,238.25l.03-.31c.88-10.46,3.4-20.67,7.49-30.35.41-.96.84-1.95,1.3-2.93l.05-.1h.11c1.8.17,3.98.61,6.46,1.3.74.21,1.55.45,2.4.72l.17.05-.08.16c-.68,1.4-1.35,2.86-1.98,4.36-3.04,7.2-5.14,14.76-6.22,22.47v.09s-.1.03-.1.03c-.91.32-1.79.66-2.62.99-2.7,1.08-4.97,2.21-6.73,3.35l-.26.17ZM171.58,204.89c-.44.95-.85,1.89-1.24,2.82-4.04,9.55-6.54,19.62-7.44,29.94,1.74-1.09,3.93-2.17,6.52-3.2.8-.32,1.66-.65,2.54-.96,1.09-7.7,3.19-15.26,6.23-22.45.61-1.44,1.25-2.86,1.91-4.21-.79-.25-1.53-.47-2.22-.66-2.42-.67-4.54-1.1-6.3-1.27Z"/>
        <path d="M191,190.08l-.1-.04c-.84-.29-1.67-.56-2.49-.82l-.21-.07.14-.18c.91-1.17,1.88-2.34,2.86-3.48v-.06l.11-.03c1.43-.42,2.9-.81,4.36-1.15l.5-.12-.35.37c-1.64,1.74-3.23,3.59-4.74,5.48l-.07.09ZM188.71,189c.72.22,1.45.47,2.19.72,1.39-1.73,2.84-3.43,4.34-5.04-1.28.31-2.56.65-3.8,1.02-.94,1.08-1.85,2.19-2.72,3.3Z"/>
        <path d="M181.81,187.53l-.23-.2c2.96-4.02,6.28-7.88,9.86-11.47,9.17-9.17,19.84-16.36,31.72-21.39,10.32-4.37,21.23-6.94,32.43-7.64h.16s0,9.16,0,9.16h-.14c-9.97.7-19.69,3.02-28.89,6.91-10.57,4.47-20.1,10.84-28.31,18.93l-.03.03h-.05c-1.52.32-2.97.65-4.29.98h0s-.12.03-.12.03c-9.83,2.43-12.03,4.57-12.12,4.66ZM255.45,147.16c-11.11.72-21.93,3.27-32.17,7.61-11.85,5.01-22.49,12.18-31.62,21.32-3.33,3.33-6.42,6.88-9.21,10.59,1.33-.84,4.47-2.38,11.29-4.07v-.03h.14c1.34-.33,2.81-.67,4.36-.99,8.23-8.1,17.78-14.48,28.37-18.96,9.18-3.89,18.89-6.21,28.84-6.91v-8.55Z"/>
        <path d="M255.76,346.04h-.16c-11.2-.71-22.11-3.28-32.43-7.65-11.88-5.03-22.56-12.22-31.72-21.39-4.78-4.78-9.07-10.03-12.75-15.6l-.08-.12.11-.09c1.41-1.11,3.26-2.22,5.51-3.28.73-.35,1.5-.69,2.29-1.02l.12-.05.07.1c3.25,4.84,7.02,9.4,11.19,13.58,8.33,8.33,18.03,14.87,28.82,19.43,9.2,3.89,18.92,6.21,28.89,6.9h.14v9.18ZM179.03,301.36c3.65,5.51,7.9,10.7,12.63,15.43,9.14,9.14,19.78,16.31,31.62,21.32,10.24,4.33,21.06,6.89,32.17,7.6v-8.55c-9.96-.7-19.66-3.03-28.84-6.91-10.83-4.58-20.56-11.14-28.92-19.5-4.16-4.16-7.91-8.71-11.16-13.52-.75.31-1.48.64-2.16.96-2.17,1.03-3.96,2.09-5.34,3.16Z"/>
        <path d="M341.02,185.45l-.46-.14c-3.05-.89-6.59-1.74-10.53-2.51-1.39-.27-2.8-.53-4.18-.76h-.05s-.03-.04-.03-.04c-8.26-8.17-17.84-14.59-28.48-19.09-9.2-3.89-18.91-6.21-28.89-6.9h-.14v-9.18h.16c11.2.71,22.11,3.28,32.43,7.65,11.88,5.03,22.56,12.22,31.72,21.39,2.9,2.9,5.64,6,8.15,9.2l.3.38ZM325.95,181.75c1.37.23,2.76.49,4.14.76,3.75.73,7.15,1.54,10.1,2.38-2.41-3.06-5.05-6.02-7.83-8.8-9.14-9.14-19.78-16.31-31.62-21.32-10.24-4.33-21.06-6.89-32.17-7.61v8.55c9.96.7,19.66,3.03,28.84,6.91,10.66,4.51,20.26,10.94,28.54,19.12Z"/>
        <path d="M361.43,237.73l-.25-.13c-1.8-.94-4.05-1.91-6.7-2.89-.82-.31-1.7-.62-2.61-.93l-.09-.03v-.09c-1.1-7.72-3.19-15.29-6.24-22.5-2.57-6.07-5.8-11.86-9.6-17.2l-.23-.32.39.08c1.2.25,2.4.52,3.56.81,3.64.88,6.73,1.82,9.2,2.77l.1.04v.07c1.86,3.29,3.54,6.71,5.01,10.19,4.03,9.52,6.53,19.57,7.44,29.86l.02.28ZM352.06,233.52c.88.3,1.73.6,2.53.9,2.54.94,4.72,1.88,6.49,2.78-.93-10.16-3.42-20.08-7.4-29.49-1.46-3.46-3.14-6.88-4.99-10.15-2.45-.95-5.51-1.87-9.11-2.74-1.03-.25-2.09-.49-3.16-.72,3.72,5.27,6.88,10.97,9.41,16.94,3.05,7.21,5.14,14.77,6.24,22.48Z"/>
        <path d="M268.26,346.04v-9.17h.14c9.97-.7,19.69-3.02,28.89-6.91,10.79-4.56,20.49-11.1,28.82-19.43,3.55-3.55,6.82-7.4,9.71-11.44l.11-.15.13.13c.66.67,1.23,1.26,1.74,1.81,1.67,1.79,3.09,3.49,4.22,5.05l.07.09-.07.09c-2.85,3.81-6.03,7.48-9.44,10.89-9.16,9.16-19.84,16.36-31.72,21.39-10.32,4.37-21.23,6.93-32.43,7.64h-.16ZM268.57,337.16v8.55c11.11-.72,21.93-3.27,32.17-7.6,11.85-5.01,22.49-12.19,31.62-21.32,3.37-3.37,6.51-6.99,9.34-10.76-1.11-1.53-2.5-3.19-4.13-4.93-.48-.51-1-1.06-1.61-1.67-2.87,4-6.11,7.81-9.63,11.33-8.36,8.36-18.09,14.92-28.92,19.5-9.18,3.88-18.89,6.21-28.84,6.91Z"/>
        <path d="M352.5,288.57l-.15-.19c-1.25-1.55-2.82-3.27-4.68-5.12-.62-.61-1.25-1.23-1.9-1.84l-.08-.07.04-.1c4.59-11.03,6.92-22.74,6.92-34.81,0-.33,0-.66,0-.99v-.22s.2.07.2.07c.84.3,1.68.6,2.48.91,2.53.96,4.66,1.92,6.35,2.83l.08.05v.09c-.34,12.5-2.96,24.65-7.81,36.11-.45,1.05-.9,2.08-1.36,3.07l-.1.23ZM346.06,281.27c.62.59,1.23,1.18,1.83,1.77,1.79,1.78,3.31,3.44,4.54,4.95.42-.91.84-1.86,1.25-2.83,4.82-11.4,7.44-23.48,7.78-35.9-1.67-.89-3.76-1.82-6.23-2.77-.73-.28-1.49-.56-2.26-.83,0,.26,0,.51,0,.77,0,12.07-2.32,23.79-6.91,34.83Z"/>
        <path d="M178.49,288.36l-.07-.14c-.88-1.76-1.72-3.58-2.5-5.43-4.83-11.43-7.3-23.57-7.34-36.09v-.1s.09-.04.09-.04c.82-.34,1.66-.67,2.47-.97l.21-.08v.23c0,.23,0,.46,0,.69,0,12.24,2.4,24.11,7.12,35.28.76,1.8,1.59,3.6,2.48,5.36l.07.15-.15.06c-.81.34-1.57.68-2.25,1l-.14.07ZM168.89,246.81c.05,12.44,2.51,24.51,7.31,35.87.76,1.79,1.57,3.56,2.43,5.27.6-.29,1.27-.58,1.97-.88-.86-1.72-1.67-3.48-2.41-5.23-4.74-11.21-7.14-23.12-7.14-35.4,0-.16,0-.32,0-.47-.71.27-1.44.55-2.16.85Z"/>
        <path d="M169.29,234.83l.03-.26c1.06-8.42,3.28-16.66,6.6-24.5.58-1.38,1.21-2.76,1.86-4.13l.06-.12.12.03c.74.21,1.55.45,2.4.72l.17.05-.08.16c-.68,1.4-1.35,2.86-1.98,4.36-3.04,7.2-5.14,14.76-6.22,22.47v.09s-.1.03-.1.03c-.91.32-1.79.66-2.62.99l-.24.1ZM178.01,206.2c-.63,1.32-1.24,2.67-1.8,4-3.27,7.73-5.47,15.85-6.54,24.15.73-.29,1.5-.58,2.3-.86,1.09-7.7,3.19-15.26,6.23-22.45.61-1.44,1.25-2.86,1.91-4.21-.74-.23-1.44-.44-2.09-.63Z"/>
        <path d="M191,190.08l-.1-.04c-.84-.29-1.67-.56-2.49-.82l-.21-.07.14-.18c.91-1.17,1.88-2.34,2.86-3.48v-.06l.11-.03c1.43-.42,2.9-.81,4.36-1.15l.5-.12-.35.37c-1.64,1.74-3.23,3.59-4.74,5.48l-.07.09ZM188.71,189c.72.22,1.45.47,2.19.72,1.39-1.73,2.84-3.43,4.34-5.04-1.28.31-2.56.65-3.8,1.02-.94,1.08-1.85,2.19-2.72,3.3Z"/>
        <path d="M193.43,183l.35-.38c.69-.74,1.42-1.5,2.17-2.24,8.58-8.58,18.57-15.32,29.7-20.02,9.53-4.03,19.61-6.43,29.95-7.12h.16s0,2.77,0,2.77h-.14c-9.97.7-19.69,3.02-28.89,6.91-10.57,4.47-20.1,10.84-28.31,18.93l-.03.03h-.05c-1.57.33-3.05.67-4.41,1.01l-.5.12ZM255.45,153.55c-10.25.7-20.23,3.09-29.68,7.09-11.09,4.69-21.05,11.41-29.6,19.96-.62.62-1.22,1.24-1.8,1.86,1.21-.29,2.51-.58,3.87-.86,8.23-8.1,17.78-14.48,28.37-18.96,9.18-3.89,18.89-6.21,28.84-6.91v-2.16Z"/>
        <path d="M255.76,339.66h-.16c-10.34-.7-20.42-3.1-29.95-7.13-11.12-4.71-21.12-11.44-29.7-20.02-4.4-4.4-8.37-9.24-11.77-14.36l-.1-.15.16-.08c.73-.35,1.5-.69,2.29-1.02l.12-.05.07.1c3.25,4.84,7.02,9.4,11.19,13.58,8.33,8.33,18.03,14.87,28.82,19.43,9.2,3.89,18.92,6.21,28.89,6.9h.14v2.79ZM184.53,298.12c3.37,5.05,7.29,9.81,11.64,14.16,8.55,8.55,18.51,15.27,29.6,19.96,9.45,4,19.44,6.38,29.68,7.09v-2.16c-9.96-.7-19.66-3.03-28.84-6.91-10.83-4.58-20.56-11.14-28.92-19.5-4.16-4.16-7.91-8.71-11.16-13.52-.69.29-1.36.59-2,.89Z"/>
        <path d="M330.49,182.9l-.47-.09c-1.39-.27-2.8-.53-4.18-.76h-.05s-.03-.04-.03-.04c-8.26-8.17-17.84-14.59-28.48-19.09-9.2-3.89-18.91-6.21-28.89-6.9h-.14v-2.79h.17c10.34.71,20.42,3.1,29.95,7.13,11.12,4.71,21.12,11.44,29.7,20.02.72.72,1.43,1.45,2.1,2.17l.32.35ZM325.95,181.75c1.21.21,2.45.43,3.67.66-.57-.6-1.16-1.21-1.77-1.82-8.55-8.55-18.51-15.27-29.6-19.96-9.45-3.99-19.43-6.38-29.68-7.09v2.16c9.96.7,19.66,3.03,28.84,6.91,10.66,4.51,20.26,10.94,28.54,19.12Z"/>
        <path d="M354.72,234.8l-.24-.09c-.82-.31-1.7-.62-2.61-.93l-.09-.03v-.09c-1.1-7.72-3.19-15.29-6.24-22.5-2.57-6.07-5.8-11.86-9.6-17.2l-.23-.32.39.08c1.2.25,2.4.52,3.56.81h.06s.03.06.03.06c3.25,4.86,6.06,10.07,8.35,15.49,3.31,7.83,5.53,16.06,6.59,24.47l.03.25ZM352.06,233.52c.79.27,1.56.54,2.29.81-1.07-8.29-3.27-16.41-6.54-24.13-2.28-5.39-5.07-10.57-8.29-15.39-1.01-.25-2.05-.48-3.1-.71,3.72,5.27,6.88,10.97,9.41,16.94,3.05,7.21,5.14,14.77,6.24,22.48Z"/>
        <path d="M268.26,339.66v-2.78h.14c9.97-.7,19.69-3.02,28.89-6.91,10.79-4.56,20.49-11.1,28.82-19.43,3.55-3.55,6.82-7.4,9.71-11.44l.11-.15.13.13c.66.67,1.23,1.26,1.74,1.81l.09.09-.07.1c-2.9,4.02-6.18,7.86-9.74,11.42-8.58,8.58-18.57,15.32-29.7,20.02-9.53,4.03-19.6,6.43-29.95,7.12h-.17ZM268.57,337.16v2.16c10.25-.71,20.24-3.09,29.68-7.09,11.09-4.69,21.05-11.4,29.6-19.96,3.52-3.52,6.76-7.31,9.63-11.28-.45-.48-.95-1-1.52-1.58-2.87,4-6.11,7.81-9.63,11.33-8.36,8.36-18.09,14.92-28.92,19.5-9.18,3.88-18.89,6.21-28.84,6.91Z"/>
        <path d="M347.83,283.42l-.16-.16c-.62-.61-1.25-1.23-1.9-1.84l-.08-.07.04-.1c4.59-11.03,6.92-22.74,6.92-34.81,0-.33,0-.66,0-.99v-.22s.2.07.2.07c.84.3,1.68.6,2.48.91l.1.04v.19c0,12.62-2.47,24.85-7.34,36.36-.06.14-.12.27-.18.41l-.09.21ZM346.06,281.27c.56.53,1.12,1.07,1.67,1.61.03-.07.06-.13.08-.2,4.85-11.47,7.31-23.65,7.31-36.22-.7-.27-1.43-.53-2.16-.79,0,.26,0,.51,0,.77,0,12.07-2.32,23.79-6.91,34.83Z"/>
        <path d="M268.26,337.18v-181.49h.17c10.01.7,19.76,3.03,28.99,6.93,10.67,4.51,20.29,10.96,28.57,19.15l.35.34-.48-.08c-2.72-.46-4.66-.72-5.15-.76l-.39,2.02c1.11.07,5.27.74,8.39,1.33,1.45.28,2.77.54,4.05.82l.12.03c3.94.86,7.37,1.79,10.19,2.76,1.58.54,2.98,1.1,4.15,1.66l.09.04v.05c1.21,1.82,2.38,3.72,3.49,5.64l.23.4-.43-.19c-1.07-.47-2.31-.94-3.68-1.4-2.62-.88-5.76-1.72-9.33-2.51-1.21-.27-2.44-.53-3.64-.76-4.85-.95-8.58-1.45-9.28-1.51l-.39,2.02c1.29.08,6.84.96,11.83,2.02l.12.03v.08c3.8,5.35,7.03,11.14,9.61,17.22,3.06,7.24,5.16,14.83,6.25,22.57l.03.25-.24-.08c-10.86-3.72-24.17-6.53-25.95-6.9l.18,2.81c1.4.29,15.16,3.18,26.26,7,.91.31,1.77.62,2.57.92,2.62.98,4.85,1.95,6.62,2.87.97.51,1.83,1.02,2.56,1.52l.06.04v.08c.06,1.45.09,2.9.09,4.33,0,.43,0,.87,0,1.3v.3s-.25-.18-.25-.18c-.67-.5-1.49-1.02-2.44-1.55-1.69-.93-3.85-1.9-6.41-2.88l-.1-.04c-.75-.29-1.56-.58-2.4-.88-11.04-3.89-25.15-6.89-26.98-7.27l.18,2.81c1.43.3,15.77,3.31,26.99,7.25l.1.04v.11c0,.33,0,.66,0,.99,0,12.11-2.34,23.86-6.95,34.93l-.09.21-.16-.15c-5.62-5.32-13.39-11.61-23.09-18.7l.29,3.22c9.16,6.84,16.51,12.88,21.85,17.94.62.59,1.24,1.19,1.88,1.83,1.87,1.87,3.43,3.58,4.64,5.09.66.82,1.21,1.58,1.64,2.25l.05.07-.04.08c-2.35,4.56-5.07,8.99-8.1,13.16l-.14.19-.12-.2c-.42-.7-.9-1.43-1.44-2.19-1.13-1.58-2.54-3.3-4.19-5.1-.54-.59-1.12-1.2-1.73-1.83-4.81-4.93-11.17-10.31-18.92-15.99l-1.26,1.93c7.81,5.73,14.19,11.07,18.97,15.9l.09.09-.08.11c-2.9,4.05-6.17,7.92-9.74,11.48-8.36,8.36-18.09,14.92-28.92,19.5-9.23,3.9-18.98,6.23-28.99,6.92h-.17ZM268.57,156.02v180.83c9.92-.7,19.58-3.02,28.72-6.89,10.79-4.56,20.49-11.1,28.82-19.43,3.52-3.52,6.76-7.34,9.63-11.34-4.79-4.81-11.17-10.15-18.96-15.86l-.12-.09,1.6-2.45.13.1c7.82,5.73,14.24,11.15,19.09,16.12.61.63,1.2,1.24,1.74,1.83,1.66,1.81,3.08,3.54,4.22,5.13.49.69.94,1.36,1.33,2.01,2.94-4.08,5.6-8.4,7.89-12.86-.42-.64-.95-1.37-1.57-2.15-1.2-1.5-2.75-3.2-4.61-5.07-.64-.64-1.25-1.23-1.87-1.82-5.33-5.07-12.69-11.11-21.87-17.96l-.06-.04-.36-4.03.28.2c9.74,7.11,17.56,13.43,23.23,18.77,4.54-10.97,6.84-22.61,6.84-34.6,0-.29,0-.59,0-.88-11.73-4.11-26.81-7.2-26.96-7.23l-.12-.02-.22-3.45.2.04c.15.03,15.44,3.16,27.22,7.32.88.31,1.72.62,2.51.92l.1.04c2.53.97,4.66,1.94,6.34,2.86.85.47,1.6.94,2.24,1.39,0-.33,0-.66,0-1,0-1.4-.03-2.82-.09-4.24-.71-.48-1.54-.97-2.46-1.46-1.76-.92-3.97-1.88-6.58-2.86-.8-.3-1.66-.61-2.57-.92-11.63-4-26.19-6.98-26.33-7.01l-.12-.02-.22-3.44.2.04c.14.03,14.37,2.94,25.94,6.87-1.09-7.63-3.18-15.11-6.19-22.25-2.56-6.06-5.78-11.83-9.57-17.16-6.03-1.28-11.28-2-11.83-2.03l-.28.21.53-2.75.05-.04c.18-.13,5.45.69,9.56,1.49,1.21.24,2.43.49,3.65.76,3.58.79,6.72,1.64,9.36,2.52,1.2.4,2.3.81,3.28,1.22-1.04-1.79-2.13-3.54-3.25-5.23-1.15-.55-2.53-1.1-4.08-1.63-2.84-.97-6.3-1.91-10.28-2.77l-.12-.03c-1.24-.27-2.52-.53-3.92-.79-4.69-.89-8.04-1.32-8.46-1.35l-.28.21.53-2.76.05-.04c.15-.11,3.64.45,4.94.66-8.18-8.01-17.64-14.31-28.13-18.75-9.14-3.87-18.81-6.18-28.72-6.89Z"/>
        <g>
          <path d="M258.22,350.69h-2.77v-208.51h2.77v208.51ZM255.76,350.38h2.16v-207.89h-2.16v207.89Z"/>
          <path d="M268.57,350.69h-2.78v-208.51h2.78v208.51ZM266.1,350.38h2.16v-207.89h-2.16v207.89Z"/>
        </g>
        <path d="M158.81,244.83s-.01,0-.02,0c-.08-.01-.13-.07-.13-.15v-2.92s0-.03,0-.04c0-.03.19-.72,1.33-1.84.68-.67,1.57-1.36,2.64-2.05,1.78-1.15,4.07-2.28,6.78-3.37.83-.33,1.71-.67,2.63-.99,7.22-2.57,16.84-4.83,28.61-6.72.04,0,.09,0,.12.03.03.03.05.07.05.12v2.92c0,.08-.05.14-.13.15-11.95,1.92-21.69,4.22-28.93,6.84-.9.33-1.77.66-2.57.99-2.66,1.09-4.88,2.21-6.61,3.35-1.03.67-1.87,1.35-2.52,2.01,0,0,0,.01-.01.02-.94.96-1.1,1.55-1.1,1.55-.02.07-.08.12-.15.12ZM158.97,241.78v2.25c.18-.27.45-.63.86-1.06,0,0,0-.01.01-.02.66-.68,1.53-1.37,2.58-2.06,1.74-1.15,3.98-2.28,6.66-3.37.81-.33,1.68-.66,2.58-.99,7.24-2.62,16.95-4.92,28.86-6.84v-2.61c-11.67,1.88-21.21,4.13-28.38,6.68-.91.32-1.79.66-2.62.99-2.7,1.08-4.97,2.21-6.73,3.34-1.05.68-1.92,1.35-2.59,2.01-.97.96-1.21,1.58-1.24,1.68Z"/>
        <path d="M158.81,253.72s-.01,0-.02,0c-.08,0-.13-.07-.13-.15v-2.92s0-.03,0-.04c0-.03.17-.65,1.16-1.67.63-.65,1.46-1.32,2.46-1.99,1.7-1.13,3.86-2.25,6.43-3.32.76-.32,1.59-.64,2.48-.97,0,0,.01,0,.02-.01,7.31-2.7,17.22-5.06,29.43-7.02.04,0,.09,0,.12.03.03.03.05.07.05.12v2.92c0,.08-.05.14-.13.15-12.26,1.97-22.16,4.34-29.44,7.03-.82.3-1.64.62-2.46.96-2.52,1.05-4.63,2.14-6.29,3.24-.95.63-1.74,1.26-2.36,1.88-1.01,1.01-1.19,1.64-1.19,1.64-.02.07-.08.11-.15.11ZM158.97,250.67v2.25c.19-.3.49-.69.96-1.17.63-.63,1.45-1.28,2.41-1.92,1.67-1.11,3.8-2.21,6.34-3.26.82-.34,1.66-.67,2.47-.97,7.27-2.7,17.15-5.06,29.37-7.03v-2.61c-12.1,1.95-21.92,4.29-29.18,6.97,0,0-.01,0-.02,0-.9.33-1.73.66-2.49.98-2.56,1.06-4.7,2.17-6.38,3.29-.99.66-1.8,1.31-2.41,1.95-.83.86-1.04,1.42-1.07,1.51Z"/>
        <path d="M171.67,296.84c-.05,0-.11-.03-.13-.08l-1.18-2.06s-.02-.07-.02-.1c0-.02.1-.55.78-1.43.47-.6,1.09-1.21,1.87-1.83,1.4-1.12,3.26-2.24,5.51-3.31.68-.33,1.44-.67,2.26-1.01,5.98-2.51,14.1-4.74,24.13-6.63.06-.01.13.02.16.08l1.18,2.06s.03.1,0,.14c-.02.04-.06.08-.11.09-10.06,1.9-18.19,4.14-24.16,6.65-.77.32-1.53.66-2.25,1.01-2.24,1.07-4.06,2.18-5.43,3.29-.75.61-1.35,1.21-1.79,1.79-.59.77-.67,1.23-.67,1.23-.01.06-.06.11-.13.12,0,0-.02,0-.03,0ZM170.65,294.6l.98,1.71c.1-.23.28-.58.62-1.02.46-.6,1.08-1.22,1.84-1.84,1.38-1.12,3.23-2.24,5.49-3.33.73-.35,1.49-.69,2.26-1.02,5.95-2.5,14.02-4.74,24.01-6.63l-1.02-1.78c-9.96,1.89-18.02,4.1-23.96,6.59-.81.34-1.57.68-2.25,1-2.23,1.06-4.06,2.17-5.45,3.28-.76.61-1.37,1.21-1.82,1.78-.52.66-.67,1.1-.71,1.24Z"/>
        <path d="M176.14,304.72c-.05,0-.11-.03-.13-.08l-1.18-2.06s-.02-.07-.02-.1c0-.02.1-.57.82-1.47.46-.58,1.08-1.18,1.82-1.78,1.4-1.12,3.24-2.23,5.49-3.31.74-.36,1.51-.7,2.28-1.02,5.98-2.51,14.1-4.74,24.13-6.64.06-.01.13.02.16.07l1.18,2.07s.03.1,0,.14c-.02.04-.06.08-.11.09-9.95,1.88-18.01,4.09-23.94,6.56-.79.33-1.56.67-2.28,1.01-2.23,1.06-4.06,2.15-5.45,3.25-.73.57-1.32,1.15-1.78,1.7-.74.9-.84,1.44-.84,1.44-.01.06-.06.11-.13.13,0,0-.02,0-.03,0ZM175.12,302.48l.98,1.71c.12-.27.35-.7.79-1.24.47-.57,1.09-1.16,1.83-1.75,1.41-1.11,3.26-2.22,5.51-3.28.73-.35,1.5-.69,2.29-1.02,5.92-2.47,13.92-4.67,23.79-6.54l-1.02-1.78c-9.97,1.89-18.03,4.11-23.97,6.6-.76.32-1.53.66-2.27,1.01-2.22,1.06-4.05,2.16-5.43,3.27-.73.58-1.32,1.17-1.77,1.73-.54.68-.7,1.14-.74,1.28Z"/>
        <path d="M201.11,215.63s-.05,0-.07-.02c-8.1-3.99-15.09-6.93-20.77-8.74-.85-.27-1.66-.51-2.39-.71-2.47-.69-4.63-1.12-6.41-1.28-1.04-.1-1.94-.1-2.67,0-.76.09-1.05.26-1.08.28-.06.04-.14.03-.19-.03-.05-.05-.06-.13-.02-.19.15-.25.36-1.4.46-2.11,0-.04.03-.08.07-.11.02-.01.48-.29,1.76-.37.78-.05,1.69-.01,2.71.11,1.82.21,3.99.68,6.46,1.39.75.22,1.56.46,2.4.74,5.6,1.82,12.43,4.71,20.29,8.59.06.03.1.1.08.17l-.49,2.17s-.04.08-.08.11c-.02,0-.04.02-.07.02ZM170,204.5c.46,0,.97.02,1.5.07,1.8.16,3.98.6,6.46,1.29.74.21,1.55.45,2.4.72,5.65,1.8,12.59,4.72,20.64,8.67l.42-1.86c-7.8-3.84-14.58-6.71-20.14-8.52-.84-.27-1.64-.52-2.39-.73-2.45-.71-4.61-1.17-6.41-1.38-1-.12-1.9-.15-2.66-.11-.94.06-1.4.22-1.55.29-.04.3-.19,1.24-.36,1.79.19-.06.47-.13.85-.17.37-.05.78-.07,1.24-.07Z"/>
        <path d="M209.28,200.32s-.05,0-.07-.02c-7.61-3.75-14.26-6.58-19.75-8.41-.83-.28-1.65-.53-2.49-.78-2.59-.76-4.87-1.26-6.75-1.48-1.11-.13-2.08-.17-2.88-.1-1.02.08-1.41.29-1.45.31-.06.04-.14.02-.19-.03-.05-.05-.06-.13-.02-.19.15-.25.36-1.4.46-2.11,0-.04.03-.08.07-.11.03-.02.69-.42,2.64-.39.83.01,1.8.1,2.86.27,0,0,.02,0,.02,0,1.93.3,4.2.85,6.75,1.64.82.25,1.66.53,2.5.82,5.31,1.83,11.65,4.56,18.84,8.1.06.03.1.1.08.17l-.49,2.17s-.04.08-.08.11c-.02.01-.04.02-.07.02ZM178.18,189.18c.62,0,1.31.05,2.07.13,1.9.22,4.19.73,6.8,1.5.85.25,1.67.51,2.5.79,5.46,1.81,12.06,4.62,19.61,8.33l.42-1.86c-7.13-3.51-13.42-6.21-18.69-8.03-.84-.29-1.67-.56-2.49-.82-2.55-.79-4.81-1.34-6.73-1.64,0,0-.02,0-.02,0-1.04-.16-1.98-.25-2.8-.26-1.53-.02-2.22.22-2.42.31-.04.3-.19,1.24-.36,1.79.25-.08.65-.17,1.23-.21.27-.02.56-.03.87-.03Z"/>
        <path d="M344.29,310.41s-.01,0-.02,0c-.06,0-.11-.05-.13-.11,0,0-.18-.67-.95-2-.39-.67-.87-1.4-1.42-2.17-1.12-1.55-2.53-3.24-4.19-5.02-.51-.55-1.08-1.14-1.74-1.8-4.8-4.84-11.21-10.2-19.06-15.95-.07-.05-.08-.14-.04-.21l1.43-2.19s.06-.06.1-.07c.04,0,.08,0,.12.03,7.82,5.73,14.24,11.15,19.09,16.12.61.63,1.2,1.24,1.74,1.83,1.66,1.81,3.08,3.54,4.22,5.13.54.76,1.03,1.5,1.45,2.21,1.01,1.7,1.24,2.55,1.25,2.59.02.06,0,.13-.06.16-.56.4-1.51,1.14-1.66,1.39-.03.05-.08.08-.13.08ZM317.07,283.17c7.81,5.73,14.19,11.07,18.97,15.9.66.67,1.23,1.26,1.74,1.81,1.67,1.79,3.09,3.49,4.22,5.05.56.78,1.05,1.52,1.44,2.19.52.89.78,1.49.9,1.81.39-.39,1.18-.98,1.46-1.19-.09-.27-.39-1.08-1.18-2.41-.42-.7-.9-1.43-1.44-2.19-1.13-1.58-2.54-3.3-4.19-5.1-.54-.59-1.12-1.2-1.73-1.83-4.81-4.93-11.17-10.31-18.92-15.99l-1.26,1.93Z"/>
        <path d="M354.09,296.08s-.03,0-.05,0c-.07-.02-.11-.09-.11-.16,0,0,.02-.77-1.23-2.71-.42-.66-.97-1.41-1.62-2.23-1.2-1.5-2.75-3.2-4.61-5.07-.64-.64-1.25-1.23-1.87-1.82-5.33-5.07-12.69-11.11-21.87-17.96-.04-.03-.06-.07-.06-.11l-.33-3.63c0-.06.02-.12.08-.15s.12-.03.17.01c9.84,7.18,17.71,13.55,23.39,18.93.65.61,1.29,1.23,1.9,1.84,1.86,1.85,3.45,3.59,4.7,5.15.64.8,1.21,1.56,1.67,2.27,1.94,2.92,1.7,4.03,1.69,4.08,0,.04-.03.07-.06.09-.56.41-1.51,1.14-1.66,1.39-.03.05-.08.08-.13.08ZM322.97,265.93c9.16,6.84,16.51,12.88,21.85,17.94.62.59,1.24,1.19,1.88,1.83,1.87,1.87,3.43,3.58,4.64,5.09.66.82,1.21,1.58,1.64,2.25.84,1.31,1.13,2.11,1.23,2.53.42-.41,1.21-.99,1.45-1.17.01-.24-.03-1.35-1.65-3.78-.46-.69-1.01-1.45-1.65-2.24-1.25-1.55-2.82-3.27-4.68-5.12-.62-.61-1.25-1.23-1.9-1.84-5.62-5.32-13.39-11.61-23.09-18.7l.29,3.22Z"/>
        <path d="M188.45,189.23s-.03,0-.05,0c-2.55-.79-4.81-1.34-6.73-1.64-.08-.01-.13-.08-.13-.15,0-.02,0-.05.02-.07,0-.02.02-.03.04-.05h0c.23-.23,2.52-2.33,12.25-4.74,0,0,.01,0,.02,0h0c1.36-.34,2.85-.67,4.42-1,.9-.19,1.85-.37,2.83-.56.08-.02.16.04.18.12l.46,2.03s0,.08-.02.12c-.02.04-.06.06-.1.07-2.03.35-4,.75-5.87,1.2,0,0-.01,0-.02,0-1.45.34-2.89.72-4.3,1.14-.98,1.14-1.95,2.31-2.86,3.48-.03.04-.08.06-.12.06ZM182.05,187.34c1.84.3,3.97.83,6.35,1.56.9-1.15,1.85-2.31,2.82-3.43.02-.03.05-.05.08-.06,1.42-.42,2.88-.8,4.35-1.15,0,0,.01,0,.02,0h0c1.83-.44,3.76-.83,5.75-1.18l-.39-1.73c-.92.17-1.82.35-2.67.53-1.56.32-3.04.66-4.39.99,0,0-.01,0-.02,0-8.24,2.03-11.11,3.87-11.88,4.46Z"/>
        <path d="M184.68,188.11l-.13-.28s2.38-1.13,6.75-2.42l.09.3c-4.34,1.28-6.68,2.39-6.7,2.4Z"/>
        <path d="M197.4,192.42l-.07-.3c1.76-.38,3.64-.59,5.3-.77l.33-.04-.46-1.76c-1.25.12-2.36.26-3.39.44l-.31.05c-1.37.23-2.93.49-4.1,1.21l-.16-.26c1.22-.76,2.81-1.02,4.21-1.26l.31-.05c1.08-.18,2.24-.33,3.55-.45.08,0,.14.04.16.11l.54,2.06s0,.09-.02.13c-.03.04-.07.06-.11.07l-.5.06c-1.65.18-3.53.39-5.27.77Z"/>
        <path d="M366.69,244.96c-.06,0-.11-.03-.14-.09-.41-.84-1.29-1.72-2.62-2.64-.72-.5-1.57-1-2.53-1.5-1.76-.92-3.97-1.88-6.58-2.86-.8-.3-1.66-.61-2.57-.92-11.63-4-26.19-6.98-26.33-7.01-.07-.01-.12-.07-.12-.14l-.2-3.13s.02-.09.05-.13c.04-.03.08-.04.13-.03.15.03,14.56,2.98,26.18,6.96.91.31,1.79.63,2.62.93,2.66.99,4.93,1.97,6.74,2.91,1,.52,1.88,1.04,2.61,1.55,1.35.94,2.26,1.86,2.69,2.74,0,.02.01.04.02.06l.2,3.12c0,.07-.04.14-.11.16-.01,0-.03,0-.04,0ZM326.1,229.68c1.4.29,15.16,3.18,26.26,7,.91.31,1.77.62,2.57.92,2.62.98,4.85,1.95,6.62,2.87.97.51,1.83,1.02,2.56,1.52,1.08.75,1.88,1.48,2.38,2.2l-.16-2.46c-.42-.83-1.28-1.7-2.58-2.59-.72-.5-1.59-1.01-2.58-1.53-1.8-.94-4.05-1.91-6.7-2.89-.82-.31-1.7-.62-2.61-.93-10.86-3.72-24.17-6.53-25.95-6.9l.18,2.81Z"/>
        <path d="M366.45,253.33c-.06,0-.11-.03-.14-.09-.38-.78-1.18-1.61-2.37-2.47-.67-.48-1.48-.98-2.4-1.47-1.68-.91-3.8-1.85-6.32-2.81-.8-.3-1.63-.61-2.47-.9-11.75-4.13-26.92-7.23-27.07-7.27-.07-.01-.12-.07-.12-.14l-.2-3.13s.02-.09.05-.13c.04-.03.08-.04.13-.03.15.03,15.44,3.16,27.22,7.32.88.31,1.72.62,2.51.92,0,0,.02,0,.02.01,2.56.98,4.72,1.96,6.42,2.89.97.53,1.8,1.06,2.48,1.57,1.08.81,1.81,1.61,2.19,2.38,0,.02.01.04.02.06l.2,3.12c0,.07-.04.14-.11.16-.01,0-.03,0-.04,0ZM325.87,238.05c1.43.3,15.77,3.31,26.99,7.25.84.3,1.68.6,2.48.91,2.53.96,4.66,1.92,6.35,2.83.93.5,1.75,1,2.43,1.49.96.69,1.68,1.36,2.14,2.02l-.16-2.46c-.36-.71-1.06-1.47-2.08-2.24-.67-.5-1.49-1.02-2.44-1.55-1.69-.93-3.85-1.9-6.41-2.88,0,0-.02,0-.02-.01-.77-.3-1.61-.6-2.48-.91-11.04-3.89-25.15-6.89-26.98-7.27l.18,2.81Z"/>
        <path d="M354.64,200.84s-.08-.02-.11-.04c-.52-.49-1.22-.99-2.06-1.48-1.01-.58-2.26-1.16-3.73-1.74,0,0-.02,0-.02-.01-2.45-.95-5.53-1.88-9.14-2.75-1.15-.28-2.35-.55-3.54-.81,0,0-.02,0-.02,0-6.16-1.31-11.51-2.04-11.9-2.04h0s-.08,0-.11-.02c-.05-.03-.08-.1-.07-.16l.44-2.31s.03-.07.06-.09c.18-.13,5.45.69,9.56,1.49,1.21.24,2.43.49,3.65.76,3.58.79,6.72,1.64,9.36,2.52,1.38.46,2.63.93,3.7,1.41,0,0,.02,0,.02.01,1.99.87,3.49,1.78,4.46,2.68.04.04.05.09.04.14l-.44,2.31c-.01.05-.05.1-.1.12-.02,0-.03,0-.05,0ZM348.88,197.3c1.47.57,2.73,1.16,3.75,1.75.76.44,1.4.89,1.91,1.33l.38-1.95c-.94-.87-2.4-1.73-4.33-2.58,0,0-.01,0-.02-.01-1.07-.47-2.3-.93-3.66-1.39-2.62-.88-5.76-1.72-9.33-2.51-1.21-.27-2.44-.53-3.64-.76-4.85-.95-8.58-1.45-9.28-1.51l-.39,2.02c1.29.08,6.84.96,11.83,2.02,0,0,.02,0,.02,0,1.19.25,2.38.52,3.53.8,3.64.88,6.73,1.82,9.2,2.77,0,0,.02,0,.02.01Z"/>
        <path d="M350.67,192.44s-.08-.01-.11-.04c-.79-.75-1.97-1.5-3.5-2.23,0,0-.01,0-.02-.01-1.16-.55-2.54-1.1-4.1-1.64-2.84-.97-6.3-1.91-10.28-2.77,0,0-.02,0-.02,0-1.27-.28-2.58-.54-4.02-.82-4.82-.91-8.22-1.34-8.48-1.35-.04,0-.08,0-.11-.02-.05-.03-.08-.1-.07-.16l.44-2.31s.03-.07.06-.09c.19-.14,5.37.73,5.42.74,0,0,.01,0,.02,0,1.38.23,2.78.49,4.17.76,3.95.77,7.5,1.62,10.56,2.52,1.5.44,2.88.89,4.1,1.35,3.03,1.13,5.21,2.31,6.48,3.5.04.04.05.09.05.14l-.44,2.31c-.01.06-.05.1-.1.12-.02,0-.03,0-.05,0ZM347.22,189.91c1.42.68,2.55,1.38,3.35,2.09l.38-1.95c-1.24-1.14-3.37-2.28-6.31-3.38-1.22-.46-2.59-.91-4.08-1.35-3.05-.89-6.59-1.74-10.53-2.51-1.39-.27-2.8-.53-4.18-.76,0,0-.02,0-.02,0-2.71-.46-4.65-.72-5.13-.76l-.39,2.02c1.11.07,5.27.74,8.39,1.33,1.45.28,2.77.54,4.05.82,0,0,.02,0,.02,0,3.98.87,7.44,1.8,10.29,2.78,1.58.54,2.98,1.1,4.15,1.66,0,0,.01,0,.02.01Z"/>
      </g>
      <g>
        <path class="cls-4" d="M199.22,175.15v84.96c0,35.09,28.44,63.53,63.53,63.53h0c35.08,0,63.53-28.44,63.53-63.53v-84.96h-127.06Z"/>
        <path class="cls-2" d="M201.78,177.71v82.41c0,16.29,6.34,31.6,17.86,43.11,11.52,11.52,26.83,17.86,43.12,17.86s31.6-6.34,43.11-17.86c11.52-11.52,17.86-26.83,17.86-43.11v-82.41h-121.95Z"/>
        <path d="M262.75,323.8c-17.01,0-33.01-6.63-45.04-18.65-12.03-12.03-18.65-28.02-18.65-45.03v-85.12h127.38v85.12c0,17.01-6.62,33-18.65,45.03-12.03,12.03-28.02,18.65-45.03,18.65ZM199.38,175.31v84.8c0,16.93,6.59,32.84,18.56,44.81,11.97,11.97,27.88,18.56,44.81,18.56s32.84-6.59,44.81-18.56c11.97-11.97,18.56-27.88,18.56-44.81v-84.8h-126.74Z"/>
        <path d="M262.75,321.25c-16.33,0-31.68-6.36-43.23-17.91-11.55-11.55-17.91-26.9-17.91-43.23v-82.57h122.27v82.57c0,16.33-6.36,31.68-17.9,43.23-11.55,11.55-26.9,17.91-43.23,17.91ZM201.94,177.86v82.25c0,16.24,6.33,31.51,17.81,43,11.49,11.49,26.76,17.81,43,17.81s31.51-6.33,43-17.81c11.49-11.49,17.81-26.76,17.81-43v-82.25h-121.63Z"/>
        <path class="cls-4" d="M226.27,202.19v57.92c0,9.75,3.8,18.91,10.69,25.8,6.89,6.89,16.05,10.69,25.8,10.69s18.91-3.79,25.8-10.69c6.89-6.89,10.69-16.05,10.69-25.8v-57.92h-72.97Z"/>
        <path d="M262.75,296.76c-9.79,0-18.99-3.81-25.91-10.73-6.92-6.92-10.73-16.12-10.73-25.91v-58.08h73.29v58.08c0,9.79-3.81,18.99-10.73,25.91-6.92,6.92-16.12,10.73-25.91,10.73ZM226.43,202.35v57.76c0,9.7,3.78,18.82,10.64,25.68,6.86,6.86,15.98,10.64,25.69,10.64s18.82-3.78,25.68-10.64c6.86-6.86,10.64-15.98,10.64-25.68v-57.76h-72.65Z"/>
        <g>
          <path class="cls-3" d="M254.72,211.24v12.76c0,2.15.84,4.16,2.35,5.68,1.52,1.52,3.54,2.35,5.68,2.35s4.16-.84,5.68-2.35c1.52-1.52,2.35-3.54,2.35-5.68v-12.76h-16.07ZM258.93,225.89c-.93,0-1.69-.76-1.69-1.69s.76-1.69,1.69-1.69,1.69.76,1.69,1.69-.76,1.69-1.69,1.69ZM258.93,218.25c-.93,0-1.69-.76-1.69-1.69s.76-1.69,1.69-1.69,1.69.76,1.69,1.69-.76,1.69-1.69,1.69ZM262.75,222.07c-.93,0-1.69-.76-1.69-1.69s.76-1.69,1.69-1.69,1.69.76,1.69,1.69-.76,1.69-1.69,1.69ZM266.57,225.89c-.93,0-1.69-.76-1.69-1.69s.76-1.69,1.69-1.69,1.69.76,1.69,1.69-.76,1.69-1.69,1.69ZM266.57,218.25c-.93,0-1.69-.76-1.69-1.69s.76-1.69,1.69-1.69,1.69.76,1.69,1.69-.76,1.69-1.69,1.69Z"/>
          <path class="cls-3" d="M254.72,266.76v12.76c0,2.15.84,4.16,2.35,5.68s3.54,2.35,5.68,2.35,4.16-.84,5.68-2.35c1.52-1.52,2.35-3.54,2.35-5.68v-12.76h-16.07ZM258.93,281.41c-.93,0-1.69-.76-1.69-1.69s.76-1.69,1.69-1.69,1.69.76,1.69,1.69-.76,1.69-1.69,1.69ZM258.93,273.77c-.93,0-1.69-.76-1.69-1.69s.76-1.69,1.69-1.69,1.69.76,1.69,1.69-.76,1.69-1.69,1.69ZM262.75,277.59c-.93,0-1.69-.76-1.69-1.69s.76-1.69,1.69-1.69,1.69.76,1.69,1.69-.76,1.69-1.69,1.69ZM266.57,281.41c-.93,0-1.69-.76-1.69-1.69s.76-1.69,1.69-1.69,1.69.76,1.69,1.69-.76,1.69-1.69,1.69ZM266.57,273.77c-.93,0-1.69-.76-1.69-1.69s.76-1.69,1.69-1.69,1.69.76,1.69,1.69-.76,1.69-1.69,1.69Z"/>
          <path class="cls-3" d="M254.72,239v12.76c0,2.15.84,4.16,2.35,5.68,1.52,1.52,3.54,2.35,5.68,2.35s4.16-.84,5.68-2.35c1.52-1.52,2.35-3.54,2.35-5.68v-12.76h-16.07ZM258.93,253.65c-.93,0-1.69-.76-1.69-1.69s.76-1.69,1.69-1.69,1.69.76,1.69,1.69-.76,1.69-1.69,1.69ZM258.93,246.01c-.93,0-1.69-.76-1.69-1.69s.76-1.69,1.69-1.69,1.69.76,1.69,1.69-.76,1.69-1.69,1.69ZM262.75,249.83c-.93,0-1.69-.76-1.69-1.69s.76-1.69,1.69-1.69,1.69.76,1.69,1.69-.76,1.69-1.69,1.69ZM266.57,253.65c-.93,0-1.69-.76-1.69-1.69s.76-1.69,1.69-1.69,1.69.76,1.69,1.69-.76,1.69-1.69,1.69ZM266.57,246.01c-.93,0-1.69-.76-1.69-1.69s.76-1.69,1.69-1.69,1.69.76,1.69,1.69-.76,1.69-1.69,1.69Z"/>
          <path class="cls-3" d="M233.11,239v12.76c0,2.15.84,4.16,2.35,5.68,1.52,1.52,3.54,2.35,5.68,2.35s4.17-.84,5.68-2.35c1.52-1.52,2.35-3.54,2.35-5.68v-12.76h-16.07ZM237.33,253.65c-.93,0-1.69-.76-1.69-1.69s.76-1.69,1.69-1.69,1.69.76,1.69,1.69-.76,1.69-1.69,1.69ZM237.33,246.01c-.93,0-1.69-.76-1.69-1.69s.76-1.69,1.69-1.69,1.69.76,1.69,1.69-.76,1.69-1.69,1.69ZM241.15,249.83c-.93,0-1.69-.76-1.69-1.69s.76-1.69,1.69-1.69,1.69.76,1.69,1.69-.76,1.69-1.69,1.69ZM244.97,253.65c-.93,0-1.69-.76-1.69-1.69s.76-1.69,1.69-1.69,1.69.76,1.69,1.69-.76,1.69-1.69,1.69ZM244.97,246.01c-.93,0-1.69-.76-1.69-1.69s.76-1.69,1.69-1.69,1.69.76,1.69,1.69-.76,1.69-1.69,1.69Z"/>
          <path class="cls-3" d="M276.32,239v12.76c0,2.15.84,4.16,2.35,5.68,1.52,1.52,3.54,2.35,5.68,2.35s4.17-.84,5.68-2.35,2.35-3.54,2.35-5.68v-12.76h-16.07ZM280.54,253.65c-.93,0-1.69-.76-1.69-1.69s.76-1.69,1.69-1.69,1.69.76,1.69,1.69-.76,1.69-1.69,1.69ZM280.54,246.01c-.93,0-1.69-.76-1.69-1.69s.76-1.69,1.69-1.69,1.69.76,1.69,1.69-.76,1.69-1.69,1.69ZM284.36,249.83c-.93,0-1.69-.76-1.69-1.69s.76-1.69,1.69-1.69,1.69.76,1.69,1.69-.76,1.69-1.69,1.69ZM288.18,253.65c-.93,0-1.69-.76-1.69-1.69s.76-1.69,1.69-1.69,1.69.76,1.69,1.69-.76,1.69-1.69,1.69ZM288.18,246.01c-.93,0-1.69-.76-1.69-1.69s.76-1.69,1.69-1.69,1.69.76,1.69,1.69-.76,1.69-1.69,1.69Z"/>
        </g>
        <g>
          <g>
            <rect class="cls-5" x="211.77" y="182.26" width="4.5" height="7.42"/>
            <rect class="cls-5" x="204.57" y="189.68" width="18.92" height="1.16"/>
            <rect class="cls-5" x="204.03" y="199.05" width="19.98" height="1.16"/>
            <rect class="cls-5" x="205.06" y="190.84" width="17.93" height="1.62"/>
            <polygon class="cls-5" points="222.99 199.05 205.06 199.05 206.13 192.46 221.93 192.46 222.99 199.05"/>
            <path class="cls-5" d="M218.76,199.05h-9.47v-.05c.04-1.64.88-4.81,3.8-6.24l.62-.3h.63l.62.3c2.92,1.43,3.76,4.6,3.8,6.24v.05Z"/>
            <path class="cls-5" d="M216.63,199.05h-5.2s.07-3.13,2.6-4.38c2.53,1.24,2.6,4.38,2.6,4.38Z"/>
            <polygon class="cls-5" points="216.15 179.71 216.15 180.75 214.57 180.75 214.57 179.71 213.48 179.71 213.48 180.75 211.9 180.75 211.9 179.71 210.68 179.71 210.68 182.26 217.37 182.26 217.37 179.71 216.15 179.71"/>
            <rect class="cls-5" x="213.53" y="184.25" width=".98" height="2.39"/>
            <rect class="cls-5" x="217.37" y="185.78" width="4.5" height="3.9"/>
            <polygon class="cls-5" points="221.75 183.23 221.75 184.27 220.17 184.27 220.17 183.23 219.08 183.23 219.08 184.27 217.5 184.27 217.5 183.23 216.28 183.23 216.28 185.78 222.97 185.78 222.97 183.23 221.75 183.23"/>
            <rect class="cls-5" x="219.13" y="187.09" width=".98" height="1.27"/>
            <rect class="cls-5" x="206.17" y="185.78" width="4.5" height="3.9"/>
            <polygon class="cls-5" points="206.3 183.23 206.3 184.27 207.88 184.27 207.88 183.23 208.97 183.23 208.97 184.27 210.55 184.27 210.55 183.23 211.77 183.23 211.77 185.78 205.08 185.78 205.08 183.23 206.3 183.23"/>
            <rect class="cls-5" x="207.93" y="187.09" width=".98" height="1.27"/>
          </g>
          <g>
            <path d="M216.43,189.84h-4.82v-7.74h4.82v7.74ZM211.93,189.52h4.18v-7.1h-4.18v7.1Z"/>
            <path d="M223.64,191h-19.24v-1.48h19.24v1.48ZM204.72,190.68h18.6v-.84h-18.6v.84Z"/>
            <path d="M224.17,200.37h-20.3v-1.48h20.3v1.48ZM204.19,200.05h19.66v-.84h-19.66v.84Z"/>
            <path d="M223.15,192.62h-18.25v-1.94h18.25v1.94ZM205.22,192.3h17.61v-1.3h-17.61v1.3Z"/>
            <path d="M223.18,199.21h-18.31l1.12-6.91h16.07l1.12,6.91ZM205.25,198.89h17.55l-1.01-6.28h-15.53l-1.01,6.28Z"/>
            <path d="M218.93,199.21h-9.8v-.22c.05-1.68.91-4.91,3.89-6.38l.66-.32h.71l.65.32c2.98,1.46,3.85,4.7,3.88,6.38v.21ZM209.46,198.89h9.14c-.07-1.64-.92-4.63-3.7-5.99l-.59-.29h-.56l-.59.29c-2.78,1.37-3.63,4.35-3.7,5.99Z"/>
            <path d="M216.79,199.21h-5.53v-.16s.11-3.25,2.7-4.52l.07-.03.07.03c2.59,1.27,2.69,4.49,2.69,4.52v.16ZM211.59,198.89h4.86c-.06-.64-.41-3-2.43-4.04-2.03,1.05-2.38,3.4-2.43,4.04Z"/>
            <path d="M217.53,182.42h-7.02v-2.87h1.54v1.04h1.26v-1.04h1.41v1.04h1.26v-1.04h1.54v2.87ZM210.84,182.1h6.38v-2.23h-.9v1.04h-1.9v-1.04h-.77v1.04h-1.9v-1.04h-.9v2.23Z"/>
            <rect x="213.53" y="184.25" width=".98" height="2.39"/>
            <path d="M222.03,189.84h-4.82v-4.22h4.82v4.22ZM217.53,189.52h4.18v-3.58h-4.18v3.58Z"/>
            <path d="M223.13,185.94h-7.02v-2.87h1.54v1.04h1.26v-1.04h1.41v1.04h1.26v-1.04h1.54v2.87ZM216.43,185.62h6.38v-2.23h-.9v1.04h-1.9v-1.04h-.77v1.04h-1.9v-1.04h-.9v2.23Z"/>
            <rect x="219.13" y="187.09" width=".98" height="1.27"/>
            <path d="M210.84,189.84h-4.82v-4.22h4.82v4.22ZM206.33,189.52h4.18v-3.58h-4.18v3.58Z"/>
            <path d="M211.93,185.94h-7.02v-2.87h1.54v1.04h1.26v-1.04h1.41v1.04h1.26v-1.04h1.54v2.87ZM205.24,185.62h6.38v-2.23h-.9v1.04h-1.9v-1.04h-.77v1.04h-1.9v-1.04h-.9v2.23Z"/>
            <rect x="207.93" y="187.09" width=".98" height="1.27"/>
          </g>
        </g>
        <g>
          <g>
            <rect class="cls-5" x="211.77" y="231.69" width="4.5" height="7.42"/>
            <rect class="cls-5" x="204.57" y="239.11" width="18.92" height="1.16"/>
            <rect class="cls-5" x="204.03" y="248.48" width="19.98" height="1.16"/>
            <rect class="cls-5" x="205.06" y="240.27" width="17.93" height="1.62"/>
            <polygon class="cls-5" points="222.99 248.48 205.06 248.48 206.13 241.89 221.93 241.89 222.99 248.48"/>
            <path class="cls-5" d="M218.76,248.48h-9.47v-.05c.04-1.64.88-4.81,3.8-6.24l.62-.3h.63l.62.3c2.92,1.43,3.76,4.6,3.8,6.24v.05Z"/>
            <path class="cls-5" d="M216.63,248.48h-5.2s.07-3.14,2.6-4.38c2.53,1.24,2.6,4.38,2.6,4.38Z"/>
            <polygon class="cls-5" points="216.15 229.14 216.15 230.18 214.57 230.18 214.57 229.14 213.48 229.14 213.48 230.18 211.9 230.18 211.9 229.14 210.68 229.14 210.68 231.69 217.37 231.69 217.37 229.14 216.15 229.14"/>
            <rect class="cls-5" x="213.53" y="233.68" width=".98" height="2.39"/>
            <rect class="cls-5" x="217.37" y="235.21" width="4.5" height="3.9"/>
            <polygon class="cls-5" points="221.75 232.66 221.75 233.69 220.17 233.69 220.17 232.66 219.08 232.66 219.08 233.69 217.5 233.69 217.5 232.66 216.28 232.66 216.28 235.21 222.97 235.21 222.97 232.66 221.75 232.66"/>
            <rect class="cls-5" x="219.13" y="236.52" width=".98" height="1.27"/>
            <rect class="cls-5" x="206.17" y="235.21" width="4.5" height="3.9"/>
            <polygon class="cls-5" points="206.3 232.66 206.3 233.69 207.88 233.69 207.88 232.66 208.97 232.66 208.97 233.69 210.55 233.69 210.55 232.66 211.77 232.66 211.77 235.21 205.08 235.21 205.08 232.66 206.3 232.66"/>
            <rect class="cls-5" x="207.93" y="236.52" width=".98" height="1.27"/>
          </g>
          <g>
            <path d="M216.43,239.27h-4.82v-7.74h4.82v7.74ZM211.93,238.95h4.18v-7.1h-4.18v7.1Z"/>
            <path d="M223.64,240.43h-19.24v-1.48h19.24v1.48ZM204.72,240.11h18.6v-.84h-18.6v.84Z"/>
            <path d="M224.17,249.8h-20.3v-1.48h20.3v1.48ZM204.19,249.48h19.66v-.84h-19.66v.84Z"/>
            <path d="M223.15,242.05h-18.25v-1.93h18.25v1.93ZM205.22,241.73h17.61v-1.3h-17.61v1.3Z"/>
            <path d="M223.18,248.64h-18.31l1.12-6.91h16.07l1.12,6.91ZM205.25,248.32h17.55l-1.01-6.28h-15.53l-1.01,6.28Z"/>
            <path d="M218.93,248.64h-9.8v-.22c.05-1.68.91-4.91,3.89-6.38l.66-.32h.71l.65.32c2.98,1.46,3.85,4.7,3.88,6.38v.21ZM209.46,248.32h9.14c-.07-1.64-.92-4.62-3.7-5.99l-.59-.29h-.56l-.59.29c-2.78,1.37-3.63,4.35-3.7,5.99Z"/>
            <path d="M216.79,248.64h-5.53v-.16s.11-3.25,2.7-4.52l.07-.03.07.03c2.59,1.27,2.69,4.49,2.69,4.52v.16ZM211.59,248.32h4.86c-.06-.64-.41-3-2.43-4.04-2.03,1.05-2.38,3.4-2.43,4.04Z"/>
            <path d="M217.53,231.85h-7.02v-2.87h1.54v1.04h1.26v-1.04h1.41v1.04h1.26v-1.04h1.54v2.87ZM210.84,231.53h6.38v-2.23h-.9v1.04h-1.9v-1.04h-.77v1.04h-1.9v-1.04h-.9v2.23Z"/>
            <rect x="213.53" y="233.68" width=".98" height="2.39"/>
            <path d="M222.03,239.27h-4.82v-4.22h4.82v4.22ZM217.53,238.95h4.18v-3.58h-4.18v3.58Z"/>
            <path d="M223.13,235.37h-7.02v-2.87h1.54v1.04h1.26v-1.04h1.41v1.04h1.26v-1.04h1.54v2.87ZM216.43,235.05h6.38v-2.23h-.9v1.04h-1.9v-1.04h-.77v1.04h-1.9v-1.04h-.9v2.23Z"/>
            <rect x="219.13" y="236.52" width=".98" height="1.27"/>
            <path d="M210.84,239.27h-4.82v-4.22h4.82v4.22ZM206.33,238.95h4.18v-3.58h-4.18v3.58Z"/>
            <path d="M211.93,235.37h-7.02v-2.87h1.54v1.04h1.26v-1.04h1.41v1.04h1.26v-1.04h1.54v2.87ZM205.24,235.05h6.38v-2.23h-.9v1.04h-1.9v-1.04h-.77v1.04h-1.9v-1.04h-.9v2.23Z"/>
            <rect x="207.93" y="236.52" width=".98" height="1.27"/>
          </g>
        </g>
        <g>
          <g>
            <rect class="cls-5" x="220.89" y="284.37" width="4.5" height="7.42" transform="translate(-137.93 239.04) rotate(-44.51)"/>
            <rect class="cls-5" x="216.69" y="290.55" width="18.92" height="1.16" transform="translate(-139.22 242.05) rotate(-44.51)"/>
            <rect class="cls-5" x="222.73" y="297.24" width="19.98" height="1.16" transform="translate(-142.01 248.5) rotate(-44.5)"/>
            <rect class="cls-5" x="218.16" y="291.32" width="17.93" height="1.62" transform="translate(-139.65 243.12) rotate(-44.52)"/>
            <polygon class="cls-5" points="238.7 291.12 225.92 303.69 222.05 298.24 233.32 287.16 238.7 291.12"/>
            <path class="cls-5" d="M235.69,294.09l-6.75,6.64-.03-.04c-1.13-1.2-2.75-4.05-1.67-7.11l.23-.65.45-.45.66-.22c3.08-1.03,5.9.65,7.08,1.79l.04.03Z"/>
            <path class="cls-5" d="M234.17,295.58l-3.71,3.65s-2.15-2.29-1.21-4.95c2.68-.89,4.93,1.3,4.93,1.3Z"/>
            <polygon class="cls-5" points="220.27 282.12 221 282.86 219.87 283.97 219.14 283.23 218.36 283.99 219.09 284.73 217.96 285.84 217.24 285.1 216.36 285.96 218.15 287.78 222.93 283.08 221.14 281.26 220.27 282.12"/>
            <rect class="cls-5" x="222.28" y="286.5" width=".98" height="2.39" transform="translate(-137.74 238.4) rotate(-44.46)"/>
            <rect class="cls-5" x="226.12" y="283.45" width="4.5" height="3.9" transform="translate(-134.57 241.98) rotate(-44.51)"/>
            <polygon class="cls-5" points="226.73 280.7 227.46 281.44 226.33 282.55 225.6 281.81 224.82 282.58 225.55 283.32 224.42 284.43 223.69 283.68 222.82 284.54 224.61 286.36 229.39 281.66 227.6 279.85 226.73 280.7"/>
            <rect class="cls-5" x="227.88" y="284.77" width=".98" height="1.27" transform="translate(-134.59 242.17) rotate(-44.54)"/>
            <rect class="cls-5" x="218.13" y="291.3" width="4.5" height="3.9" transform="translate(-142.36 238.59) rotate(-44.51)"/>
            <polygon class="cls-5" points="215.71 291.54 216.43 292.28 217.56 291.17 216.84 290.43 217.61 289.66 218.34 290.4 219.47 289.29 218.74 288.55 219.61 287.7 221.4 289.51 216.62 294.21 214.84 292.39 215.71 291.54"/>
            <rect class="cls-5" x="219.89" y="292.62" width=".98" height="1.27" transform="translate(-142.34 238.48) rotate(-44.49)"/>
          </g>
          <g>
            <path d="M227.57,289.15l-3.44,3.38-5.43-5.52,3.44-3.38,5.43,5.52ZM224.14,292.07l2.98-2.93-4.98-5.06-2.98,2.93,4.98,5.06Z"/>
            <path d="M233.53,284.92l-13.72,13.49-1.04-1.06,13.72-13.49,1.04,1.06ZM219.81,297.95l13.26-13.04-.59-.6-13.26,13.04.59.6Z"/>
            <path d="M240.47,291.23l-14.48,14.23-1.04-1.06,14.48-14.23,1.04,1.06ZM226,305.01l14.02-13.78-.59-.6-14.02,13.78.59.6Z"/>
            <path d="M234.31,286.42l-13.01,12.79-1.36-1.38,13.01-12.79,1.36,1.38ZM221.3,298.76l12.56-12.34-.91-.93-12.56,12.34.91.93Z"/>
            <path d="M238.95,291.1l-13.05,12.83-4.05-5.71,11.46-11.27,5.64,4.15ZM225.94,303.44l12.52-12.31-5.12-3.77-11.07,10.89,3.68,5.19Z"/>
            <path d="M235.92,294.08l-6.99,6.87-.14-.16c-1.15-1.22-2.8-4.13-1.7-7.27l.24-.69.51-.5.69-.23c3.15-1.05,6.04.66,7.24,1.83l.16.14ZM228.94,300.49l6.52-6.4c-1.2-1.12-3.9-2.65-6.84-1.67l-.62.2-.4.39-.22.62c-1.03,2.92.46,5.65,1.56,6.86Z"/>
            <path d="M234.4,295.58l-3.95,3.88-.11-.12s-2.2-2.39-1.25-5.11l.03-.07.07-.03c2.74-.91,5.06,1.31,5.09,1.34l.12.11ZM230.47,298.99l3.47-3.41c-.49-.42-2.39-1.85-4.57-1.18-.71,2.17.69,4.09,1.1,4.59Z"/>
            <path d="M223.15,283.08l-5.01,4.92-2.01-2.05,1.1-1.08.73.74.9-.89-.73-.74,1-.99.73.74.9-.89-.73-.74,1.1-1.08,2.01,2.05ZM218.15,287.55l4.55-4.47-1.56-1.59-.64.63.73.74-1.36,1.33-.73-.74-.55.54.73.74-1.36,1.33-.73-.74-.64.63,1.56,1.59Z"/>
            <rect x="222.28" y="286.5" width=".98" height="2.39" transform="translate(-137.74 238.4) rotate(-44.46)"/>
            <path d="M231.57,285.22l-3.44,3.38-2.96-3.01,3.44-3.38,2.96,3.01ZM228.13,288.15l2.98-2.93-2.51-2.56-2.98,2.93,2.51,2.56Z"/>
            <path d="M229.61,281.67l-5,4.92-2.01-2.05,1.1-1.08.73.74.9-.89-.73-.74,1.01-.99.73.74.9-.89-.73-.74,1.1-1.08,2.01,2.05ZM224.61,286.13l4.55-4.47-1.56-1.59-.64.63.73.74-1.36,1.33-.73-.74-.55.54.73.74-1.36,1.33-.73-.74-.64.63,1.56,1.59Z"/>
            <rect x="227.88" y="284.77" width=".98" height="1.27" transform="translate(-134.59 242.17) rotate(-44.54)"/>
            <path d="M223.58,293.07l-3.44,3.38-2.96-3.01,3.44-3.38,2.96,3.01ZM220.15,296l2.98-2.93-2.51-2.56-2.98,2.93,2.51,2.56Z"/>
            <path d="M221.63,289.52l-5,4.92-2.01-2.05,1.1-1.08.73.74.9-.89-.73-.74,1.01-.99.73.74.9-.89-.73-.74,1.1-1.08,2.01,2.05ZM216.63,293.99l4.55-4.47-1.56-1.59-.64.63.73.74-1.36,1.33-.73-.74-.55.54.73.74-1.36,1.33-.73-.74-.64.63,1.56,1.59Z"/>
            <rect x="219.89" y="292.62" width=".98" height="1.27" transform="translate(-142.34 238.48) rotate(-44.49)"/>
          </g>
        </g>
        <g>
          <g>
            <rect class="cls-5" x="298.66" y="285.82" width="7.42" height="4.5" transform="translate(-115.04 301.7) rotate(-45.48)"/>
            <rect class="cls-5" x="298.78" y="281.68" width="1.16" height="18.92" transform="translate(-118.12 300.53) rotate(-45.49)"/>
            <rect class="cls-5" x="292.21" y="287.83" width="1.16" height="19.98" transform="translate(-124.85 297.76) rotate(-45.48)"/>
            <rect class="cls-5" x="297.58" y="283.16" width="1.62" height="17.93" transform="translate(-119.12 300.13) rotate(-45.49)"/>
            <polygon class="cls-5" points="286.8 291.12 299.59 303.69 303.45 298.24 292.18 287.16 286.8 291.12"/>
            <path class="cls-5" d="M289.82,294.09l6.75,6.64.03-.04c1.13-1.2,2.75-4.05,1.67-7.11l-.23-.65-.45-.45-.66-.22c-3.08-1.03-5.9.65-7.08,1.79l-.04.03Z"/>
            <path class="cls-5" d="M291.34,295.58l3.71,3.65s2.15-2.29,1.21-4.95c-2.68-.89-4.92,1.3-4.92,1.3Z"/>
            <polygon class="cls-5" points="305.24 282.12 304.51 282.86 305.64 283.97 306.36 283.23 307.14 283.99 306.41 284.73 307.54 285.84 308.27 285.1 309.14 285.96 307.35 287.78 302.58 283.08 304.36 281.26 305.24 282.12"/>
            <rect class="cls-5" x="301.54" y="287.21" width="2.39" height=".98" transform="translate(-114.66 301.86) rotate(-45.48)"/>
            <rect class="cls-5" x="295.19" y="283.15" width="3.9" height="4.5" transform="translate(-114.7 297.21) rotate(-45.49)"/>
            <polygon class="cls-5" points="298.78 280.7 298.05 281.44 299.18 282.55 299.91 281.81 300.68 282.58 299.96 283.32 301.08 284.43 301.81 283.68 302.68 284.54 300.89 286.36 296.12 281.66 297.91 279.85 298.78 280.7"/>
            <rect class="cls-5" x="296.5" y="284.91" width="1.27" height=".98" transform="translate(-114.69 297.37) rotate(-45.51)"/>
            <rect class="cls-5" x="303.17" y="291" width="3.9" height="4.5" transform="translate(-117.9 305.3) rotate(-45.49)"/>
            <polygon class="cls-5" points="309.8 291.54 309.07 292.28 307.94 291.17 308.67 290.43 307.89 289.66 307.16 290.4 306.04 289.29 306.76 288.55 305.89 287.7 304.11 289.51 308.88 294.21 310.67 292.39 309.8 291.54"/>
            <rect class="cls-5" x="304.49" y="292.76" width="1.27" height=".98" transform="translate(-117.9 305.62) rotate(-45.54)"/>
          </g>
          <g>
            <path d="M303.36,283.63l3.44,3.38-5.43,5.52-3.44-3.38,5.43-5.52ZM306.34,287.01l-2.98-2.93-4.98,5.06,2.98,2.93,4.98-5.06Z"/>
            <path d="M293.02,283.86l13.72,13.49-1.04,1.06-13.72-13.49,1.04-1.06ZM306.28,297.35l-13.26-13.04-.59.6,13.26,13.04.59-.6Z"/>
            <path d="M286.07,290.18l14.48,14.23-1.04,1.06-14.48-14.23,1.04-1.06ZM300.09,304.41l-14.02-13.78-.59.6,14.02,13.78.59-.6Z"/>
            <path d="M292.55,285.04l13.01,12.79-1.36,1.38-13.01-12.79,1.36-1.38ZM305.12,297.83l-12.56-12.34-.91.93,12.56,12.34.91-.93Z"/>
            <path d="M292.2,286.95l11.46,11.27-4.05,5.71-13.05-12.83,5.64-4.15ZM303.24,298.26l-11.07-10.89-5.12,3.77,12.52,12.31,3.68-5.19Z"/>
            <path d="M289.74,293.94c1.21-1.17,4.09-2.88,7.24-1.83l.69.23.5.5.24.69c1.1,3.14-.55,6.05-1.7,7.27l-.15.16-6.99-6.87.15-.14ZM298.12,293.63l-.22-.62-.4-.39-.62-.2c-2.94-.98-5.63.56-6.84,1.67l6.52,6.4c1.1-1.22,2.59-3.94,1.56-6.86Z"/>
            <path d="M291.23,295.46s2.35-2.24,5.09-1.34l.07.03.03.07c.96,2.72-1.23,5.09-1.25,5.11l-.11.12-3.94-3.88.12-.11ZM296.14,294.41c-2.18-.68-4.08.76-4.57,1.18l3.47,3.41c.41-.5,1.81-2.42,1.1-4.59Z"/>
            <path d="M304.36,281.04l1.1,1.08-.73.74.9.89.73-.74,1.01.99-.73.74.9.89.73-.74,1.1,1.08-2.01,2.05-5-4.92,2.01-2.05ZM308.92,285.96l-.64-.63-.73.74-1.36-1.33.73-.74-.55-.54-.73.74-1.36-1.33.73-.74-.64-.63-1.56,1.59,4.55,4.47,1.56-1.59Z"/>
            <rect x="301.54" y="287.21" width="2.39" height=".98" transform="translate(-114.66 301.86) rotate(-45.48)"/>
            <path d="M296.9,282.21l3.44,3.38-2.96,3.01-3.44-3.38,2.96-3.01ZM299.89,285.59l-2.98-2.93-2.51,2.56,2.98,2.93,2.51-2.56Z"/>
            <path d="M297.9,279.62l1.1,1.08-.73.74.9.89.73-.74,1,.99-.73.74.9.89.73-.74,1.1,1.08-2.01,2.05-5-4.92,2.01-2.05ZM302.46,284.54l-.64-.63-.73.74-1.36-1.33.73-.74-.55-.54-.73.74-1.36-1.33.73-.74-.64-.63-1.56,1.59,4.55,4.47,1.56-1.59Z"/>
            <rect x="296.5" y="284.91" width="1.27" height=".98" transform="translate(-114.69 297.37) rotate(-45.51)"/>
            <path d="M304.89,290.06l3.44,3.38-2.96,3.01-3.44-3.38,2.96-3.01ZM307.87,293.44l-2.98-2.93-2.51,2.56,2.98,2.93,2.51-2.56Z"/>
            <path d="M305.89,287.47l1.1,1.08-.73.74.9.89.73-.74,1.01.99-.73.74.9.89.73-.74,1.1,1.08-2.01,2.05-5-4.92,2.01-2.05ZM310.44,292.4l-.64-.63-.73.74-1.36-1.33.73-.74-.55-.54-.73.74-1.36-1.33.73-.74-.64-.63-1.56,1.59,4.55,4.47,1.56-1.59Z"/>
            <rect x="304.49" y="292.76" width="1.27" height=".98" transform="translate(-117.9 305.62) rotate(-45.54)"/>
          </g>
        </g>
        <g>
          <g>
            <rect class="cls-5" x="309.23" y="182.26" width="4.5" height="7.42"/>
            <rect class="cls-5" x="302.02" y="189.68" width="18.92" height="1.16"/>
            <rect class="cls-5" x="301.49" y="199.05" width="19.98" height="1.16"/>
            <rect class="cls-5" x="302.52" y="190.84" width="17.93" height="1.62"/>
            <polygon class="cls-5" points="302.52 199.05 320.45 199.05 319.38 192.46 303.58 192.46 302.52 199.05"/>
            <path class="cls-5" d="M306.75,199.05h9.47v-.05c-.04-1.64-.88-4.81-3.8-6.24l-.62-.3h-.63l-.62.3c-2.92,1.43-3.76,4.6-3.79,6.24v.05Z"/>
            <path class="cls-5" d="M308.88,199.05h5.2s-.07-3.13-2.6-4.38c-2.53,1.24-2.6,4.38-2.6,4.38Z"/>
            <polygon class="cls-5" points="309.35 179.71 309.35 180.75 310.94 180.75 310.94 179.71 312.03 179.71 312.03 180.75 313.61 180.75 313.61 179.71 314.83 179.71 314.83 182.26 308.13 182.26 308.13 179.71 309.35 179.71"/>
            <rect class="cls-5" x="310.99" y="184.25" width=".99" height="2.39"/>
            <rect class="cls-5" x="303.63" y="185.78" width="4.5" height="3.9"/>
            <polygon class="cls-5" points="303.75 183.23 303.75 184.27 305.34 184.27 305.34 183.23 306.43 183.23 306.43 184.27 308.01 184.27 308.01 183.23 309.23 183.23 309.23 185.78 302.53 185.78 302.53 183.23 303.75 183.23"/>
            <rect class="cls-5" x="305.39" y="187.09" width=".98" height="1.27"/>
            <rect class="cls-5" x="314.83" y="185.78" width="4.5" height="3.9"/>
            <polygon class="cls-5" points="319.21 183.23 319.21 184.27 317.63 184.27 317.63 183.23 316.54 183.23 316.54 184.27 314.95 184.27 314.95 183.23 313.73 183.23 313.73 185.78 320.43 185.78 320.43 183.23 319.21 183.23"/>
            <rect class="cls-5" x="316.59" y="187.09" width=".99" height="1.27"/>
          </g>
          <g>
            <path d="M309.07,182.1h4.82v7.74h-4.82v-7.74ZM313.57,182.42h-4.18v7.1h4.18v-7.1Z"/>
            <path d="M301.86,189.52h19.24v1.48h-19.24v-1.48ZM320.78,189.84h-18.6v.84h18.6v-.84Z"/>
            <path d="M301.33,198.89h20.3v1.48h-20.3v-1.48ZM321.31,199.21h-19.66v.84h19.66v-.84Z"/>
            <path d="M302.36,190.68h18.25v1.94h-18.25v-1.94ZM320.29,191h-17.61v1.3h17.61v-1.3Z"/>
            <path d="M303.44,192.3h16.07l1.12,6.91h-18.31l1.12-6.91ZM319.24,192.62h-15.53l-1.01,6.28h17.55l-1.01-6.28Z"/>
            <path d="M306.59,199c.04-1.68.9-4.92,3.88-6.38l.65-.32h.71l.66.32c2.99,1.47,3.85,4.7,3.88,6.38v.22s-9.79,0-9.79,0v-.21ZM312.35,192.91l-.59-.29h-.56l-.59.29c-2.78,1.36-3.63,4.35-3.7,5.99h9.14c-.07-1.64-.92-4.62-3.7-5.99Z"/>
            <path d="M308.72,199.05s.1-3.25,2.69-4.52l.07-.03.07.03c2.59,1.27,2.69,4.49,2.69,4.52v.16s-5.53,0-5.53,0v-.16ZM311.48,194.85c-2.03,1.04-2.37,3.4-2.43,4.04h4.86c-.06-.64-.4-2.99-2.43-4.04Z"/>
            <path d="M307.97,179.55h1.54v1.04h1.26v-1.04h1.41v1.04h1.26v-1.04h1.54v2.87h-7.02v-2.87ZM314.67,179.87h-.9v1.04h-1.9v-1.04h-.77v1.04h-1.9v-1.04h-.9v2.23h6.38v-2.23Z"/>
            <rect x="310.99" y="184.25" width=".99" height="2.39"/>
            <path d="M303.47,185.62h4.82v4.22h-4.82v-4.22ZM307.97,185.94h-4.18v3.58h4.18v-3.58Z"/>
            <path d="M302.37,183.07h1.54v1.04h1.26v-1.04h1.41v1.04h1.26v-1.04h1.54v2.87h-7.02v-2.87ZM309.07,183.39h-.9v1.04h-1.9v-1.04h-.77v1.04h-1.9v-1.04h-.9v2.23h6.38v-2.23Z"/>
            <rect x="305.39" y="187.09" width=".98" height="1.27"/>
            <path d="M314.67,185.62h4.82v4.22h-4.82v-4.22ZM319.17,185.94h-4.18v3.58h4.18v-3.58Z"/>
            <path d="M313.57,183.07h1.54v1.04h1.26v-1.04h1.41v1.04h1.26v-1.04h1.54v2.87h-7.02v-2.87ZM320.27,183.39h-.9v1.04h-1.9v-1.04h-.77v1.04h-1.9v-1.04h-.9v2.23h6.38v-2.23Z"/>
            <rect x="316.59" y="187.09" width=".99" height="1.27"/>
          </g>
        </g>
        <g>
          <g>
            <rect class="cls-5" x="309.23" y="231.69" width="4.5" height="7.42"/>
            <rect class="cls-5" x="302.02" y="239.11" width="18.92" height="1.16"/>
            <rect class="cls-5" x="301.49" y="248.48" width="19.98" height="1.16"/>
            <rect class="cls-5" x="302.52" y="240.27" width="17.93" height="1.62"/>
            <polygon class="cls-5" points="302.52 248.48 320.45 248.48 319.38 241.89 303.58 241.89 302.52 248.48"/>
            <path class="cls-5" d="M306.75,248.48h9.47v-.05c-.04-1.64-.88-4.81-3.8-6.24l-.62-.3h-.63l-.62.3c-2.92,1.43-3.76,4.6-3.79,6.24v.05Z"/>
            <path class="cls-5" d="M308.88,248.48h5.2s-.07-3.14-2.6-4.38c-2.53,1.24-2.6,4.38-2.6,4.38Z"/>
            <polygon class="cls-5" points="309.35 229.14 309.35 230.18 310.94 230.18 310.94 229.14 312.03 229.14 312.03 230.18 313.61 230.18 313.61 229.14 314.83 229.14 314.83 231.69 308.13 231.69 308.13 229.14 309.35 229.14"/>
            <rect class="cls-5" x="310.99" y="233.68" width=".99" height="2.39"/>
            <rect class="cls-5" x="303.63" y="235.21" width="4.5" height="3.9"/>
            <polygon class="cls-5" points="303.75 232.66 303.75 233.69 305.34 233.69 305.34 232.66 306.43 232.66 306.43 233.69 308.01 233.69 308.01 232.66 309.23 232.66 309.23 235.21 302.53 235.21 302.53 232.66 303.75 232.66"/>
            <rect class="cls-5" x="305.39" y="236.52" width=".98" height="1.27"/>
            <rect class="cls-5" x="314.83" y="235.21" width="4.5" height="3.9"/>
            <polygon class="cls-5" points="319.21 232.66 319.21 233.69 317.63 233.69 317.63 232.66 316.54 232.66 316.54 233.69 314.95 233.69 314.95 232.66 313.73 232.66 313.73 235.21 320.43 235.21 320.43 232.66 319.21 232.66"/>
            <rect class="cls-5" x="316.59" y="236.52" width=".99" height="1.27"/>
          </g>
          <g>
            <path d="M309.07,231.53h4.82v7.74h-4.82v-7.74ZM313.57,231.85h-4.18v7.1h4.18v-7.1Z"/>
            <path d="M301.86,238.95h19.24v1.48h-19.24v-1.48ZM320.78,239.27h-18.6v.84h18.6v-.84Z"/>
            <path d="M301.33,248.32h20.3v1.48h-20.3v-1.48ZM321.31,248.64h-19.66v.84h19.66v-.84Z"/>
            <path d="M302.36,240.11h18.25v1.93h-18.25v-1.93ZM320.29,240.43h-17.61v1.3h17.61v-1.3Z"/>
            <path d="M303.44,241.73h16.07l1.12,6.91h-18.31l1.12-6.91ZM319.24,242.05h-15.53l-1.01,6.28h17.55l-1.01-6.28Z"/>
            <path d="M306.59,248.43c.04-1.68.9-4.92,3.88-6.38l.65-.32h.71l.66.32c2.99,1.47,3.85,4.7,3.88,6.38v.22s-9.79,0-9.79,0v-.21ZM312.35,242.33l-.59-.29h-.56l-.59.29c-2.78,1.36-3.63,4.35-3.7,5.99h9.14c-.07-1.64-.92-4.62-3.7-5.99Z"/>
            <path d="M308.72,248.48s.1-3.25,2.69-4.52l.07-.03.07.03c2.59,1.27,2.69,4.49,2.69,4.52v.16s-5.53,0-5.53,0v-.16ZM311.48,244.28c-2.03,1.04-2.37,3.4-2.43,4.04h4.86c-.06-.64-.4-2.99-2.43-4.04Z"/>
            <path d="M307.97,228.98h1.54v1.04h1.26v-1.04h1.41v1.04h1.26v-1.04h1.54v2.87h-7.02v-2.87ZM314.67,229.3h-.9v1.04h-1.9v-1.04h-.77v1.04h-1.9v-1.04h-.9v2.23h6.38v-2.23Z"/>
            <rect x="310.99" y="233.68" width=".99" height="2.39"/>
            <path d="M303.47,235.05h4.82v4.22h-4.82v-4.22ZM307.97,235.37h-4.18v3.58h4.18v-3.58Z"/>
            <path d="M302.37,232.5h1.54v1.04h1.26v-1.04h1.41v1.04h1.26v-1.04h1.54v2.87h-7.02v-2.87ZM309.07,232.82h-.9v1.04h-1.9v-1.04h-.77v1.04h-1.9v-1.04h-.9v2.23h6.38v-2.23Z"/>
            <rect x="305.39" y="236.52" width=".98" height="1.27"/>
            <path d="M314.67,235.05h4.82v4.22h-4.82v-4.22ZM319.17,235.37h-4.18v3.58h4.18v-3.58Z"/>
            <path d="M313.57,232.5h1.54v1.04h1.26v-1.04h1.41v1.04h1.26v-1.04h1.54v2.87h-7.02v-2.87ZM320.27,232.82h-.9v1.04h-1.9v-1.04h-.77v1.04h-1.9v-1.04h-.9v2.23h6.38v-2.23Z"/>
            <rect x="316.59" y="236.52" width=".99" height="1.27"/>
          </g>
        </g>
        <g>
          <g>
            <rect class="cls-5" x="260.5" y="182.26" width="4.5" height="7.42"/>
            <rect class="cls-5" x="253.29" y="189.68" width="18.92" height="1.16"/>
            <rect class="cls-5" x="252.76" y="199.05" width="19.98" height="1.16"/>
            <rect class="cls-5" x="253.79" y="190.84" width="17.93" height="1.62"/>
            <polygon class="cls-5" points="253.79 199.05 271.72 199.05 270.65 192.46 254.85 192.46 253.79 199.05"/>
            <path class="cls-5" d="M258.02,199.05h9.47v-.05c-.04-1.64-.88-4.81-3.8-6.24l-.62-.3h-.64l-.62.3c-2.92,1.43-3.76,4.6-3.8,6.24v.05Z"/>
            <path class="cls-5" d="M260.15,199.05h5.2s-.07-3.13-2.6-4.38c-2.53,1.24-2.6,4.38-2.6,4.38Z"/>
            <polygon class="cls-5" points="260.62 179.71 260.62 180.75 262.21 180.75 262.21 179.71 263.3 179.71 263.3 180.75 264.88 180.75 264.88 179.71 266.1 179.71 266.1 182.26 259.4 182.26 259.4 179.71 260.62 179.71"/>
            <rect class="cls-5" x="262.26" y="184.25" width=".99" height="2.39"/>
            <rect class="cls-5" x="254.9" y="185.78" width="4.5" height="3.9"/>
            <polygon class="cls-5" points="255.03 183.23 255.03 184.27 256.61 184.27 256.61 183.23 257.7 183.23 257.7 184.27 259.28 184.27 259.28 183.23 260.5 183.23 260.5 185.78 253.8 185.78 253.8 183.23 255.03 183.23"/>
            <rect class="cls-5" x="256.66" y="187.09" width=".98" height="1.27"/>
            <rect class="cls-5" x="266.1" y="185.78" width="4.5" height="3.9"/>
            <polygon class="cls-5" points="270.48 183.23 270.48 184.27 268.9 184.27 268.9 183.23 267.81 183.23 267.81 184.27 266.22 184.27 266.22 183.23 265 183.23 265 185.78 271.7 185.78 271.7 183.23 270.48 183.23"/>
            <rect class="cls-5" x="267.86" y="187.09" width=".98" height="1.27"/>
          </g>
          <g>
            <path d="M260.34,182.1h4.82v7.74h-4.82v-7.74ZM264.84,182.42h-4.18v7.1h4.18v-7.1Z"/>
            <path d="M253.13,189.52h19.24v1.48h-19.24v-1.48ZM272.05,189.84h-18.6v.84h18.6v-.84Z"/>
            <path d="M252.6,198.89h20.3v1.48h-20.3v-1.48ZM272.58,199.21h-19.66v.84h19.66v-.84Z"/>
            <path d="M253.63,190.68h18.25v1.94h-18.25v-1.94ZM271.56,191h-17.61v1.3h17.61v-1.3Z"/>
            <path d="M254.72,192.3h16.07l1.12,6.91h-18.3l1.12-6.91ZM270.52,192.62h-15.53l-1.01,6.28h17.55l-1.01-6.28Z"/>
            <path d="M257.86,199c.04-1.68.9-4.92,3.88-6.38l.65-.32h.71l.66.32c2.99,1.47,3.85,4.7,3.88,6.38v.22s-9.79,0-9.79,0v-.21ZM263.62,192.91l-.59-.29h-.56l-.59.29c-2.78,1.36-3.63,4.35-3.7,5.99h9.14c-.07-1.64-.92-4.62-3.7-5.99Z"/>
            <path d="M259.99,199.05s.1-3.25,2.69-4.52l.07-.03.07.03c2.59,1.27,2.69,4.49,2.69,4.52v.16s-5.53,0-5.53,0v-.16ZM262.75,194.85c-2.03,1.04-2.37,3.4-2.43,4.04h4.86c-.06-.64-.4-2.99-2.43-4.04Z"/>
            <path d="M259.24,179.55h1.54v1.04h1.26v-1.04h1.41v1.04h1.26v-1.04h1.54v2.87h-7.02v-2.87ZM265.94,179.87h-.9v1.04h-1.9v-1.04h-.77v1.04h-1.9v-1.04h-.9v2.23h6.38v-2.23Z"/>
            <rect x="262.26" y="184.25" width=".99" height="2.39"/>
            <path d="M254.74,185.62h4.82v4.22h-4.82v-4.22ZM259.24,185.94h-4.18v3.58h4.18v-3.58Z"/>
            <path d="M253.64,183.07h1.54v1.04h1.26v-1.04h1.41v1.04h1.26v-1.04h1.54v2.87h-7.02v-2.87ZM260.34,183.39h-.9v1.04h-1.9v-1.04h-.77v1.04h-1.9v-1.04h-.9v2.23h6.38v-2.23Z"/>
            <rect x="256.66" y="187.09" width=".98" height="1.27"/>
            <path d="M265.94,185.62h4.82v4.22h-4.82v-4.22ZM270.44,185.94h-4.18v3.58h4.18v-3.58Z"/>
            <path d="M264.84,183.07h1.54v1.04h1.26v-1.04h1.41v1.04h1.26v-1.04h1.54v2.87h-7.02v-2.87ZM271.54,183.39h-.9v1.04h-1.9v-1.04h-.77v1.04h-1.9v-1.04h-.9v2.23h6.38v-2.23Z"/>
            <rect x="267.86" y="187.09" width=".98" height="1.27"/>
          </g>
        </g>
      </g>
    </g>
  </g>
</svg>