<?xml version="1.0" encoding="UTF-8"?>
<svg id="_Layer_" data-name="&amp;lt;Layer&amp;gt;" xmlns="http://www.w3.org/2000/svg" viewBox="0 0 500 500">
  <defs>
    <style>
      .cls-1 {
        fill: #7f192e;
      }

      .cls-2 {
        fill: #fff;
      }
    </style>
  </defs>
  <polygon class="cls-1" points="66.83 0 119.88 27.78 66.83 55.56 119.88 83.34 66.83 111.12 119.88 138.88 66.83 166.67 119.88 194.45 66.83 222.21 119.88 250 66.83 277.78 119.88 305.55 66.83 333.32 119.88 361.11 66.83 388.89 119.88 416.67 66.83 444.44 119.88 472.22 66.83 500 621.35 500 621.35 0 66.83 0"/>
  <polygon class="cls-2" points="-121.35 0 66.83 0 119.88 27.78 66.83 55.56 119.88 83.34 66.83 111.12 119.88 138.88 66.83 166.67 119.88 194.45 66.83 222.21 119.88 250 66.83 277.78 119.88 305.55 66.83 333.32 119.88 361.11 66.83 388.89 119.88 416.67 66.83 444.44 119.88 472.22 66.83 500 -121.35 500 -121.35 0 -121.35 0"/>
</svg>