<?xml version="1.0" encoding="UTF-8"?>
<svg id="_Layer_" data-name="&amp;lt;Layer&amp;gt;" xmlns="http://www.w3.org/2000/svg" viewBox="0 0 500 500">
  <defs>
    <style>
      .cls-1 {
        fill: #307038;
      }

      .cls-2 {
        fill: #fff;
      }
    </style>
  </defs>
  <polygon class="cls-1" points="625 500 625 0 -125 0 -125 500 625 500 625 500"/>
  <g>
    <path class="cls-2" d="M81.9,180.33c11.46,1.05,5.15-19.44,9.26-23.16.79-1.81,2.25-1.81,2.36.47,0,20.14-1.59,22.65,6.53,25.84,7.99-.53,6.15,1.21,7.58,32.89,0,0,7,2.08,7.34-16.87.34-12.47-4.52-28.72,3.93-23.74,3,2.1,4.34,4.67,8.98,3.62,7.1-2.01,11.32-5.35,11.43-10.87-1.1-14.31-4.75-18.46-4.23-19.82,1.26,2.01,3.17,1.81,3.59,0-3.36-11.46-11.55-13.83-13.66-6.49-1.17,11.1,8.76,15.95,7.28,25.08-2.05,1.05-4.08.65-5.8-1.14-11.75-8.87-1.43-3.47-6.16-18.59-.57-3.62-2.36-4.86-3.75-7.25-5.38-6.2-7.47,9.12-3.76,17.74,1.27,3.81,3.29,6.18,2.37,6.18-.79,2.19-2.38,1.63-3.55-.85-2.66-8.19-1.2-28.16-5.86-32.13-1.72-2.28-4.29-1.14-5.2,1.05-.56,14.13.5,8.64,3.78,32.42.24,9.44-5.43,4.1-5.19-.67,5.68-25.42-10.2-30.19-13.77.85-.66,4.29-3.5,7.34-5.47-.67-1.77-5.82-2.8-20.1-5.68-16.76-.81,11.14-1.83,30.88,7.65,32.87Z"/>
    <path class="cls-2" d="M99.18,188.43c-9.41.2-23.25,12.39-23.66,19.17,9.96-4.77,19.78-9.35,29.9-14.39-1.66-2.39-.09-4.58-6.24-4.78Z"/>
    <path class="cls-2" d="M151.24,225.03c4.22-14.18-.32-22.71,1.57-25.24,5.15,5.42,12.15.65,13.73-1.16.72-.94,2.34-1.52,3.52-.38,3.91,2.86,10.83,1.54,12.25-3.42.81-4.86,1.53-9.91,1.71-15.17-2.62.78-4.67,1.43-5.48,2.3-1.04,1.04-.26,4.98-1.66,5.82-.91.56-2.44.18-2.57-1.14-1.2-5.44-6.2-6.31-9.25,2.28-2.09,1.7-5.76,1.99-6.18-.38.53-5.82-1.83-6.58-6.48-3.91-6.61-51.16-5-27.25,1-34.5-.65-2.02-6.18-19.35-8.31-19.35-1.85-1.85-8.65.6-7.48,6.87,2.89,17.54,4.72,30.88,7.61,48.33.5,2.1-1.26,4.77-3.46,4.57-3.79-2.57-4.72-7.81-11.15-7.52-4.67.09-9.98,5.15-10.68,10-.71,3.91-1.02,8.1,0,11.43,3.32,4.01,7.29,3.53,10.68,2.68,2.81-1.16,5.17-4.02,6.17-3.35,4.2,7.91-23.74,29.86-31.45,15.17-2.12-4.2.17-20.02-5.12-16.4-15.75,40.61,36.84,46.33,42.72,1.72.56-1.81,2.85-3.68,3.14-.58-1.22,40.32-40.65,42.99-47.34,30.41-1.71-3.04-2.19-9.62-2.36-13.63-1.03-8.15-5.16-4.79-5.84,2.95-6.82,44.63,51.86,29.79,60.72,1.61ZM131.56,197.49c-.59.98-8.36.89-3.88-4.09,4.31-3.14,5.94,4.09,3.88,4.09Z"/>
    <path class="cls-2" d="M155.8,161.36c11.79,0,8.15,5.92,29.28-18.28-1.69-1.54-3.99-2.39-2.26-3.91,5.15-3.05,2.02-13.49-7.44-9.06-2.6,2.57-3.21,6.49-1.19,9.06,2,.85,4.01,2.95,2.65,4-6.04,6.43-21.04,16.45-21.04,18.19ZM178.24,134.39c.93-.09,2,.85,2.55,1.99,1.37,2.88-1.81,4.1-3.41.87-.76-1.7.09-2.86.86-2.86Z"/>
    <path class="cls-2" d="M80.86,238.57c-4.04,8.16-4.6-4.41-3.06-15.44.63-3.91,0-2.75-1.23-1.14-6.86,10.96-7.2,31.88,3.37,28.4,3.5-1.52,5.07-8.67,4.22-11.24-1.17-1.91-2.1-2.19-3.29-.58Z"/>
    <path class="cls-2" d="M284.74,170.9c3.12,22.16,3.7,48.74,2.54,68.44,2.74,0,7.12-4.48,8.65-11.06.93-8.44-.61-38.17-.76-41.02,7.11,11.61,14,23.87,20.77,37.39,2.48-1.14,1.97-14.97.49-16.96-4.78-10.41-14.89-27.49-22.59-38.88-.65-7.38-1.33-13.57-1.77-15.44-1.14-7.81,3.17.85,2.56-3.72-1.39-7.72-5.68-12.97-10.75-20.11-1.63-2.28-1.55-2.77-4.1.56-3.61,8.21,2.03,12.31-3.71,5.35-4.54-3.89-14.09-13.1-15.32-6.76-1.37,11.33.86,7.46,24.01,42.22ZM279.67,143.44c2.34,10.74,1.93,7.07-1.67,2.97-3.29-3.88.06-2.52,1.67-2.97Z"/>
    <path class="cls-2" d="M317.99,228.28c-6.33,6.68-15.47,14.78-25.35,18.49-1.1,1.14,2.59,6.39,7.43,6.29,16.52-1.77,26.49-24.04,26.61-30.69,1.13-52.29-7.47-67.96-5.21-72.16.53-.67,2.29,0,3.22-1.52,1.4-1.43-3.62-13.06-6.49-17.54-1.02-1.99-1.39-3.33-3.08.2-1.77,2.95-2.98,8.1-2.81,12.78,3.84,26.49,5,49.85,7.55,76.34.17,2.57-.17,6.38-1.88,7.81Z"/>
    <path class="cls-2" d="M423.05,147.75c.55-1.25,3.15.18,4.03-1.34,1.43-1.34-6.73-11.92-9.63-16.4-.98-1.99-1.34-3.33-3.02.29-12.68,20.04,31.09,114.02-13.14,116.28-5.81,3.34-5.81,7.24-1.1,7.34,8.05-.95,17.57-1.62,24.15-11.53,11.09-17.7-1.65-93.98-1.3-94.64Z"/>
    <path class="cls-2" d="M362.98,183.39c.05-3.73.38-8.59.62-11.72.46-5.28,4.47-.83,4.54-2.77-.99-12.97-8.67-9.64-9.53-5.24,0,1,2.35,6.5-2.42,4.19.06-.05-.54-5.21-6.27-1.61-.67,1.34-1.26,3.62-.43,6,2.21,4.11,9.84,11.05,13.49,11.16Z"/>
    <path class="cls-2" d="M376.66,167.77c1.14,14.81,1.48,28.43,2.65,43.26-.2,6.29-2.12,14.77-4.05,15.53-8.15,5.12-9.94-17.12-18.23-9.24-9.23,8.92-9.87,30.47-18.45,22.02-7.72-10.48-3.19-25.45-4.17-21.64-13.2,14.92,5.99,42.95,15.04,31.94,4-4.19,4.1-14.78,5.95-16.87,1.35-3.9,4.64-3.23,6.27-1.53,1.61,2.19,3.45,3.72,5.74,4.97,3.74,3.23,8.24,3.91,12.65.85,9.44-5,8.53-15.09,7.29-54.61,2.83,3.98,5.63,8.03,8.41,12.14,1.22,12.98,1.82,25.79,1.43,38.09-.34,2.39,8.48-7.34,8.39-11.9-.05-4.02.01-7.66.03-11.05,4.25,6.79,8.38,13.69,12.27,20.67,2.43-1.14,1.6-14.97.09-16.87-20.13-34.06-9.89-5.51-15.76-38.32-6.47-34.18-2.83-20.8-.56-25.15,1.35-1.43-4.55-16.78-7.61-21.16-1.04-2.01-3.05-1.34-5.43,1.9-3.87,3.51.45,10.98,5.22,46.78-15.79-23.42-7.98-9.35-11.33-28.67-.24-2.54,1.05-.3,2.38.11,1,.18,1.91-1.52,1.32-3.15-9.22-16.99-10.13-20.18-12.33-17.05-1.12,1.03-2.33,2.76-2.29,5.15,1.12,16.07,2.57,14.87.54,12.76-8-8.28,3.67-1.32-1.49-7.9-4.42-4.77-5.72-6.29-9.47-9.15-1.86-1.14-3.02-3.53-3.64.38-1.12,16.23-2.1,9.54,19.11,37.76Z"/>
    <path class="cls-2" d="M374.25,350.66c-16.5,2.03-253.37-2.66-253.44-2.66,13.12,19.18,24.33,13.06,217.05,13.06-2.85,5.05,1.26,18.55,6.84,10.67,3.7.28,24.87.56,26.86-.11,1.3,1.92,2.65,3.72,5.12,3.44,4.36-.96,7.8-1.43,7.94-10.29,0,0-.46-15.06-10.37-14.12ZM369.94,366.76c0,.22-23.52-.21-25.81-.38-1.4-1.74-.49-4.48.41-4.48,8.67.38,16.87.09,25.63.47,1.39,1.25.67,3.91-.23,4.39Z"/>
    <path class="cls-2" d="M198.78,171.47c8.14,3.21,8.92-24.9,12.32-18.1-.19,12.77.91,15.64,4.17,19.44,7.32,5.62,13.37.76,13.79.18,5.12-4.06,6.2-8.65,10.45-5.82,1.69,1.54,1.48,4.29,5.19,6.11,3.09,1.34,9.77.38,11.34-2.38,2.09-3.53,2.54-4.77,3.5-6.11,1.52-2.01,4.02-1.14,4.02-.47-.22,1.14-1.64,2.19-.71,4.19,3.93,2.92,8.16-5.02,9.77-9.62.21-5.14-4.04-1.02-5.58-.09-1.78.18-5.31,1.43-7-1.25-1.81-3.24-1.81-7.81-3.19-11.05,0-.18-2.33-5.06-.14-5.44,7.13,1.33,3.45-6.27-1.15-11.25-2.19-2.37-5.2-2.66-8.05-.27-2,1.81-1.74,4-2.14,5.91-1.57,7.12,8.33,13.17,6.41,24.3,0,0-2.18,3.44-5.92,3.04-8.94-2.13-3.55-26.82-8.41-34.1-1.17-3.06-1.98-6.02-4.81-.78-.81,2.01-4,5.06-1.67,11.34,1.9,4,2.72,10.4,1.8,17.63-2.98,4.79-4.99,8.41-10.55,5.82-1.95-1.34-3.42-1.99-4.29-6,.12-6.58.46-17.25-.71-19.55-1.71-3.61-4.65-2.28-5.86-1.23-11.47,10.38-10.3,32.94-15.41,23.65-3.01-2.77-3.22-24.88-6.87-21.25-5.82,16.58,3.36,34.88,9.7,33.16Z"/>
    <path class="cls-2" d="M285.53,207.49c.07,0,.14-.17.05-.36-2.47-1.48,3.21-1.02-35.86-1.25-.66-.15-1.06-.67-1.12-.67,0-2.56,23.48-.17,24.69-18.48-.12-7.25-3.05-11.92-11.98-13.25-6.53.56-11.18,6.85-10.46,13.83-.29,1.79.66,5.51-1.25,5.91-12.55,1.23-26.23,9.04-26.73,14.68-1.64,0-2.39-1.84-2.24-3.44-.69-14.2-7.78-31.06-11.67-31.73-.36,0-1.02.81-2.31,1.79-7.52,8.7,9.97,22.36,6.24,43.18-4.16,9.15-12.67,17.26-20.85,21.74-8.73,2.78-11.82-2.04-11.05-5.05.07,0,14.46-7.88,21.01-21.64,4.98-13.78-2.95-22.7-2.95-22.89,1.17-.56,4.2,1.72,4.69.29-3.51-17.76-19.31-16.03-15.27-.56,1.35,3.23,5.05,3.81,7.67,10.47,0,.26.88,5.12-.45,7.07-1.23,3.82-15.79,14.59-15.79,14.86-.73,0,.45-8.22.45-9.71-3.43,0-6.87,14.51-6.89,14.57-11.44,7.83-24.4,13.74-31.88,21.83-3.91,6.01,26.85-7.05,30.41-8.57.74,0,.57,3.05,2.89,5.72,3.21,4.39,9.98,7.05,16.58,5.43,19.09-6.88,23.63-24.61,27.71-21.34,4.46,10,17.35,17.05,34.01,17.81,7.99-9.72-6.66-8.35-9.04-14.39-.73-2.76,1.08-5.24,4.82-7.14,10.65-1.25,21.2-2.77,31.38-6.02.06-2.94,1.99-9.91,5.21-12.68ZM257.37,186.15c.69-2.75,7.56.88,5.67,3.15-1.38,1.38-5.67-.76-5.67-3.15ZM243.77,220.29c-11.7,3.95-5.13,9.33-7.22,12.09,0,.1-.24.39-.32.39-7.98,0-18.83-18.78-8.95-18.78,3.79,1.05,9.41,1.14,14.27,1.63,3.96.29,5.92,3.33,2.22,4.68Z"/>
    <path class="cls-2" d="M117.24,138.49c2.92,1.34,12.11,2.7,10.84-8.19-.76-1.92-3-1.52-3.48.47-.16.58.24,1.63-.3,1.99-.36.29-1.6.11-1.57-1.61,0-1.48-1.53-2.61-2.29-1.14-.55,1.39-.02,2.13-1.11,2.39-2.51,0-.32-2.66-2.55-3.15-3.23,0-3.05,7.75.48,9.24Z"/>
    <path class="cls-2" d="M232.45,187.31c3.94,1.79,13.27.76,11.03-5.35,0-5.92-3.19-4.41-3.72-2.48-.12.67.3,1.72-.26,2.1-.34.27-1.6,0-1.58-1.72,0-1.27-1.38-2.52-2.36-1.05-.44,1.68-.12,2.17-1.07,2.39-2.44,0-.32-2.65-2.57-3.15-3.2,0-2.95,7.66.53,9.26Z"/>
    <path class="cls-2" d="M299.64,167.08c3.91,1.81,11.3.96,10.98-5.33,0-.49-.11-2.39-.16-2.95-.84-1.81-3.05-1.43-3.48.56-.2.58.21,1.63-.36,1.9-.28.4-1.58.2-1.53-1.61,0-.47-.38-1.14-.64-1.52-2.64-1.12-1.19,2.52-2.79,2.86-2.53,0-.18-2.39-2.55-3.06-3.34,0-2.89,7.72.53,9.15Z"/>
    <path class="cls-2" d="M302.29,142.49c1.36,3.91-1.04,7.63.38,8.21,1.36.65,3.19-4.11,3.9-8.41.82-3.52-1.66-10.57-5.16-12-2.17-.58-5.22.76-4.22,3.62-.5,1.43,4.26,6,5.09,8.57Z"/>
    <path class="cls-2" d="M338.53,234.38c2.72,0,5.86-6.2,7.22-12.39,1.26-14.35-6.77-66.02-7.52-68.53-1.34-7.14,5.32-.96,4.55-5.15-2.29-5.24-8-12.96-9.77-17.54-1.14-1.99-.67-3.71-3.1-.47-2.19,7.34-3.01,13.25-2.17,17.92,5.78,30.12,11.7,57.57,10.8,86.16Z"/>
    <path class="cls-2" d="M406.7,153.75c.65,1.9-.93,8.28.38,8.86,1.24.67,2.93-4.38,3.56-9.06.35-2.57-1.51-11.43-4.8-13.14-1.88-.49-4.67.85-3.78,3.99-.45,1.52,3.88,6.58,4.64,9.35Z"/>
    <path class="cls-2" d="M168.5,222.08c1.14.39,2.76-3.23,3.38-6.67.36-1.9-1.48-8.48-4.51-9.62-1.93-.38-4.48.09-3.67,2.86-.09,1.52,4.17,3.33,4.42,6.85.64,1.43-.92,6.11.38,6.58Z"/>
    <path class="cls-2" d="M85.74,138.22c.62,1.52-.55,6.38.65,6.76,2.47.98,6.78-14.55-1.08-16.87-1.87-.49-4.48.67-3.59,3.04-.46,1.14,3.38,4.87,4.03,7.07Z"/>
    <path class="cls-2" d="M174.76,159.56c-3.5,1.79-4.82,7.43-2.64,10.76,1.97,2.76,5.21,1.72,5.62,1.72,3.55.49,9.39-11.79,1.52-4.68-3.22.72-3.01-3.99-1.86-6.58.63-1.72-.68-2.48-2.64-1.23Z"/>
    <path class="cls-2" d="M200.95,138.49c1.26-.85,1.68-1.52,2.14-3.04.55-2.68-2.79,1.23-3.23-1.72-.72-2.76,1.4-3.81,3.45-6.58.04-1.81,0-3.04-2.5-1.61-7.37,4.91-6.98,16.97.14,12.96Z"/>
    <path class="cls-2" d="M224.54,140.01c5.41-14.57-.04-17.35-2.7-10.76-.76,1.72-1.67,10.38-1.52,10.38-.63,2.57,2.74,3.73,4.22.38Z"/>
    <path class="cls-2" d="M372.89,183.28s-18.18,12.97-18.66,13.35c-1.78,1.61-.87,7.25,0,6.67,1.32.47,19.62-11.92,19.28-13.45.83.11,1.24-7.23-.62-6.58Z"/>
    <path class="cls-2" d="M370.66,218.46c1.23.58,4.44-3.42,4.33-8.37.36-2.59-.91-11.92-4.15-13.55-1.95-.56-4.6,1.16-3.7,4.29-.48,1.52,2.27,6.67,3.03,9.44.62,2.01-.86,7.54.48,8.19Z"/>
    <path class="cls-2" d="M270.86,246.01c3.79-1.43,6.22-2.95,11.56-4.1,1.36,0,1.34-3.81-.93-3.81-2.88,0-5.53.18-8.45,2.48-4.28,1.14-1.6-6.52-1.77-7.45.14,0-1.65-1.61-3.51-.65-.03,0-3.95,2.66-5.19,4.48-1.16.83-.87,4.41,2.38,2.38,1.62-.1,2.4.95,2.24,2.85-.99,3.29,1.38,5.13,3.67,3.82Z"/>
    <path class="cls-2" d="M398.6,247.34c1.33-.85.87-2.76.74-2.76-.74-.85-2.38-.38-3.5-.38-.58,0-2.32-.38-1.48-1.81,3.5-5.32.94-5.72-5.31-5.43-1.17.28-1.58.85-1.79,2.19.07,2.09,1.38,1.99,2.74,2.85,2.04,2.82-.35,3.57-3.52,6.58-.58,1.05-.96,2.57.85,3.04,3.39.96,11.27-4.09,11.27-4.28Z"/>
  </g>
</svg>