<?xml version="1.0" encoding="UTF-8"?>
<svg id="_Layer_" data-name="&amp;lt;Layer&amp;gt;" xmlns="http://www.w3.org/2000/svg" viewBox="0 0 500 500">
  <defs>
    <style>
      .cls-1 {
        fill: #a72231;
      }

      .cls-2 {
        fill: #e93323;
      }

      .cls-3 {
        fill: #16369a;
      }

      .cls-4 {
        fill: #fff;
      }

      .cls-5 {
        fill: #f4be41;
      }

      .cls-6 {
        fill: #f4bf42;
      }

      .cls-7 {
        fill: #e1a539;
      }

      .cls-8 {
        fill: #39802e;
      }
    </style>
  </defs>
  <rect class="cls-2" y="373.36" width="749.18" height="126.64"/>
  <rect class="cls-5" y="126.64" width="749.18" height="246.71"/>
  <rect class="cls-2" width="749.18" height="126.64"/>
  <g>
    <path class="cls-4" d="M234.15,325.87c-6.48,3.75-13.99,5.89-22.01,5.89s-15.53-2.14-22.01-5.89c3.34-1.93,6.4-4.29,9.11-7,7.97-7.96,12.89-18.97,12.89-31.12,0,16.29,8.85,30.51,22.01,38.12Z"/>
    <path class="cls-2" d="M256.15,276.19v11.56c0,12.15-4.92,23.16-12.89,31.12-2.71,2.71-5.77,5.07-9.11,7-13.16-7.61-22.01-21.83-22.01-38.12v-11.56h44.01Z"/>
    <rect class="cls-2" x="168.13" y="228.8" width="44.01" height="47.39"/>
    <rect class="cls-4" x="212.14" y="228.8" width="44.01" height="47.39"/>
    <g>
      <path class="cls-3" d="M211.37,169.95v2.48h-2.48c.29-1.22,1.25-2.19,2.48-2.48Z"/>
      <path class="cls-3" d="M215.38,172.43h-2.48v-2.48c1.22.29,2.19,1.26,2.48,2.48Z"/>
      <path class="cls-3" d="M211.37,173.96v2.49c-1.23-.29-2.19-1.26-2.48-2.49h2.48Z"/>
      <path class="cls-3" d="M215.38,173.96c-.29,1.23-1.25,2.2-2.48,2.49v-2.49h2.48Z"/>
      <path class="cls-6" d="M218.78,172.43v1.53h-5.87v6.38c-.23-.13-.49-.21-.77-.21s-.54.08-.77.21v-6.38h-5.87v-1.53h5.87v-6.31h1.54v6.31h5.87Z"/>
    </g>
    <g>
      <path class="cls-4" d="M158.39,249.77c-4.55,1.85-9.87,4.17-14.04,6.43l.14-14.94h13.82l.08,8.5Z"/>
      <path class="cls-4" d="M151.75,282.75c-2.71,1.22-5.39,2.51-7.69,3.77l.08-7.83.09-9.88c.77-.42,1.59-.85,2.43-1.27,3.76-1.89,8.08-3.75,11.86-5.28l.11,11.05.06,6.5c-2.19.89-4.58,1.89-6.93,2.94Z"/>
      <path class="cls-4" d="M159.03,315.75h-15.26l.16-16.64c4.35-2.41,10.08-4.89,14.87-6.83l.23,23.46Z"/>
      <rect class="cls-6" x="142.62" y="317.74" width="17.56" height="1.55"/>
      <rect class="cls-7" x="141.88" y="315.75" width="19.04" height="2" rx=".96" ry=".96"/>
      <rect class="cls-7" x="141.13" y="319.29" width="20.53" height="4.13"/>
      <path class="cls-6" d="M144.58,239.3h13.65c.52,0,.95.43.95.95v.07c0,.52-.43.95-.95.95h-13.65c-.52,0-.95-.43-.95-.95v-.07c0-.52.43-.95.95-.95Z"/>
      <path class="cls-6" d="M144.58,234.19h13.65c.52,0,.95.43.95.95v.07c0,.52-.43.95-.95.95h-13.65c-.52,0-.95-.43-.95-.95v-.06c0-.52.43-.95.95-.95Z"/>
      <rect class="cls-7" x="144.49" y="236.16" width="13.82" height="3.15"/>
      <rect class="cls-6" x="142.58" y="230.41" width="17.65" height="2.8"/>
      <rect class="cls-7" x="140.7" y="229.01" width="21.41" height="1.4"/>
      <polygon class="cls-7" points="158.31 234.19 144.49 234.19 143.41 233.21 159.39 233.21 158.31 234.19"/>
      <path class="cls-2" d="M168.13,246.04v12.53s-4.26,1.52-9.61,3.69c-3.78,1.53-8.1,3.39-11.86,5.28-.84.42-1.66.85-2.43,1.27-.09.05-.17.09-.26.14-.24.13-.48.27-.71.4-1.52.87-2.84,1.72-3.86,2.53-.08.06-.15.12-.23.18-.02.01-.03.02-.04.03-.12.1-.23.2-.34.3-.15.13-.29.27-.42.4-.06.06-.12.12-.17.17-.22.23-.4.46-.55.69v-12.53c.96-1.44,3.49-3.16,6.71-4.9,4.17-2.27,9.49-4.58,14.04-6.43,5.41-2.2,9.73-3.74,9.73-3.74Z"/>
      <path class="cls-2" d="M144.23,268.8l-.09,9.88c-3.08-1.82-5.52-3.59-6.49-5.05.15-.22.34-.45.55-.69.05-.06.11-.12.17-.17.13-.13.27-.27.42-.4.11-.1.22-.19.34-.3.01,0,.02-.02.04-.03.08-.06.15-.12.23-.18,1.02-.81,2.34-1.66,3.86-2.53.23-.13.47-.27.71-.4.09-.05.17-.09.26-.14Z"/>
      <path class="cls-2" d="M165.46,276.77v.1s-.01.04-.01.05c-.05.17-.24.33-.61.47-.95.36-2.07.79-3.3,1.27-.04.02-.09.04-.13.05-.47.19-.97.38-1.47.58-.41.17-.83.33-1.26.51l-.06-6.5c1.98.88,3.77,1.64,5.14,2.21.82.34,1.57.78,1.68,1.19,0,.02.01.04.01.07Z"/>
      <path class="cls-2" d="M165.46,287.68c0,.86-.36,2.13-2.38,2.91-1.28.49-2.73,1.06-4.28,1.69-4.79,1.94-10.52,4.42-14.87,6.83-1.4.77-2.66,1.54-3.69,2.27h0c-1.2.85-2.1,1.66-2.6,2.4v-12.53c.93-1.4,3.34-3.05,6.41-4.74,2.3-1.26,4.98-2.55,7.69-3.77,2.36-1.05,4.74-2.06,6.93-2.94.43-.18.85-.34,1.26-.51.5-.2,1-.39,1.47-.58.04-.02.08-.03.13-.05,1.23-.48,2.35-.91,3.3-1.27.37-.14.56-.3.61-.47,0-.02.01-.04.01-.05v10.81Z"/>
      <path class="cls-2" d="M140.5,308.14c.26-1.69-2.86-4.36-2.86-4.36.49-.74,1.4-1.55,2.6-2.4h0c3.49,3.63.26,6.76.26,6.76Z"/>
      <path class="cls-2" d="M160.16,221.67c0,.71-.17,1.39-.48,1.98h-16.56c-.3-.6-.48-1.27-.48-1.98,0-2.42,1.96-4.38,4.38-4.38.95,0,1.48.23,1.96.49,0,0,0,0,0,0,.19.1.37.21.57.31.39.2.84.37,1.52.41.11,0,.22,0,.33,0s.23,0,.33,0c.68-.04,1.13-.22,1.53-.42.19-.09.36-.2.55-.3,0,0,0,0,0,0,.49-.26,1.02-.5,1.96-.5,2.42,0,4.38,1.96,4.38,4.38Z"/>
      <path class="cls-6" d="M159.7,223.65h0s0,0,0,0h-16.59s-.5-1.61-2.41-1.59v1.09s.52.08.84.5v1.01s1.57.64,1.57,2.07v2.28h16.59v-2.28h0c0-1.43,1.57-2.06,1.57-2.06v-1.01c.32-.42.84-.5.84-.5v-1.09c-1.91-.02-2.41,1.59-2.41,1.59Z"/>
      <path class="cls-3" d="M151.07,213.84v1.06h-1.06c.12-.52.53-.94,1.06-1.06Z"/>
      <path class="cls-3" d="M152.79,214.9h-1.06v-1.06c.52.12.94.54,1.06,1.06Z"/>
      <path class="cls-3" d="M151.07,215.56v1.07c-.53-.12-.94-.54-1.06-1.07h1.06Z"/>
      <path class="cls-3" d="M152.79,215.56c-.12.53-.54.94-1.06,1.07v-1.07h1.06Z"/>
      <path class="cls-7" d="M154.24,214.9v.66h-2.51v2.95c-.1,0-.21,0-.33,0s-.23,0-.33,0v-2.95h-2.51v-.66h2.51v-2.7h.66v2.7h2.51Z"/>
      <path class="cls-3" d="M169.04,327.85c-1.84,0-2.77-.39-3.68-.76-.84-.35-1.63-.68-3.26-.68s-2.42.33-3.26.68c-.9.38-1.83.76-3.68.76s-2.77-.39-3.68-.76c-.84-.35-1.63-.68-3.26-.68s-2.42.33-3.26.68c-.9.38-1.83.76-3.68.76s-2.77-.39-3.68-.76c-.84-.35-1.63-.68-3.26-.68v-1.08c1.84,0,2.77.39,3.68.76.84.35,1.63.68,3.26.68s2.42-.33,3.26-.68c.9-.38,1.83-.76,3.67-.76s2.77.39,3.68.76c.84.35,1.63.68,3.26.68s2.42-.33,3.26-.68c.9-.38,1.83-.76,3.68-.76s2.78.39,3.68.76c.84.35,1.63.68,3.26.68v1.08Z"/>
      <path class="cls-3" d="M169.04,330.3c-1.84,0-2.77-.39-3.68-.76-.84-.35-1.63-.68-3.26-.68s-2.42.33-3.26.68c-.9.38-1.83.76-3.68.76s-2.77-.39-3.68-.76c-.84-.35-1.63-.68-3.26-.68s-2.42.33-3.26.68c-.9.38-1.83.76-3.68.76s-2.77-.39-3.68-.76c-.84-.35-1.63-.68-3.26-.68v-1.08c1.84,0,2.77.39,3.68.76.84.35,1.63.68,3.26.68s2.42-.33,3.26-.68c.9-.38,1.83-.76,3.67-.76s2.77.39,3.68.76c.84.35,1.63.68,3.26.68s2.42-.33,3.26-.68c.9-.38,1.83-.76,3.68-.76s2.78.39,3.68.76c.84.35,1.63.68,3.26.68v1.08Z"/>
      <path class="cls-3" d="M169.04,332.75c-1.84,0-2.77-.39-3.68-.76-.84-.35-1.63-.68-3.26-.68s-2.42.33-3.26.68c-.9.38-1.83.76-3.68.76s-2.77-.39-3.68-.76c-.84-.35-1.63-.68-3.26-.68s-2.42.33-3.26.68c-.9.38-1.83.76-3.68.76s-2.77-.39-3.68-.76c-.84-.35-1.63-.68-3.26-.68v-1.08c1.84,0,2.77.39,3.68.76.84.35,1.63.68,3.26.68s2.42-.33,3.26-.68c.9-.38,1.83-.76,3.67-.76s2.77.39,3.68.76c.84.35,1.63.68,3.26.68s2.42-.33,3.26-.68c.9-.38,1.83-.76,3.68-.76s2.78.39,3.68.76c.84.35,1.63.68,3.26.68v1.08Z"/>
    </g>
    <g>
      <path class="cls-4" d="M266.36,249.77c4.55,1.85,9.87,4.17,14.04,6.43l-.14-14.94h-13.82l-.08,8.5Z"/>
      <path class="cls-4" d="M273.01,282.75c2.71,1.22,5.39,2.51,7.69,3.77l-.08-7.83-.09-9.88c-.77-.42-1.59-.85-2.43-1.27-3.76-1.89-8.08-3.75-11.86-5.28l-.11,11.05-.06,6.5c2.19.89,4.58,1.89,6.93,2.94Z"/>
      <path class="cls-4" d="M265.72,315.75h15.26l-.16-16.64c-4.35-2.41-10.08-4.89-14.87-6.83l-.23,23.46Z"/>
      <rect class="cls-6" x="264.57" y="317.74" width="17.55" height="1.55" transform="translate(546.7 637.04) rotate(-180)"/>
      <rect class="cls-7" x="263.83" y="315.75" width="19.04" height="2" rx=".96" ry=".96" transform="translate(546.7 633.49) rotate(-180)"/>
      <rect class="cls-7" x="263.08" y="319.29" width="20.53" height="4.13" transform="translate(546.7 642.71) rotate(-180)"/>
      <path class="cls-6" d="M266.52,239.3h13.65c.52,0,.95.43.95.95v.07c0,.52-.43.95-.95.95h-13.65c-.52,0-.95-.43-.95-.95v-.07c0-.52.43-.95.95-.95Z" transform="translate(546.7 480.57) rotate(-180)"/>
      <path class="cls-6" d="M266.53,234.19h13.65c.52,0,.95.43.95.95v.07c0,.52-.43.95-.95.95h-13.65c-.52,0-.95-.43-.95-.95v-.07c0-.52.43-.95.95-.95Z" transform="translate(546.7 470.35) rotate(-180)"/>
      <rect class="cls-7" x="266.44" y="236.16" width="13.82" height="3.15" transform="translate(546.7 475.46) rotate(-180)"/>
      <rect class="cls-6" x="264.53" y="230.41" width="17.65" height="2.8" transform="translate(546.7 463.62) rotate(-180)"/>
      <rect class="cls-7" x="262.65" y="229.01" width="21.41" height="1.4" transform="translate(546.7 459.42) rotate(-180)"/>
      <polygon class="cls-7" points="266.44 234.19 280.26 234.19 281.34 233.21 265.36 233.21 266.44 234.19"/>
      <path class="cls-2" d="M256.62,246.04v12.53s4.26,1.52,9.61,3.69c3.78,1.53,8.1,3.39,11.86,5.28.84.42,1.66.85,2.43,1.27.09.05.17.09.26.14.24.13.48.27.71.4,1.52.87,2.84,1.72,3.86,2.53.08.06.15.12.23.18.01.01.02.02.04.03.12.1.23.2.34.3.15.13.29.27.42.4.06.06.12.12.17.17.22.23.4.46.55.69v-12.53c-.96-1.44-3.49-3.16-6.71-4.9-4.17-2.27-9.49-4.58-14.04-6.43-5.41-2.2-9.73-3.74-9.73-3.74Z"/>
      <path class="cls-2" d="M280.52,268.8l.09,9.88c3.08-1.82,5.52-3.59,6.49-5.05-.15-.22-.34-.45-.55-.69-.05-.06-.11-.12-.17-.17-.13-.13-.27-.27-.42-.4-.11-.1-.22-.19-.34-.3-.01,0-.02-.02-.04-.03-.08-.06-.15-.12-.23-.18-1.02-.81-2.34-1.66-3.86-2.53-.23-.13-.47-.27-.71-.4-.09-.05-.17-.09-.26-.14Z"/>
      <path class="cls-2" d="M259.29,276.77v.1s.01.04.01.05c.05.17.24.33.61.47.95.36,2.07.79,3.3,1.27.04.02.09.04.13.05.47.19.97.38,1.47.58.41.17.83.33,1.26.51l.06-6.5c-1.98.88-3.77,1.64-5.14,2.21-.82.34-1.57.78-1.68,1.19,0,.02-.01.04-.01.07Z"/>
      <path class="cls-2" d="M259.29,287.68c0,.86.36,2.13,2.38,2.91,1.28.49,2.73,1.06,4.28,1.69,4.79,1.94,10.52,4.42,14.87,6.83,1.4.77,2.66,1.54,3.69,2.27h0c1.2.85,2.1,1.66,2.6,2.4v-12.53c-.93-1.4-3.34-3.05-6.41-4.74-2.3-1.26-4.98-2.55-7.69-3.77-2.36-1.05-4.74-2.06-6.93-2.94-.43-.18-.85-.34-1.26-.51-.5-.2-1-.39-1.47-.58-.04-.02-.08-.03-.13-.05-1.23-.48-2.35-.91-3.3-1.27-.37-.14-.56-.3-.61-.47,0-.02-.01-.04-.01-.05v10.81Z"/>
      <path class="cls-2" d="M284.25,308.14c-.26-1.69,2.86-4.36,2.86-4.36-.49-.74-1.4-1.55-2.6-2.4h0c-3.49,3.63-.26,6.76-.26,6.76Z"/>
      <path class="cls-2" d="M264.59,221.67c0,.71.17,1.39.48,1.98h16.56c.3-.6.48-1.27.48-1.98,0-2.42-1.96-4.38-4.38-4.38-.95,0-1.48.23-1.96.49,0,0,0,0,0,0-.19.1-.37.21-.57.31-.39.2-.84.37-1.52.41-.1,0-.22,0-.33,0s-.23,0-.33,0c-.68-.04-1.13-.22-1.53-.42-.19-.09-.36-.2-.55-.3,0,0,0,0,0,0-.49-.26-1.02-.5-1.96-.5-2.42,0-4.38,1.96-4.38,4.38Z"/>
      <path class="cls-6" d="M265.05,223.65h0s0,0,0,0h16.59s.5-1.61,2.41-1.59v1.09s-.52.08-.84.5v1.01s-1.57.64-1.57,2.07v2.28h-16.59v-2.28h0c0-1.43-1.57-2.06-1.57-2.06v-1.01c-.32-.42-.84-.5-.84-.5v-1.09c1.91-.02,2.41,1.59,2.41,1.59Z"/>
      <path class="cls-3" d="M273.68,213.84v1.06h1.06c-.12-.52-.53-.94-1.06-1.06Z"/>
      <path class="cls-3" d="M271.96,214.9h1.06v-1.06c-.52.12-.94.54-1.06,1.06Z"/>
      <path class="cls-3" d="M273.68,215.56v1.07c.53-.12.94-.54,1.06-1.07h-1.06Z"/>
      <path class="cls-3" d="M271.96,215.56c.12.53.54.94,1.06,1.07v-1.07h-1.06Z"/>
      <path class="cls-7" d="M270.51,214.9v.66h2.51v2.95c.1,0,.21,0,.33,0s.23,0,.33,0v-2.95h2.51v-.66h-2.51v-2.7h-.66v2.7h-2.51Z"/>
      <path class="cls-3" d="M255.71,327.85c1.84,0,2.77-.39,3.68-.76.84-.35,1.64-.68,3.26-.68s2.42.33,3.26.68c.9.38,1.83.76,3.68.76s2.77-.39,3.68-.76c.84-.35,1.63-.68,3.26-.68s2.42.33,3.26.68c.9.38,1.83.76,3.68.76s2.77-.39,3.68-.76c.84-.35,1.63-.68,3.26-.68v-1.08c-1.84,0-2.77.39-3.67.76-.84.35-1.63.68-3.26.68s-2.42-.33-3.26-.68c-.9-.38-1.83-.76-3.68-.76s-2.77.39-3.68.76c-.84.35-1.63.68-3.26.68s-2.42-.33-3.26-.68c-.9-.38-1.83-.76-3.68-.76s-2.77.39-3.68.76c-.84.35-1.63.68-3.26.68v1.08Z"/>
      <path class="cls-3" d="M255.71,330.3c1.84,0,2.77-.39,3.68-.76.84-.35,1.64-.68,3.26-.68s2.42.33,3.26.68c.9.38,1.83.76,3.68.76s2.77-.39,3.68-.76c.84-.35,1.63-.68,3.26-.68s2.42.33,3.26.68c.9.38,1.83.76,3.68.76s2.77-.39,3.68-.76c.84-.35,1.63-.68,3.26-.68v-1.08c-1.84,0-2.77.39-3.67.76-.84.35-1.63.68-3.26.68s-2.42-.33-3.26-.68c-.9-.38-1.83-.76-3.68-.76s-2.77.39-3.68.76c-.84.35-1.63.68-3.26.68s-2.42-.33-3.26-.68c-.9-.38-1.83-.76-3.68-.76s-2.77.39-3.68.76c-.84.35-1.63.68-3.26.68v1.08Z"/>
      <path class="cls-3" d="M255.71,332.75c1.84,0,2.77-.39,3.68-.76.84-.35,1.64-.68,3.26-.68s2.42.33,3.26.68c.9.38,1.83.76,3.68.76s2.77-.39,3.68-.76c.84-.35,1.63-.68,3.26-.68s2.42.33,3.26.68c.9.38,1.83.76,3.68.76s2.77-.39,3.68-.76c.84-.35,1.63-.68,3.26-.68v-1.08c-1.84,0-2.77.39-3.67.76-.84.35-1.63.68-3.26.68s-2.42-.33-3.26-.68c-.9-.38-1.83-.76-3.68-.76s-2.77.39-3.68.76c-.84.35-1.63.68-3.26.68s-2.42-.33-3.26-.68c-.9-.38-1.83-.76-3.68-.76s-2.77.39-3.68.76c-.84.35-1.63.68-3.26.68v1.08Z"/>
    </g>
    <rect class="cls-1" x="183.02" y="226.44" width="58.23" height="2.36"/>
    <path class="cls-2" d="M250.55,206.14c-.09,1.34-.42,2.62-.95,3.79-.35-.43-.88-.71-1.48-.71-1.05,0-1.91.85-1.91,1.91,0,.88.59,1.61,1.4,1.83-.63.69-1.34,1.29-2.11,1.8l.03-.17h-66.75l.03.17c-.78-.52-1.49-1.12-2.12-1.81.8-.22,1.4-.96,1.4-1.83,0-1.05-.85-1.91-1.91-1.91-.6,0-1.13.27-1.48.71-.53-1.17-.86-2.45-.95-3.79-.45-6.58,4.76-12.05,11.24-12.05.55,0,1.09.04,1.61.12.5-.67,1.06-1.29,1.67-1.85.11.45.36.85.7,1.14.33-.16.7-.25,1.1-.25.59,0,1.14.2,1.57.55.71-.39,1.19-1.15,1.19-2.02,0-.61-.24-1.18-.64-1.59-.09-.1-.19-.19-.3-.27,1.8-.84,3.82-1.32,5.94-1.32,3.63,0,6.93,1.37,9.42,3.64.49.45,1.04.82,1.63,1.11,0,.05,0,.09,0,.14,0,1.82,1.48,3.3,3.3,3.3s3.3-1.48,3.3-3.3c0-.05,0-.09,0-.14.59-.29,1.13-.67,1.63-1.11,2.49-2.26,5.79-3.64,9.42-3.64,2.12,0,4.14.47,5.94,1.32-.11.08-.21.17-.3.27-.4.42-.64.98-.64,1.59,0,.87.48,1.62,1.19,2.02.43-.34.97-.55,1.57-.55.39,0,.76.09,1.1.25.34-.3.59-.69.7-1.14.61.57,1.17,1.19,1.67,1.85.53-.08,1.07-.12,1.61-.12,6.48,0,11.69,5.48,11.24,12.05Z"/>
    <polygon class="cls-6" points="245.52 214.59 245.49 214.76 243.71 226.44 180.57 226.44 178.79 214.76 178.76 214.59 245.52 214.59"/>
    <path class="cls-6" d="M219.17,207.2s.75,1.66.95,2.33c0,0-1.83.91-6.65-2.48.36-.35.58-.83.58-1.37,0-1.05-.85-1.91-1.91-1.91s-1.91.85-1.91,1.91c0,.54.22,1.02.58,1.37-4.82,3.39-6.65,2.48-6.65,2.48.2-.68.95-2.33.95-2.33-.83-.03-2.07-2.04-2.07-2.04.24-.68,2.27-2.27,2.27-2.27-.95-.56-.87-2.58-.87-2.58,1.79-.19,4.99,2,5.37,2.26-2.98-2.22-2.79-7-2.79-7,0,0,2.27.01,2.58,0,.6.73,1.52,1.2,2.54,1.2s1.94-.47,2.54-1.2c.31.01,2.58,0,2.58,0,0,0,.2,4.78-2.79,7,.38-.26,3.58-2.45,5.37-2.26,0,0,.08,2.03-.87,2.58,0,0,2.03,1.59,2.27,2.27,0,0-1.23,2.01-2.07,2.04Z"/>
    <path class="cls-4" d="M189.44,221.15c0,.25-.05.48-.13.7-.28.71-.97,1.21-1.77,1.21-.36,0-.7-.1-.99-.28-.55-.33-.92-.94-.92-1.63,0-1.05.86-1.9,1.91-1.9s1.91.85,1.91,1.9Z"/>
    <path class="cls-4" d="M204.95,221.15c0,.25-.05.48-.13.7-.28.71-.97,1.21-1.77,1.21-.36,0-.7-.1-.99-.28-.55-.33-.92-.94-.92-1.63,0-1.05.86-1.9,1.91-1.9s1.91.85,1.91,1.9Z"/>
    <path class="cls-4" d="M234.83,221.15c0,.25.05.48.13.7.28.71.97,1.21,1.77,1.21.36,0,.7-.1.99-.28.55-.33.92-.94.92-1.63,0-1.05-.86-1.9-1.91-1.9s-1.91.85-1.91,1.9Z"/>
    <path class="cls-4" d="M219.33,221.15c0,.25.05.48.13.7.28.71.97,1.21,1.77,1.21.36,0,.7-.1.99-.28.55-.33.92-.94.92-1.63,0-1.05-.86-1.9-1.91-1.9s-1.91.85-1.91,1.9Z"/>
    <path class="cls-6" d="M197.31,207.94s.72,1.4.93,1.98c0,0-1.78.88-5.57-1.41.09-.22.13-.45.13-.7,0-1.05-.86-1.9-1.9-1.9s-1.91.85-1.91,1.9c0,.69.37,1.3.92,1.63-2.49,2.27-3.73,1.78-3.73,1.78.02-.6.28-2.13.28-2.13-.66.04-2.06-1.69-2.06-1.69.04-.66,1.34-2.35,1.34-2.35-.9-.46-1.3-2.51-1.3-2.51,1.41-.32,4.36,1.49,4.85,1.8-2.86-2-3.74-7.11-3.74-7.11,0,0,1.98-.16,2.25-.2.09.11.19.21.3.3.46.58,1.17.95,1.96.95,1.09,0,2.02-.69,2.37-1.67.58-.04,2.02-.19,2.02-.19,0,0,.79,5.11-1.34,7.57.27-.29,2.58-2.74,4.07-2.69,0,0,.27,2.02-.43,2.64,0,0,1.75,1.36,2,1.98,0,0-.78,1.93-1.41,2.02Z"/>
    <path class="cls-6" d="M226.96,207.94s-.72,1.4-.93,1.98c0,0,1.78.88,5.57-1.41-.09-.22-.13-.45-.13-.7,0-1.05.85-1.9,1.9-1.9s1.91.85,1.91,1.9c0,.69-.37,1.3-.92,1.63,2.49,2.27,3.73,1.78,3.73,1.78-.02-.6-.28-2.13-.28-2.13.66.04,2.06-1.69,2.06-1.69-.04-.66-1.34-2.35-1.34-2.35.9-.46,1.3-2.51,1.3-2.51-1.41-.32-4.36,1.49-4.85,1.8,2.86-2,3.74-7.11,3.74-7.11,0,0-1.98-.16-2.25-.2-.09.11-.19.21-.3.3-.46.58-1.17.95-1.96.95-1.09,0-2.02-.69-2.37-1.67-.58-.04-2.02-.19-2.02-.19,0,0-.79,5.11,1.34,7.57-.27-.29-2.58-2.74-4.07-2.69,0,0-.27,2.02.43,2.64,0,0-1.75,1.36-2,1.98,0,0,.78,1.93,1.41,2.02Z"/>
    <g>
      <path class="cls-6" d="M173.01,276.19v31.74c-3.13-6.04-4.89-12.91-4.89-20.18v-11.56h4.89Z"/>
      <path class="cls-2" d="M177.91,276.19v39.23c-1.87-2.31-3.51-4.82-4.89-7.49v-31.74h4.89Z"/>
      <path class="cls-6" d="M182.8,276.19v44.37c-1.76-1.58-3.4-3.3-4.89-5.14v-39.23h4.89Z"/>
      <path class="cls-2" d="M187.69,276.19v48.16c-1.72-1.15-3.35-2.42-4.89-3.8v-44.37h4.89Z"/>
      <path class="cls-6" d="M192.58,276.19v48.16c-.8.53-1.61,1.04-2.45,1.53-.83-.48-1.65-.99-2.45-1.52v-48.16h4.89Z"/>
      <path class="cls-2" d="M197.47,276.19v44.36c-1.54,1.38-3.17,2.64-4.89,3.8v-48.16h4.89Z"/>
      <path class="cls-6" d="M202.36,276.19v39.22c-.97,1.21-2.01,2.36-3.11,3.46-.58.58-1.17,1.14-1.78,1.68v-44.36h4.89Z"/>
      <path class="cls-2" d="M207.25,276.19v31.74c-1.38,2.66-3.02,5.17-4.89,7.48v-39.22h4.89Z"/>
      <path class="cls-6" d="M212.14,276.19v11.56c0,7.27-1.76,14.14-4.89,20.18v-31.74h4.89Z"/>
    </g>
    <path class="cls-7" d="M218.17,318.65c0,3.04-2.35,5.54-5.33,5.78-.15.01-.31.02-.47.02s-.31,0-.47-.02c-2.98-.24-5.33-2.73-5.33-5.78,0-3.2,2.59-5.79,5.79-5.79s5.79,2.59,5.79,5.79Z"/>
    <path class="cls-8" d="M220.78,322.72c-1.55.04-6.74,3.86-7.93,4.76v-3.06c-.15.01-.31.02-.47.02s-.31,0-.47-.02v3.06c-1.19-.9-6.38-4.72-7.93-4.76-1.76-.05-5,.6-5.14.42,0,0,2.84,3.98,5.75,3.88,2.85-.09,2.72-1.92,7.32,1.17v2.21h.93v-2.21c4.6-3.09,4.47-1.26,7.32-1.17,2.9.09,5.75-3.88,5.75-3.88-.14.19-3.38-.46-5.14-.42Z"/>
    <path class="cls-6" d="M215.93,279.97v7.77c0,13.47,6.7,25.98,17.92,33.48l.3.2.3-.2c2.2-1.47,4.26-3.16,6.14-5.03,7.6-7.59,11.78-17.7,11.78-28.44v-7.77h-36.44ZM234.69,281.06h15.81l-15.81,15.43v-15.43ZM233.6,296.48l-15.81-15.43h15.81v15.43ZM217.01,281.8l15.78,15.4h-14.62c-.76-3.05-1.15-6.22-1.15-9.45v-5.95ZM232.85,298.28l-10.11,9.87c-1.87-3.07-3.32-6.39-4.29-9.87h14.4ZM223.33,309.08l10.28-10.03v20.69c-4.13-2.92-7.6-6.54-10.28-10.66ZM239.82,315.42c-1.58,1.58-3.3,3.02-5.13,4.31v-20.68l10.28,10.03c-1.48,2.26-3.19,4.38-5.15,6.34ZM235.44,298.28h14.41c-.96,3.47-2.41,6.79-4.3,9.87l-10.11-9.87ZM250.14,297.2h-14.63l15.77-15.4v5.95c0,3.23-.39,6.4-1.14,9.45Z"/>
    <g>
      <g>
        <g>
          <polygon class="cls-7" points="182.04 239.3 182.04 249.41 181.97 249.41 181.97 251.09 179.66 251.09 179.66 249.41 177.81 249.41 177.81 251.09 175.5 251.09 175.5 249.41 174.24 249.41 174.24 239.3 182.04 239.3"/>
          <polygon class="cls-6" points="180.84 236.31 180.84 237.72 178.92 237.72 178.92 236.31 177.37 236.31 177.37 237.72 175.44 237.72 175.44 236.31 173.32 236.31 173.32 239.3 182.96 239.3 182.96 236.31 180.84 236.31"/>
        </g>
        <g>
          <polygon class="cls-7" points="206.02 239.3 206.02 249.41 204.77 249.41 204.77 251.09 202.46 251.09 202.46 249.41 200.6 249.41 200.6 251.09 198.3 251.09 198.3 249.41 198.22 249.41 198.22 239.3 206.02 239.3"/>
          <polygon class="cls-6" points="204.82 236.31 204.82 237.72 202.9 237.72 202.9 236.31 201.35 236.31 201.35 237.72 199.42 237.72 199.42 236.31 197.31 236.31 197.31 239.3 206.94 239.3 206.94 236.31 204.82 236.31"/>
        </g>
        <g>
          <polygon class="cls-7" points="194.03 235.97 194.03 245.77 194.03 245.77 194.03 247.79 191.25 247.79 191.25 245.77 189.01 245.77 189.01 247.79 186.23 247.79 186.23 245.77 186.23 245.77 186.23 235.97 194.03 235.97"/>
          <polygon class="cls-6" points="192.83 232.98 192.83 234.38 190.91 234.38 190.91 232.98 189.36 232.98 189.36 234.38 187.43 234.38 187.43 232.98 185.31 232.98 185.31 235.97 194.95 235.97 194.95 232.98 192.83 232.98"/>
        </g>
      </g>
      <g>
        <g>
          <rect class="cls-7" x="174.06" y="252.99" width="10.44" height="17.44"/>
          <polygon class="cls-6" points="184.5 250.09 184.5 252.99 172.96 252.99 172.96 249.41 175.5 249.41 175.5 251.09 177.81 251.09 177.81 249.41 179.66 249.41 179.66 251.09 181.97 251.09 181.97 249.41 183.18 249.41 183.18 250.09 184.5 250.09"/>
        </g>
        <g>
          <rect class="cls-7" x="195.76" y="252.99" width="10.44" height="17.44"/>
          <polygon class="cls-6" points="207.3 249.41 207.3 252.99 195.76 252.99 195.76 250.09 197.08 250.09 197.08 249.41 198.3 249.41 198.3 251.09 200.6 251.09 200.6 249.41 202.46 249.41 202.46 251.09 204.77 251.09 204.77 249.41 207.3 249.41"/>
        </g>
        <g>
          <rect class="cls-7" x="184.5" y="250.09" width="11.26" height="20.35"/>
          <polygon class="cls-6" points="197.08 245.77 197.08 250.09 183.18 250.09 183.18 245.77 186.23 245.77 186.23 247.79 189.01 247.79 189.01 245.77 191.25 245.77 191.25 247.79 194.03 247.79 194.03 245.77 197.08 245.77"/>
        </g>
        <rect class="cls-6" x="173.49" y="270.43" width="33.27" height="1.67"/>
      </g>
      <rect class="cls-3" x="177.32" y="242.19" width="1.64" height="3.58"/>
      <rect class="cls-3" x="201.3" y="242.19" width="1.64" height="3.58"/>
      <rect class="cls-3" x="189.31" y="238.86" width="1.64" height="3.57"/>
      <rect class="cls-3" x="179.15" y="257.97" width="1.96" height="4.28"/>
      <rect class="cls-3" x="201.94" y="257.97" width="1.96" height="4.28"/>
      <path class="cls-3" d="M190.06,260.72h.15c1.19,0,2.15.96,2.15,2.15v7.57h-4.45v-7.57c0-1.19.96-2.15,2.15-2.15Z"/>
    </g>
    <g>
      <path class="cls-4" d="M215.43,193.47c0,.79-.28,1.53-.75,2.1-.6.73-1.52,1.2-2.54,1.2s-1.94-.47-2.54-1.2c-.47-.57-.75-1.31-.75-2.1,0-.05,0-.09,0-.14.02-.66.25-1.28.61-1.79.6-.83,1.57-1.37,2.68-1.37s2.08.54,2.68,1.37c.36.51.59,1.13.61,1.79,0,.05,0,.09,0,.14Z"/>
      <path class="cls-4" d="M215,190.54c0,.36-.06.7-.19,1.01-.6-.83-1.57-1.37-2.68-1.37s-2.08.54-2.68,1.37c-.13-.32-.19-.66-.19-1.01,0-.71.26-1.36.69-1.86.52-.62,1.3-1.01,2.18-1.01s1.66.39,2.18,1.01c.43.5.69,1.15.69,1.86Z"/>
      <path class="cls-4" d="M214.57,187.6c0,.39-.09.76-.26,1.08-.52-.62-1.3-1.01-2.18-1.01s-1.66.39-2.18,1.01c-.17-.32-.26-.69-.26-1.08,0-.71.31-1.36.8-1.8.43-.4,1.01-.64,1.64-.64s1.21.24,1.64.64c.49.44.8,1.09.8,1.8Z"/>
      <path class="cls-4" d="M214.14,184.65c0,.42-.13.82-.36,1.14-.43-.4-1.01-.64-1.64-.64s-1.21.24-1.64.64c-.23-.32-.36-.72-.36-1.14,0-.74.4-1.39,1-1.73.29-.17.64-.27,1-.27s.71.1,1,.27c.6.34,1,.99,1,1.73Z"/>
      <path class="cls-4" d="M213.71,181.71c0,.49-.22.92-.57,1.21-.3-.17-.64-.27-1-.27s-.71.1-1,.27c-.35-.29-.57-.72-.57-1.21,0-.59.32-1.1.8-1.37.23-.13.49-.21.77-.21s.54.08.77.21c.48.27.8.78.8,1.37Z"/>
    </g>
    <path class="cls-4" d="M207.65,181.53c0,.76-.62,1.39-1.39,1.39-.63,0-1.17-.42-1.34-1,.02-.09.03-.18.03-.27,0-.14-.02-.27-.05-.39h0c.13-.64.69-1.11,1.36-1.11.77,0,1.39.62,1.39,1.39Z"/>
    <path class="cls-4" d="M192.56,195.75c0,.3-.05.58-.15.84-.35.97-1.27,1.67-2.37,1.67-.79,0-1.5-.37-1.96-.95-.35-.43-.55-.97-.55-1.57,0-1,.58-1.86,1.41-2.26.33-.16.7-.25,1.1-.25.59,0,1.14.2,1.57.55.58.46.95,1.17.95,1.97Z"/>
    <path class="cls-4" d="M192.8,191.76c0,.87-.48,1.62-1.19,2.02-.43-.34-.97-.55-1.57-.55-.39,0-.76.09-1.1.25-.34-.3-.59-.69-.7-1.14-.05-.18-.08-.38-.08-.58,0-1.22.94-2.22,2.13-2.31h0c.06,0,.12,0,.18,0,.52,0,.99.17,1.37.45.11.08.21.17.3.27.4.42.64.98.64,1.59Z"/>
    <path class="cls-4" d="M194.3,187.87c0,1.22-.94,2.22-2.14,2.31-.41-.45-1.01-.73-1.67-.73-.06,0-.12,0-.18,0h0c-.39-.41-.64-.97-.64-1.59,0-1.28,1.04-2.32,2.31-2.32h.01c1.07,0,1.97.74,2.22,1.72.05.19.08.39.08.59Z"/>
    <g>
      <path class="cls-6" d="M244.67,237.11c-.61.1-2.42.08-2.68.74-1.21-1.31-2.97-2.49-4.7-3.46.09-1.01.19-2.02.28-3.02.54.46.9,1.13.98,1.83.4-.35.8-.7,1.2-1.05.21.68.41,1.36.61,2.04.36-.1.72-.21,1.08-.31.11-.03.23-.06.32,0,.07.05.09.15.11.24.07.38.14.76.21,1.14.51-.05,1.01-.17,1.49-.35,0,.51,0,1.02,0,1.53.55.02,1.1.05,1.65.07.19.27-.24.54-.56.59Z"/>
      <path class="cls-1" d="M248.91,267.02c.43.17.94.14,1.34-.09-.35.8-1.19,1.37-2.06,1.4.55.34,1.24.46,1.87.32-.79.82-1.99,1.24-3.12,1.09.01.88.02,1.79-.32,2.59-.34.81-1.14,1.5-2.01,1.43.6-.7.82-1.71.56-2.59-.48-.41-1.19.08-1.59.56-.65.79-1.21,1.65-1.66,2.56-1-.25-1.6-1.5-1.17-2.43-1.19-.25-2.49.02-3.48.73-.24-1.04.58-2.19,1.65-2.31.48-.58,1.14-1.01,1.86-1.21-.97,0-1.94,0-2.91,0,1.37-.95,3.27-1.05,4.73-.26.46.25.97.58,1.45.36.37-.17.52-.59.63-.98.3-1.07.49-2.17.6-3.28-1.53-.42-3.24-.99-3.88-2.43-.6-1.35,0-2.91-.09-4.38,0-.06-.01-.12-.02-.18-.02-.16-.06-.31-.15-.44-.13-.19-.33-.29-.53-.39-1.34-.68-2.69-1.36-4.03-2.04-.93-.47-1.87-.94-2.8-1.42-.4-.2-.8-.4-1.24-.52-1.11-.28-2.27.09-3.35.45.32.13.6.36.8.65-.75.24-1.55.35-2.34.32.52.22,1.04.45,1.57.68-.9.13-1.79.26-2.69.39.38.09.76.19,1.15.29-.94.26-1.91.4-2.89.4,0,.84.01,1.7-.26,2.5-.27.8-.88,1.53-1.71,1.71.35-.8.47-1.76.04-2.53-.43-.76-1.53-1.15-2.22-.63-.5.38-.65,1.04-.96,1.58-.34.59-.91,1.04-1.56,1.24.04-1.02,0-2.04-.11-3.05-.4.15-.9-.07-1.06-.46-.55.06-1.09.12-1.64.18.35-.52.97-.77,1.55-1.02.58-.25,1.19-.58,1.41-1.17.19-.49-.12-1.15-.57-1.27.72,0,1.44,0,2.16.01.24,0,.52.01.68.2.21.25.1.63.18.94.13.49.76.72,1.26.59.5-.13.89-.51,1.25-.87.81-.82,1.66-1.69,2.1-2.78.1-.25.12-.58.23-.81.43-.19.83-.46,1.2-.69.93-.56,1.81-1.22,2.62-1.94-.78,1.37-1.57,2.75-2.35,4.12,2.1-.36,3.99-1.84,4.85-3.79-.03,1.49-.15,2.98-.38,4.45,1.39-1.02,2.37-2.58,2.7-4.27.24.75.05,1.56.03,2.35-.02.79.22,1.7.95,2.01.7-1.45,1.4-2.9,2.11-4.35.3,1.11.6,2.23.9,3.34.66-.51.88-1.41.9-2.24,0-.33-.01-.66-.03-.99.13.12.25.23.37.35,1.28,1.21,2.55,2.41,3.83,3.62,1,.94,2,1.9,2.73,3.06.22.36.42.73.58,1.12.21.49.38,1.01.48,1.53.06.29.11.59.13.89.08.8.09,1.73.71,2.23.66.53,1.62.28,2.42.02.01.64-.15,1.29-.48,1.84.47-.02.93-.17,1.32-.44-.11,1.01-.82,1.93-1.78,2.29.48.01.96-.08,1.41-.25-.02,1.02-.85,1.96-1.86,2.11Z"/>
      <path class="cls-1" d="M237.75,260.4c-.05.64-.05,1.29-.01,1.93.46-.01.91-.2,1.25-.51-.08.8-.58,1.54-1.29,1.92-.18.1-.42.24-.38.45.05.26.53.34.47.6-.02.09-.1.15-.18.18-.6.31-1.32.13-1.97-.06.13.49.44.93.86,1.21-.12.27-.45.41-.75.4-.3-.02-.58-.14-.85-.28-.37-.18-.74-.35-1.1-.53.17.48.55.87,1.02,1.05-.34.43-.98.52-1.5.35-.52-.17-.95-.53-1.36-.89-.06.62.23,1.26.74,1.62-.75.16-1.59-.21-1.98-.87-.13-.22-.35-.51-.56-.36-.05.04-.09.11-.12.16-.17.35-.31.72-.42,1.1-.1.36-.21.78-.55.92-.18.07-.38.05-.56.08-.41.07-.72.38-1.05.62-.33.24-.78.43-1.14.24-.2-.1-.33-.3-.43-.49-.68-1.29-.31-3.03.82-3.95,1.38-1.12,3.38-.9,5.08-1.44.25-.08.52-.19.67-.41.27-.38.12-.91-.1-1.31-.28-.54-.65-1.03-1.09-1.44-.41-.39-.91-.77-1.01-1.33-.13-.69.43-1.32,1.01-1.71,1.4-.93,3.13-1.2,4.81-1.25.18,0,.39-.02.48-.18.05-.08.04-.18.04-.28-.01-.24-.1-.62-.03-.89,1.34.68,2.69,1.36,4.03,2.04.2.1.4.2.53.39.09.13.13.28.15.44-.12.11-.24.21-.37.3-.89.66-1.84,1.24-2.84,1.72-.1.05-.19.09-.25.19-.05.08-.06.18-.07.27Z"/>
      <path class="cls-1" d="M251.26,257.76c-.76.85-2.06.85-3.19.74-.35-.03-.7-.07-1.04-.16-.11-.53-.27-1.04-.48-1.53.2.08.36.15.43.18.69.26,1.41.43,2.14.5.27.03.56.04.82-.05.64-.23.9-1.06.73-1.72-.17-.66-.64-1.19-1.09-1.71-1-1.14-1.96-2.33-2.88-3.54-.47-.62-.93-1.26-1.24-1.97-.48-1.08-.61-2.29-.63-3.47-.01-.82.02-1.64.23-2.44.47-1.78,1.78-3.24,3.32-4.24.65-.42,1.36-.78,1.89-1.34.05.64.1,1.3-.09,1.92-.12.38-.32.72-.41,1.1-.09.38-.08.78-.11,1.18-.09,1.14-.58,2.2-1.11,3.21-.52,1.01-1.09,2.02-1.35,3.13-.65,2.72,1.39,3.71,3.29,5.9.52.61,1,1.28,1.21,2.05.21.77.1,1.66-.43,2.26Z"/>
      <path class="cls-2" d="M235.42,238.82c-.05.11-.1.22-.16.32-1.09-.15-2.19-.23-3.29-.26-.63-.01-1.26,0-1.88-.14-.62-.13-1.22-.39-1.64-.86-.42-.47-.6-1.17-.36-1.75.09-.21.25-.41.46-.51.13-.06.28-.08.43-.07.49.03.96.34,1.11.8.16.46-.08,1.03-.53,1.2.58.76,1.65.85,2.6.88.65.02,1.3.04,1.94.07.33.01.96.06,1.32.32Z"/>
      <path class="cls-1" d="M242.07,239.47c-.03-.43-.23-1.22-.08-1.62h0c-1.21-1.31-2.97-2.49-4.7-3.46-1.23.1-2.45.2-3.67.3-.4.03-.84.07-1.16.32-.56.43-.55,1.27-.46,1.97.01.14.04.29.12.4.1.13.26.19.42.22.55.1,1.11-.09,1.67-.11.56-.02,1.23.26,1.3.81.02.18-.02.36-.1.53-.05.11-.1.22-.16.32,0,.01-.01.03-.02.04-.33.57-.79,1.22-1.44,1.19-.38-.02-.7-.26-1.05-.4-.35-.15-.83-.15-1.02.17-.18.3.02.71.32.88.31.17.67.16,1.02.16.66-.02,1.32-.03,1.98-.05.45-.01,1.35-.2,1.72.02-.24.42-.85.61-1.29.72-1.16.3-2.37.33-3.55.46-.85.09-1.7.24-2.49.57-.61.25-1.1.87-1.8.76-.81-.12-1.52-.66-2.05-1.27-.67-.78-1.19-1.7-1.97-2.36-.78-.66-1.84-1.08-2.25-2.02.96-.05,1.83-.82,2-1.76.17-.94-.38-1.96-1.26-2.35.08.49.06.98-.05,1.47-.35-.14-.74-.27-1.1-.17-.36.11-.63.58-.39.88-.73-.64-1.62-1.1-2.56-1.35-.27-.07-.55-.12-.81-.04-.26.09-.48.36-.42.63,1.19.03,1.34,2.18,2.52,2.28-.66.47-1.54.39-2.34.5-.8.12-1.71.68-1.61,1.48,1.57-.25,3.15-.39,4.74-.44.25-.01-.34,1.01-.4,1.08-.28.26-.66.45-.98.67-.39.27-1.9,1.79-.65,1.54,1.02-.21,2.03-.53,3.02-.85.07.83.13,1.66.2,2.48.24-.29.48-.57.73-.86l.36,1.63c.2-.16.4-.32.61-.48.46.36.77.88.88,1.45.24-.02.47-.04.71-.05.04.14.07.27.11.41-.52.28-1.4.09-1.53.66-.06.26.13.52.37.64.24.12.52.12.78.11.57-.02,1.13-.07,1.68-.17.52-.08,1.13-.35,1.63-.34.09.5-1.09,1.56-1.42,1.91-.6.63-1.3,1.19-2.1,1.53-.06.02-.12.05-.13.11-.01.08.07.14.15.17.5.18.99.08,1.46-.13.43-.19.83-.46,1.2-.69.93-.56,1.81-1.22,2.62-1.94-.78,1.37-1.57,2.75-2.35,4.12,2.1-.36,3.99-1.84,4.85-3.79-.03,1.49-.15,2.98-.38,4.45,1.39-1.02,2.37-2.58,2.7-4.27.24.75.05,1.56.03,2.35-.02.79.22,1.7.95,2.01.7-1.45,1.4-2.9,2.11-4.35.3,1.11.6,2.23.9,3.34.66-.51.88-1.41.9-2.24,0-.33-.01-.66-.03-.99-.02-.5-.05-1.01.02-1.51.53.89,1.12,1.74,1.77,2.54.03-1.11-.01-2.23-.12-3.33.43.46.87.92,1.3,1.37.01-1.18-.14-2.37-.45-3.51.17.17.34.33.51.5.26-.53-.06-1.14-.13-1.73-.07-.61.21-1.09.27-1.67.07-.59-.12-1.27-.16-1.86ZM237.62,237.81c-.36,0-.66-.29-.66-.66s.29-.65.66-.65.65.29.65.65-.29.66-.65.66Z"/>
    </g>
    <path class="cls-4" d="M196.21,185.16c0,1.13-.88,2.05-1.99,2.12-.26-.99-1.15-1.72-2.22-1.72-.03-.13-.04-.26-.04-.39,0-1.17.95-2.13,2.13-2.13.58,0,1.1.23,1.48.6h0c.21.21.38.45.49.73.1.25.15.52.15.8Z"/>
    <path class="cls-4" d="M199.03,183.03h0c0,.99-.8,1.78-1.79,1.78-.46,0-.87-.17-1.18-.46-.11-.27-.28-.52-.49-.73h0c-.07-.19-.1-.39-.1-.6,0-.98.8-1.78,1.78-1.78.63,0,1.2.33,1.51.84h0c.18.28.28.6.28.95Z"/>
    <path class="cls-4" d="M201.98,182.13c0,.9-.72,1.62-1.61,1.62-.56,0-1.05-.28-1.34-.71h0c0-.35-.1-.67-.28-.95h0c.02-.88.74-1.58,1.62-1.58s1.61.73,1.61,1.62Z"/>
    <path class="cls-4" d="M204.95,181.65c0,.09,0,.18-.03.27-.13.7-.74,1.23-1.47,1.23-.83,0-1.51-.67-1.51-1.5s.67-1.51,1.51-1.51c.69,0,1.28.47,1.45,1.11h0c.04.13.05.26.05.4Z"/>
    <path class="cls-4" d="M187.38,185.16c0-.69.56-1.25,1.25-1.25s1.25.56,1.25,1.25-.56,1.25-1.25,1.25-1.25-.56-1.25-1.25Z"/>
    <path class="cls-4" d="M184.2,185.16c0-.88.71-1.59,1.59-1.59s1.59.71,1.59,1.59-.71,1.59-1.59,1.59-1.59-.71-1.59-1.59Z"/>
    <path class="cls-4" d="M181.02,185.8c0-.88.71-1.59,1.59-1.59s1.59.71,1.59,1.59-.71,1.59-1.59,1.59-1.59-.71-1.59-1.59Z"/>
    <path class="cls-4" d="M177.66,186.53c0-.93.75-1.68,1.68-1.68s1.68.75,1.68,1.68-.75,1.68-1.68,1.68-1.68-.75-1.68-1.68Z"/>
    <path class="cls-4" d="M174.27,188.14c0-1.04.85-1.89,1.89-1.89s1.89.85,1.89,1.89-.85,1.89-1.89,1.89-1.89-.85-1.89-1.89Z"/>
    <path class="cls-4" d="M171.63,190.82c0-1.04.85-1.89,1.89-1.89s1.89.85,1.89,1.89-.85,1.89-1.89,1.89-1.89-.85-1.89-1.89Z"/>
    <path class="cls-4" d="M169.01,194.65c0-1.35,1.1-2.45,2.45-2.45s2.45,1.1,2.45,2.45-1.1,2.45-2.45,2.45-2.45-1.1-2.45-2.45Z"/>
    <path class="cls-4" d="M168.5,199.85c0-1.52,1.23-2.75,2.75-2.75s2.75,1.23,2.75,2.75-1.23,2.75-2.75,2.75-2.75-1.23-2.75-2.75Z"/>
    <path class="cls-4" d="M216.62,181.53c0,.76.62,1.39,1.39,1.39.63,0,1.17-.42,1.34-1-.02-.09-.03-.18-.03-.27,0-.14.02-.27.05-.39h0c-.13-.64-.69-1.11-1.36-1.11-.77,0-1.39.62-1.39,1.39Z"/>
    <path class="cls-4" d="M231.71,195.75c0,1.39,1.13,2.51,2.52,2.51s2.51-1.12,2.51-2.51c0-1-.58-1.86-1.41-2.26-.33-.16-.7-.25-1.1-.25-.59,0-1.14.2-1.57.55-.58.46-.95,1.17-.95,1.97Z"/>
    <path class="cls-4" d="M236.1,191.76c0,.2-.03.39-.08.58-.11.45-.36.85-.7,1.14-.33-.16-.7-.25-1.1-.25-.59,0-1.14.2-1.57.55-.71-.39-1.19-1.15-1.19-2.02,0-.61.24-1.18.64-1.59.09-.1.19-.19.3-.27.38-.29.86-.45,1.37-.45.06,0,.12,0,.18,0h0c1.19.09,2.13,1.09,2.13,2.31Z"/>
    <path class="cls-4" d="M229.98,187.87c0,1.22.94,2.22,2.14,2.31.41-.45,1.01-.73,1.67-.73.06,0,.12,0,.18,0h0c.39-.41.64-.97.64-1.59,0-1.28-1.04-2.32-2.31-2.32h-.01c-1.07,0-1.97.74-2.22,1.72-.05.19-.08.39-.08.59Z"/>
    <path class="cls-4" d="M228.06,185.16c0,1.13.88,2.05,1.99,2.12.26-.99,1.15-1.72,2.22-1.72.03-.13.04-.26.04-.39,0-1.17-.95-2.13-2.13-2.13-.58,0-1.1.23-1.48.6h0c-.21.21-.38.45-.49.73-.1.25-.16.52-.16.8Z"/>
    <path class="cls-4" d="M225.25,183.03h0c0,.99.8,1.78,1.79,1.78.46,0,.87-.17,1.18-.46.11-.27.28-.52.49-.73h0c.07-.19.1-.39.1-.6,0-.98-.8-1.78-1.78-1.78-.63,0-1.2.33-1.51.84h0c-.18.28-.28.6-.28.95Z"/>
    <path class="cls-4" d="M222.3,182.13c0,.9.72,1.62,1.61,1.62.56,0,1.05-.28,1.34-.71h0c0-.35.1-.67.28-.95h0c-.02-.88-.74-1.58-1.62-1.58s-1.61.73-1.61,1.62Z"/>
    <path class="cls-4" d="M219.32,181.65c0,.09,0,.18.03.27.13.7.74,1.23,1.47,1.23.83,0,1.51-.67,1.51-1.5s-.67-1.51-1.51-1.51c-.69,0-1.28.47-1.45,1.11h0c-.04.13-.05.26-.05.4Z"/>
    <path class="cls-4" d="M236.9,185.16c0-.69-.56-1.25-1.25-1.25s-1.25.56-1.25,1.25.56,1.25,1.25,1.25,1.25-.56,1.25-1.25Z"/>
    <path class="cls-4" d="M240.08,185.16c0-.88-.71-1.59-1.59-1.59s-1.59.71-1.59,1.59.71,1.59,1.59,1.59,1.59-.71,1.59-1.59Z"/>
    <path class="cls-4" d="M243.25,185.8c0-.88-.71-1.59-1.59-1.59s-1.59.71-1.59,1.59.71,1.59,1.59,1.59,1.59-.71,1.59-1.59Z"/>
    <path class="cls-4" d="M246.61,186.53c0-.93-.75-1.68-1.68-1.68s-1.68.75-1.68,1.68.75,1.68,1.68,1.68,1.68-.75,1.68-1.68Z"/>
    <path class="cls-4" d="M250.01,188.14c0-1.04-.85-1.89-1.89-1.89s-1.89.85-1.89,1.89.85,1.89,1.89,1.89,1.89-.85,1.89-1.89Z"/>
    <path class="cls-4" d="M252.65,190.82c0-1.04-.85-1.89-1.89-1.89s-1.89.85-1.89,1.89.85,1.89,1.89,1.89,1.89-.85,1.89-1.89Z"/>
    <path class="cls-4" d="M255.27,194.65c0-1.35-1.1-2.45-2.45-2.45s-2.45,1.1-2.45,2.45,1.1,2.45,2.45,2.45,2.45-1.1,2.45-2.45Z"/>
    <path class="cls-4" d="M255.78,199.85c0-1.52-1.23-2.75-2.75-2.75s-2.75,1.23-2.75,2.75,1.23,2.75,2.75,2.75,2.75-1.23,2.75-2.75Z"/>
    <path class="cls-4" d="M178.07,211.12c0,.88-.59,1.61-1.4,1.83-.16.05-.34.07-.51.07-1.05,0-1.91-.85-1.91-1.91,0-.46.16-.87.42-1.19h0c.35-.44.88-.71,1.48-.71,1.05,0,1.91.85,1.91,1.91Z"/>
    <path class="cls-4" d="M183.12,210.05c0-.59.48-1.08,1.08-1.08s1.08.48,1.08,1.08-.48,1.08-1.08,1.08-1.08-.48-1.08-1.08Z"/>
    <path class="cls-4" d="M199.48,208.28c0-.59.48-1.08,1.08-1.08s1.08.48,1.08,1.08-.48,1.08-1.08,1.08-1.08-.48-1.08-1.08Z"/>
    <path class="cls-4" d="M250.02,211.12c0,1.05-.85,1.91-1.91,1.91-.18,0-.35-.03-.51-.07-.8-.22-1.4-.96-1.4-1.83,0-1.05.85-1.91,1.91-1.91.6,0,1.14.28,1.48.71.26.32.42.74.42,1.19Z"/>
    <path class="cls-4" d="M241.15,210.05c0-.59-.48-1.08-1.08-1.08s-1.08.48-1.08,1.08.48,1.08,1.08,1.08,1.08-.48,1.08-1.08Z"/>
    <path class="cls-4" d="M224.8,208.28c0-.59-.48-1.08-1.08-1.08s-1.08.48-1.08,1.08.48,1.08,1.08,1.08,1.08-.48,1.08-1.08Z"/>
    <path class="cls-4" d="M192.8,207.8c0,.25-.05.48-.13.7-.28.71-.97,1.21-1.77,1.21-.36,0-.7-.1-.99-.28-.55-.33-.92-.94-.92-1.63,0-1.05.86-1.9,1.91-1.9s1.9.85,1.9,1.9Z"/>
    <path class="cls-4" d="M235.29,207.8c0-1.05-.85-1.91-1.91-1.91s-1.91.85-1.91,1.91.85,1.91,1.91,1.91,1.91-.85,1.91-1.91Z"/>
    <path class="cls-4" d="M214.04,205.68c0,.54-.22,1.02-.58,1.37-.34.33-.81.54-1.33.54s-.99-.21-1.33-.54c-.36-.35-.58-.83-.58-1.37,0-1.05.85-1.91,1.91-1.91s1.91.85,1.91,1.91Z"/>
    <path class="cls-2" d="M196.01,259.5v18.2c0,8.91,7.22,16.13,16.13,16.13h0c8.91,0,16.13-7.22,16.13-16.13v-18.2h-32.26Z"/>
    <path class="cls-3" d="M212.14,288.43c-5.91,0-10.72-4.81-10.72-10.72v-12.79h21.44v12.79c0,5.91-4.81,10.72-10.72,10.72Z"/>
    <path class="cls-6" d="M214.66,279.03c-.33,0-.62.08-.87.23.14-.45.24-.89.24-1.28,0-1.79-1.88-3.26-1.88-3.26,0,0-1.88,1.47-1.88,3.26,0,.39.09.83.24,1.28-.25-.14-.54-.23-.87-.23-2.12,0-2.52,3.65,0,3.65,0,0-.41-1.57.39-1.57.62,0,.86.77.93,1.25h-.43v1.63h.58l-.92,1.21c-.11.15.05.36.22.28l.81-.37.76,1.65c.07.14.27.14.33,0l.76-1.65.82.37c.17.08.34-.13.22-.28l-.92-1.21h.58v-1.63h-.42c.07-.48.31-1.25.93-1.25.8,0,.39,1.57.39,1.57,2.52,0,2.12-3.65,0-3.65Z"/>
    <path class="cls-6" d="M209.29,270.34c-.33,0-.62.08-.87.23.14-.45.24-.89.24-1.28,0-1.79-1.89-3.26-1.89-3.26,0,0-1.88,1.47-1.88,3.26,0,.39.09.83.24,1.28-.25-.14-.54-.23-.87-.23-2.13,0-2.52,3.65,0,3.65,0,0-.41-1.57.39-1.57.62,0,.86.77.93,1.25h-.43v1.63h.58l-.92,1.21c-.12.15.05.36.22.28l.81-.37.76,1.65c.07.14.27.14.33,0l.76-1.65.82.37c.17.08.34-.13.22-.28l-.92-1.21h.58v-1.63h-.43c.07-.48.31-1.25.93-1.25.8,0,.39,1.57.39,1.57,2.52,0,2.12-3.65,0-3.65Z"/>
    <path class="cls-6" d="M214.98,270.34c.33,0,.62.08.87.23-.14-.45-.24-.89-.24-1.28,0-1.79,1.89-3.26,1.89-3.26,0,0,1.88,1.47,1.88,3.26,0,.39-.09.83-.24,1.28.25-.14.54-.23.87-.23,2.13,0,2.52,3.65,0,3.65,0,0,.42-1.57-.39-1.57-.62,0-.86.77-.93,1.25h.43v1.63h-.58l.92,1.21c.12.15-.05.36-.22.28l-.81-.37-.76,1.65c-.07.14-.27.14-.33,0l-.76-1.65-.82.37c-.17.08-.34-.13-.22-.28l.92-1.21h-.58v-1.63h.43c-.07-.48-.31-1.25-.93-1.25-.8,0-.39,1.57-.39,1.57-2.52,0-2.12-3.65,0-3.65Z"/>
  </g>
</svg>