<?xml version="1.0" encoding="UTF-8"?>
<svg id="_Layer_" data-name="&amp;lt;Layer&amp;gt;" xmlns="http://www.w3.org/2000/svg" viewBox="0 0 500 500">
  <defs>
    <style>
      .cls-1 {
        fill: #e93323;
      }

      .cls-2 {
        fill: #fff;
      }
    </style>
  </defs>
  <path class="cls-1" d="M-126.53,0h753.06v500H-126.53V0h0ZM249.98,124.99c-69.31,0-125.51,55.97-125.51,125.01s56.19,125,125.51,125,125.51-55.96,125.51-125-56.19-125.01-125.51-125.01h0ZM249.98,156.25c31.28,0,58.98,15.2,76.12,38.57-13.43-12.3-31.33-19.81-51.01-19.81-41.59,0-75.31,33.56-75.31,75s33.72,74.99,75.31,74.99c19.68,0,37.59-7.51,51.01-19.81-17.14,23.38-44.84,38.57-76.12,38.57-51.98,0-94.12-41.97-94.12-93.74s42.13-93.75,94.12-93.75h0ZM257.64,196.5l24.11,33.06,39.03-12.61-24.12,33.07,24.12,33.06-39.03-12.62-24.11,33.06v-40.86l-39.04-12.63,39.04-12.64v-40.87h0Z"/>
  <path class="cls-2" d="M249.98,124.99c-69.31,0-125.51,55.97-125.51,125.01s56.19,125,125.51,125,125.51-55.96,125.51-125-56.19-125.01-125.51-125.01h0ZM249.98,156.25c31.28,0,58.98,15.2,76.12,38.57-13.43-12.3-31.33-19.81-51.01-19.81-41.59,0-75.31,33.56-75.31,75s33.72,74.99,75.31,74.99c19.68,0,37.59-7.51,51.01-19.81-17.14,23.38-44.84,38.57-76.12,38.57-51.98,0-94.12-41.97-94.12-93.74s42.13-93.75,94.12-93.75h0ZM257.64,196.5l24.11,33.06,39.03-12.61-24.12,33.07,24.12,33.06-39.03-12.62-24.11,33.06v-40.86l-39.04-12.63,39.04-12.64v-40.87h0Z"/>
</svg>