<?xml version="1.0" encoding="UTF-8"?>
<svg id="_Layer_" data-name="&amp;lt;Layer&amp;gt;" xmlns="http://www.w3.org/2000/svg" viewBox="0 0 500 500">
  <defs>
    <style>
      .cls-1 {
        fill: #3171b8;
      }

      .cls-2 {
        fill: #fff;
      }

      .cls-3 {
        fill: #f4be41;
      }

      .cls-4 {
        fill: #42330b;
      }
    </style>
  </defs>
  <rect class="cls-2" width="750.61" height="500"/>
  <path class="cls-1" d="M0,444.43h750.61v-55.57H0v55.57ZM0,333.34h750.61v-55.62H0v55.62ZM278.12,222.2h472.49v-55.54h-472.49v55.54ZM278.12,111.07h472.49v-55.52h-472.49v55.52Z"/>
  <path class="cls-4" d="M245.9,139.3c-5.79-1.04,3.45.64-56.37-10.24,31.63-13.75,20.88-27.64,43.42-27.64,5.12-.94,5.12-.22.82-2.37-23.42-10.3-22.07,7.55-49.75,9.15,40.83-59.25,42.66-53.62-15.61-12.64,12.38-31.93-5.45-32.12,10.55-49.69,3.08-3.05,3.76-2.68-1.6-1.62-22.89,7.13-10.68,22.02-28.28,41.3-12.51-69.3-7.28-70.24-20.33,1.81-13.85-30.96-26.37-18.72-27.98-42.27,0-4.32.53-4.32-1.6,0-11.38,21.23,7.17,19.82,8.87,49.29-58.72-41.3-53.15-43.04-13.26,14.8-30.46-11.34-31.4,6.44-48.83-9.37-4.26-3.22-3.73-3.51-1.6.85,7.07,22.77,22.53,10.81,41.59,28.87-52.43,9.54-47.05,8.57-53.72,9.76,6.72,1.07-2.8-.62,55.1,9.93-30.9,13.92-18.73,26.41-42.17,27.86-5.39,0-5.12-.55-.8,1.65,22.92,11.4,22.85-7.32,49.58-8.57-32.05,46.04-26.91,38.15-30.26,44.84,5.63-4.54-2.24,1.1,46.08-32.45-12.79,31.91,5.95,31.97-10.58,50.13-3.29,3.22-3.75,2.9,1.6.82,22.91-7.17,10.47-20.55,28.38-40.48,12.58,68.87,7.24,69.26,20.25-2.23,13.49,30.95,26.2,18,27.95,41.89,0,5.39-.53,5.11,1.6.82,11.41-21.32-7.35-20.39-8.9-49.78,46.24,32.1,38.73,26.69,44.34,31.28-3.4-6.86,1.85,1.26-31.6-46.83,30.12,12.01,34.04-4.76,49.37,10.57,4.26,3.26,3.73,3.53,1.6-.8-6.89-23.68-20.63-9.69-41.05-29.06,55.64-10.14,46.46-8.51,53.18-9.58Z"/>
  <g>
    <path class="cls-3" d="M111.25,210.16c6.45-39.09,21.72-43.73,1.53-29.71-12.96,31.06,1.85,33.98-7.7,47.94,4.17-4.23,4.92-10.34,6.17-18.23Z"/>
    <path class="cls-3" d="M108.36,227.76c9.64-7.17,3.54-19.9,20.28-37.56l-3.2-17.51c-16.24,29.65-8.5,43.57-17.08,55.07Z"/>
    <path class="cls-3" d="M170.89,49.2c-5.64,3.66-6.84,8.35-8.04,14.38-9.2,32.98-16.17,8.71-10.24,41.58,16.19-29.47,10.41-46.44,18.28-55.96Z"/>
    <path class="cls-3" d="M166.87,67.59c-6,39.35-23.2,45.36-1.3,29.96,12.95-31.75-2.76-33.58,8.06-48.76-4.7,4.25-5.51,10.53-6.75,18.8Z"/>
    <path class="cls-3" d="M49.62,107.58c8.25,12.12,21.15,4.52,38.42,21.58l17.21-3.13c-27.35-16.13-44.96-9.54-55.63-18.45Z"/>
    <path class="cls-3" d="M67.72,111.07c38.24,5.91,44.7,23.69,29.34,1.42-30.08-12.11-33.78,2.24-48.4-8.3,4.26,5.09,10.6,6.27,19.06,6.88Z"/>
    <path class="cls-3" d="M173.7,155.09l7.22,10.39c29.83,13.02,34.05-1.39,47.37,7.29-8.73-8.63-28.42-2.99-54.59-17.68Z"/>
    <path class="cls-3" d="M190.34,149.31l-17.41,3.17c30.25,16.55,46.67,9.64,56.24,18.77-7.88-13.07-19.89-3.69-38.84-21.94Z"/>
    <path class="cls-3" d="M105.42,153.67c-30.14,8.31-39.31,25.1-51.44,26.43,13.88,2.5,16.35-11.55,41.59-12.28l9.86-14.16Z"/>
    <path class="cls-3" d="M103.88,152.24l-13.36-2.44c-30.99,13.07-21.52,25.55-38.53,28.42,12.74-.3,22.09-17.52,51.89-25.98Z"/>
    <path class="cls-3" d="M173.05,124.11c30.47-7.35,37.21-25.1,52.14-26.14-13.86-2.72-16.32,11.64-42.44,12.07l-9.7,14.08Z"/>
    <path class="cls-3" d="M174.31,126.28l12.35,2.25c30.78-11.96,23.02-25.75,41.1-28.9-14.24-.7-23.17,18.03-53.44,26.65Z"/>
    <path class="cls-3" d="M125.98,102.62l2.18-12.04c-12.73-30.01-25.54-22.49-28.46-40.59-1.33,14.98,17.06,21.3,26.28,52.63Z"/>
    <path class="cls-3" d="M110.09,95.82l14.46,10.17c-7.29-31.55-25.42-38.27-26.46-52.76-2.65,13.2,11.47,18.12,12.01,42.59Z"/>
    <path class="cls-3" d="M168.04,182.32l-14.19-9.85c9.04,32.97,25.16,37.67,26.18,52.73,2.53-13.07-11.36-17.95-11.99-42.89Z"/>
    <path class="cls-3" d="M152.4,174.34l-2.44,13.4c13.18,30.37,25.71,23.42,28.46,40.06,1.3-14.42-18.19-21.77-26.02-53.46Z"/>
    <path class="cls-3" d="M137.86,184.88c0-16.46,2.68-8.45-10.18-13.08,13.63,74.41,10.18,69.36,10.18,13.08Z"/>
    <path class="cls-3" d="M144.95,173.35c-6.23,1.13-4.64-8.37-4.64,53.99,11.9-65.19,12.35-55.38,4.64-53.99Z"/>
    <path class="cls-3" d="M140.31,93.68c0,15.37-2.54,7.64,9.97,12.15-13.42-73.5-9.97-68.01-9.97-12.15Z"/>
    <path class="cls-3" d="M133.32,104.44c6.23-1.12,4.55,8.1,4.55-53.23-12.03,65.7-11.71,54.52-4.55,53.23Z"/>
    <path class="cls-3" d="M104.04,138.42c.34-13.45,8.6-11.97-14.53-7.75-59.81,10.91-58.08,7.75,14.53,7.75Z"/>
    <path class="cls-3" d="M91.67,148.26c19.36,3.55,13.54,4.5,12.5-5.48-.37-3.51,1.41-2.71-6.99-2.71-67.3,0-64.91-2.68-5.51,8.19Z"/>
    <path class="cls-3" d="M174.07,140.07c-.31,13.59-8.83,12.07,14.8,7.75,59.76-10.93,57.72-7.75-14.8-7.75Z"/>
    <path class="cls-3" d="M185.26,130.05c-17.65-3.21-12.36-4.26-11.34,5.68.36,3.49-1.67,2.69,7,2.69,66.59,0,65.97,2.86,4.34-8.37Z"/>
    <path class="cls-3" d="M112.28,178.64c15.86-11.02,12.68-6.32,4.75-12.9-2.36-1.96-.71-2.56-6.38,3.11-46.84,46.78-49.7,45.45,1.64,9.79Z"/>
    <path class="cls-3" d="M114.09,163c-9.84-10.08-2.98-14.22-16.1,4.82-34.93,50.68-36.47,47.75,16.1-4.82Z"/>
    <path class="cls-3" d="M165.93,99.02c-15.93,11.06-12.8,6.4-4.86,12.98,2.92,2.42,1.03,3.03,7.08-3,50.17-50.06,51.75-47.44-2.22-9.98Z"/>
    <path class="cls-3" d="M181,109.08c34.03-48.87,34.88-45.36-16.6,6.08,9.32,9.89,2.36,14.38,16.6-6.08Z"/>
    <path class="cls-3" d="M99.4,112.35c10.82,15.54,6.21,12.47,12.71,4.59,2.15-2.61,2.77-.89-3.04-6.76-49.23-49.74-47.93-52.77-9.67,2.17Z"/>
    <path class="cls-3" d="M114.91,113.93c10.09-9.81,14.95-2.64-4.83-16.37-52.98-36.77-50.24-38.57,4.83,16.37Z"/>
    <path class="cls-3" d="M178.46,165.39c-10.41-15.11-5.96-12.18-12.48-4.5-2.29,2.69-2.88.92,3.05,6.78,44.86,44.37,43.94,47.8,9.43-2.28Z"/>
    <path class="cls-3" d="M162.8,164.19c-9.76,9.18-14.22,2.46,5.23,15.98,49.71,34.54,46.42,35.62-5.23-15.98Z"/>
    <path class="cls-3" d="M165.91,157.93c11.9-17.08,4.88-42.46-15.41-49.78-21.31-7.67-46.34,8.39-43.92,34.45,2.74,29.53,41.34,41.16,59.32,15.33ZM157.65,129.02c2.23,2.59-.73,4,1.98,2.2.91-.89-.26.51-1.97,1.87-5.65,4.49-12.4-.2-11.72-1.01.8-.96,1.83.05,1.61-.08,5.79,3.37.9.27.86-2.22-.01-.63,1.92-3.71-3.28,1.44,0-5,6.8-5.35,9.85-4.65,3.64.84,5.58,3.94,7.05,4.65-1.03,0-2.35-1.26-4.38-2.2ZM162.04,124.05c6.51,4.99-6.03-1.48-13.23.39-4.07,1.06-4.86,3.38-6.11,2.76-.42-.45,7.99-11.84,19.33-3.15ZM136.24,144.14c-1.05,3.2,6.82,3.41,5.67,0,.79,1.56,3.41,1.72,3.19-.4-.13-1.3-.8-1.33-.8-2.87,2.43.83,1.66,4.84,4.07,5.64,1.89,0,3.6,1.76,3.38,2.33-.25.66-4.29-4.53-10.93-1.1-2.63,1.36-4.34-1.23-7-1.23-2.3,0-5.65.81-7.26,2.44-.8,0,.85-2.44,3.2-2.44,2.47-.8,1.65-4.82,4.07-5.64,0,.22-.82,3.49-.82,3.27,0,1.58,2.51,1.5,3.24,0ZM114.92,126.04c-1.26-1.06,3.46-3.59,5.72-4.42,8.35-3.07,15.39,4.97,14.82,5.59-1.28.62-2.08-1.7-6.15-2.76-8.17-2.12-12.96,2.81-14.39,1.6ZM120.47,133.08c-1.72-1.36-2.88-2.75-1.97-1.86,2.57,1.72-.13.47,1.78-1.99-9.55,5.27.49-2.69,4.39-2.84,4.39-.17,8.34.61,8.34,4.83-1.73-1.71-2.54-2.5-3.64-2.87-.7-.24,2.22,1.89-1.78,5.03,2.31-.62,3.58-2.1,4.29-1.73,2.06.82-4.96,6.49-11.4,1.44ZM134.38,158.96c-3.64-.84-10.47-5.72-11.74-4.21-6.52,7.78,6.72-9.08.65-.83,4.77.6,7.87-2.56,10.53-2.56,2.46,0,4.2,1.12,6.41.75,10.61-1.77,6.49,2.79,14.77,1.79.22-.03.3.16-1-1.49-2.25-2.86,1.79,1.33,2.08,1.78.16.25,2.33,4.91.17,1.35-2.51-4.12-8.6,6.47-21.86,3.43ZM139.46,163.44c-5.93,0-1.14-1.09.85-.75,2.02.35,2.24.75-.85.75Z"/>
    <path class="cls-3" d="M122.04,133.1c2.85.96-2.19-1.24,1.18-4.95-3.08.55-4.71,3.77-1.18,4.95Z"/>
    <path class="cls-3" d="M154.98,128.17c-.62-.11,1.41.68.88,3.5-.35,1.84-1.12,1.79-.57,1.66,3.86-.93,3.52-4.47-.31-5.16Z"/>
    <path class="cls-3" d="M147,155.86c4.07-1.25-7.48-1.29-6.69-1.29-20.75-.22-3.04,4.28,6.69,1.29Z"/>
  </g>
</svg>