<?xml version="1.0" encoding="UTF-8"?>
<svg id="_Layer_" data-name="&amp;lt;Layer&amp;gt;" xmlns="http://www.w3.org/2000/svg" viewBox="0 0 500 500">
  <defs>
    <style>
      .cls-1 {
        fill: #dd3021;
      }

      .cls-2 {
        fill: #fff;
      }

      .cls-3 {
        fill: #113194;
      }
    </style>
  </defs>
  <rect class="cls-3" width="378.49" height="269.23"/>
  <rect class="cls-1" x="378.49" width="371.29" height="38.46"/>
  <rect class="cls-2" x="378.49" y="38.46" width="371.29" height="38.46"/>
  <rect class="cls-1" x="378.49" y="76.92" width="371.29" height="38.46"/>
  <rect class="cls-2" x="378.49" y="115.39" width="371.29" height="38.46"/>
  <rect class="cls-1" x="378.49" y="153.85" width="371.29" height="38.46"/>
  <rect class="cls-2" x="378.49" y="192.31" width="371.29" height="38.46"/>
  <rect class="cls-1" x="378.49" y="230.77" width="371.29" height="38.46"/>
  <rect class="cls-2" y="269.23" width="749.78" height="38.46"/>
  <rect class="cls-1" y="307.69" width="749.78" height="38.46"/>
  <rect class="cls-2" y="346.15" width="749.78" height="38.46"/>
  <rect class="cls-1" y="384.62" width="749.78" height="38.46"/>
  <rect class="cls-2" y="423.08" width="749.78" height="38.46"/>
  <rect class="cls-1" y="461.54" width="749.78" height="38.46"/>
  <g>
    <g>
      <polygon class="cls-2" points="62.52 40.8 65.82 50.96 76.5 50.96 67.86 57.24 71.16 67.39 62.52 61.12 53.88 67.39 57.18 57.24 48.54 50.96 59.22 50.96 62.52 40.8"/>
      <polygon class="cls-2" points="125.88 40.8 129.18 50.96 139.86 50.96 131.22 57.24 134.52 67.39 125.88 61.12 117.24 67.39 120.54 57.24 111.9 50.96 122.58 50.96 125.88 40.8"/>
      <polygon class="cls-2" points="189.24 40.8 192.54 50.96 203.22 50.96 194.58 57.24 197.88 67.39 189.24 61.12 180.6 67.39 183.9 57.24 175.26 50.96 185.94 50.96 189.24 40.8"/>
      <polygon class="cls-2" points="252.6 40.8 255.9 50.96 266.58 50.96 257.94 57.24 261.24 67.39 252.6 61.12 243.96 67.39 247.26 57.24 238.62 50.96 249.3 50.96 252.6 40.8"/>
      <polygon class="cls-2" points="315.96 40.8 319.26 50.96 329.94 50.96 321.3 57.24 324.6 67.39 315.96 61.12 307.32 67.39 310.62 57.24 301.98 50.96 312.66 50.96 315.96 40.8"/>
    </g>
    <g>
      <polygon class="cls-2" points="30.84 13.96 34.14 24.12 44.82 24.12 36.18 30.4 39.48 40.56 30.84 34.28 22.2 40.56 25.5 30.4 16.86 24.12 27.54 24.12 30.84 13.96"/>
      <polygon class="cls-2" points="94.2 13.96 97.5 24.12 108.18 24.12 99.54 30.4 102.84 40.56 94.2 34.28 85.56 40.56 88.86 30.4 80.22 24.12 90.9 24.12 94.2 13.96"/>
      <polygon class="cls-2" points="157.56 13.96 160.86 24.12 171.54 24.12 162.9 30.4 166.2 40.56 157.56 34.28 148.92 40.56 152.22 30.4 143.58 24.12 154.26 24.12 157.56 13.96"/>
      <polygon class="cls-2" points="220.92 13.96 224.22 24.12 234.9 24.12 226.26 30.4 229.56 40.56 220.92 34.28 212.28 40.56 215.58 30.4 206.94 24.12 217.62 24.12 220.92 13.96"/>
      <polygon class="cls-2" points="284.28 13.96 287.58 24.12 298.26 24.12 289.62 30.4 292.92 40.56 284.28 34.28 275.64 40.56 278.94 30.4 270.3 24.12 280.98 24.12 284.28 13.96"/>
      <polygon class="cls-2" points="347.64 13.96 350.94 24.12 361.62 24.12 352.98 30.4 356.29 40.56 347.64 34.28 339 40.56 342.3 30.4 333.66 24.12 344.34 24.12 347.64 13.96"/>
    </g>
    <g>
      <polygon class="cls-2" points="62.52 94.48 65.82 104.64 76.5 104.64 67.86 110.92 71.16 121.07 62.52 114.8 53.88 121.07 57.18 110.92 48.54 104.64 59.22 104.64 62.52 94.48"/>
      <polygon class="cls-2" points="125.88 94.48 129.18 104.64 139.86 104.64 131.22 110.92 134.52 121.07 125.88 114.8 117.24 121.07 120.54 110.92 111.9 104.64 122.58 104.64 125.88 94.48"/>
      <polygon class="cls-2" points="189.24 94.48 192.54 104.64 203.22 104.64 194.58 110.92 197.88 121.07 189.24 114.8 180.6 121.07 183.9 110.92 175.26 104.64 185.94 104.64 189.24 94.48"/>
      <polygon class="cls-2" points="252.6 94.48 255.9 104.64 266.58 104.64 257.94 110.92 261.24 121.07 252.6 114.8 243.96 121.07 247.26 110.92 238.62 104.64 249.3 104.64 252.6 94.48"/>
      <polygon class="cls-2" points="315.96 94.48 319.26 104.64 329.94 104.64 321.3 110.92 324.6 121.07 315.96 114.8 307.32 121.07 310.62 110.92 301.98 104.64 312.66 104.64 315.96 94.48"/>
    </g>
    <g>
      <polygon class="cls-2" points="30.84 67.64 34.14 77.8 44.82 77.8 36.18 84.08 39.48 94.23 30.84 87.96 22.2 94.23 25.5 84.08 16.86 77.8 27.54 77.8 30.84 67.64"/>
      <polygon class="cls-2" points="94.2 67.64 97.5 77.8 108.18 77.8 99.54 84.08 102.84 94.23 94.2 87.96 85.56 94.23 88.86 84.08 80.22 77.8 90.9 77.8 94.2 67.64"/>
      <polygon class="cls-2" points="157.56 67.64 160.86 77.8 171.54 77.8 162.9 84.08 166.2 94.23 157.56 87.96 148.92 94.23 152.22 84.08 143.58 77.8 154.26 77.8 157.56 67.64"/>
      <polygon class="cls-2" points="220.92 67.64 224.22 77.8 234.9 77.8 226.26 84.08 229.56 94.23 220.92 87.96 212.28 94.23 215.58 84.08 206.94 77.8 217.62 77.8 220.92 67.64"/>
      <polygon class="cls-2" points="284.28 67.64 287.58 77.8 298.26 77.8 289.62 84.08 292.92 94.23 284.28 87.96 275.64 94.23 278.94 84.08 270.3 77.8 280.98 77.8 284.28 67.64"/>
      <polygon class="cls-2" points="347.64 67.64 350.94 77.8 361.62 77.8 352.98 84.08 356.29 94.23 347.64 87.96 339 94.23 342.3 84.08 333.66 77.8 344.34 77.8 347.64 67.64"/>
    </g>
    <g>
      <polygon class="cls-2" points="62.52 148.16 65.82 158.32 76.5 158.32 67.86 164.59 71.16 174.75 62.52 168.47 53.88 174.75 57.18 164.59 48.54 158.32 59.22 158.32 62.52 148.16"/>
      <polygon class="cls-2" points="125.88 148.16 129.18 158.32 139.86 158.32 131.22 164.59 134.52 174.75 125.88 168.47 117.24 174.75 120.54 164.59 111.9 158.32 122.58 158.32 125.88 148.16"/>
      <polygon class="cls-2" points="189.24 148.16 192.54 158.32 203.22 158.32 194.58 164.59 197.88 174.75 189.24 168.47 180.6 174.75 183.9 164.59 175.26 158.32 185.94 158.32 189.24 148.16"/>
      <polygon class="cls-2" points="252.6 148.16 255.9 158.32 266.58 158.32 257.94 164.59 261.24 174.75 252.6 168.47 243.96 174.75 247.26 164.59 238.62 158.32 249.3 158.32 252.6 148.16"/>
      <polygon class="cls-2" points="315.96 148.16 319.26 158.32 329.94 158.32 321.3 164.59 324.6 174.75 315.96 168.47 307.32 174.75 310.62 164.59 301.98 158.32 312.66 158.32 315.96 148.16"/>
    </g>
    <g>
      <polygon class="cls-2" points="30.84 121.32 34.14 131.48 44.82 131.48 36.18 137.75 39.48 147.91 30.84 141.63 22.2 147.91 25.5 137.75 16.86 131.48 27.54 131.48 30.84 121.32"/>
      <polygon class="cls-2" points="94.2 121.32 97.5 131.48 108.18 131.48 99.54 137.75 102.84 147.91 94.2 141.63 85.56 147.91 88.86 137.75 80.22 131.48 90.9 131.48 94.2 121.32"/>
      <polygon class="cls-2" points="157.56 121.32 160.86 131.48 171.54 131.48 162.9 137.75 166.2 147.91 157.56 141.63 148.92 147.91 152.22 137.75 143.58 131.48 154.26 131.48 157.56 121.32"/>
      <polygon class="cls-2" points="220.92 121.32 224.22 131.48 234.9 131.48 226.26 137.75 229.56 147.91 220.92 141.63 212.28 147.91 215.58 137.75 206.94 131.48 217.62 131.48 220.92 121.32"/>
      <polygon class="cls-2" points="284.28 121.32 287.58 131.48 298.26 131.48 289.62 137.75 292.92 147.91 284.28 141.63 275.64 147.91 278.94 137.75 270.3 131.48 280.98 131.48 284.28 121.32"/>
      <polygon class="cls-2" points="347.64 121.32 350.94 131.48 361.62 131.48 352.98 137.75 356.29 147.91 347.64 141.63 339 147.91 342.3 137.75 333.66 131.48 344.34 131.48 347.64 121.32"/>
    </g>
    <g>
      <polygon class="cls-2" points="62.52 201.84 65.82 211.99 76.5 211.99 67.86 218.27 71.16 228.43 62.52 222.15 53.88 228.43 57.18 218.27 48.54 211.99 59.22 211.99 62.52 201.84"/>
      <polygon class="cls-2" points="125.88 201.84 129.18 211.99 139.86 211.99 131.22 218.27 134.52 228.43 125.88 222.15 117.24 228.43 120.54 218.27 111.9 211.99 122.58 211.99 125.88 201.84"/>
      <polygon class="cls-2" points="189.24 201.84 192.54 211.99 203.22 211.99 194.58 218.27 197.88 228.43 189.24 222.15 180.6 228.43 183.9 218.27 175.26 211.99 185.94 211.99 189.24 201.84"/>
      <polygon class="cls-2" points="252.6 201.84 255.9 211.99 266.58 211.99 257.94 218.27 261.24 228.43 252.6 222.15 243.96 228.43 247.26 218.27 238.62 211.99 249.3 211.99 252.6 201.84"/>
      <polygon class="cls-2" points="315.96 201.84 319.26 211.99 329.94 211.99 321.3 218.27 324.6 228.43 315.96 222.15 307.32 228.43 310.62 218.27 301.98 211.99 312.66 211.99 315.96 201.84"/>
    </g>
    <g>
      <polygon class="cls-2" points="30.84 175 34.14 185.16 44.82 185.16 36.18 191.43 39.48 201.59 30.84 195.31 22.2 201.59 25.5 191.43 16.86 185.16 27.54 185.16 30.84 175"/>
      <polygon class="cls-2" points="94.2 175 97.5 185.16 108.18 185.16 99.54 191.43 102.84 201.59 94.2 195.31 85.56 201.59 88.86 191.43 80.22 185.16 90.9 185.16 94.2 175"/>
      <polygon class="cls-2" points="157.56 175 160.86 185.16 171.54 185.16 162.9 191.43 166.2 201.59 157.56 195.31 148.92 201.59 152.22 191.43 143.58 185.16 154.26 185.16 157.56 175"/>
      <polygon class="cls-2" points="220.92 175 224.22 185.16 234.9 185.16 226.26 191.43 229.56 201.59 220.92 195.31 212.28 201.59 215.58 191.43 206.94 185.16 217.62 185.16 220.92 175"/>
      <polygon class="cls-2" points="284.28 175 287.58 185.16 298.26 185.16 289.62 191.43 292.92 201.59 284.28 195.31 275.64 201.59 278.94 191.43 270.3 185.16 280.98 185.16 284.28 175"/>
      <polygon class="cls-2" points="347.64 175 350.94 185.16 361.62 185.16 352.98 191.43 356.29 201.59 347.64 195.31 339 201.59 342.3 191.43 333.66 185.16 344.34 185.16 347.64 175"/>
    </g>
    <g>
      <polygon class="cls-2" points="30.84 228.68 34.14 238.83 44.82 238.83 36.18 245.11 39.48 255.27 30.84 248.99 22.2 255.27 25.5 245.11 16.86 238.83 27.54 238.83 30.84 228.68"/>
      <polygon class="cls-2" points="94.2 228.68 97.5 238.83 108.18 238.83 99.54 245.11 102.84 255.27 94.2 248.99 85.56 255.27 88.86 245.11 80.22 238.83 90.9 238.83 94.2 228.68"/>
      <polygon class="cls-2" points="157.56 228.68 160.86 238.83 171.54 238.83 162.9 245.11 166.2 255.27 157.56 248.99 148.92 255.27 152.22 245.11 143.58 238.83 154.26 238.83 157.56 228.68"/>
      <polygon class="cls-2" points="220.92 228.68 224.22 238.83 234.9 238.83 226.26 245.11 229.56 255.27 220.92 248.99 212.28 255.27 215.58 245.11 206.94 238.83 217.62 238.83 220.92 228.68"/>
      <polygon class="cls-2" points="284.28 228.68 287.58 238.83 298.26 238.83 289.62 245.11 292.92 255.27 284.28 248.99 275.64 255.27 278.94 245.11 270.3 238.83 280.98 238.83 284.28 228.68"/>
      <polygon class="cls-2" points="347.64 228.68 350.94 238.83 361.62 238.83 352.98 245.11 356.29 255.27 347.64 248.99 339 255.27 342.3 245.11 333.66 238.83 344.34 238.83 347.64 228.68"/>
    </g>
  </g>
</svg>