<?xml version="1.0" encoding="UTF-8"?>
<svg id="_Layer_" data-name="&amp;lt;Layer&amp;gt;" xmlns="http://www.w3.org/2000/svg" viewBox="0 0 500 500">
  <defs>
    <style>
      .cls-1 {
        fill: #e43424;
      }

      .cls-2 {
        fill: #3c872c;
      }

      .cls-3 {
        fill: #f1f1f2;
      }

      .cls-4 {
        fill: #eeeded;
      }

      .cls-5 {
        fill: #3980f6;
      }
    </style>
  </defs>
  <polygon class="cls-4" points="750.01 500 750.01 0 0 0 0 500 750.01 500 750.01 500"/>
  <polygon class="cls-5" points="0 160 750.01 160 750.01 0 0 0 0 160 0 160"/>
  <path class="cls-1" d="M0,340.01h750.01v-10.01H0v10.01h0ZM750.01,170.01v-10.01H0v10.01h750.01Z"/>
  <polygon class="cls-2" points="0 500 750.01 500 750.01 340.01 0 340.01 0 500 0 500"/>
  <path class="cls-3" d="M150,20.84c-3.25-.56-6.6-.83-10-.83-33.14,0-60.01,26.87-60.01,60.01s26.87,60.01,60.01,60.01c3.4,0,6.74-.3,10-.83-28.37-4.77-50-29.45-50-59.17s21.62-54.41,50-59.17h0ZM368.39,19.54l2.75,8.5,8.92-.02-7.23,5.24,2.77,8.47-7.21-5.25-7.21,5.25,2.78-8.47-7.23-5.24,8.92.02,2.74-8.5h0ZM176.29,115.73l2.74,8.5,8.92-.02-7.22,5.23,2.77,8.48-7.21-5.27-7.21,5.27,2.77-8.48-7.23-5.23,8.93.02,2.73-8.5h0ZM224.24,115.73l2.74,8.5,8.92-.02-7.24,5.23,2.79,8.48-7.22-5.27-7.21,5.27,2.78-8.48-7.24-5.23,8.93.02,2.73-8.5h0ZM271.92,115.73l2.75,8.5,8.91-.02-7.22,5.23,2.77,8.48-7.21-5.27-7.2,5.27,2.77-8.48-7.23-5.23,8.92.02,2.74-8.5h0ZM320.17,115.73l2.73,8.5,8.93-.02-7.23,5.23,2.77,8.48-7.2-5.27-7.22,5.27,2.77-8.48-7.22-5.23,8.92.02,2.75-8.5h0ZM368.39,115.73l2.75,8.5,8.92-.02-7.23,5.23,2.77,8.48-7.21-5.27-7.21,5.27,2.78-8.48-7.23-5.23,8.92.02,2.74-8.5h0ZM368.39,67.23l2.75,8.49,8.92-.02-7.23,5.23,2.77,8.48-7.21-5.25-7.21,5.25,2.78-8.48-7.23-5.23,8.92.02,2.74-8.49h0ZM320.17,67.23l2.73,8.49,8.93-.02-7.23,5.23,2.77,8.48-7.2-5.25-7.22,5.25,2.77-8.48-7.22-5.23,8.92.02,2.75-8.49h0ZM271.92,67.23l2.75,8.49,8.91-.02-7.22,5.23,2.77,8.48-7.21-5.25-7.2,5.25,2.77-8.48-7.23-5.23,8.92.02,2.74-8.49h0ZM224.24,67.23l2.74,8.49,8.92-.02-7.24,5.23,2.79,8.48-7.22-5.25-7.21,5.25,2.78-8.48-7.24-5.23,8.93.02,2.73-8.49h0ZM271.92,19.54l2.75,8.5,8.91-.02-7.22,5.24,2.77,8.47-7.21-5.25-7.2,5.25,2.77-8.47-7.23-5.24,8.92.02,2.74-8.5h0ZM320.17,19.54l2.73,8.5,8.93-.02-7.23,5.24,2.77,8.47-7.2-5.25-7.22,5.25,2.77-8.47-7.22-5.24,8.92.02,2.75-8.5h0Z"/>
</svg>